<?xml version="1.0" standalone="no"?>
<!DOCTYPE svg PUBLIC "-//W3C//DTD SVG 1.1//EN" "http://www.w3.org/Graphics/SVG/1.1/DTD/svg11.dtd" >
<svg>
<metadata>
Created by FontForge 20090622 at Mon Feb 15 02:49:21 2016
 By deploy user
Copyright (C) 2005 Emigre Inc.; Designed by Xavier Dupre. All rights reserved.
</metadata>
<defs>
<font id="VistaSansOT-LightItalic" horiz-adv-x="500" >
  <font-face 
    font-family="Vista Sans OT Light"
    font-weight="300"
    font-style="italic"
    font-stretch="normal"
    units-per-em="1000"
    panose-1="2 0 5 3 3 0 0 2 0 4"
    ascent="800"
    descent="-200"
    x-height="522"
    cap-height="674"
    bbox="-133 -217 1089 846"
    underline-thickness="20"
    underline-position="-113"
    slope="-10"
    unicode-range="U+0020-U+FB02"
  />
<missing-glyph 
 />
    <glyph glyph-name="fi" unicode="fi" horiz-adv-x="585" 
d="M519 522l-92 -522h-53l84 477h-243l-84 -477h-53l84 477h-66l8 45h66l14 79q25 143 158 143q16 0 38 -3q-1 -21 -11 -50q-16 3 -43 3q-73 0 -89 -91l-14 -81h296zM555 681q0 -20 -11 -32t-27 -12q-33 0 -33 31q0 20 11 32t27 12q33 0 33 -31z" />
    <glyph glyph-name="fl" unicode="fl" horiz-adv-x="597" 
d="M570 728l-128 -728h-53l121 687q-54 10 -132 10q-71 0 -101.5 -22.5t-39.5 -71.5l-14 -81h119q-4 -20 -13 -45h-114l-84 -477h-53l84 477h-66l8 45h66l14 79q12 73 60.5 108t146.5 35q99 0 179 -16z" />
    <glyph glyph-name=".notdef" 
 />
    <glyph glyph-name=".null" horiz-adv-x="0" 
 />
    <glyph glyph-name="nonmarkingreturn" horiz-adv-x="333" 
 />
    <glyph glyph-name="space" unicode=" " horiz-adv-x="204" 
 />
    <glyph glyph-name="exclam" unicode="!" horiz-adv-x="240" 
d="M207 674q-44 -262 -93 -492q-18 -6 -42 -6q33 246 80 498h55zM100 32q0 -20 -10.5 -32t-26.5 -12q-32 0 -32 31q0 20 10.5 31.5t26.5 11.5q32 0 32 -30z" />
    <glyph glyph-name="quotedbl" unicode="&#x22;" horiz-adv-x="293" 
d="M186 713l-60 -258q-17 -5 -36 -5l34 263h62zM317 713l-60 -258q-18 -5 -36 -5l34 263h62z" />
    <glyph glyph-name="numbersign" unicode="#" 
d="M502 494q-4 -21 -13 -44h-103l-74 -213h103q-4 -22 -13 -44h-105l-66 -193h-44l66 193h-106l-66 -193h-44l67 193h-103q5 25 15 44h103l73 213h-104q5 26 15 44h105l62 180h44l-62 -180h105l63 180h44l-63 -180h101zM342 450h-106l-73 -213h106z" />
    <glyph glyph-name="dollar" unicode="$" 
d="M457 612q-1 -22 -10 -48q-63 14 -131 14q-91 0 -132 -25t-41 -77q0 -35 29 -56.5t70.5 -34.5t83.5 -29t71 -50.5t29 -87.5q0 -70 -54.5 -114.5t-153.5 -46.5l-6 -57h-53l14 57q-80 0 -144 26q3 27 15 47q69 -28 160 -28q169 0 169 116q0 40 -29 65.5t-70.5 39.5
l-83.5 28.5t-71 44t-29 74.5q0 69 58.5 109.5t148.5 42.5l6 52h54l-12 -51q54 0 112 -11z" />
    <glyph glyph-name="percent" unicode="%" horiz-adv-x="798" 
d="M373 547q0 -103 -46 -173t-130 -70q-64 0 -99.5 36.5t-35.5 104.5q0 103 50.5 171t129.5 68q63 0 97 -35.5t34 -101.5zM325 547q0 97 -84 97q-98 0 -125 -150q-5 -32 -5 -52q0 -98 86 -98q52 0 81 37.5t42 112.5q5 32 5 53zM616 671l-388 -679q-26 3 -43 15l384 671
q26 0 47 -7zM736 232q0 -103 -46 -173t-130 -70q-64 0 -99.5 36.5t-35.5 104.5q0 103 50.5 171t129.5 68q63 0 97 -35.5t34 -101.5zM688 232q0 97 -84 97q-98 0 -125 -150q-5 -32 -5 -52q0 -98 86 -98q52 0 81 37.5t42 112.5q5 32 5 53z" />
    <glyph glyph-name="ampersand" unicode="&#x26;" horiz-adv-x="637" 
d="M577 267q0 -19 -3 -34q-91 -89 -117 -112l80 -120q-32 -9 -53 -9l-68 98q-68 -55 -119.5 -77.5t-108.5 -22.5q-79 0 -120 42.5t-41 116.5q0 81 42.5 131t154.5 104q-32 64 -32 117q0 84 47 133.5t125 49.5q60 0 95 -31t35 -86q0 -70 -45.5 -113t-154.5 -90q1 -1 27 -40.5
l58.5 -88l52.5 -76.5q32 28 142 142q3 -13 3 -34zM391 128l-84.5 123t-62.5 94q-100 -49 -131.5 -86t-31.5 -107q0 -59 28 -86t85 -27q42 0 86.5 18t110.5 71zM444 568q0 71 -85 71q-53 0 -83.5 -34.5t-30.5 -97.5q0 -48 28 -105q101 43 136 78t35 88z" />
    <glyph glyph-name="quotesingle" unicode="'" horiz-adv-x="162" 
d="M186 713l-60 -258q-17 -5 -36 -5l34 263h62z" />
    <glyph glyph-name="parenleft" unicode="(" horiz-adv-x="247" 
d="M293 733q-104 -144 -153.5 -302.5t-49.5 -311.5t49 -283q-20 -11 -48 -11q-54 135 -54 303q0 160 53 319.5t155 296.5q31 0 48 -11z" />
    <glyph glyph-name="parenright" unicode=")" horiz-adv-x="247" 
d="M211 441q0 -160 -53 -319.5t-155 -296.5q-31 0 -48 11q104 144 153.5 302.5t49.5 311.5t-49 283q20 11 48 11q54 -135 54 -303z" />
    <glyph glyph-name="asterisk" unicode="*" horiz-adv-x="406" 
d="M431 513l-180 -35l88 -131q-17 -19 -54 -38l-61 154l-117 -147q-36 16 -51 32l147 134l-155 38q0 30 16 60l153 -71l16 170q19 5 63 5l-49 -176l164 64q15 -28 20 -59z" />
    <glyph glyph-name="plus" unicode="+" horiz-adv-x="498" 
d="M458 295l-8 -45h-182l-36 -205h-48l36 205h-182l8 45h182l37 205h48l-37 -205h182z" />
    <glyph glyph-name="comma" unicode="," horiz-adv-x="200" 
d="M108 113q0 -15 -6 -54q-10 -58 -45.5 -109.5t-110.5 -122.5l-30 26q78 77 106.5 120.5t37.5 104.5l5 35h43z" />
    <glyph glyph-name="hyphen" unicode="-" horiz-adv-x="250" 
d="M219 327l-9 -49h-180l9 49h180z" />
    <glyph glyph-name="period" unicode="." horiz-adv-x="200" 
d="M96 32q0 -20 -10.5 -32t-26.5 -12q-32 0 -32 31q0 20 10.5 31.5t26.5 11.5q32 0 32 -30z" />
    <glyph glyph-name="slash" unicode="/" horiz-adv-x="361" 
d="M416 671l-451 -785q-27 7 -42 18l447 780q20 0 46 -13z" />
    <glyph glyph-name="zero" unicode="0" 
d="M463 356q0 -42 -9 -91q-46 -275 -247 -275q-170 0 -170 201q0 41 9 90q48 274 248 274q169 0 169 -199zM412 364q0 146 -120 146q-80 0 -126.5 -57t-67.5 -174q-10 -51 -10 -96q0 -148 120 -148q79 0 124.5 54.5t69.5 177.5q10 51 10 97z" />
    <glyph glyph-name="one" unicode="1" 
d="M430 47q-6 -29 -14 -47h-390l9 47h196l79 449l-189 -31q-2 14 -2 24q0 15 3 25l196 31h52l-87 -498h147z" />
    <glyph glyph-name="two" unicode="2" 
d="M406 402q0 -90 -73.5 -172t-243.5 -183h302q-5 -25 -15 -47h-371l5 47q197 122 270 195.5t73 160.5q0 51 -32.5 77.5t-84.5 26.5q-76 0 -133 -26q-3 13 -3 31q0 9 2 21q63 22 136 22q79 0 123.5 -39t44.5 -114z" />
    <glyph glyph-name="three" unicode="3" 
d="M424 392q0 -67 -33 -112t-89 -61v-5q34 -15 55.5 -50.5t21.5 -80.5q0 -107 -67.5 -164.5t-179.5 -57.5q-92 0 -148 27q2 30 13 50q54 -29 140 -29t137 45t51 129q0 110 -120 110h-109l8 47h109q74 0 115.5 40.5t41.5 111.5q0 55 -35 85.5t-100 30.5q-69 0 -124 -21
q-4 14 -4 28q0 9 2 21q51 19 126 19q90 0 139.5 -43t49.5 -120z" />
    <glyph glyph-name="four" unicode="4" 
d="M442 83q-5 -24 -15 -47h-73l-29 -165h-50l29 165h-297l9 49q185 299 305 470q26 0 44 -12l-297 -460h245l39 223h50l-39 -223h79z" />
    <glyph glyph-name="five" unicode="5" 
d="M483 545q-2 -24 -11 -46h-264l-65 -243q265 -2 265 -185q0 -102 -69 -156t-177 -54q-77 0 -135 25q5 27 15 48q54 -25 123 -25q90 0 141 40.5t51 121.5q0 72 -54 105t-167 33q-24 0 -49 -1q43 189 89 337h307z" />
    <glyph glyph-name="six" unicode="6" 
d="M483 670q0 -25 -8 -47q-39 16 -100 16q-96 0 -158.5 -70.5t-91.5 -224.5h3q62 79 155 79q72 0 115 -42.5t43 -128.5q0 -114 -55 -188t-154 -74q-170 0 -170 215q0 50 9 110q55 369 305 369q69 0 107 -14zM388 258q0 60 -30.5 91t-84.5 31q-77 0 -119 -59t-42 -156
q0 -65 32 -98t91 -33q72 0 112.5 59.5t40.5 164.5z" />
    <glyph glyph-name="seven" unicode="7" 
d="M479 545l-3 -44q-198 -299 -448 -636q-28 2 -46 12l439 622h-329q0 26 4 46h383z" />
    <glyph glyph-name="eight" unicode="8" 
d="M474 538q0 -126 -153 -190q102 -50 102 -158q0 -89 -58 -144.5t-151 -55.5q-74 0 -121 38.5t-47 118.5q0 139 156 205q-85 55 -85 147q0 88 54 136.5t139 48.5q75 0 119.5 -37t44.5 -109zM422 538q0 47 -29 74t-84 27q-67 0 -103.5 -39t-36.5 -101q0 -44 23 -74t80 -55
q150 56 150 168zM371 190q0 94 -120 140q-153 -48 -153 -183q0 -112 121 -112q71 0 111.5 42.5t40.5 112.5z" />
    <glyph glyph-name="nine" unicode="9" 
d="M442 340q0 -50 -9 -110q-55 -369 -305 -369q-69 0 -107 14q0 25 8 47q39 -16 100 -16q96 0 158.5 70.5t91.5 224.5h-3q-62 -79 -155 -79q-72 0 -115 42.5t-43 128.5q0 114 55 188t154 74q170 0 170 -215zM392 380q0 65 -32 98t-91 33q-72 0 -112.5 -59.5t-40.5 -164.5
q0 -60 30.5 -91t84.5 -31q77 0 119 59t42 156z" />
    <glyph glyph-name="colon" unicode=":" horiz-adv-x="200" 
d="M92 32q0 -20 -10.5 -32t-26.5 -12q-32 0 -32 31q0 20 10.5 31.5t26.5 11.5q32 0 32 -30zM167 454q0 -20 -10.5 -32t-26.5 -12q-32 0 -32 31q0 20 10.5 31.5t26.5 11.5q32 0 32 -30z" />
    <glyph glyph-name="semicolon" unicode=";" horiz-adv-x="200" 
d="M166 454q0 -20 -10.5 -32t-26.5 -12q-32 0 -32 31q0 20 10.5 31.5t26.5 11.5q32 0 32 -30zM106 113q0 -15 -6 -54q-10 -58 -45.5 -109.5t-110.5 -122.5l-30 26q78 77 106.5 120.5t37.5 104.5l5 35h43z" />
    <glyph glyph-name="less" unicode="&#x3c;" horiz-adv-x="375" 
d="M347 494l-237 -218l159 -226v-5h-56l-167 236l241 219h60v-6z" />
    <glyph glyph-name="equal" unicode="=" horiz-adv-x="489" 
d="M433 352h-353l8 45h353zM400 162h-353l8 45h353z" />
    <glyph glyph-name="greater" unicode="&#x3e;" horiz-adv-x="375" 
d="M328 264l-241 -219h-60v6l237 218l-159 226v5h56z" />
    <glyph glyph-name="question" unicode="?" horiz-adv-x="412" 
d="M423 526q0 -79 -59.5 -136t-192.5 -99l-20 -109q-19 -6 -43 -6q2 77 15 149q128 36 187.5 80.5t59.5 120.5q0 109 -138 109q-48 0 -98 -12q-5 13 -5 32q0 12 2 18q46 11 106 11q88 0 137 -40.5t49 -117.5zM146 32q0 -20 -10.5 -32t-26.5 -12q-32 0 -32 31q0 20 10.5 31.5
t26.5 11.5q32 0 32 -30z" />
    <glyph glyph-name="at" unicode="@" horiz-adv-x="848" 
d="M793 392q0 -130 -56 -218.5t-143 -88.5q-70 0 -86 49h-2q-67 -49 -148 -49q-52 0 -82.5 29t-30.5 77q0 13 1 19q7 62 47.5 88.5t113.5 29.5l127 5l23 130q-33 20 -101 20q-69 0 -110 -18q-3 9 -3 27q0 12 1 16q51 16 112 16q89 0 149 -35l-55 -312q-2 -12 -2 -18
q0 -36 47 -36q57 0 105 71t48 200q0 118 -74.5 181.5t-199.5 63.5q-172 0 -266.5 -106.5t-94.5 -302.5q0 -121 61 -188t176 -67q31 0 77 7.5t72 16.5q2 -12 2 -22q0 -15 -3 -26q-61 -21 -151 -21q-127 0 -205 78.5t-78 218.5q0 115 32.5 204t89.5 143.5t130 82t160 27.5
q145 0 231 -74.5t86 -217.5zM527 294l-125 -5q-56 -2 -80 -18t-29 -58q-1 -6 -1 -16q0 -71 75 -71q76 0 139 48z" />
    <glyph glyph-name="A" unicode="A" horiz-adv-x="556" 
d="M504 5q-19 -8 -52 -10l-40 236h-262l-122 -236q-35 2 -51 10q153 313 354 669h54q62 -309 119 -669zM404 277l-53 307q-1 6 -1 15q0 10 1 25h-5q-5 -27 -12 -40l-160 -307h230z" />
    <glyph glyph-name="B" unicode="B" horiz-adv-x="578" 
d="M536 526q0 -62 -34.5 -109t-90.5 -62v-5q95 -36 95 -141q0 -111 -74 -164.5t-189 -53.5q-79 0 -180 14l117 662q90 14 168 14q86 0 137 -38.5t51 -116.5zM479 524q0 111 -129 111q-53 0 -123 -7l-46 -258h135q74 0 118.5 38.5t44.5 115.5zM447 209q0 116 -130 116h-143
l-49 -277q72 -9 120 -9q202 0 202 170z" />
    <glyph glyph-name="C" unicode="C" horiz-adv-x="572" 
d="M569 650q-6 -29 -17 -53q-29 16 -75.5 26t-86.5 10q-105 0 -165 -68.5t-85 -229.5q-10 -67 -10 -109q0 -97 43 -141t134 -44q94 0 167 42q6 -26 8 -56q-73 -37 -177 -37q-112 0 -173 60.5t-61 186.5q0 57 9 108q56 339 316 339q110 0 173 -34z" />
    <glyph glyph-name="D" unicode="D" horiz-adv-x="686" 
d="M638 430q0 -215 -95 -327t-257 -112q-117 0 -223 14l117 662q97 14 201 14q117 0 187 -63t70 -188zM579 427q0 206 -207 206q-67 0 -143 -8l-102 -577q77 -9 154 -9q138 0 218 98t80 290z" />
    <glyph glyph-name="E" unicode="E" horiz-adv-x="548" 
d="M541 674q-3 -27 -12 -50h-300l-43 -242h232l-8 -50h-232l-50 -282h319q-2 -28 -12 -50h-373l119 674h360z" />
    <glyph glyph-name="F" unicode="F" horiz-adv-x="517" 
d="M548 674q-3 -27 -12 -50h-307l-44 -254h250l-9 -50h-250l-57 -320h-57l119 674h367z" />
    <glyph glyph-name="G" unicode="G" horiz-adv-x="645" 
d="M598 653q-6 -32 -18 -54q-30 15 -79 24.5t-86 9.5q-123 0 -185 -62t-90 -236q-10 -63 -10 -109q0 -105 47 -145t148 -40q73 0 138 28l36 209h-155q-2 14 -2 23q0 16 3 28h220l-52 -296q-38 -18 -95 -30.5t-103 -12.5q-129 0 -186.5 63t-57.5 184q0 53 9 108
q30 181 112.5 260t221.5 79q110 0 184 -31z" />
    <glyph glyph-name="H" unicode="H" horiz-adv-x="680" 
d="M641 674l-119 -674h-57l59 335h-346l-59 -335h-57l119 674h57l-51 -289h346l51 289h57z" />
    <glyph glyph-name="I" unicode="I" horiz-adv-x="277" 
d="M238 674l-119 -674h-57l119 674h57z" />
    <glyph glyph-name="J" unicode="J" horiz-adv-x="289" 
d="M250 674l-113 -645q-17 -96 -59 -135.5t-126 -47.5q-4 12 -4 29q0 16 3 28q56 0 86.5 30t41.5 94l114 647h57z" />
    <glyph glyph-name="K" unicode="K" horiz-adv-x="592" 
d="M620 669l-293 -276q89 -167 190 -389q-24 -8 -55 -8l-175 359l-128 -120l-41 -235h-56l119 674h56l-65 -368h3q56 63 154 156l228 217q36 0 63 -10z" />
    <glyph glyph-name="L" unicode="L" horiz-adv-x="465" 
d="M424 50q-5 -25 -16 -50h-346l119 674h57l-110 -624h296z" />
    <glyph glyph-name="M" unicode="M" horiz-adv-x="830" 
d="M754 674q-28 -413 -56 -674h-52l49 551q0 5 7 55h-5q-11 -42 -18 -55l-280 -551h-51l-83 551q-2 12 -2 55h-5q-5 -39 -9 -55l-150 -554q-33 0 -51 6q72 284 185 671h64l82 -541q2 -15 2 -71h5q13 45 27 72l275 540h66z" />
    <glyph glyph-name="N" unicode="N" horiz-adv-x="681" 
d="M642 674l-118 -671q-24 -8 -49 -8l-237 554q-10 22 -17 56l-5 -1q-2 -44 -5 -65l-95 -539h-54l118 668q29 8 59 8l224 -522q11 -25 22 -70l5 1q2 40 8 77l90 512h54z" />
    <glyph glyph-name="O" unicode="O" horiz-adv-x="659" 
d="M611 436q0 -77 -24 -176q-32 -132 -104.5 -201t-178.5 -69q-116 0 -174.5 63.5t-58.5 184.5q0 77 24 176q32 132 104.5 201t178.5 69q116 0 174.5 -63.5t58.5 -184.5zM552 436q0 102 -43.5 149.5t-130.5 47.5q-90 0 -140 -51.5t-82 -167.5q-26 -95 -26 -176
q0 -102 43.5 -149.5t130.5 -47.5q90 0 140 51.5t82 167.5q26 95 26 176z" />
    <glyph glyph-name="P" unicode="P" horiz-adv-x="553" 
d="M539 507q0 -111 -77 -172t-190 -61h-105l-48 -274h-57l118 667q90 14 165 14q194 0 194 -174zM481 511q0 123 -138 123q-55 0 -114 -8l-54 -304h93q95 0 154 45.5t59 143.5z" />
    <glyph glyph-name="Q" unicode="Q" horiz-adv-x="659" 
d="M611 436q0 -77 -24 -176q-32 -132 -105 -200t-182 -68q-4 -24 -4 -45q0 -44 24.5 -64.5t78.5 -20.5q49 0 89 14q3 -13 3 -31q0 -13 -1 -19q-42 -14 -92 -14q-157 0 -157 128q0 28 6 57q-176 29 -176 241q0 77 24 176q32 132 104.5 201t178.5 69q116 0 174.5 -63.5
t58.5 -184.5zM552 436q0 102 -43.5 149.5t-130.5 47.5q-90 0 -140 -51.5t-82 -167.5q-26 -95 -26 -176q0 -102 43.5 -149.5t130.5 -47.5q90 0 140 51.5t82 167.5q26 95 26 176z" />
    <glyph glyph-name="R" unicode="R" horiz-adv-x="588" 
d="M532 518q0 -82 -48 -139t-134 -70q57 -50 97 -161l52 -142q-23 -8 -59 -10l-41 117q-45 127 -99 181h-130l-52 -294h-56l117 667q89 14 161 14q192 0 192 -163zM474 518q0 63 -34.5 89.5t-102.5 26.5q-45 0 -109 -8l-50 -283h102q91 0 142.5 46t51.5 129z" />
    <glyph glyph-name="S" unicode="S" horiz-adv-x="510" 
d="M486 670q-3 -30 -15 -55q-54 18 -138 18q-88 0 -125.5 -32.5t-37.5 -92.5q0 -39 27.5 -69t67 -51.5t79 -46t67 -65t27.5 -95.5q0 -79 -62 -135t-167 -56q-111 0 -174 31q7 34 18 52q68 -32 159 -32q85 0 127 36t42 100q0 46 -27.5 80.5t-67 56.5l-79 44t-67 58t-27.5 84
q0 87 66.5 135.5t169.5 48.5q84 0 137 -14z" />
    <glyph glyph-name="T" unicode="T" horiz-adv-x="487" 
d="M545 674q-5 -27 -16 -50h-189l-110 -624h-57l110 624h-190l9 50h443z" />
    <glyph glyph-name="U" unicode="U" horiz-adv-x="667" 
d="M629 674l-73 -413q-12 -68 -28 -114t-44.5 -83.5t-74 -55.5t-109.5 -18q-98 0 -150.5 43t-52.5 142q0 42 13 113l68 386h57l-71 -399q-11 -66 -11 -100q0 -68 35.5 -101.5t114.5 -33.5q86 0 132.5 47.5t65.5 158.5l76 428h52z" />
    <glyph glyph-name="V" unicode="V" horiz-adv-x="577" 
d="M619 670q-173 -370 -342 -670h-54q-68 335 -107 670q24 6 51 6l84 -572q5 -40 5 -54h5q9 32 20 54l288 572q24 0 50 -6z" />
    <glyph glyph-name="W" unicode="W" horiz-adv-x="888" 
d="M913 670q-123 -319 -288 -670h-58l-54 533q-2 20 -2 72h-5q-8 -41 -23 -73l-246 -532h-58q-21 199 -34 413q-10 177 -12 257q28 6 50 6l31 -556q2 -40 2 -63h5q9 42 19 63l258 554h50l55 -554q2 -16 2 -63h5q8 37 19 63l234 556q32 0 50 -6z" />
    <glyph glyph-name="X" unicode="X" horiz-adv-x="581" 
d="M614 670l-263 -322l156 -344q-23 -8 -55 -8l-125 279q-6 13 -13 40h-4q-11 -18 -28 -40l-224 -279q-39 0 -59 8l284 345l-158 321q25 5 61 5l122 -260q7 -15 11 -36h4q10 18 25 37l204 259q35 0 62 -5z" />
    <glyph glyph-name="Y" unicode="Y" horiz-adv-x="549" 
d="M602 670q-140 -211 -290 -407l-46 -263h-57l46 263q-74 176 -142 407q21 5 56 5l106 -320q7 -19 13 -47h3q16 28 30 49l222 318q39 0 59 -5z" />
    <glyph glyph-name="Z" unicode="Z" horiz-adv-x="540" 
d="M552 674l-2 -46l-482 -578h386q-2 -28 -13 -50h-444l3 51l478 573h-360q0 28 5 50h429z" />
    <glyph glyph-name="bracketleft" unicode="[" horiz-adv-x="353" 
d="M373 735q0 -26 -11 -51h-118l-143 -808h114q1 -4 1 -14q0 -19 -5 -37h-172l161 910h173z" />
    <glyph glyph-name="backslash" unicode="\" horiz-adv-x="361" 
d="M303 -96q-17 -11 -48 -18l-174 785q30 13 50 13z" />
    <glyph glyph-name="bracketright" unicode="]" horiz-adv-x="353" 
d="M304 735l-161 -910h-173q0 26 11 51h118l143 808h-114q-1 4 -1 14q0 19 5 37h172z" />
    <glyph glyph-name="asciicircum" unicode="^" horiz-adv-x="492" 
d="M429 363q-18 -6 -47 -6l-70 276l-173 -276q-30 0 -47 5q40 71 100.5 166.5t97.5 145.5h55q36 -101 84 -311z" />
    <glyph glyph-name="underscore" unicode="_" 
d="M439 -139h-510l9 46h516q-6 -27 -15 -46z" />
    <glyph glyph-name="grave" unicode="`" 
d="M308 578q-14 -6 -36 -6q-57 84 -74 159h48z" />
    <glyph glyph-name="a" unicode="a" horiz-adv-x="526" 
d="M460 41l-2 -14q-7 -37 -50 -37q-65 0 -83 56h-3q-72 -56 -162 -56q-61 0 -96 32t-35 90q0 16 1 24q10 80 60 111t149 35l123 5l31 173q-38 24 -115 24q-76 0 -129 -20q-2 12 -2 22q0 17 3 29q60 17 130 17q48 0 95.5 -11.5t73.5 -31.5l-72 -410q-1 -6 -1 -13
q0 -25 29 -25h55zM355 244l-128 -5q-68 -2 -101 -25t-40 -76q-1 -8 -1 -21q0 -40 19.5 -59.5t63.5 -19.5q92 0 160 57z" />
    <glyph glyph-name="b" unicode="b" horiz-adv-x="570" 
d="M505 346q0 -52 -7 -92q-22 -135 -84.5 -199.5t-167.5 -64.5q-104 0 -177 51l123 697q24 6 54 6l-46 -261h4q62 49 137 49q70 0 117 -48t47 -138zM451 345q0 137 -123 137q-75 0 -138 -54l-63 -360q19 -13 56.5 -21t66.5 -8q158 0 192 210q9 61 9 96z" />
    <glyph glyph-name="c" unicode="c" horiz-adv-x="479" 
d="M447 509q-3 -27 -12 -51q-51 24 -131 24q-151 0 -181 -216q-5 -38 -5 -73q0 -80 34.5 -116.5t103.5 -36.5q72 0 124 31q9 -25 12 -48q-55 -33 -136 -33q-95 0 -144 53t-49 155q0 34 6 75q40 259 247 259q78 0 131 -23z" />
    <glyph glyph-name="d" unicode="d" horiz-adv-x="572" 
d="M377 90l65 371q-56 22 -127 22q-61 0 -110 -38.5t-70 -128.5q-18 -79 -18 -139q0 -71 33.5 -104t88.5 -33q75 0 138 50zM545 744l-131 -744h-53l7 39h-3q-62 -49 -138 -49q-72 0 -118 48.5t-46 137.5q0 73 18 147q53 209 240 209q76 0 130 -22l40 228q24 6 54 6z" />
    <glyph glyph-name="e" unicode="e" horiz-adv-x="516" 
d="M467 379q0 -44 -18 -116h-326q-6 -40 -6 -71q0 -152 139 -152q74 0 130 34q11 -22 13 -48q-61 -36 -143 -36q-95 0 -144 53t-49 155q0 33 6 74q20 138 84 199t154 61q73 0 116.5 -40t43.5 -113zM416 378q0 107 -113 107q-136 0 -172 -179h274q11 38 11 72z" />
    <glyph glyph-name="f" unicode="f" horiz-adv-x="335" 
d="M380 741q-1 -21 -11 -50q-20 3 -43 3q-73 0 -89 -91l-14 -81h119q-4 -20 -13 -45h-114l-84 -477h-53l84 477h-66l8 45h66l14 79q25 143 158 143q22 0 38 -3z" />
    <glyph glyph-name="g" unicode="g" horiz-adv-x="542" 
d="M531 522q-2 -20 -10 -40l-97 -3v-4q34 -39 34 -97q0 -94 -53.5 -144t-132.5 -50q-50 0 -81 18q-59 -80 -59 -102q0 -25 31 -25h146q130 0 130 -118q0 -78 -59 -125.5t-163 -47.5q-103 0 -148 32t-45 93q0 69 75 135q-22 25 -22 63q18 38 79 117q-45 40 -45 113
q0 95 53.5 145t132.5 50q43 0 76 -10h158zM385 -51q0 40 -18.5 57t-60.5 17h-178q-52 -51 -52 -107q0 -84 145 -84q75 0 119.5 31t44.5 86zM405 378q0 51 -28.5 80t-79.5 29q-60 0 -96.5 -38t-36.5 -112q0 -51 27.5 -79.5t80.5 -28.5q60 0 96.5 37.5t36.5 111.5z" />
    <glyph glyph-name="h" unicode="h" horiz-adv-x="587" 
d="M503 410q0 -17 -4 -39l-65 -371h-53l67 381q2 10 2 25q0 75 -95 75q-88 0 -165 -55l-75 -426h-53l130 738q26 6 54 6l-47 -266h3q73 54 161 54q61 0 100.5 -29t39.5 -93z" />
    <glyph glyph-name="i" unicode="i" horiz-adv-x="273" 
d="M243 681q0 -20 -11 -32t-27 -12q-33 0 -33 31q0 20 11 32t27 12q33 0 33 -31zM207 522l-92 -522h-53l92 522h53z" />
    <glyph glyph-name="j" unicode="j" horiz-adv-x="273" 
d="M207 522l-101 -571q-13 -76 -52.5 -118t-113.5 -49q-7 24 -7 51q55 4 83 32.5t37 82.5l101 572h53zM243 681q0 -20 -11 -32t-27 -12q-33 0 -33 31q0 20 11 32t27 12q33 0 33 -31z" />
    <glyph glyph-name="k" unicode="k" horiz-adv-x="512" 
d="M507 518l-225 -206q70 -145 138 -308q-24 -8 -52 -8l-125 280l-94 -86l-34 -190h-53l130 738q26 6 54 6l-85 -486h3q71 74 161 157l121 111q40 0 61 -8z" />
    <glyph glyph-name="l" unicode="l" horiz-adv-x="273" 
d="M246 744l-131 -744h-53l130 738q26 6 54 6z" />
    <glyph glyph-name="m" unicode="m" horiz-adv-x="855" 
d="M771 413q0 -16 -4 -42l-65 -371h-53l67 381q2 14 2 25q0 75 -85 75q-43 0 -75.5 -12.5t-74.5 -42.5l-75 -426h-53l67 381q3 18 3 27q0 73 -83 73q-80 0 -152 -55l-75 -426h-53l91 519q22 5 54 5l-8 -46h3q72 54 155 54q88 0 109 -68q85 68 178 68q55 0 91 -29t36 -90z
" />
    <glyph glyph-name="n" unicode="n" horiz-adv-x="583" 
d="M499 410q0 -19 -4 -39l-65 -371h-53l67 381q2 10 2 24q0 76 -91 76q-89 0 -165 -55l-75 -426h-53l91 519q22 5 54 5l-8 -46h3q73 54 161 54q58 0 97 -29.5t39 -92.5z" />
    <glyph glyph-name="o" unicode="o" horiz-adv-x="565" 
d="M500 326q0 -41 -6 -76q-23 -135 -83.5 -197.5t-157.5 -62.5q-87 0 -138.5 51t-51.5 153q0 43 6 79q25 135 85 197t156 62q85 0 137.5 -50.5t52.5 -155.5zM445 332q0 151 -135 151q-72 0 -118 -45.5t-68 -172.5q-6 -36 -6 -79q0 -76 36.5 -111.5t98.5 -35.5q76 0 120 48
t66 171q6 35 6 74z" />
    <glyph glyph-name="p" unicode="p" horiz-adv-x="570" 
d="M505 346q0 -45 -7 -92q-43 -264 -252 -264q-75 0 -129 25l-39 -221h-53l128 725q22 5 54 5l-7 -41h4q62 49 137 49t119.5 -50.5t44.5 -135.5zM451 345q0 137 -123 137q-74 0 -138 -54l-63 -363q54 -26 124 -26q157 0 191 210q9 54 9 96z" />
    <glyph glyph-name="q" unicode="q" horiz-adv-x="567" 
d="M500 489l-123 -695h-53l44 245h-3q-60 -49 -138 -49q-73 0 -118.5 49t-45.5 137q0 74 17 141q29 111 88.5 163t159.5 52q94 0 172 -43zM442 459q-52 24 -120 24q-148 0 -188 -173q-17 -68 -17 -129q0 -141 122 -141q77 0 138 50z" />
    <glyph glyph-name="r" unicode="r" horiz-adv-x="366" 
d="M382 527q-3 -27 -10 -53q-17 5 -43 5q-74 0 -143 -72l-71 -407h-53l91 519q22 5 54 5l-10 -58h3q62 66 139 66q31 0 43 -5z" />
    <glyph glyph-name="s" unicode="s" horiz-adv-x="444" 
d="M399 517q-1 -19 -12 -51q-48 17 -111 17q-131 0 -131 -93q0 -30 21.5 -53t52.5 -39.5t62 -35.5t52.5 -50t21.5 -73q0 -73 -53 -111t-137 -38q-92 0 -142 30q8 33 17 48q52 -29 133 -29q128 0 128 94q0 33 -21.5 57.5t-52.5 41.5l-62 35t-52.5 47.5t-21.5 69.5
q0 71 52.5 109.5t141.5 38.5q65 0 114 -15z" />
    <glyph glyph-name="t" unicode="t" horiz-adv-x="369" 
d="M346 522q-3 -22 -12 -45h-125l-60 -340q-3 -18 -3 -37q0 -32 14.5 -46.5t47.5 -14.5q40 0 77 16q3 -15 3 -32q0 -11 -1 -19q-34 -14 -82 -14q-112 0 -112 104q0 22 5 50l58 333h-65l8 45h65l21 116q24 10 55 10l-23 -126h129z" />
    <glyph glyph-name="u" unicode="u" horiz-adv-x="578" 
d="M514 524l-93 -524h-53l9 45h-3q-75 -55 -157 -55q-57 0 -96.5 29.5t-39.5 92.5q0 17 4 39l65 368q22 5 54 5l-68 -383q-2 -12 -2 -24q0 -76 91 -76q80 0 160 54l75 424q20 5 54 5z" />
    <glyph glyph-name="v" unicode="v" horiz-adv-x="493" 
d="M502 519q-115 -237 -277 -519h-55q-59 280 -91 519q16 5 50 5l71 -416q5 -27 5 -60h3q10 31 26 62l216 414q36 0 52 -5z" />
    <glyph glyph-name="w" unicode="w" horiz-adv-x="770" 
d="M771 519q-103 -269 -229 -519h-53l-63 395q-2 12 -2 40v27h-3q-14 -44 -26 -68l-200 -394h-54q-20 145 -32 310q-8 115 -11 209q15 5 48 5l27 -390q2 -26 2 -82h3q14 42 30 74l198 396h50l63 -398q4 -24 4 -72h3q9 32 28 74l166 398q35 0 51 -5z" />
    <glyph glyph-name="x" unicode="x" horiz-adv-x="488" 
d="M484 519l-210 -251l131 -264q-22 -8 -56 -8l-97 208q-6 15 -10 32h-3q-11 -16 -25 -33l-166 -207q-40 0 -58 8l222 268l-120 247q22 6 56 6l86 -189q6 -16 11 -33h3q7 11 25 33l152 189q37 0 59 -6z" />
    <glyph glyph-name="y" unicode="y" horiz-adv-x="496" 
d="M524 519l-278 -525q-65 -123 -112.5 -166.5t-114.5 -43.5q-42 0 -80 19q8 29 18 48q28 -16 70 -16q66 0 114 80l52 86q-61 271 -92 518q20 6 51 6l69 -415q5 -31 6 -61h3q11 34 26 63l215 413q35 0 53 -6z" />
    <glyph glyph-name="z" unicode="z" horiz-adv-x="457" 
d="M443 522l-2 -43l-378 -434h305q0 -26 -5 -45h-365l2 47l373 430h-276q0 25 6 45h340z" />
    <glyph glyph-name="braceleft" unicode="{" horiz-adv-x="320" 
d="M343 689q-94 -4 -134 -20.5t-40 -60.5q0 -32 38 -109.5t38 -113.5q0 -39 -24 -64t-80 -37v-4q72 -14 72 -77q0 -29 -25 -66t-55.5 -67t-55.5 -66t-25 -64q0 -33 32 -49t112 -20q0 -31 -10 -51q-106 8 -148.5 35.5t-42.5 83.5q0 33 25.5 73t56 71t56 64.5t25.5 54.5
q0 28 -25.5 41t-87.5 13l9 52q136 0 136 72q0 36 -39 112.5t-39 110.5q0 69 58 101t169 36q4 -21 4 -51z" />
    <glyph glyph-name="bar" unicode="|" horiz-adv-x="260" 
d="M72 -206h-50l165 938h50z" />
    <glyph glyph-name="braceright" unicode="}" horiz-adv-x="320" 
d="M320 621q0 -33 -25.5 -73t-56 -71t-56 -64.5t-25.5 -54.5q0 -28 25.5 -41t87.5 -13l-9 -52q-136 0 -136 -72q0 -36 39 -112.5t39 -110.5q0 -69 -58 -101t-169 -36q-4 21 -4 51q94 4 134 20.5t40 60.5q0 32 -38 109.5t-38 113.5q0 39 24 64t80 37v4q-72 14 -72 77
q0 29 25 66t55.5 67t55.5 66t25 64q0 33 -32 49t-112 20q0 31 10 51q106 -8 148.5 -35.5t42.5 -83.5z" />
    <glyph glyph-name="asciitilde" unicode="~" horiz-adv-x="492" 
d="M18 201q30 79 61.5 109t70.5 30q30 0 68 -26l72 -51.5t56 -25.5q45 0 80 103q32 0 46 -12q-30 -76 -61 -106.5t-70 -30.5q-25 0 -54 16t-51.5 35.5t-48 35.5t-43.5 16q-24 0 -41.5 -23.5t-37.5 -79.5q-29 0 -47 10z" />
    <glyph glyph-name="nbspace" unicode="&#xa0;" horiz-adv-x="204" 
 />
    <glyph glyph-name="exclamdown" unicode="&#xa1;" horiz-adv-x="240" 
d="M21 -141q44 262 93 492q18 6 42 6q-33 -246 -80 -498h-55zM128 501q0 20 10.5 32t26.5 12q32 0 32 -31q0 -20 -10.5 -31.5t-26.5 -11.5q-32 0 -32 30z" />
    <glyph glyph-name="cent" unicode="&#xa2;" 
d="M486 581q-4 -24 -17 -48q-47 22 -128 22q-189 0 -225 -202q-7 -39 -7 -74q0 -164 169 -164q78 0 138 31q9 -25 9 -48q-55 -30 -136 -30l-8 -68h-58l16 69q-89 11 -136.5 65t-47.5 145q0 31 6 66q42 247 271 257l10 72h58l-17 -72q66 -5 103 -21z" />
    <glyph glyph-name="sterling" unicode="&#xa3;" 
d="M420 46q0 -25 -9 -46h-382l8 43q117 38 117 160q0 47 -23 132h-76l8 44h59q-8 49 -8 94q0 96 61 153.5t157 57.5q97 0 152 -14q-2 -30 -11 -51q-53 17 -140 17q-80 0 -123.5 -44.5t-43.5 -124.5q0 -52 9 -88h252q0 -24 -10 -44h-231q21 -81 21 -131q0 -110 -84 -158h297z
" />
    <glyph glyph-name="currency" unicode="&#xa4;" 
d="M382 237h-229v-28q0 -88 33 -129.5t102 -41.5q74 0 128 30q2 -16 2 -24q0 -15 -3 -30q-53 -24 -128 -24q-185 0 -185 221v26h-71l7 44h67q6 60 22 130h-66l7 44h71q39 127 103.5 178t154.5 51q73 0 115 -21q-2 -26 -11 -51q-43 24 -111 24q-74 0 -120.5 -40t-77.5 -141
h246q0 -26 -10 -44h-248q-18 -71 -24 -130h236q0 -26 -10 -44z" />
    <glyph glyph-name="yen" unicode="&#xa5;" 
d="M548 671q-141 -229 -254 -380h138q-4 -24 -15 -46h-146l-43 -245h-57l43 245h-158l8 46h143q-67 176 -115 380q21 5 54 5l91 -323q7 -26 13 -51h3q12 25 30 53l208 321q37 0 57 -5z" />
    <glyph glyph-name="brokenbar" unicode="&#xa6;" horiz-adv-x="270" 
d="M226 674l-48 -273h-49l48 273h49zM156 277l-49 -277h-49l49 277h49z" />
    <glyph glyph-name="section" unicode="&#xa7;" 
d="M453 292q0 -95 -133 -153q-17 12 -25 37q108 40 108 117q0 36 -27 60t-65 38.5l-76 30t-65 44.5t-27 72q0 65 53.5 105.5t137.5 40.5q70 0 128 -14q-3 -26 -12 -46q-57 16 -121 16q-61 0 -98.5 -25t-37.5 -71q0 -34 27 -56t65 -36t76 -30.5t65 -49t27 -80.5zM49 253
q0 95 133 153q17 -12 25 -37q-108 -40 -108 -117q0 -36 27 -60t65 -38.5l76 -30t65 -44.5t27 -72q0 -65 -53.5 -105.5t-137.5 -40.5q-70 0 -128 14q3 26 12 46q57 -16 121 -16q61 0 98.5 25t37.5 71q0 34 -27 56t-65 36t-76 30.5t-65 49t-27 80.5z" />
    <glyph glyph-name="dieresis" unicode="&#xa8;" 
d="M201 634q0 -20 -11 -32t-27 -12q-33 0 -33 31q0 20 11 32t27 12q33 0 33 -31zM369 634q0 -20 -11 -32t-27 -12q-33 0 -33 31q0 20 11 32t27 12q33 0 33 -31z" />
    <glyph glyph-name="copyright" unicode="&#xa9;" horiz-adv-x="725" 
d="M453 159q-45 -21 -104 -21q-71 0 -109.5 39t-38.5 111q0 22 5 54q33 186 195 186q66 0 99 -18q0 -22 -9 -44q-37 19 -94 19q-58 0 -92 -34.5t-49 -117.5q-5 -32 -5 -51q0 -102 101 -102q51 0 94 23q7 -21 7 -44zM664 399q0 -162 -97 -269.5t-247 -107.5q-119 0 -189 68.5
t-70 183.5q0 161 96 269t246 108q117 0 189 -68.5t72 -183.5zM626 396q0 103 -61 163t-165 60q-132 0 -218 -99t-86 -243q0 -101 59.5 -162t166.5 -61q132 0 218 98t86 244z" />
    <glyph glyph-name="ordfeminine" unicode="&#xaa;" horiz-adv-x="380" 
d="M344 380l-2 -13q-6 -32 -35 -32q-40 0 -52 36h-2q-47 -36 -102 -36q-85 0 -85 79q0 99 116 104l94 4l17 97q-23 15 -74 15q-46 0 -80 -10q-4 16 -4 25q0 5 2 15q35 10 84 10q74 0 119 -28l-42 -240q-1 -6 -1 -11q0 -15 19 -15h28zM271 490l-88 -4q-71 -3 -71 -70
q0 -24 12 -34t39 -10q52 0 93 31z" />
    <glyph glyph-name="guillemotleft" unicode="&#xab;" horiz-adv-x="461" 
d="M169 56l-42 -13l-101 224l176 216l42 -14l-160 -206zM379 56l-42 -13l-101 224l176 216l42 -14l-160 -206z" />
    <glyph glyph-name="logicalnot" unicode="&#xac;" horiz-adv-x="498" 
d="M420 138q-21 -5 -47 -5l33 186h-371l8 46h417z" />
    <glyph glyph-name="registered" unicode="&#xae;" horiz-adv-x="725" 
d="M664 399q0 -162 -97 -269.5t-247 -107.5q-119 0 -189 68.5t-70 183.5q0 161 96 269t246 108q117 0 189 -68.5t72 -183.5zM626 396q0 103 -61 163t-165 60q-132 0 -218 -99t-86 -243q0 -101 59.5 -162t166.5 -61q132 0 218 98t86 244zM496 428q0 -43 -26.5 -73.5
t-70.5 -39.5q30 -30 50 -87l29 -80q-15 -4 -48 -6l-20 60q-24 69 -51 98h-68l-28 -156h-46l67 375q57 7 100 7q51 0 81.5 -24t30.5 -74zM448 429q0 58 -70 58q-28 0 -55 -3l-25 -144h53q45 0 71 22.5t26 66.5z" />
    <glyph glyph-name="macron" unicode="&#xaf;" 
d="M382 647q-5 -23 -14 -42h-245l7 42h252z" />
    <glyph glyph-name="degree" unicode="&#xb0;" horiz-adv-x="310" 
d="M317 556q-10 -56 -47.5 -87t-91.5 -31q-49 0 -76.5 27.5t-27.5 73.5q0 18 2 27q10 58 47.5 88t91.5 30q48 0 76.5 -27.5t28.5 -72.5q0 -13 -3 -28zM276 562q2 14 2 20q0 32 -18 50t-48 18q-78 0 -94 -88q-2 -8 -2 -24q0 -31 17 -48t48 -17q78 0 95 89z" />
    <glyph glyph-name="plusminus" unicode="&#xb1;" horiz-adv-x="431" 
d="M380 327h-135l-24 -134h-43l24 134h-133l7 42h133l24 131h43l-24 -131h135zM330 45h-311l8 42h311z" />
    <glyph glyph-name="twosuperior" unicode="&#xb2;" horiz-adv-x="330" 
d="M336 708q0 -60 -47 -112.5t-167 -135.5h196q-4 -23 -11 -39h-258l5 36q143 94 190 148.5t47 100.5q0 68 -85 68q-47 0 -87 -18q-3 12 -3 20q0 16 1 23q41 16 91 16q56 0 92 -28t36 -79z" />
    <glyph glyph-name="threesuperior" unicode="&#xb3;" horiz-adv-x="330" 
d="M341 718q0 -36 -21 -61.5t-58 -34.5v-4q55 -20 55 -81q0 -62 -46.5 -92.5t-117.5 -30.5q-61 0 -100 18q4 28 11 42q42 -20 89 -20q57 0 88.5 17.5t31.5 65.5q0 36 -20 50t-63 14h-66l6 39h63q104 0 104 73q0 62 -79 62q-51 0 -89 -16q-4 12 -4 30q0 8 1 12q37 14 93 14
t89 -25t33 -72z" />
    <glyph glyph-name="acute" unicode="&#xb4;" 
d="M328 731q-41 -77 -127 -159q-25 0 -38 6l113 153h52z" />
    <glyph glyph-name="mu" unicode="&#xb5;" horiz-adv-x="581" 
d="M517 524l-93 -524h-53l9 45h-3q-76 -55 -152 -55q-70 0 -106 36l-41 -232h-53l128 725q23 5 54 5l-68 -383q-2 -16 -2 -26q0 -74 91 -74q81 0 160 54l75 424q22 5 54 5z" />
    <glyph glyph-name="paragraph" unicode="&#xb6;" 
d="M493 665l-96 -542q-17 -94 -55.5 -154.5t-121.5 -107.5l-26 39q74 39 107.5 92t47.5 131l89 504q-32 10 -89 10l-91 -514q-11 -63 -32.5 -96.5t-70.5 -62.5l-26 41q39 22 56 48.5t25 71.5l20 113h-13q-72 0 -115.5 44.5t-43.5 125.5q0 23 5 56q39 220 277 220
q85 0 153 -19z" />
    <glyph glyph-name="periodcentered" unicode="&#xb7;" horiz-adv-x="200" 
d="M135 285q0 -20 -10.5 -32t-26.5 -12q-32 0 -32 31q0 20 10.5 31.5t26.5 11.5q32 0 32 -30z" />
    <glyph glyph-name="cedilla" unicode="&#xb8;" 
d="M355 -110q0 -52 -37 -79.5t-100 -27.5q-30 0 -58 6q-2 14 -2 23q0 15 3 27q29 -10 59 -10q35 0 59.5 13t24.5 42q0 26 -15 36t-46 10q-15 0 -41 -4q5 24 15 42h46q43 0 67.5 -20.5t24.5 -57.5z" />
    <glyph glyph-name="onesuperior" unicode="&#xb9;" horiz-adv-x="330" 
d="M335 460q-4 -23 -11 -39h-276l7 39h141l54 307l-137 -21q0 19 4 39l143 23h39l-61 -348h97z" />
    <glyph glyph-name="ordmasculine" unicode="&#xba;" horiz-adv-x="380" 
d="M370 546q0 -30 -4 -48q-25 -163 -159 -163q-57 0 -91.5 32.5t-34.5 94.5q0 25 4 50q27 162 159 162q56 0 91 -31.5t35 -96.5zM324 549q0 88 -80 88q-45 0 -72.5 -28t-40.5 -102q-4 -24 -4 -48q0 -87 80 -87q47 0 74 30t39 101q4 25 4 46z" />
    <glyph glyph-name="guillemotright" unicode="&#xbb;" horiz-adv-x="461" 
d="M434 259l-176 -216l-42 14l160 206l-85 207l42 13zM224 259l-176 -216l-42 14l160 206l-85 207l42 13z" />
    <glyph glyph-name="onequarter" unicode="&#xbc;" horiz-adv-x="815" 
d="M720 125q-4 -19 -11 -37h-56l-15 -88h-40l15 88h-197l7 40q110 149 222 266q26 0 40 -8l-219 -261h154l16 92h40l-16 -92h60zM633 673l-392 -679q-21 3 -35 13l391 677q19 -2 36 -11zM311 326q-4 -23 -11 -39h-276l7 39h141l54 307l-137 -21q0 19 4 39l143 23h39
l-61 -348h97z" />
    <glyph glyph-name="onehalf" unicode="&#xbd;" horiz-adv-x="815" 
d="M633 673l-392 -679q-21 3 -35 13l391 677q19 -2 36 -11zM311 326q-4 -23 -11 -39h-276l7 39h141l54 307l-137 -21q0 19 4 39l143 23h39l-61 -348h97zM731 287q0 -60 -47 -112.5t-167 -135.5h196q-4 -23 -11 -39h-258l5 36q143 94 190 148.5t47 100.5q0 68 -85 68
q-47 0 -87 -18q-3 12 -3 20q0 16 1 23q41 16 91 16q56 0 92 -28t36 -79z" />
    <glyph glyph-name="threequarters" unicode="&#xbe;" horiz-adv-x="815" 
d="M622 673l-392 -679q-21 3 -35 13l391 677q19 -2 36 -11zM720 125q-4 -19 -11 -37h-56l-15 -88h-40l15 88h-197l7 40q110 149 222 266q26 0 40 -8l-219 -261h154l16 92h40l-16 -92h60zM317 584q0 -36 -21 -61.5t-58 -34.5v-4q55 -20 55 -81q0 -62 -46.5 -92.5
t-117.5 -30.5q-61 0 -100 18q4 28 11 42q42 -20 89 -20q57 0 88.5 17.5t31.5 65.5q0 36 -20 50t-63 14h-66l6 39h63q104 0 104 73q0 62 -79 62q-51 0 -89 -16q-4 12 -4 30q0 8 1 12q37 14 93 14t89 -25t33 -72z" />
    <glyph glyph-name="questiondown" unicode="&#xbf;" horiz-adv-x="412" 
d="M-6 7q0 79 59.5 136t192.5 99l20 109q20 6 43 6q-2 -77 -15 -149q-128 -36 -187.5 -80.5t-59.5 -120.5q0 -109 138 -109q49 0 98 12q5 -13 5 -32q0 -12 -2 -18q-46 -11 -106 -11q-88 0 -137 40.5t-49 117.5zM271 501q0 20 10.5 32t26.5 12q32 0 32 -31q0 -20 -10.5 -31.5
t-26.5 -11.5q-32 0 -32 30z" />
    <glyph glyph-name="Agrave" unicode="&#xc0;" horiz-adv-x="556" 
d="M504 5q-19 -8 -52 -10l-40 236h-262l-122 -236q-35 2 -51 10q153 313 354 669h54q62 -309 119 -669zM404 277l-53 307q-1 6 -1 15q0 10 1 25h-5q-5 -27 -12 -40l-160 -307h230zM317 815l64 -104q-17 -4 -39 -6q-55 61 -73 110h48z" />
    <glyph glyph-name="Aacute" unicode="&#xc1;" horiz-adv-x="556" 
d="M504 5q-19 -8 -52 -10l-40 236h-262l-122 -236q-35 2 -51 10q153 313 354 669h54q62 -309 119 -669zM404 277l-53 307q-1 6 -1 15q0 10 1 25h-5q-5 -27 -12 -40l-160 -307h230zM485 815q-43 -59 -107 -110q-24 2 -41 6l96 104h52z" />
    <glyph glyph-name="Acircumflex" unicode="&#xc2;" horiz-adv-x="556" 
d="M504 5q-19 -8 -52 -10l-40 236h-262l-122 -236q-35 2 -51 10q153 313 354 669h54q62 -309 119 -669zM404 277l-53 307q-1 6 -1 15q0 10 1 25h-5q-5 -27 -12 -40l-160 -307h230zM482 711q-20 -6 -42 -6l-74 82l-102 -82q-30 0 -45 5q66 64 117 105h66q40 -44 80 -104z" />
    <glyph glyph-name="Atilde" unicode="&#xc3;" horiz-adv-x="556" 
d="M504 5q-19 -8 -52 -10l-40 236h-262l-122 -236q-35 2 -51 10q153 313 354 669h54q62 -309 119 -669zM404 277l-53 307q-1 6 -1 15q0 10 1 25h-5q-5 -27 -12 -40l-160 -307h230zM520 804q-21 -56 -43.5 -74t-56.5 -18q-26 0 -73 26.5t-63 26.5q-19 0 -31.5 -13t-23.5 -49
q-23 0 -36 10q19 54 42 72.5t56 18.5q25 0 71 -26.5t63 -26.5q21 0 33 11.5t24 50.5q18 0 38 -9z" />
    <glyph glyph-name="Adieresis" unicode="&#xc4;" horiz-adv-x="556" 
d="M311 760q0 -18 -11 -30t-27 -12q-33 0 -33 29q0 18 11 30t27 12q33 0 33 -29zM484 760q0 -18 -11 -30t-27 -12q-33 0 -33 29q0 18 11 30t27 12q33 0 33 -29zM504 5q-19 -8 -52 -10l-40 236h-262l-122 -236q-35 2 -51 10q153 313 354 669h54q62 -309 119 -669zM404 277
l-53 307q-1 6 -1 15q0 10 1 25h-5q-5 -27 -12 -40l-160 -307h230z" />
    <glyph glyph-name="Aring" unicode="&#xc5;" horiz-adv-x="556" 
d="M504 5q-19 -8 -52 -10l-40 236h-262l-122 -236q-35 2 -51 10q146 299 347 657q-58 15 -58 76q0 49 33.5 78.5t85.5 29.5q42 0 65.5 -20.5t23.5 -56.5q0 -41 -24 -69.5t-63 -37.5q64 -320 117 -657zM404 277l-53 307q-1 5 -1 15q0 12 1 25h-5q-5 -28 -12 -40l-160 -307
h230zM431 767q0 21 -13.5 33t-36.5 12q-32 0 -52.5 -18.5t-20.5 -52.5q0 -22 13.5 -34.5t36.5 -12.5q32 0 52.5 19t20.5 54z" />
    <glyph glyph-name="AE" unicode="&#xc6;" horiz-adv-x="808" 
d="M434 628h-13l-233 -328h188zM801 674q-3 -27 -12 -50h-300l-43 -242h232l-8 -50h-232l-50 -282h319q-2 -28 -12 -50h-372l45 253h-213l-183 -258q-32 2 -53 10l478 669h404z" />
    <glyph glyph-name="Ccedilla" unicode="&#xc7;" horiz-adv-x="572" 
d="M569 650q-6 -29 -17 -53q-29 16 -75.5 26t-86.5 10q-105 0 -165 -68.5t-85 -229.5q-10 -67 -10 -109q0 -97 43 -141t134 -44q94 0 167 42q6 -26 8 -56q-73 -37 -177 -37q-112 0 -173 60.5t-61 186.5q0 57 9 108q56 339 316 339q110 0 173 -34zM358 -110q0 -52 -37 -79.5
t-100 -27.5q-29 0 -58 6q-2 14 -2 23q0 15 3 27q29 -10 59 -10q35 0 59.5 13t24.5 42q0 26 -15 36t-46 10q-15 0 -41 -4q5 24 15 42h46q43 0 67.5 -20.5t24.5 -57.5z" />
    <glyph glyph-name="Egrave" unicode="&#xc8;" horiz-adv-x="548" 
d="M541 674q-3 -27 -12 -50h-300l-43 -242h232l-8 -50h-232l-50 -282h319q-2 -28 -12 -50h-373l119 674h360zM316 815l64 -104q-17 -4 -39 -6q-55 61 -73 110h48z" />
    <glyph glyph-name="Eacute" unicode="&#xc9;" horiz-adv-x="548" 
d="M438 815q-43 -59 -107 -110q-24 2 -41 6l96 104h52zM541 674q-3 -27 -12 -50h-300l-43 -242h232l-8 -50h-232l-50 -282h319q-2 -28 -12 -50h-373l119 674h360z" />
    <glyph glyph-name="Ecircumflex" unicode="&#xca;" horiz-adv-x="548" 
d="M541 674q-3 -27 -12 -50h-300l-43 -242h232l-8 -50h-232l-50 -282h319q-2 -28 -12 -50h-373l119 674h360zM489 711q-19 -6 -42 -6l-74 82l-102 -82q-30 0 -45 5q66 64 117 105h66q40 -44 80 -104z" />
    <glyph glyph-name="Edieresis" unicode="&#xcb;" horiz-adv-x="548" 
d="M541 674q-3 -27 -12 -50h-300l-43 -242h232l-8 -50h-232l-50 -282h319q-2 -28 -12 -50h-373l119 674h360zM310 760q0 -18 -11 -30t-27 -12q-33 0 -33 29q0 18 11 30t27 12q33 0 33 -29zM483 760q0 -18 -11 -30t-27 -12q-33 0 -33 29q0 18 11 30t27 12q33 0 33 -29z" />
    <glyph glyph-name="Igrave" unicode="&#xcc;" horiz-adv-x="277" 
d="M171 815l64 -104q-17 -4 -39 -6q-55 61 -73 110h48zM238 674l-119 -674h-57l119 674h57z" />
    <glyph glyph-name="Iacute" unicode="&#xcd;" horiz-adv-x="277" 
d="M337 815q-43 -59 -107 -110q-24 2 -41 6l96 104h52zM238 674l-119 -674h-57l119 674h57z" />
    <glyph glyph-name="Icircumflex" unicode="&#xce;" horiz-adv-x="277" 
d="M339 709q-20 -6 -41 -6l-72 83l-99 -83q-30 0 -43 5q63 66 113 106h64q37 -42 78 -105zM238 674l-119 -674h-57l119 674h57z" />
    <glyph glyph-name="Idieresis" unicode="&#xcf;" horiz-adv-x="277" 
d="M169 760q0 -18 -11 -30t-26 -12q-32 0 -32 29q0 19 10.5 30.5t26.5 11.5q32 0 32 -29zM336 760q0 -19 -10.5 -30.5t-26.5 -11.5q-32 0 -32 29q0 18 11 30t26 12q32 0 32 -29zM238 674l-119 -674h-57l119 674h57z" />
    <glyph glyph-name="Eth" unicode="&#xd0;" horiz-adv-x="686" 
d="M638 430q0 -215 -95 -327t-257 -112q-117 0 -223 14l58 328h-69l9 50h69l50 284q97 14 201 14q117 0 187 -63t70 -188zM579 427q0 206 -207 206q-67 0 -143 -8l-43 -242h131q-3 -20 -18 -50h-122l-50 -285q77 -9 154 -9q138 0 218 98t80 290z" />
    <glyph glyph-name="Ntilde" unicode="&#xd1;" horiz-adv-x="681" 
d="M591 804q-21 -56 -43.5 -74t-56.5 -18q-26 0 -73 26.5t-63 26.5q-19 0 -31.5 -13t-23.5 -49q-23 0 -36 10q19 54 42 72.5t56 18.5q25 0 71 -26.5t63 -26.5q21 0 33 11.5t24 50.5q18 0 38 -9zM642 674l-118 -671q-24 -8 -49 -8l-237 554q-10 22 -17 56l-5 -1
q-2 -44 -5 -65l-95 -539h-54l118 668q29 8 59 8l224 -522q11 -25 22 -70l5 1q2 40 8 77l90 512h54z" />
    <glyph glyph-name="Ograve" unicode="&#xd2;" horiz-adv-x="659" 
d="M355 815l64 -104q-17 -4 -39 -6q-55 61 -73 110h48zM611 436q0 -77 -24 -176q-32 -132 -104.5 -201t-178.5 -69q-116 0 -174.5 63.5t-58.5 184.5q0 77 24 176q32 132 104.5 201t178.5 69q116 0 174.5 -63.5t58.5 -184.5zM552 436q0 102 -43.5 149.5t-130.5 47.5
q-90 0 -140 -51.5t-82 -167.5q-26 -95 -26 -176q0 -102 43.5 -149.5t130.5 -47.5q90 0 140 51.5t82 167.5q26 95 26 176z" />
    <glyph glyph-name="Oacute" unicode="&#xd3;" horiz-adv-x="659" 
d="M512 815q-43 -59 -107 -110q-24 2 -41 6l96 104h52zM611 436q0 -77 -24 -176q-32 -132 -104.5 -201t-178.5 -69q-116 0 -174.5 63.5t-58.5 184.5q0 77 24 176q32 132 104.5 201t178.5 69q116 0 174.5 -63.5t58.5 -184.5zM552 436q0 102 -43.5 149.5t-130.5 47.5
q-90 0 -140 -51.5t-82 -167.5q-26 -95 -26 -176q0 -102 43.5 -149.5t130.5 -47.5q90 0 140 51.5t82 167.5q26 95 26 176z" />
    <glyph glyph-name="Ocircumflex" unicode="&#xd4;" horiz-adv-x="659" 
d="M525 711q-20 -6 -42 -6l-74 82l-102 -82q-30 0 -45 5q66 64 117 105h66q40 -44 80 -104zM611 436q0 -77 -24 -176q-32 -132 -104.5 -201t-178.5 -69q-116 0 -174.5 63.5t-58.5 184.5q0 77 24 176q32 132 104.5 201t178.5 69q116 0 174.5 -63.5t58.5 -184.5zM552 436
q0 102 -43.5 149.5t-130.5 47.5q-90 0 -140 -51.5t-82 -167.5q-26 -95 -26 -176q0 -102 43.5 -149.5t130.5 -47.5q90 0 140 51.5t82 167.5q26 95 26 176z" />
    <glyph glyph-name="Otilde" unicode="&#xd5;" horiz-adv-x="659" 
d="M560 804q-21 -56 -43.5 -74t-56.5 -18q-26 0 -73 26.5t-63 26.5q-19 0 -31.5 -13t-23.5 -49q-23 0 -36 10q19 54 42 72.5t56 18.5q25 0 71 -26.5t63 -26.5q21 0 33 11.5t24 50.5q18 0 38 -9zM611 436q0 -77 -24 -176q-32 -132 -104.5 -201t-178.5 -69q-116 0 -174.5 63.5
t-58.5 184.5q0 77 24 176q32 132 104.5 201t178.5 69q116 0 174.5 -63.5t58.5 -184.5zM552 436q0 102 -43.5 149.5t-130.5 47.5q-90 0 -140 -51.5t-82 -167.5q-26 -95 -26 -176q0 -102 43.5 -149.5t130.5 -47.5q90 0 140 51.5t82 167.5q26 95 26 176z" />
    <glyph glyph-name="Odieresis" unicode="&#xd6;" horiz-adv-x="659" 
d="M354 760q0 -18 -11 -30t-27 -12q-33 0 -33 29q0 18 11 30t27 12q33 0 33 -29zM527 760q0 -18 -11 -30t-27 -12q-33 0 -33 29q0 18 11 30t27 12q33 0 33 -29zM611 436q0 -77 -24 -176q-32 -132 -104.5 -201t-178.5 -69q-116 0 -174.5 63.5t-58.5 184.5q0 77 24 176
q32 132 104.5 201t178.5 69q116 0 174.5 -63.5t58.5 -184.5zM552 436q0 102 -43.5 149.5t-130.5 47.5q-90 0 -140 -51.5t-82 -167.5q-26 -95 -26 -176q0 -102 43.5 -149.5t130.5 -47.5q90 0 140 51.5t82 167.5q26 95 26 176z" />
    <glyph glyph-name="multiply" unicode="&#xd7;" horiz-adv-x="498" 
d="M458 424l-182 -154l127 -156l-39 -32l-124 157l-179 -157l-31 34l181 158l-126 152l38 32l124 -156l179 156z" />
    <glyph glyph-name="Oslash" unicode="&#xd8;" horiz-adv-x="659" 
d="M611 436q0 -77 -24 -176q-32 -132 -104.5 -201t-178.5 -69q-99 0 -156 45l-68 -96h-44l86 122q-51 61 -51 177q0 77 24 176q32 132 104.5 201t178.5 69q98 0 155 -45l66 93h44l-84 -119q52 -61 52 -177zM552 436q0 80 -28 128l-343 -483q41 -40 123 -40q90 0 140 51.5
t82 167.5q26 95 26 176zM130 238q0 -82 27 -128l343 483q-43 40 -122 40q-90 0 -140 -51.5t-82 -167.5q-26 -95 -26 -176z" />
    <glyph glyph-name="Ugrave" unicode="&#xd9;" horiz-adv-x="667" 
d="M629 674l-73 -413q-12 -68 -28 -114t-44.5 -83.5t-74 -55.5t-109.5 -18q-98 0 -150.5 43t-52.5 142q0 42 13 113l68 386h57l-71 -399q-11 -66 -11 -100q0 -68 35.5 -101.5t114.5 -33.5q86 0 132.5 47.5t65.5 158.5l76 428h52zM372 815l64 -104q-17 -4 -39 -6
q-55 61 -73 110h48z" />
    <glyph glyph-name="Uacute" unicode="&#xda;" horiz-adv-x="667" 
d="M629 674l-73 -413q-12 -68 -28 -114t-44.5 -83.5t-74 -55.5t-109.5 -18q-98 0 -150.5 43t-52.5 142q0 42 13 113l68 386h57l-71 -399q-11 -66 -11 -100q0 -68 35.5 -101.5t114.5 -33.5q86 0 132.5 47.5t65.5 158.5l76 428h52zM504 815q-43 -59 -107 -110q-24 2 -41 6
l96 104h52z" />
    <glyph glyph-name="Ucircumflex" unicode="&#xdb;" horiz-adv-x="667" 
d="M629 674l-73 -413q-12 -68 -28 -114t-44.5 -83.5t-74 -55.5t-109.5 -18q-98 0 -150.5 43t-52.5 142q0 42 13 113l68 386h57l-71 -399q-11 -66 -11 -100q0 -68 35.5 -101.5t114.5 -33.5q86 0 132.5 47.5t65.5 158.5l76 428h52zM539 711q-19 -6 -42 -6l-74 82l-102 -82
q-30 0 -45 5q66 64 117 105h66q40 -44 80 -104z" />
    <glyph glyph-name="Udieresis" unicode="&#xdc;" horiz-adv-x="667" 
d="M365 760q0 -18 -11 -30t-27 -12q-33 0 -33 29q0 18 11 30t27 12q33 0 33 -29zM538 760q0 -18 -11 -30t-27 -12q-33 0 -33 29q0 18 11 30t27 12q33 0 33 -29zM629 674l-73 -413q-12 -68 -28 -114t-44.5 -83.5t-74 -55.5t-109.5 -18q-98 0 -150.5 43t-52.5 142q0 42 13 113
l68 386h57l-71 -399q-11 -66 -11 -100q0 -68 35.5 -101.5t114.5 -33.5q86 0 132.5 47.5t65.5 158.5l76 428h52z" />
    <glyph glyph-name="Yacute" unicode="&#xdd;" horiz-adv-x="549" 
d="M602 670q-140 -211 -290 -407l-46 -263h-57l46 263q-74 176 -142 407q21 5 56 5l106 -320q7 -19 13 -47h3q16 28 30 49l222 318q39 0 59 -5zM451 815q-43 -59 -107 -110q-24 2 -41 6l96 104h52z" />
    <glyph glyph-name="Thorn" unicode="&#xde;" horiz-adv-x="553" 
d="M516 377q0 -113 -77.5 -173t-189.5 -60h-105l-26 -144h-56l119 674h57l-23 -130q55 7 107 7q91 0 142.5 -42.5t51.5 -131.5zM458 381q0 123 -138 123q-50 0 -114 -8l-54 -304h93q96 0 154.5 46t58.5 143z" />
    <glyph glyph-name="germandbls" unicode="&#xdf;" horiz-adv-x="549" 
d="M470 122q0 -59 -44.5 -95.5t-109.5 -36.5q-77 0 -128 30q8 30 20 47q43 -28 107 -28q101 0 101 78q0 30 -20.5 59.5t-44.5 50.5t-44.5 54.5t-20.5 70.5q0 33 17.5 63.5t42 53.5l49 45t42 46.5t17.5 49.5q0 46 -25.5 66t-76.5 20q-67 0 -96.5 -31t-43.5 -114l-97 -551h-53
l97 551q18 103 66.5 148t136.5 45q63 0 105.5 -33.5t42.5 -93.5q0 -31 -17.5 -61t-42.5 -53.5l-50 -46t-42.5 -46.5t-17.5 -46q0 -34 20.5 -65t44.5 -51.5t44.5 -54t20.5 -71.5z" />
    <glyph glyph-name="agrave" unicode="&#xe0;" horiz-adv-x="526" 
d="M460 41l-2 -14q-7 -37 -50 -37q-65 0 -83 56h-3q-72 -56 -162 -56q-61 0 -96 32t-35 90q0 16 1 24q10 80 60 111t149 35l123 5l31 173q-38 24 -115 24q-76 0 -129 -20q-2 12 -2 22q0 17 3 29q60 17 130 17q48 0 95.5 -11.5t73.5 -31.5l-72 -410q-1 -6 -1 -13
q0 -25 29 -25h55zM355 244l-128 -5q-68 -2 -101 -25t-40 -76q-1 -8 -1 -21q0 -40 19.5 -59.5t63.5 -19.5q92 0 160 57zM320 578q-14 -6 -36 -6q-57 84 -74 159h48z" />
    <glyph glyph-name="aacute" unicode="&#xe1;" horiz-adv-x="526" 
d="M460 41l-2 -14q-7 -37 -50 -37q-65 0 -83 56h-3q-72 -56 -162 -56q-61 0 -96 32t-35 90q0 16 1 24q10 80 60 111t149 35l123 5l31 173q-38 24 -115 24q-76 0 -129 -20q-2 12 -2 22q0 17 3 29q60 17 130 17q48 0 95.5 -11.5t73.5 -31.5l-72 -410q-1 -6 -1 -13
q0 -25 29 -25h55zM355 244l-128 -5q-68 -2 -101 -25t-40 -76q-1 -8 -1 -21q0 -40 19.5 -59.5t63.5 -19.5q92 0 160 57zM420 731q-41 -77 -127 -159q-25 0 -38 6l113 153h52z" />
    <glyph glyph-name="acircumflex" unicode="&#xe2;" horiz-adv-x="526" 
d="M460 41l-2 -14q-7 -37 -50 -37q-65 0 -83 56h-3q-72 -56 -162 -56q-61 0 -96 32t-35 90q0 16 1 24q10 80 60 111t149 35l123 5l31 173q-38 24 -115 24q-76 0 -129 -20q-2 12 -2 22q0 17 3 29q60 17 130 17q48 0 95.5 -11.5t73.5 -31.5l-72 -410q-1 -6 -1 -13
q0 -25 29 -25h55zM355 244l-128 -5q-68 -2 -101 -25t-40 -76q-1 -8 -1 -21q0 -40 19.5 -59.5t63.5 -19.5q92 0 160 57zM439 578q-18 -6 -39 -6l-69 120l-113 -120q-26 0 -43 5q65 83 134 154h51q46 -74 79 -153z" />
    <glyph glyph-name="atilde" unicode="&#xe3;" horiz-adv-x="526" 
d="M460 41l-2 -14q-7 -37 -50 -37q-65 0 -83 56h-3q-72 -56 -162 -56q-61 0 -96 32t-35 90q0 16 1 24q10 80 60 111t149 35l123 5l31 173q-38 24 -115 24q-76 0 -129 -20q-2 12 -2 22q0 17 3 29q60 17 130 17q48 0 95.5 -11.5t73.5 -31.5l-72 -410q-1 -6 -1 -13
q0 -25 29 -25h55zM355 244l-128 -5q-68 -2 -101 -25t-40 -76q-1 -8 -1 -21q0 -40 19.5 -59.5t63.5 -19.5q92 0 160 57zM488 678q-21 -58 -44.5 -78.5t-59.5 -20.5q-27 0 -51 15l-47 30q-20 13 -36 13q-23 0 -35 -13t-26 -54q-21 0 -39 10q22 60 45.5 79.5t58.5 19.5
q27 0 51 -15l47 -30q21 -13 36 -13q22 0 35 12.5t26 54.5q21 0 39 -10z" />
    <glyph glyph-name="adieresis" unicode="&#xe4;" horiz-adv-x="526" 
d="M460 41l-2 -14q-7 -37 -50 -37q-65 0 -83 56h-3q-72 -56 -162 -56q-61 0 -96 32t-35 90q0 16 1 24q10 80 60 111t149 35l123 5l31 173q-38 24 -115 24q-76 0 -129 -20q-2 12 -2 22q0 17 3 29q60 17 130 17q48 0 95.5 -11.5t73.5 -31.5l-72 -410q-1 -6 -1 -13
q0 -25 29 -25h55zM355 244l-128 -5q-68 -2 -101 -25t-40 -76q-1 -8 -1 -21q0 -40 19.5 -59.5t63.5 -19.5q92 0 160 57zM256 634q0 -20 -11 -32t-27 -12q-33 0 -33 31q0 20 11 32t27 12q33 0 33 -31zM424 634q0 -20 -11 -32t-27 -12q-33 0 -33 31q0 20 11 32t27 12
q33 0 33 -31z" />
    <glyph glyph-name="aring" unicode="&#xe5;" horiz-adv-x="526" 
d="M460 41l-2 -14q-7 -37 -50 -37q-65 0 -83 56h-3q-72 -56 -162 -56q-61 0 -96 32t-35 90q0 16 1 24q10 80 60 111t149 35l123 5l31 173q-38 24 -115 24q-76 0 -129 -20q-2 12 -2 22q0 17 3 29q60 17 130 17q48 0 95.5 -11.5t73.5 -31.5l-72 -410q-1 -6 -1 -13
q0 -25 29 -25h55zM355 244l-128 -5q-68 -2 -101 -25t-40 -76q-1 -8 -1 -21q0 -40 19.5 -59.5t63.5 -19.5q92 0 160 57zM420 686q0 -51 -34.5 -83.5t-88.5 -32.5q-44 0 -67.5 23.5t-23.5 60.5q0 51 34.5 83.5t88.5 32.5q43 0 67 -23t24 -61zM376 686q0 48 -52 48
q-32 0 -53 -21.5t-21 -57.5q0 -49 51 -49q32 0 53.5 21.5t21.5 58.5z" />
    <glyph glyph-name="ae" unicode="&#xe6;" horiz-adv-x="786" 
d="M737 378q0 -39 -17 -113l-326 -11q-6 -36 -6 -69q0 -145 138 -145q71 0 130 34q11 -22 13 -48q-60 -36 -143 -36q-115 0 -163 79q-102 -79 -203 -79q-63 0 -97 33t-34 91q0 170 199 176l122 4q19 104 65 160q-52 30 -137 30q-72 0 -129 -20q-2 12 -2 21q0 20 3 30
q61 17 130 17q110 0 174 -40q55 40 123 40q75 0 117.5 -41t42.5 -113zM342 252l-119 -4q-138 -4 -138 -131q0 -40 19.5 -59.5t63.5 -19.5q92 0 179 68q-10 31 -10 80q0 29 5 66zM573 485q-138 0 -172 -189l274 9q11 40 11 74q0 106 -113 106z" />
    <glyph glyph-name="ccedilla" unicode="&#xe7;" horiz-adv-x="479" 
d="M447 509q-3 -27 -12 -51q-51 24 -131 24q-151 0 -181 -216q-5 -38 -5 -73q0 -80 34.5 -116.5t103.5 -36.5q72 0 124 31q9 -25 12 -48q-55 -33 -136 -33q-95 0 -144 53t-49 155q0 34 6 75q40 259 247 259q78 0 131 -23zM310 -110q0 -52 -37 -79.5t-100 -27.5q-29 0 -58 6
q-2 14 -2 23q0 15 3 27q29 -10 59 -10q35 0 59.5 13t24.5 42q0 26 -15 36t-46 10q-15 0 -41 -4q5 24 15 42h46q43 0 67.5 -20.5t24.5 -57.5z" />
    <glyph glyph-name="egrave" unicode="&#xe8;" horiz-adv-x="516" 
d="M338 578q-14 -6 -36 -6q-57 84 -74 159h48zM467 379q0 -44 -18 -116h-326q-6 -40 -6 -71q0 -152 139 -152q74 0 130 34q11 -22 13 -48q-61 -36 -143 -36q-95 0 -144 53t-49 155q0 33 6 74q20 138 84 199t154 61q73 0 116.5 -40t43.5 -113zM416 378q0 107 -113 107
q-136 0 -172 -179h274q11 38 11 72z" />
    <glyph glyph-name="eacute" unicode="&#xe9;" horiz-adv-x="516" 
d="M447 731q-41 -77 -127 -159q-24 0 -38 6l113 153h52zM467 379q0 -44 -18 -116h-326q-6 -40 -6 -71q0 -152 139 -152q74 0 130 34q11 -22 13 -48q-61 -36 -143 -36q-95 0 -144 53t-49 155q0 33 6 74q20 138 84 199t154 61q73 0 116.5 -40t43.5 -113zM416 378
q0 107 -113 107q-136 0 -172 -179h274q11 38 11 72z" />
    <glyph glyph-name="ecircumflex" unicode="&#xea;" horiz-adv-x="516" 
d="M442 578q-18 -6 -39 -6l-69 120l-113 -120q-26 0 -43 5q65 83 134 154h51q46 -74 79 -153zM467 379q0 -44 -18 -116h-326q-6 -40 -6 -71q0 -152 139 -152q74 0 130 34q11 -22 13 -48q-61 -36 -143 -36q-95 0 -144 53t-49 155q0 33 6 74q20 138 84 199t154 61
q73 0 116.5 -40t43.5 -113zM416 378q0 107 -113 107q-136 0 -172 -179h274q11 38 11 72z" />
    <glyph glyph-name="edieresis" unicode="&#xeb;" horiz-adv-x="516" 
d="M275 634q0 -20 -11 -32t-27 -12q-33 0 -33 31q0 20 11 32t27 12q33 0 33 -31zM443 634q0 -20 -11 -32t-27 -12q-33 0 -33 31q0 20 11 32t27 12q33 0 33 -31zM467 379q0 -44 -18 -116h-326q-6 -40 -6 -71q0 -152 139 -152q74 0 130 34q11 -22 13 -48q-61 -36 -143 -36
q-95 0 -144 53t-49 155q0 33 6 74q20 138 84 199t154 61q73 0 116.5 -40t43.5 -113zM416 378q0 107 -113 107q-136 0 -172 -179h274q11 38 11 72z" />
    <glyph glyph-name="igrave" unicode="&#xec;" horiz-adv-x="273" 
d="M115 0h-53l92 522h53zM208 578q-13 -6 -36 -6q-57 84 -74 159h48z" />
    <glyph glyph-name="iacute" unicode="&#xed;" horiz-adv-x="273" 
d="M115 0h-53l92 522h53zM334 731q-41 -77 -127 -159q-25 0 -38 6l113 153h52z" />
    <glyph glyph-name="icircumflex" unicode="&#xee;" horiz-adv-x="273" 
d="M115 0h-53l92 522h53zM303 578q-19 -6 -42 -6l-53 120l-97 -120q-26 0 -43 5q57 80 118 154h55q33 -72 62 -153z" />
    <glyph glyph-name="idieresis" unicode="&#xef;" horiz-adv-x="273" 
d="M115 0h-53l92 522h53zM155 634q0 -20 -11 -32t-27 -12q-33 0 -33 31q0 20 11 32t27 12q33 0 33 -31zM303 634q0 -20 -11 -32t-27 -12q-33 0 -33 31q0 20 11 32t27 12q33 0 33 -31z" />
    <glyph glyph-name="eth" unicode="&#xf0;" horiz-adv-x="550" 
d="M485 325q0 -35 -4 -60q-19 -136 -81 -205.5t-153 -69.5q-88 0 -136 48.5t-48 144.5q0 35 8 83q20 121 80 188.5t161 67.5q41 0 76 -10l3 4q-25 54 -89 127l-82 -50q-18 12 -24 25l82 51q-19 20 -44 42q18 26 39 34l50 -49l75 46q17 -9 24 -24l-76 -47q139 -160 139 -346z
M430 325q0 80 -17 134q-43 16 -98 16q-150 0 -188 -209q-9 -51 -9 -83q0 -144 129 -144q71 0 114.5 54t63.5 172q5 32 5 60z" />
    <glyph glyph-name="ntilde" unicode="&#xf1;" horiz-adv-x="583" 
d="M499 410q0 -19 -4 -39l-65 -371h-53l67 381q2 10 2 24q0 76 -91 76q-89 0 -165 -55l-75 -426h-53l91 519q22 5 54 5l-8 -46h3q73 54 161 54q58 0 97 -29.5t39 -92.5zM518 678q-21 -58 -44.5 -78.5t-59.5 -20.5q-27 0 -51 15l-47 30q-20 13 -36 13q-23 0 -35 -13t-26 -54
q-21 0 -39 10q22 60 45.5 79.5t58.5 19.5q27 0 51 -15l47 -30q21 -13 36 -13q22 0 35 12.5t26 54.5q21 0 39 -10z" />
    <glyph glyph-name="ograve" unicode="&#xf2;" horiz-adv-x="565" 
d="M500 326q0 -41 -6 -76q-23 -135 -83.5 -197.5t-157.5 -62.5q-87 0 -138.5 51t-51.5 153q0 43 6 79q25 135 85 197t156 62q85 0 137.5 -50.5t52.5 -155.5zM445 332q0 151 -135 151q-72 0 -118 -45.5t-68 -172.5q-6 -36 -6 -79q0 -76 36.5 -111.5t98.5 -35.5q76 0 120 48
t66 171q6 35 6 74zM353 578q-13 -6 -36 -6q-57 84 -74 159h48z" />
    <glyph glyph-name="oacute" unicode="&#xf3;" horiz-adv-x="565" 
d="M500 326q0 -41 -6 -76q-23 -135 -83.5 -197.5t-157.5 -62.5q-87 0 -138.5 51t-51.5 153q0 43 6 79q25 135 85 197t156 62q85 0 137.5 -50.5t52.5 -155.5zM445 332q0 151 -135 151q-72 0 -118 -45.5t-68 -172.5q-6 -36 -6 -79q0 -76 36.5 -111.5t98.5 -35.5q76 0 120 48
t66 171q6 35 6 74zM451 731q-41 -77 -127 -159q-24 0 -38 6l113 153h52z" />
    <glyph glyph-name="ocircumflex" unicode="&#xf4;" horiz-adv-x="565" 
d="M500 326q0 -41 -6 -76q-23 -135 -83.5 -197.5t-157.5 -62.5q-87 0 -138.5 51t-51.5 153q0 43 6 79q25 135 85 197t156 62q85 0 137.5 -50.5t52.5 -155.5zM445 332q0 151 -135 151q-72 0 -118 -45.5t-68 -172.5q-6 -36 -6 -79q0 -76 36.5 -111.5t98.5 -35.5q76 0 120 48
t66 171q6 35 6 74zM453 578q-18 -6 -39 -6l-69 120l-113 -120q-26 0 -43 5q65 83 134 154h51q46 -74 79 -153z" />
    <glyph glyph-name="otilde" unicode="&#xf5;" horiz-adv-x="565" 
d="M500 326q0 -41 -6 -76q-23 -135 -83.5 -197.5t-157.5 -62.5q-87 0 -138.5 51t-51.5 153q0 43 6 79q25 135 85 197t156 62q85 0 137.5 -50.5t52.5 -155.5zM445 332q0 151 -135 151q-72 0 -118 -45.5t-68 -172.5q-6 -36 -6 -79q0 -76 36.5 -111.5t98.5 -35.5q76 0 120 48
t66 171q6 35 6 74zM495 678q-21 -58 -44.5 -78.5t-59.5 -20.5q-27 0 -51 15l-47 30q-20 13 -36 13q-23 0 -35 -13t-26 -54q-21 0 -39 10q22 60 45.5 79.5t58.5 19.5q27 0 51 -15l47 -30q21 -13 36 -13q22 0 35 12.5t26 54.5q21 0 39 -10z" />
    <glyph glyph-name="odieresis" unicode="&#xf6;" horiz-adv-x="565" 
d="M500 326q0 -41 -6 -76q-23 -135 -83.5 -197.5t-157.5 -62.5q-87 0 -138.5 51t-51.5 153q0 43 6 79q25 135 85 197t156 62q85 0 137.5 -50.5t52.5 -155.5zM445 332q0 151 -135 151q-72 0 -118 -45.5t-68 -172.5q-6 -36 -6 -79q0 -76 36.5 -111.5t98.5 -35.5q76 0 120 48
t66 171q6 35 6 74zM294 634q0 -20 -11 -32t-27 -12q-33 0 -33 31q0 20 11 32t27 12q33 0 33 -31zM462 634q0 -20 -11 -32t-27 -12q-33 0 -33 31q0 20 11 32t27 12q33 0 33 -31z" />
    <glyph glyph-name="divide" unicode="&#xf7;" horiz-adv-x="407" 
d="M335 253h-271l7 42h271zM204 89q0 -20 -10.5 -32t-26.5 -12q-32 0 -32 31q0 20 10.5 31.5t26.5 11.5q32 0 32 -30zM272 470q0 -20 -10.5 -32t-26.5 -12q-32 0 -32 31q0 20 10.5 31.5t26.5 11.5q32 0 32 -30z" />
    <glyph glyph-name="oslash" unicode="&#xf8;" horiz-adv-x="565" 
d="M500 326q0 -41 -6 -76q-23 -135 -83.5 -197.5t-157.5 -62.5q-72 0 -118 33l-70 -98h-44l87 123q-45 53 -45 146q0 43 6 79q25 135 85 197t156 62q71 0 118 -35l66 92h44l-83 -116q45 -53 45 -147zM118 186q0 -58 22 -94l259 364q-34 27 -89 27q-72 0 -118 -45.5
t-68 -172.5q-6 -36 -6 -79zM445 332q0 60 -22 96l-258 -363q33 -26 88 -26q76 0 120 48t66 171q6 35 6 74z" />
    <glyph glyph-name="ugrave" unicode="&#xf9;" horiz-adv-x="578" 
d="M514 524l-93 -524h-53l9 45h-3q-75 -55 -157 -55q-57 0 -96.5 29.5t-39.5 92.5q0 17 4 39l65 368q22 5 54 5l-68 -383q-2 -12 -2 -24q0 -76 91 -76q80 0 160 54l75 424q20 5 54 5zM367 578q-13 -6 -36 -6q-57 84 -74 159h48z" />
    <glyph glyph-name="uacute" unicode="&#xfa;" horiz-adv-x="578" 
d="M514 524l-93 -524h-53l9 45h-3q-75 -55 -157 -55q-57 0 -96.5 29.5t-39.5 92.5q0 17 4 39l65 368q22 5 54 5l-68 -383q-2 -12 -2 -24q0 -76 91 -76q80 0 160 54l75 424q20 5 54 5zM466 731q-41 -77 -127 -159q-24 0 -38 6l113 153h52z" />
    <glyph glyph-name="ucircumflex" unicode="&#xfb;" horiz-adv-x="578" 
d="M514 524l-93 -524h-53l9 45h-3q-75 -55 -157 -55q-57 0 -96.5 29.5t-39.5 92.5q0 17 4 39l65 368q22 5 54 5l-68 -383q-2 -12 -2 -24q0 -76 91 -76q80 0 160 54l75 424q20 5 54 5zM473 578q-18 -6 -39 -6l-69 120l-113 -120q-26 0 -43 5q65 83 134 154h51q46 -74 79 -153
z" />
    <glyph glyph-name="udieresis" unicode="&#xfc;" horiz-adv-x="578" 
d="M514 524l-93 -524h-53l9 45h-3q-75 -55 -157 -55q-57 0 -96.5 29.5t-39.5 92.5q0 17 4 39l65 368q22 5 54 5l-68 -383q-2 -12 -2 -24q0 -76 91 -76q80 0 160 54l75 424q20 5 54 5zM302 634q0 -20 -11 -32t-27 -12q-33 0 -33 31q0 20 11 32t27 12q33 0 33 -31zM470 634
q0 -20 -11 -32t-27 -12q-33 0 -33 31q0 20 11 32t27 12q33 0 33 -31z" />
    <glyph glyph-name="yacute" unicode="&#xfd;" horiz-adv-x="496" 
d="M524 519l-278 -525q-65 -123 -112.5 -166.5t-114.5 -43.5q-42 0 -80 19q8 29 18 48q28 -16 70 -16q66 0 114 80l52 86q-61 271 -92 518q20 6 51 6l69 -415q5 -31 6 -61h3q11 34 26 63l215 413q35 0 53 -6zM439 731q-41 -77 -127 -159q-24 0 -38 6l113 153h52z" />
    <glyph glyph-name="thorn" unicode="&#xfe;" horiz-adv-x="570" 
d="M505 346q0 -45 -7 -92q-43 -264 -252 -264q-75 0 -129 25l-39 -221h-53l167 945q22 5 54 5l-46 -261h4q62 49 137 49t119.5 -50.5t44.5 -135.5zM451 345q0 137 -123 137q-74 0 -138 -54l-63 -363q52 -26 124 -26q79 0 125.5 50.5t65.5 159.5q9 54 9 96z" />
    <glyph glyph-name="ydieresis" unicode="&#xff;" horiz-adv-x="496" 
d="M524 519l-278 -525q-65 -123 -112.5 -166.5t-114.5 -43.5q-42 0 -80 19q8 29 18 48q28 -16 70 -16q66 0 114 80l52 86q-61 271 -92 518q20 6 51 6l69 -415q5 -31 6 -61h3q11 34 26 63l215 413q35 0 53 -6zM275 634q0 -20 -11 -32t-27 -12q-33 0 -33 31q0 20 11 32t27 12
q33 0 33 -31zM443 634q0 -20 -11 -32t-27 -12q-33 0 -33 31q0 20 11 32t27 12q33 0 33 -31z" />
    <glyph glyph-name="dotlessi" unicode="&#x131;" horiz-adv-x="273" 
d="M115 0h-53l92 522h53z" />
    <glyph glyph-name="Lslash" unicode="&#x141;" horiz-adv-x="465" 
d="M424 50q-5 -25 -16 -50h-346l58 332l-72 -24l9 51l72 24l52 291h57l-48 -271l107 36q-4 -26 -16 -53l-100 -33l-53 -303h296z" />
    <glyph glyph-name="lslash" unicode="&#x142;" horiz-adv-x="273" 
d="M246 744l-59 -335l71 23q-5 -31 -16 -53l-64 -21l-63 -358h-53l60 340l-64 -20l9 51l64 20l61 347q26 6 54 6z" />
    <glyph glyph-name="OE" unicode="&#x152;" horiz-adv-x="960" 
d="M953 674q-2 -25 -12 -50h-300l-43 -242h232l-8 -50h-232l-50 -282h319q-2 -28 -12 -50h-367l13 73h-3q-67 -83 -183 -83t-176 63.5t-60 184.5q0 77 24 176q32 132 101.5 201t171.5 69q154 0 210 -115h3l18 105h354zM552 447q0 93 -50.5 139.5t-133.5 46.5
q-85 0 -132.5 -51.5t-79.5 -167.5q-26 -95 -26 -176q0 -197 177 -197q95 0 150 67t83 220q12 63 12 119z" />
    <glyph glyph-name="oe" unicode="&#x153;" horiz-adv-x="881" 
d="M832 379q0 -45 -18 -116h-324q-6 -41 -6 -71q0 -152 137 -152q74 0 130 34q11 -22 13 -48q-61 -36 -143 -36q-140 0 -178 121q-61 -121 -190 -121q-88 0 -139 52t-51 152q0 47 6 79q45 259 241 259q67 0 112 -32t62 -89q60 121 188 121q75 0 117.5 -41t42.5 -112z
M445 332q0 151 -135 151q-75 0 -120 -47.5t-66 -170.5q-6 -32 -6 -79q0 -76 36.5 -111.5t98.5 -35.5q77 0 120.5 48.5t65.5 170.5q6 32 6 74zM781 378q0 107 -113 107q-134 0 -170 -179h272q11 39 11 72z" />
    <glyph glyph-name="Scaron" unicode="&#x160;" horiz-adv-x="510" 
d="M486 670q-3 -30 -15 -55q-54 18 -138 18q-88 0 -125.5 -32.5t-37.5 -92.5q0 -39 27.5 -69t67 -51.5t79 -46t67 -65t27.5 -95.5q0 -79 -62 -135t-167 -56q-111 0 -174 31q7 34 18 52q68 -32 159 -32q85 0 127 36t42 100q0 46 -27.5 80.5t-67 56.5l-79 44t-67 58t-27.5 84
q0 87 66.5 135.5t169.5 48.5q84 0 137 -14zM479 813q-66 -64 -117 -105h-66q-40 44 -80 104q20 6 42 6l74 -82l102 82q30 0 45 -5z" />
    <glyph glyph-name="scaron" unicode="&#x161;" horiz-adv-x="444" 
d="M399 517q-1 -19 -12 -51q-48 17 -111 17q-131 0 -131 -93q0 -30 21.5 -53t52.5 -39.5t62 -35.5t52.5 -50t21.5 -73q0 -73 -53 -111t-137 -38q-92 0 -142 30q8 33 17 48q52 -29 133 -29q128 0 128 94q0 33 -21.5 57.5t-52.5 41.5l-62 35t-52.5 47.5t-21.5 69.5
q0 71 52.5 109.5t141.5 38.5q65 0 114 -15zM174 728q18 6 38 6l63 -120l107 120q24 0 39 -5q-60 -80 -128 -154h-47q-42 74 -72 153z" />
    <glyph glyph-name="Ydieresis" unicode="&#x178;" horiz-adv-x="549" 
d="M602 670q-140 -211 -290 -407l-46 -263h-57l46 263q-74 176 -142 407q21 5 56 5l106 -320q7 -19 13 -47h3q16 28 30 49l222 318q39 0 59 -5zM300 760q0 -18 -11 -30t-27 -12q-33 0 -33 29q0 18 11 30t27 12q33 0 33 -29zM473 760q0 -18 -11 -30t-27 -12q-33 0 -33 29
q0 18 11 30t27 12q33 0 33 -29z" />
    <glyph glyph-name="Zcaron" unicode="&#x17d;" horiz-adv-x="540" 
d="M552 674l-2 -46l-482 -578h386q-2 -28 -13 -50h-444l3 51l478 573h-360q0 28 5 50h429zM461 813q-66 -64 -117 -105h-66q-40 44 -80 104q20 6 42 6l74 -82l102 82q30 0 45 -5z" />
    <glyph glyph-name="zcaron" unicode="&#x17e;" horiz-adv-x="457" 
d="M443 522l-2 -43l-378 -434h305q0 -26 -5 -45h-365l2 47l373 430h-276q0 25 6 45h340zM165 728q18 6 39 6l69 -120l113 120q26 0 43 -5q-65 -83 -134 -154h-51q-46 74 -79 153z" />
    <glyph glyph-name="florin" unicode="&#x192;" 
d="M469 681q-2 -30 -11 -50q-22 4 -48 4q-46 0 -77 -28.5t-40 -84.5l-23 -129h172q-3 -22 -13 -45h-167l-84 -480h-49l84 480h-142l8 45h142l22 125q14 78 61.5 122t117.5 44q24 0 47 -3z" />
    <glyph glyph-name="circumflex" unicode="&#x2c6;" 
d="M367 578q-18 -6 -39 -6l-69 120l-113 -120q-26 0 -43 5q65 83 134 154h51q46 -74 79 -153z" />
    <glyph glyph-name="caron" unicode="&#x2c7;" 
d="M130 728q18 6 39 6l69 -120l113 120q26 0 43 -5q-65 -83 -134 -154h-51q-46 74 -79 153z" />
    <glyph glyph-name="breve" unicode="&#x2d8;" 
d="M382 721q-17 -73 -55.5 -111t-93.5 -38q-116 0 -116 149q21 7 41 7q0 -113 76 -113q81 0 110 113q22 0 38 -7z" />
    <glyph glyph-name="dotaccent" unicode="&#x2d9;" 
d="M285 634q0 -20 -11 -32t-27 -12q-33 0 -33 31q0 20 11 32t27 12q33 0 33 -31z" />
    <glyph glyph-name="ring" unicode="&#x2da;" 
d="M357 686q0 -51 -34.5 -83.5t-88.5 -32.5q-44 0 -67.5 23.5t-23.5 60.5q0 51 34.5 83.5t88.5 32.5q43 0 67 -23t24 -61zM313 686q0 48 -52 48q-32 0 -53 -21.5t-21 -57.5q0 -49 51 -49q32 0 53.5 21.5t21.5 58.5z" />
    <glyph glyph-name="ogonek" unicode="&#x2db;" 
d="M308 34l15 -34q-56 -44 -77.5 -73.5t-21.5 -57.5q0 -41 51 -41q29 0 53 6q-5 -28 -12 -43q-21 -7 -51 -7q-93 0 -93 79q0 77 136 171z" />
    <glyph glyph-name="tilde" unicode="&#x2dc;" 
d="M419 678q-21 -58 -44.5 -78.5t-59.5 -20.5q-27 0 -51 15l-47 30q-20 13 -36 13q-23 0 -35 -13t-26 -54q-21 0 -39 10q22 60 45.5 79.5t58.5 19.5q27 0 51 -15l47 -30q21 -13 36 -13q22 0 35 12.5t26 54.5q21 0 39 -10z" />
    <glyph glyph-name="hungarumlaut" unicode="&#x2dd;" 
d="M275 731q-46 -86 -121 -159q-24 0 -37 6l107 153h51zM398 731q-46 -86 -121 -159q-23 0 -37 6l107 153h51z" />
    <glyph glyph-name="Delta" unicode="&#x394;" horiz-adv-x="549" 
d="M505 0h-530q158 324 356 674h54q69 -352 120 -674zM444 45l-93 539q-1 6 -1 15q0 14 1 25h-5q-5 -27 -12 -40l-282 -539h392z" />
    <glyph glyph-name="Omega" unicode="&#x3a9;" horiz-adv-x="644" 
d="M593 459q0 -41 -9 -91q-20 -111 -70 -192t-119 -124v-3h145l-9 -49h-242l5 42q78 20 142.5 101t90.5 228q9 51 9 90q0 89 -44.5 129t-128.5 40q-97 0 -154.5 -59.5t-82.5 -201.5q-10 -54 -10 -105q0 -93 35 -149.5t93 -72.5l-11 -42h-241l8 49h145v3q-85 67 -85 223
q0 51 10 104q28 157 102 231t200 74q107 0 164 -57.5t57 -167.5z" />
    <glyph glyph-name="pi" unicode="&#x3c0;" horiz-adv-x="644" 
d="M575 4q-34 -14 -78 -14q-95 0 -95 81q0 12 3 27l65 372h-250l-83 -470h-52l83 470h-104l9 52h587q-4 -29 -13 -52h-125l-66 -373q-2 -14 -2 -20q0 -41 48 -41q34 0 70 17q3 -21 3 -49z" />
    <glyph glyph-name="endash" unicode="&#x2013;" 
d="M441 243h-392l9 46h398q-6 -27 -15 -46z" />
    <glyph glyph-name="emdash" unicode="&#x2014;" horiz-adv-x="1000" 
d="M924 243h-863l9 46h869q-6 -27 -15 -46z" />
    <glyph glyph-name="quoteleft" unicode="&#x2018;" horiz-adv-x="212" 
d="M97 457l14 79q23 130 132 184q13 -12 20 -35q-88 -36 -109 -144h37q3 -15 3 -31q0 -27 -8 -53h-89z" />
    <glyph glyph-name="quoteright" unicode="&#x2019;" horiz-adv-x="212" 
d="M225 713l-14 -79q-23 -130 -132 -184q-13 12 -20 35q88 36 109 144h-37q-3 15 -3 31q0 27 8 53h89z" />
    <glyph glyph-name="quotesinglbase" unicode="&#x201a;" horiz-adv-x="212" 
d="M147 166l-14 -79q-23 -130 -132 -184q-13 12 -20 35q88 36 109 144h-37q-3 15 -3 31q0 27 8 53h89z" />
    <glyph glyph-name="quotedblleft" unicode="&#x201c;" horiz-adv-x="375" 
d="M97 457l14 79q23 130 132 184q13 -12 20 -35q-88 -36 -109 -144h37q3 -15 3 -31q0 -27 -8 -53h-89zM260 457l14 79q23 130 132 184q13 -12 20 -35q-88 -36 -109 -144h37q3 -15 3 -31q0 -27 -8 -53h-89z" />
    <glyph glyph-name="quotedblright" unicode="&#x201d;" horiz-adv-x="375" 
d="M225 713l-14 -79q-23 -130 -132 -184q-13 12 -20 35q88 36 109 144h-37q-3 15 -3 31q0 27 8 53h89zM388 713l-14 -79q-23 -130 -132 -184q-13 12 -20 35q88 36 109 144h-37q-3 15 -3 31q0 27 8 53h89z" />
    <glyph glyph-name="quotedblbase" unicode="&#x201e;" horiz-adv-x="375" 
d="M147 166l-14 -79q-23 -130 -132 -184q-13 12 -20 35q88 36 109 144h-37q-3 15 -3 31q0 27 8 53h89zM310 166l-14 -79q-23 -130 -132 -184q-13 12 -20 35q88 36 109 144h-37q-3 15 -3 31q0 27 8 53h89z" />
    <glyph glyph-name="dagger" unicode="&#x2020;" horiz-adv-x="523" 
d="M476 355l-8 -44h-180l-77 -440q-21 -8 -51 -8l79 448h-180l8 44h180l33 190h49l-33 -190h180z" />
    <glyph glyph-name="daggerdbl" unicode="&#x2021;" horiz-adv-x="523" 
d="M484 355l-8 -44h-180l-33 -188h180l-8 -45h-180l-36 -207q-21 -8 -51 -8l38 215h-180l8 45h180l33 188h-180l8 44h180l33 190h49l-33 -190h180z" />
    <glyph glyph-name="bullet" unicode="&#x2022;" horiz-adv-x="352" 
d="M266 293q0 -48 -30 -77t-77 -29q-36 0 -56.5 21.5t-20.5 55.5q0 48 31 78t76 30q35 0 56 -20.5t21 -58.5z" />
    <glyph glyph-name="ellipsis" unicode="&#x2026;" horiz-adv-x="562" 
d="M278 32q0 -20 -10.5 -32t-26.5 -12q-32 0 -32 31q0 20 10.5 31.5t26.5 11.5q32 0 32 -30zM96 32q0 -20 -10.5 -32t-26.5 -12q-32 0 -32 31q0 20 10.5 31.5t26.5 11.5q32 0 32 -30zM460 32q0 -20 -10.5 -32t-26.5 -12q-32 0 -32 31q0 20 10.5 31.5t26.5 11.5q32 0 32 -30z
" />
    <glyph glyph-name="perthousand" unicode="&#x2030;" horiz-adv-x="1151" 
d="M373 547q0 -103 -46 -173t-130 -70q-64 0 -99.5 36.5t-35.5 104.5q0 103 50.5 171t129.5 68q63 0 97 -35.5t34 -101.5zM325 547q0 97 -84 97q-100 0 -125 -150q-5 -32 -5 -52q0 -98 86 -98q52 0 81 38t42 112q5 32 5 53zM616 671l-388 -679q-26 3 -43 15l384 671
q26 0 47 -7zM736 232q0 -103 -46 -173t-130 -70q-64 0 -99.5 36.5t-35.5 104.5q0 103 50.5 171t129.5 68q63 0 97 -35.5t34 -101.5zM688 232q0 97 -84 97q-100 0 -125 -150q-5 -32 -5 -52q0 -98 86 -98q52 0 81 38t42 112q5 32 5 53zM1089 232q0 -103 -46 -173t-130 -70
q-64 0 -99.5 36.5t-35.5 104.5q0 103 50.5 171t129.5 68q63 0 97 -35.5t34 -101.5zM1041 232q0 97 -84 97q-100 0 -125 -150q-5 -32 -5 -52q0 -98 86 -98q52 0 81 38t42 112q5 32 5 53z" />
    <glyph glyph-name="guilsinglleft" unicode="&#x2039;" horiz-adv-x="251" 
d="M169 56l-42 -13l-101 224l176 216l42 -14l-160 -206z" />
    <glyph glyph-name="guilsinglright" unicode="&#x203a;" horiz-adv-x="251" 
d="M224 259l-176 -216l-42 14l160 206l-85 207l42 13z" />
    <glyph glyph-name="fraction" unicode="&#x2044;" horiz-adv-x="160" 
d="M293 673l-391 -679q-21 3 -35 13l390 677q19 -2 36 -11z" />
    <glyph glyph-name="Euro" unicode="&#x20ac;" 
d="M382 237h-229v-28q0 -88 33 -129.5t102 -41.5q74 0 128 30q2 -16 2 -24q0 -15 -3 -30q-53 -24 -128 -24q-185 0 -185 221v26h-71l7 44h67q6 60 22 130h-66l7 44h71q39 127 103.5 178t154.5 51q73 0 115 -21q-2 -26 -11 -51q-43 24 -111 24q-74 0 -120.5 -40t-77.5 -141
h246q0 -26 -10 -44h-248q-18 -71 -24 -130h236q0 -26 -10 -44z" />
    <glyph glyph-name="trademark" unicode="&#x2122;" horiz-adv-x="713" 
d="M668 325h-36l21 251q1 16 5 33h-4q-4 -13 -14 -30l-143 -254h-39l-53 254q-3 14 -3 30h-4q-2 -14 -7 -33l-72 -253q-16 0 -37 3q38 155 100 348h40l57 -274q3 -13 3 -33h4q7 22 13 33l155 274h39q-6 -163 -25 -349zM319 674q-3 -20 -11 -37h-98l-55 -312h-41l55 312h-101
l6 37h245z" />
    <glyph glyph-name="arrowleft" unicode="&#x2190;" horiz-adv-x="794" 
d="M745 313h-512q-47 0 -98 3v-4l186 -165q-20 -27 -32 -35q-113 95 -218 201v48q105 106 218 201q12 -8 32 -35l-186 -165v-4q51 3 98 3h512v-48z" />
    <glyph glyph-name="arrowup" unicode="&#x2191;" horiz-adv-x="572" 
d="M523 456q-8 -12 -35 -32l-165 186h-4q3 -51 3 -98v-512h-50v512q0 47 3 98h-4l-165 -186q-27 20 -35 32q95 113 201 218h50q106 -105 201 -218z" />
    <glyph glyph-name="arrowright" unicode="&#x2192;" horiz-adv-x="794" 
d="M745 313q-105 -106 -218 -201q-12 8 -32 35l186 165v4q-51 -3 -98 -3h-512v48h512q47 0 98 -3v4l-186 165q20 27 32 35q113 -95 218 -201v-48z" />
    <glyph glyph-name="arrowdown" unicode="&#x2193;" horiz-adv-x="572" 
d="M523 218q-95 -113 -201 -218h-50q-106 105 -201 218q8 12 35 32l165 -186h4q-3 51 -3 98v512h50v-512q0 -47 -3 -98h4l165 186q27 -20 35 -32z" />
    <glyph glyph-name="partialdiff" unicode="&#x2202;" horiz-adv-x="555" 
d="M507 525q0 -245 -67 -390t-202 -145q-91 0 -133 47.5t-42 144.5q0 38 8 91q43 254 258 254q70 0 124 -16q0 92 -37.5 138.5t-119.5 46.5q-75 0 -134 -23q0 31 8 51q52 20 126 20q93 0 152 -51t59 -168zM451 461q-59 19 -126 19q-162 0 -198 -211q-9 -54 -9 -92
q0 -73 29.5 -105t90.5 -32q96 0 145 94t68 327z" />
    <glyph glyph-name="product" unicode="&#x220f;" horiz-adv-x="686" 
d="M528 0h-57l110 624h-352l-110 -624h-57l119 674h466z" />
    <glyph glyph-name="summation" unicode="&#x2211;" horiz-adv-x="535" 
d="M524 674q-3 -24 -12 -50h-332l212 -257l-7 -39l-320 -279h368q-4 -29 -13 -49h-441l8 46l349 307l-228 275l8 46h408z" />
    <glyph glyph-name="minus" unicode="&#x2212;" 
d="M431 308l-9 -51h-353l9 51h353z" />
    <glyph glyph-name="radical" unicode="&#x221a;" horiz-adv-x="523" 
d="M581 674q-3 -26 -11 -49h-98l-183 -625h-46q-90 240 -172 531q21 7 44 7l133 -414q7 -21 13 -55h5q5 27 16 61l157 544h142z" />
    <glyph glyph-name="infinity" unicode="&#x221e;" horiz-adv-x="880" 
d="M825 301q0 -110 -59.5 -174.5t-161.5 -64.5q-55 0 -97.5 30t-81.5 116q-57 -81 -108 -113.5t-111 -32.5q-80 0 -120.5 45.5t-40.5 122.5q0 102 57 168.5t165 66.5q57 0 101 -33t76 -114q60 84 110.5 115.5t108.5 31.5q76 0 119 -43t43 -121zM775 299q0 121 -115 121
q-55 0 -102 -36.5t-100 -121.5q27 -88 63 -121t87 -33q77 0 122 48.5t45 142.5zM412 266q-25 79 -59.5 116t-90.5 37q-79 0 -123 -49.5t-44 -141.5q0 -121 115 -121q110 0 202 159z" />
    <glyph glyph-name="integral" unicode="&#x222b;" horiz-adv-x="304" 
d="M380 741q-2 -26 -11 -51q-15 3 -45 3q-83 0 -102 -106l-113 -646q-27 -157 -169 -157q-20 0 -42 3q2 26 11 51q15 -3 45 -3q83 0 102 106l113 646q27 157 169 157q20 0 42 -3z" />
    <glyph glyph-name="approxequal" unicode="&#x2248;" horiz-adv-x="496" 
d="M456 365q-45 -34 -98 -34q-34 0 -93.5 21.5t-92.5 21.5q-55 0 -105 -41l5 49q47 38 108 38q33 0 92.5 -21t93.5 -21q48 0 95 36zM423 176q-45 -34 -98 -34q-34 0 -93.5 21.5t-92.5 21.5q-55 0 -105 -41l5 49q47 38 108 38q33 0 92.5 -21t93.5 -21q48 0 95 36z" />
    <glyph glyph-name="notequal" unicode="&#x2260;" horiz-adv-x="489" 
d="M462 511l-94 -114h74l-8 -45h-103l-119 -145h197l-8 -45h-226l-103 -126h-45l103 126h-82l8 45h111l118 145h-204l8 45h233l93 114h47z" />
    <glyph glyph-name="lessequal" unicode="&#x2264;" horiz-adv-x="431" 
d="M378 495l-220 -175l158 -174v-6h-51l-168 183l227 177h54v-5zM338 87l-8 -42h-311l8 42h311z" />
    <glyph glyph-name="greaterequal" unicode="&#x2265;" horiz-adv-x="431" 
d="M338 87l-8 -42h-311l8 42h311zM348 317l-227 -177h-54v5l220 175l-158 174v6h51z" />
    <glyph glyph-name="lozenge" unicode="&#x25ca;" horiz-adv-x="466" 
d="M408 282l-5 -30q-103 -150 -194 -262h-48q-62 140 -102 263l5 30q88 133 194 262h48q59 -129 102 -263zM365 270l-89 235l-174 -240l89 -235z" />
    <glyph glyph-name="Lslashsmall" unicode="&#xf6f9;" horiz-adv-x="433" 
d="M377 49q-6 -30 -15 -49h-308l46 262l-55 -17l9 51l55 17l41 232h55l-38 -213l80 25q-4 -26 -18 -54l-71 -22l-40 -232h259z" />
    <glyph glyph-name="OEsmall" unicode="&#xf6fa;" horiz-adv-x="819" 
d="M730 48q-3 -25 -15 -48h-311l10 53h-5q-57 -63 -150 -63t-144.5 51.5t-51.5 146.5q0 47 9 98q25 141 82 205t162 64q56 0 100 -21t67 -61h5l12 72h304q-3 -25 -12 -48h-250l-33 -191h190l-8 -48h-191l-37 -210h267zM451 272q9 52 9 93q0 73 -41 107.5t-111 34.5
q-80 0 -118 -52.5t-61 -182.5q-9 -54 -9 -84q0 -150 147 -150q83 0 122 53t62 181z" />
    <glyph glyph-name="Scaronsmall" unicode="&#xf6fd;" horiz-adv-x="437" 
d="M405 540q-4 -31 -13 -51q-53 17 -123 17q-130 0 -130 -93q0 -33 23.5 -57t57.5 -41t68 -36t57.5 -52.5t23.5 -79.5q0 -66 -52.5 -111.5t-143.5 -45.5q-95 0 -150 26q5 29 15 50q56 -27 140 -27q134 0 134 102q0 37 -23.5 64t-57.5 45.5l-68 37t-57.5 48t-23.5 69.5
q0 69 56.5 109.5t138.5 40.5q75 0 128 -15zM172 710q18 6 40 6l70 -98l106 98q25 0 42 -5q-64 -74 -127 -132h-51q-43 59 -80 131z" />
    <glyph glyph-name="Zcaronsmall" unicode="&#xf6ff;" horiz-adv-x="486" 
d="M476 545l-2 -46l-395 -451h321q-5 -27 -14 -48h-377l2 46l395 451h-300q0 27 6 48h364zM175 710q18 6 40 6l70 -98l106 98q25 0 42 -5q-64 -74 -127 -132h-51q-43 59 -80 131z" />
    <glyph glyph-name="Asmall" unicode="&#xf761;" horiz-adv-x="477" 
d="M427 5q-17 -7 -52 -9l-35 188h-219l-101 -188q-34 0 -49 10q133 260 296 539h54q60 -275 106 -540zM332 227l-42 222q-4 20 -4 46h-4q-7 -23 -18 -46l-120 -222h188z" />
    <glyph glyph-name="Bsmall" unicode="&#xf762;" horiz-adv-x="505" 
d="M449 428q0 -50 -24.5 -89t-73.5 -53v-4q75 -26 75 -112q0 -94 -60.5 -136t-158.5 -42q-77 0 -153 10l95 540q79 11 139 11q76 0 118.5 -31t42.5 -94zM372 168q0 92 -111 92h-111l-38 -214q48 -7 98 -7q162 0 162 129zM397 417q0 90 -111 90q-40 0 -93 -7l-35 -196h105
q63 0 98.5 29t35.5 84z" />
    <glyph glyph-name="Csmall" unicode="&#xf763;" horiz-adv-x="509" 
d="M491 528q-3 -24 -17 -50q-25 13 -66 20.5t-73 7.5q-91 0 -137 -51t-69 -183q-9 -50 -9 -89q0 -73 34.5 -108.5t110.5 -35.5q80 0 148 36q7 -18 7 -52q-65 -33 -163 -33q-97 0 -145.5 53t-48.5 152q0 41 9 91q25 146 92 207.5t182 61.5q35 0 80 -7.5t65 -19.5z" />
    <glyph glyph-name="Dsmall" unicode="&#xf764;" horiz-adv-x="590" 
d="M534 337q0 -25 -3 -52q-16 -149 -98 -221.5t-200 -72.5q-91 0 -179 11l95 540q106 13 166 13q102 0 160.5 -53.5t58.5 -164.5zM478 338q0 169 -168 169q-40 0 -114 -8l-80 -454q76 -6 121 -6q99 0 160.5 60t76.5 180q4 28 4 59z" />
    <glyph glyph-name="Esmall" unicode="&#xf765;" horiz-adv-x="473" 
d="M458 545q-3 -27 -12 -48h-250l-33 -191h190l-8 -48h-191l-37 -210h267q-3 -25 -15 -48h-315l96 545h308z" />
    <glyph glyph-name="Fsmall" unicode="&#xf766;" horiz-adv-x="455" 
d="M464 545q-3 -25 -13 -48h-255l-34 -197h208l-9 -48h-208l-44 -252h-55l96 545h314z" />
    <glyph glyph-name="Gsmall" unicode="&#xf767;" horiz-adv-x="575" 
d="M510 530q-5 -28 -19 -51q-68 27 -143 27q-99 0 -147 -50t-72 -184q-9 -53 -9 -85q0 -81 38.5 -114.5t120.5 -33.5q61 0 114 21l29 163h-128q-2 8 -2 19q0 16 4 30h188l-43 -248q-71 -34 -175 -34q-203 0 -203 207q0 38 9 89q25 144 93 206.5t192 62.5q90 0 153 -25z" />
    <glyph glyph-name="Hsmall" unicode="&#xf768;" horiz-adv-x="589" 
d="M543 545l-96 -545h-55l47 265h-283l-47 -265h-55l96 545h55l-41 -233h283l41 233h55z" />
    <glyph glyph-name="Ismall" unicode="&#xf769;" horiz-adv-x="251" 
d="M205 545l-96 -545h-55l96 545h55z" />
    <glyph glyph-name="Jsmall" unicode="&#xf76a;" horiz-adv-x="267" 
d="M221 545l-93 -528q-27 -156 -169 -156q-2 12 -2 24q0 16 3 28q51 0 78 26.5t36 79.5l92 526h55z" />
    <glyph glyph-name="Ksmall" unicode="&#xf76b;" horiz-adv-x="522" 
d="M536 540l-247 -224q75 -132 159 -312q-25 -7 -53 -7l-145 284l-109 -99l-32 -182h-55l96 545h55l-52 -293h2q71 72 144 138l174 159q29 0 63 -9z" />
    <glyph glyph-name="Lsmall" unicode="&#xf76c;" horiz-adv-x="433" 
d="M377 49q-6 -30 -15 -49h-308l96 545h55l-87 -496h259z" />
    <glyph glyph-name="Msmall" unicode="&#xf76d;" horiz-adv-x="706" 
d="M640 545q-18 -298 -41 -545h-52l36 419q2 21 6 50h-4q-11 -32 -21 -50l-223 -419h-51l-70 419q-4 20 -4 50h-4q-7 -37 -11 -50l-117 -421q-36 0 -51 5q69 266 155 542h60l73 -425q5 -32 5 -57h4q11 36 22 57l228 425h60z" />
    <glyph glyph-name="Nsmall" unicode="&#xf76e;" horiz-adv-x="601" 
d="M555 545l-96 -543q-18 -6 -51 -6l-202 435q-11 22 -17 48l-4 -1q-3 -37 -5 -48l-75 -430h-51l95 540q24 7 60 7l199 -429q8 -16 12 -42l4 1q1 31 5 51l74 417h52z" />
    <glyph glyph-name="Osmall" unicode="&#xf76f;" horiz-adv-x="582" 
d="M469 361q0 146 -147 146q-84 0 -127 -53.5t-66 -181.5q-9 -51 -9 -84q0 -150 147 -150q85 0 125 50t66 171q11 53 11 102zM526 357q0 -49 -9 -98q-25 -139 -87.5 -204t-170.5 -65q-93 0 -144.5 51.5t-51.5 146.5q0 48 9 98q25 139 87.5 204t170.5 65q93 0 144.5 -51.5
t51.5 -146.5z" />
    <glyph glyph-name="Psmall" unicode="&#xf770;" horiz-adv-x="478" 
d="M457 409q0 -90 -64.5 -141.5t-157.5 -51.5h-88l-38 -216h-55l96 543q93 12 145 12q75 0 118.5 -36t43.5 -110zM400 411q0 97 -115 97q-32 0 -88 -7l-42 -238h75q80 0 125 37.5t45 110.5z" />
    <glyph glyph-name="Qsmall" unicode="&#xf771;" horiz-adv-x="582" 
d="M526 357q0 -49 -9 -98q-23 -132 -82 -198t-165 -69q-3 -18 -3 -31q0 -34 21 -47t65 -13q50 0 81 11q3 -10 3 -23t-3 -26q-40 -12 -88 -12q-130 0 -130 108q0 15 3 35q-156 25 -156 194q0 50 9 98q25 139 87.5 204t170.5 65q93 0 144.5 -51.5t51.5 -146.5zM469 361
q0 146 -147 146q-84 0 -127 -53.5t-66 -181.5q-9 -51 -9 -84q0 -150 147 -150q85 0 125 50t66 171q11 53 11 102z" />
    <glyph glyph-name="Rsmall" unicode="&#xf772;" horiz-adv-x="496" 
d="M449 417q0 -66 -40.5 -111.5t-106.5 -55.5q44 -41 79 -125l48 -119q-20 -7 -55 -9l-36 95q-39 104 -85 142h-105l-41 -234h-53l96 543q81 12 137 12q73 0 117.5 -34t44.5 -104zM394 416q0 91 -110 91q-33 0 -89 -6l-38 -218h79q158 0 158 133z" />
    <glyph glyph-name="Ssmall" unicode="&#xf773;" horiz-adv-x="437" 
d="M405 540q-4 -31 -13 -51q-53 17 -123 17q-130 0 -130 -93q0 -33 23.5 -57t57.5 -41t68 -36t57.5 -52.5t23.5 -79.5q0 -66 -52.5 -111.5t-143.5 -45.5q-95 0 -150 26q5 29 15 50q56 -27 140 -27q134 0 134 102q0 37 -23.5 64t-57.5 45.5l-68 37t-57.5 48t-23.5 69.5
q0 69 56.5 109.5t138.5 40.5q75 0 128 -15z" />
    <glyph glyph-name="Tsmall" unicode="&#xf774;" horiz-adv-x="424" 
d="M460 545q-5 -27 -14 -48h-157l-88 -497h-55l88 497h-159l8 48h377z" />
    <glyph glyph-name="Usmall" unicode="&#xf775;" horiz-adv-x="577" 
d="M536 545l-58 -332q-20 -112 -67.5 -167.5t-149.5 -55.5q-85 0 -129.5 36t-44.5 118q0 33 7 69l58 332h55l-60 -344q-5 -29 -5 -62q0 -50 27.5 -75t91.5 -25q73 0 111 38.5t53 123.5l60 344h51z" />
    <glyph glyph-name="Vsmall" unicode="&#xf776;" horiz-adv-x="491" 
d="M516 543q-134 -275 -289 -543h-53q-65 294 -98 543q20 5 53 5l75 -446q4 -22 5 -47h4q12 36 18 47l233 446q32 0 52 -5z" />
    <glyph glyph-name="Wsmall" unicode="&#xf777;" horiz-adv-x="764" 
d="M776 543q-116 -286 -242 -543h-57l-49 420q-3 22 -3 52h-5q-8 -30 -18 -52l-201 -420h-55q-36 281 -45 543q22 5 51 5l29 -440q1 -14 1 -39h4q5 19 15 39l212 437h50l49 -437q3 -22 3 -39h4q4 14 14 39l192 441q30 0 51 -6z" />
    <glyph glyph-name="Xsmall" unicode="&#xf778;" horiz-adv-x="496" 
d="M513 543l-226 -263l140 -275q-21 -8 -55 -8l-109 223q-7 16 -9 29h-4q-9 -16 -20 -29l-188 -223q-42 0 -60 8l242 279l-141 259q27 5 62 5l104 -208q6 -12 9 -26h4q8 17 16 27l169 207q43 0 66 -5z" />
    <glyph glyph-name="Ysmall" unicode="&#xf779;" horiz-adv-x="464" 
d="M502 542q-113 -167 -243 -326l-38 -216h-55l38 216q-77 168 -126 326q25 6 55 6l94 -257q6 -16 9 -34h4q7 17 19 34l188 257q23 0 55 -6z" />
    <glyph glyph-name="Zsmall" unicode="&#xf77a;" horiz-adv-x="486" 
d="M476 545l-2 -46l-395 -451h321q-5 -27 -14 -48h-377l2 46l395 451h-300q0 27 6 48h364z" />
    <glyph glyph-name="Agravesmall" unicode="&#xf7e0;" horiz-adv-x="477" 
d="M427 5q-17 -7 -52 -9l-35 188h-219l-101 -188q-34 0 -49 10q133 260 296 539h54q60 -275 106 -540zM332 227l-42 222q-4 20 -4 46h-4q-7 -23 -18 -46l-120 -222h188zM313 580q-13 -6 -35 -6q-66 76 -80 137h47z" />
    <glyph glyph-name="Aacutesmall" unicode="&#xf7e1;" horiz-adv-x="477" 
d="M427 5q-17 -7 -52 -9l-35 188h-219l-101 -188q-34 0 -49 10q133 260 296 539h54q60 -275 106 -540zM332 227l-42 222q-4 20 -4 46h-4q-7 -23 -18 -46l-120 -222h188zM442 711q-35 -61 -128 -137q-26 0 -39 6l114 131h53z" />
    <glyph glyph-name="Acircumflexsmall" unicode="&#xf7e2;" horiz-adv-x="477" 
d="M427 5q-17 -7 -52 -9l-35 188h-219l-101 -188q-34 0 -49 10q133 260 296 539h54q60 -275 106 -540zM332 227l-42 222q-4 20 -4 46h-4q-7 -23 -18 -46l-120 -222h188zM421 580q-18 -6 -40 -6l-70 98l-106 -98q-25 0 -42 5q64 74 127 132h51q43 -59 80 -131z" />
    <glyph glyph-name="Atildesmall" unicode="&#xf7e3;" horiz-adv-x="477" 
d="M427 5q-17 -7 -52 -9l-35 188h-219l-101 -188q-34 0 -49 10q133 260 296 539h54q60 -275 106 -540zM332 227l-42 222q-4 20 -4 46h-4q-7 -23 -18 -46l-120 -222h188zM459 682q-19 -58 -42.5 -78.5t-59.5 -20.5q-23 0 -69.5 29t-58.5 29q-21 0 -32.5 -13t-25.5 -54
q-21 0 -38 11q20 58 44 78t59 20q20 0 65.5 -28.5t61.5 -28.5q21 0 32 12t25 54q21 0 39 -10z" />
    <glyph glyph-name="Adieresissmall" unicode="&#xf7e4;" horiz-adv-x="477" 
d="M427 5q-17 -7 -52 -9l-35 188h-219l-101 -188q-34 0 -49 10q133 260 296 539h54q60 -275 106 -540zM332 227l-42 222q-4 20 -4 46h-4q-7 -23 -18 -46l-120 -222h188zM251 640q0 -20 -11 -32t-27 -12q-33 0 -33 31q0 20 11 32t27 12q33 0 33 -31zM419 640q0 -20 -11 -32
t-27 -12q-33 0 -33 31q0 20 11 32t27 12q33 0 33 -31z" />
    <glyph glyph-name="Aringsmall" unicode="&#xf7e5;" horiz-adv-x="477" 
d="M413 646q0 -43 -24.5 -73t-65.5 -40q50 -225 104 -528q-17 -7 -52 -9l-35 188h-219l-101 -188q-34 0 -49 10q137 268 289 527q-61 15 -61 81q0 51 34.5 83.5t88.5 32.5q43 0 67 -23t24 -61zM332 227l-42 222q-4 20 -4 46h-4q-7 -23 -18 -46l-120 -222h188zM369 646
q0 48 -52 48q-32 0 -53 -21.5t-21 -57.5q0 -49 51 -49q32 0 53.5 21.5t21.5 58.5z" />
    <glyph glyph-name="AEsmall" unicode="&#xf7e6;" horiz-adv-x="697" 
d="M682 545q-4 -29 -12 -48h-250l-33 -191h190l-8 -48h-191l-37 -210h267q-4 -27 -15 -48h-311l32 184h-162l-131 -187q-33 2 -50 10q173 262 383 538h328zM367 486h-4l-181 -259h139z" />
    <glyph glyph-name="Ccedillasmall" unicode="&#xf7e7;" horiz-adv-x="509" 
d="M491 528q-3 -24 -17 -50q-25 13 -66 20.5t-73 7.5q-91 0 -137 -51t-69 -183q-9 -50 -9 -89q0 -73 34.5 -108.5t110.5 -35.5q80 0 148 36q7 -18 7 -52q-65 -33 -163 -33q-97 0 -145.5 53t-48.5 152q0 41 9 91q25 146 92 207.5t182 61.5q35 0 80 -7.5t65 -19.5zM331 -110
q0 -52 -37 -79.5t-100 -27.5q-30 0 -58 6q-2 14 -2 23q0 15 3 27q29 -10 59 -10q35 0 59.5 13t24.5 42q0 26 -15 36t-46 10q-15 0 -41 -4q5 24 15 42h46q43 0 67.5 -20.5t24.5 -57.5z" />
    <glyph glyph-name="Egravesmall" unicode="&#xf7e8;" horiz-adv-x="473" 
d="M458 545q-3 -27 -12 -48h-250l-33 -191h190l-8 -48h-191l-37 -210h267q-3 -25 -15 -48h-315l96 545h308zM325 580q-13 -6 -35 -6q-66 76 -80 137h47z" />
    <glyph glyph-name="Eacutesmall" unicode="&#xf7e9;" horiz-adv-x="473" 
d="M458 545q-3 -27 -12 -48h-250l-33 -191h190l-8 -48h-191l-37 -210h267q-3 -25 -15 -48h-315l96 545h308zM419 711q-35 -61 -128 -137q-25 0 -39 6l114 131h53z" />
    <glyph glyph-name="Ecircumflexsmall" unicode="&#xf7ea;" horiz-adv-x="473" 
d="M458 545q-3 -27 -12 -48h-250l-33 -191h190l-8 -48h-191l-37 -210h267q-3 -25 -15 -48h-315l96 545h308zM433 580q-18 -6 -40 -6l-70 98l-106 -98q-25 0 -42 5q64 74 127 132h51q43 -59 80 -131z" />
    <glyph glyph-name="Edieresissmall" unicode="&#xf7eb;" horiz-adv-x="473" 
d="M458 545q-3 -27 -12 -48h-250l-33 -191h190l-8 -48h-191l-37 -210h267q-3 -25 -15 -48h-315l96 545h308zM266 640q0 -20 -11 -32t-27 -12q-33 0 -33 31q0 20 11 32t27 12q33 0 33 -31zM434 640q0 -20 -11 -32t-27 -12q-33 0 -33 31q0 20 11 32t27 12q33 0 33 -31z" />
    <glyph glyph-name="Igravesmall" unicode="&#xf7ec;" horiz-adv-x="251" 
d="M205 545l-96 -545h-55l96 545h55zM204 580q-14 -6 -35 -6q-66 76 -80 137h47z" />
    <glyph glyph-name="Iacutesmall" unicode="&#xf7ed;" horiz-adv-x="251" 
d="M205 545l-96 -545h-55l96 545h55zM324 711q-35 -61 -128 -137q-26 0 -39 6l114 131h53z" />
    <glyph glyph-name="Icircumflexsmall" unicode="&#xf7ee;" horiz-adv-x="251" 
d="M205 545l-96 -545h-55l96 545h55zM306 580q-18 -6 -40 -6l-70 98l-106 -98q-25 0 -42 5q64 74 127 132h51q43 -59 80 -131z" />
    <glyph glyph-name="Idieresissmall" unicode="&#xf7ef;" horiz-adv-x="251" 
d="M205 545l-96 -545h-55l96 545h55zM144 640q0 -20 -11 -32t-27 -12q-33 0 -33 31q0 20 11 32t27 12q33 0 33 -31zM312 640q0 -20 -11 -32t-27 -12q-33 0 -33 31q0 20 11 32t27 12q33 0 33 -31z" />
    <glyph glyph-name="Ethsmall" unicode="&#xf7f0;" horiz-adv-x="590" 
d="M534 337q0 -25 -3 -52q-16 -149 -98 -221.5t-200 -72.5q-91 0 -179 11l47 266h-63l9 46h62l40 228q106 13 166 13q102 0 160.5 -53.5t58.5 -164.5zM478 338q0 169 -168 169q-40 0 -114 -8l-33 -185h124q-5 -23 -18 -46h-114l-39 -223q76 -6 121 -6q99 0 160.5 60
t76.5 180q4 28 4 59z" />
    <glyph glyph-name="Ntildesmall" unicode="&#xf7f1;" horiz-adv-x="601" 
d="M555 545l-96 -543q-18 -6 -51 -6l-202 435q-11 22 -17 48l-4 -1q-3 -37 -5 -48l-75 -430h-51l95 540q24 7 60 7l199 -429q8 -16 12 -42l4 1q1 31 5 51l74 417h52zM529 682q-19 -58 -42.5 -78.5t-59.5 -20.5q-23 0 -69.5 29t-58.5 29q-21 0 -32.5 -13t-25.5 -54
q-21 0 -38 11q20 58 44 78t59 20q20 0 65.5 -28.5t61.5 -28.5q21 0 32 12t25 54q21 0 39 -10z" />
    <glyph glyph-name="Ogravesmall" unicode="&#xf7f2;" horiz-adv-x="582" 
d="M370 580q-13 -6 -35 -6q-66 76 -80 137h47zM469 361q0 146 -147 146q-84 0 -127 -53.5t-66 -181.5q-9 -51 -9 -84q0 -150 147 -150q85 0 125 50t66 171q11 53 11 102zM526 357q0 -49 -9 -98q-25 -139 -87.5 -204t-170.5 -65q-93 0 -144.5 51.5t-51.5 146.5q0 48 9 98
q25 139 87.5 204t170.5 65q93 0 144.5 -51.5t51.5 -146.5z" />
    <glyph glyph-name="Oacutesmall" unicode="&#xf7f3;" horiz-adv-x="582" 
d="M473 711q-35 -61 -128 -137q-25 0 -39 6l114 131h53zM469 361q0 146 -147 146q-84 0 -127 -53.5t-66 -181.5q-9 -51 -9 -84q0 -150 147 -150q85 0 125 50t66 171q11 53 11 102zM526 357q0 -49 -9 -98q-25 -139 -87.5 -204t-170.5 -65q-93 0 -144.5 51.5t-51.5 146.5
q0 48 9 98q25 139 87.5 204t170.5 65q93 0 144.5 -51.5t51.5 -146.5z" />
    <glyph glyph-name="Ocircumflexsmall" unicode="&#xf7f4;" horiz-adv-x="582" 
d="M462 580q-18 -6 -40 -6l-70 98l-106 -98q-25 0 -42 5q64 74 127 132h51q43 -59 80 -131zM469 361q0 146 -147 146q-84 0 -127 -53.5t-66 -181.5q-9 -51 -9 -84q0 -150 147 -150q85 0 125 50t66 171q11 53 11 102zM526 357q0 -49 -9 -98q-25 -139 -87.5 -204t-170.5 -65
q-93 0 -144.5 51.5t-51.5 146.5q0 48 9 98q25 139 87.5 204t170.5 65q93 0 144.5 -51.5t51.5 -146.5z" />
    <glyph glyph-name="Otildesmall" unicode="&#xf7f5;" horiz-adv-x="582" 
d="M501 682q-19 -58 -42.5 -78.5t-59.5 -20.5q-23 0 -69.5 29t-58.5 29q-21 0 -32.5 -13t-25.5 -54q-21 0 -38 11q20 58 44 78t59 20q20 0 65.5 -28.5t61.5 -28.5q21 0 32 12t25 54q21 0 39 -10zM469 361q0 146 -147 146q-84 0 -127 -53.5t-66 -181.5q-9 -51 -9 -84
q0 -150 147 -150q85 0 125 50t66 171q11 53 11 102zM526 357q0 -49 -9 -98q-25 -139 -87.5 -204t-170.5 -65q-93 0 -144.5 51.5t-51.5 146.5q0 48 9 98q25 139 87.5 204t170.5 65q93 0 144.5 -51.5t51.5 -146.5z" />
    <glyph glyph-name="Odieresissmall" unicode="&#xf7f6;" horiz-adv-x="582" 
d="M295 640q0 -20 -11 -32t-27 -12q-33 0 -33 31q0 20 11 32t27 12q33 0 33 -31zM463 640q0 -20 -11 -32t-27 -12q-33 0 -33 31q0 20 11 32t27 12q33 0 33 -31zM469 361q0 146 -147 146q-84 0 -127 -53.5t-66 -181.5q-9 -51 -9 -84q0 -150 147 -150q85 0 125 50t66 171
q11 53 11 102zM526 357q0 -49 -9 -98q-25 -139 -87.5 -204t-170.5 -65q-93 0 -144.5 51.5t-51.5 146.5q0 48 9 98q25 139 87.5 204t170.5 65q93 0 144.5 -51.5t51.5 -146.5z" />
    <glyph glyph-name="Oslashsmall" unicode="&#xf7f8;" horiz-adv-x="582" 
d="M526 348q0 -42 -9 -93q-25 -141 -88.5 -203t-173.5 -62q-72 0 -118 31l-68 -96h-39l83 117q-50 52 -50 153q0 41 9 91q25 139 88.5 204t173.5 65q72 0 119 -33l72 101h39l-87 -123q49 -54 49 -152zM120 182q0 -62 24 -96l280 395q-36 27 -98 27q-86 0 -130 -54t-67 -182
q-9 -51 -9 -90zM469 361q0 60 -23 95l-280 -394q34 -25 97 -25q89 0 131.5 53.5t65.5 181.5q9 51 9 89z" />
    <glyph glyph-name="Ugravesmall" unicode="&#xf7f9;" horiz-adv-x="577" 
d="M536 545l-58 -332q-20 -112 -67.5 -167.5t-149.5 -55.5q-85 0 -129.5 36t-44.5 118q0 33 7 69l58 332h55l-60 -344q-5 -29 -5 -62q0 -50 27.5 -75t91.5 -25q73 0 111 38.5t53 123.5l60 344h51zM378 580q-14 -6 -35 -6q-66 76 -80 137h47z" />
    <glyph glyph-name="Uacutesmall" unicode="&#xf7fa;" horiz-adv-x="577" 
d="M536 545l-58 -332q-20 -112 -67.5 -167.5t-149.5 -55.5q-85 0 -129.5 36t-44.5 118q0 33 7 69l58 332h55l-60 -344q-5 -29 -5 -62q0 -50 27.5 -75t91.5 -25q73 0 111 38.5t53 123.5l60 344h51zM476 711q-35 -61 -128 -137q-26 0 -39 6l114 131h53z" />
    <glyph glyph-name="Ucircumflexsmall" unicode="&#xf7fb;" horiz-adv-x="577" 
d="M536 545l-58 -332q-20 -112 -67.5 -167.5t-149.5 -55.5q-85 0 -129.5 36t-44.5 118q0 33 7 69l58 332h55l-60 -344q-5 -29 -5 -62q0 -50 27.5 -75t91.5 -25q73 0 111 38.5t53 123.5l60 344h51zM479 580q-18 -6 -40 -6l-70 98l-106 -98q-25 0 -42 5q64 74 127 132h51
q43 -59 80 -131z" />
    <glyph glyph-name="Udieresissmall" unicode="&#xf7fc;" horiz-adv-x="577" 
d="M536 545l-58 -332q-20 -112 -67.5 -167.5t-149.5 -55.5q-85 0 -129.5 36t-44.5 118q0 33 7 69l58 332h55l-60 -344q-5 -29 -5 -62q0 -50 27.5 -75t91.5 -25q73 0 111 38.5t53 123.5l60 344h51zM304 640q0 -20 -11 -32t-27 -12q-33 0 -33 31q0 20 11 32t27 12q33 0 33 -31
zM472 640q0 -20 -11 -32t-27 -12q-33 0 -33 31q0 20 11 32t27 12q33 0 33 -31z" />
    <glyph glyph-name="Yacutesmall" unicode="&#xf7fd;" horiz-adv-x="464" 
d="M502 542q-113 -167 -243 -326l-38 -216h-55l38 216q-77 168 -126 326q25 6 55 6l94 -257q6 -16 9 -34h4q7 17 19 34l188 257q23 0 55 -6zM408 711q-35 -61 -128 -137q-26 0 -39 6l114 131h53z" />
    <glyph glyph-name="Thornsmall" unicode="&#xf7fe;" horiz-adv-x="478" 
d="M438 303q0 -92 -66 -142.5t-156 -50.5h-87l-20 -110h-55l96 545h55l-17 -101q47 5 89 5q80 0 120.5 -38t40.5 -108zM381 305q0 97 -115 97q-38 0 -87 -6l-42 -239h74q81 0 125.5 38t44.5 110z" />
    <glyph glyph-name="Ydieresissmall" unicode="&#xf7ff;" horiz-adv-x="464" 
d="M502 542q-113 -167 -243 -326l-38 -216h-55l38 216q-77 168 -126 326q25 6 55 6l94 -257q6 -16 9 -34h4q7 17 19 34l188 257q23 0 55 -6zM249 640q0 -20 -11 -32t-27 -12q-33 0 -33 31q0 20 11 32t27 12q33 0 33 -31zM417 640q0 -20 -11 -32t-27 -12q-33 0 -33 31
q0 20 11 32t27 12q33 0 33 -31z" />
    <glyph glyph-name="zero.ltab" 
d="M475 469q0 -57 -14 -141q-31 -176 -92.5 -257t-162.5 -81q-167 0 -167 215q0 57 14 141q32 182 95.5 260t159.5 78q79 0 123 -53t44 -162zM424 480q0 159 -120 159q-78 0 -124.5 -71t-74.5 -231q-15 -84 -15 -143q0 -159 120 -159q79 0 124.5 70.5t74.5 231.5
q15 83 15 143z" />
    <glyph glyph-name="one.ltab" 
d="M430 48q-7 -31 -14 -48h-393l9 48h196l101 576l-187 -31q-3 12 -3 28q0 10 2 20l197 33h55l-110 -626h147z" />
    <glyph glyph-name="two.ltab" 
d="M452 520q0 -109 -80.5 -216.5t-276.5 -256.5h318q-3 -23 -14 -47h-386l4 47q209 153 295 263t86 207q0 57 -35.5 87.5t-95.5 30.5q-81 0 -136 -26q-4 12 -4 29q0 10 2 22q62 24 144 24t130.5 -43.5t48.5 -120.5z" />
    <glyph glyph-name="three.ltab" 
d="M441 521q0 -67 -33 -112t-89 -61v-5q34 -15 55.5 -50.5t21.5 -80.5q0 -107 -67.5 -164.5t-179.5 -57.5q-93 0 -148 27q2 30 13 50q54 -29 140 -29t137 45t51 129q0 110 -120 110h-109l8 47h109q74 0 115.5 40.5t41.5 111.5q0 55 -35 85.5t-100 30.5q-69 0 -124 -21
q-4 14 -4 28q0 9 2 21q51 19 126 19q90 0 139.5 -43t49.5 -120z" />
    <glyph glyph-name="four.ltab" 
d="M463 212q-5 -24 -15 -47h-73l-29 -165h-50l29 165h-297l9 49q185 299 305 470q26 0 44 -12l-297 -460h245l39 223h50l-39 -223h79z" />
    <glyph glyph-name="five.ltab" 
d="M490 674q-2 -24 -11 -46h-264l-65 -243q265 -2 265 -185q0 -102 -69 -156t-177 -54q-77 0 -135 25q4 27 15 48q54 -25 123 -25q90 0 141 40.5t51 121.5q0 72 -54 105t-167 33q-24 0 -49 -1q43 189 89 337h307z" />
    <glyph glyph-name="six.ltab" 
d="M483 670q0 -25 -8 -47q-39 16 -100 16q-96 0 -158.5 -70.5t-91.5 -224.5h3q62 79 155 79q72 0 115 -42.5t43 -128.5q0 -114 -55 -188t-154 -74q-170 0 -170 215q0 50 9 110q55 369 305 369q69 0 107 -14zM388 258q0 60 -30.5 91t-84.5 31q-77 0 -119 -59t-42 -156
q0 -65 32 -98t91 -33q72 0 112.5 59.5t40.5 164.5z" />
    <glyph glyph-name="seven.ltab" 
d="M508 674l-3 -44q-198 -299 -448 -636q-28 2 -46 12l439 622h-329q0 26 4 46h383z" />
    <glyph glyph-name="eight.ltab" 
d="M474 538q0 -126 -153 -190q102 -50 102 -158q0 -89 -58 -144.5t-151 -55.5q-74 0 -121 38.5t-47 118.5q0 139 156 205q-85 55 -85 147q0 88 54 136.5t139 48.5q75 0 119.5 -37t44.5 -109zM422 538q0 47 -29 74t-84 27q-67 0 -103.5 -39t-36.5 -101q0 -44 23 -74t80 -55
q150 56 150 168zM371 190q0 94 -120 140q-153 -48 -153 -183q0 -112 121 -112q71 0 111.5 42.5t40.5 112.5z" />
    <glyph glyph-name="nine.ltab" 
d="M462 469q0 -50 -9 -110q-55 -369 -305 -369q-69 0 -107 14q0 25 8 47q39 -16 100 -16q96 0 158.5 70.5t91.5 224.5h-3q-62 -79 -155 -79q-72 0 -115 42.5t-43 128.5q0 114 55 188t154 74q170 0 170 -215zM412 509q0 65 -32 98t-91 33q-72 0 -112.5 -59.5t-40.5 -164.5
q0 -60 30.5 -91t84.5 -31q77 0 119 59t42 156z" />
    <glyph glyph-name="zero.lprp" 
d="M475 469q0 -57 -14 -141q-31 -176 -92.5 -257t-162.5 -81q-167 0 -167 215q0 57 14 141q32 182 95.5 260t159.5 78q79 0 123 -53t44 -162zM424 480q0 159 -120 159q-78 0 -124.5 -71t-74.5 -231q-15 -84 -15 -143q0 -159 120 -159q79 0 124.5 70.5t74.5 231.5
q15 83 15 143z" />
    <glyph glyph-name="one.lprp" horiz-adv-x="470" 
d="M390 48q-7 -31 -14 -48h-363l9 48h166l101 576l-167 -31q-3 12 -3 28q0 10 2 20l177 33h55l-110 -626h147z" />
    <glyph glyph-name="two.lprp" 
d="M452 520q0 -109 -80.5 -216.5t-276.5 -256.5h318q-3 -23 -14 -47h-386l4 47q209 153 295 263t86 207q0 57 -35.5 87.5t-95.5 30.5q-81 0 -136 -26q-4 12 -4 29q0 10 2 22q62 24 144 24t130.5 -43.5t48.5 -120.5z" />
    <glyph glyph-name="three.lprp" 
d="M441 521q0 -67 -33 -112t-89 -61v-5q34 -15 55.5 -50.5t21.5 -80.5q0 -107 -67.5 -164.5t-179.5 -57.5q-93 0 -148 27q2 30 13 50q54 -29 140 -29t137 45t51 129q0 110 -120 110h-109l8 47h109q74 0 115.5 40.5t41.5 111.5q0 55 -35 85.5t-100 30.5q-69 0 -124 -21
q-4 14 -4 28q0 9 2 21q51 19 126 19q90 0 139.5 -43t49.5 -120z" />
    <glyph glyph-name="four.lprp" 
d="M463 212q-5 -24 -15 -47h-73l-29 -165h-50l29 165h-297l9 49q185 299 305 470q26 0 44 -12l-297 -460h245l39 223h50l-39 -223h79z" />
    <glyph glyph-name="five.lprp" 
d="M490 674q-2 -24 -11 -46h-264l-65 -243q265 -2 265 -185q0 -102 -69 -156t-177 -54q-77 0 -135 25q4 27 15 48q54 -25 123 -25q90 0 141 40.5t51 121.5q0 72 -54 105t-167 33q-24 0 -49 -1q43 189 89 337h307z" />
    <glyph glyph-name="six.lprp" 
d="M483 670q0 -25 -8 -47q-39 16 -100 16q-96 0 -158.5 -70.5t-91.5 -224.5h3q62 79 155 79q72 0 115 -42.5t43 -128.5q0 -114 -55 -188t-154 -74q-170 0 -170 215q0 50 9 110q55 369 305 369q69 0 107 -14zM388 258q0 60 -30.5 91t-84.5 31q-77 0 -119 -59t-42 -156
q0 -65 32 -98t91 -33q72 0 112.5 59.5t40.5 164.5z" />
    <glyph glyph-name="seven.lprp" horiz-adv-x="480" 
d="M493 674l-3 -44q-198 -299 -448 -636q-28 2 -46 12l439 622h-329q0 26 4 46h383z" />
    <glyph glyph-name="eight.lprp" 
d="M474 538q0 -126 -153 -190q102 -50 102 -158q0 -89 -58 -144.5t-151 -55.5q-74 0 -121 38.5t-47 118.5q0 139 156 205q-85 55 -85 147q0 88 54 136.5t139 48.5q75 0 119.5 -37t44.5 -109zM422 538q0 47 -29 74t-84 27q-67 0 -103.5 -39t-36.5 -101q0 -44 23 -74t80 -55
q150 56 150 168zM371 190q0 94 -120 140q-153 -48 -153 -183q0 -112 121 -112q71 0 111.5 42.5t40.5 112.5z" />
    <glyph glyph-name="nine.lprp" 
d="M462 469q0 -50 -9 -110q-55 -369 -305 -369q-69 0 -107 14q0 25 8 47q39 -16 100 -16q96 0 158.5 70.5t91.5 224.5h-3q-62 -79 -155 -79q-72 0 -115 42.5t-43 128.5q0 114 55 188t154 74q170 0 170 -215zM412 509q0 65 -32 98t-91 33q-72 0 -112.5 -59.5t-40.5 -164.5
q0 -60 30.5 -91t84.5 -31q77 0 119 59t42 156z" />
    <glyph glyph-name="zero.otab" 
d="M463 356q0 -42 -9 -91q-46 -275 -247 -275q-170 0 -170 201q0 41 9 90q48 274 248 274q169 0 169 -199zM412 364q0 146 -120 146q-80 0 -126.5 -57t-67.5 -174q-10 -51 -10 -96q0 -148 120 -148q79 0 124.5 54.5t69.5 177.5q10 51 10 97z" />
    <glyph glyph-name="one.otab" 
d="M430 47q-6 -29 -14 -47h-390l9 47h196l79 449l-189 -31q-2 14 -2 24q0 15 3 25l196 31h52l-87 -498h147z" />
    <glyph glyph-name="two.otab" 
d="M406 402q0 -90 -73.5 -172t-243.5 -183h302q-5 -25 -15 -47h-371l5 47q197 122 270 195.5t73 160.5q0 51 -32.5 77.5t-84.5 26.5q-76 0 -133 -26q-3 13 -3 31q0 9 2 21q63 22 136 22q79 0 123.5 -39t44.5 -114z" />
    <glyph glyph-name="three.otab" 
d="M424 392q0 -67 -33 -112t-89 -61v-5q34 -15 55.5 -50.5t21.5 -80.5q0 -107 -67.5 -164.5t-179.5 -57.5q-92 0 -148 27q2 30 13 50q54 -29 140 -29t137 45t51 129q0 110 -120 110h-109l8 47h109q74 0 115.5 40.5t41.5 111.5q0 55 -35 85.5t-100 30.5q-69 0 -124 -21
q-4 14 -4 28q0 9 2 21q51 19 126 19q90 0 139.5 -43t49.5 -120z" />
    <glyph glyph-name="four.otab" 
d="M442 83q-5 -24 -15 -47h-73l-29 -165h-50l29 165h-297l9 49q185 299 305 470q26 0 44 -12l-297 -460h245l39 223h50l-39 -223h79z" />
    <glyph glyph-name="five.otab" 
d="M483 545q-2 -24 -11 -46h-264l-65 -243q265 -2 265 -185q0 -102 -69 -156t-177 -54q-77 0 -135 25q5 27 15 48q54 -25 123 -25q90 0 141 40.5t51 121.5q0 72 -54 105t-167 33q-24 0 -49 -1q43 189 89 337h307z" />
    <glyph glyph-name="six.otab" 
d="M483 670q0 -25 -8 -47q-39 16 -100 16q-96 0 -158.5 -70.5t-91.5 -224.5h3q62 79 155 79q72 0 115 -42.5t43 -128.5q0 -114 -55 -188t-154 -74q-170 0 -170 215q0 50 9 110q55 369 305 369q69 0 107 -14zM388 258q0 60 -30.5 91t-84.5 31q-77 0 -119 -59t-42 -156
q0 -65 32 -98t91 -33q72 0 112.5 59.5t40.5 164.5z" />
    <glyph glyph-name="seven.otab" 
d="M479 545l-3 -44q-198 -299 -448 -636q-28 2 -46 12l439 622h-329q0 26 4 46h383z" />
    <glyph glyph-name="eight.otab" 
d="M474 538q0 -126 -153 -190q102 -50 102 -158q0 -89 -58 -144.5t-151 -55.5q-74 0 -121 38.5t-47 118.5q0 139 156 205q-85 55 -85 147q0 88 54 136.5t139 48.5q75 0 119.5 -37t44.5 -109zM422 538q0 47 -29 74t-84 27q-67 0 -103.5 -39t-36.5 -101q0 -44 23 -74t80 -55
q150 56 150 168zM371 190q0 94 -120 140q-153 -48 -153 -183q0 -112 121 -112q71 0 111.5 42.5t40.5 112.5z" />
    <glyph glyph-name="nine.otab" 
d="M442 340q0 -50 -9 -110q-55 -369 -305 -369q-69 0 -107 14q0 25 8 47q39 -16 100 -16q96 0 158.5 70.5t91.5 224.5h-3q-62 -79 -155 -79q-72 0 -115 42.5t-43 128.5q0 114 55 188t154 74q170 0 170 -215zM392 380q0 65 -32 98t-91 33q-72 0 -112.5 -59.5t-40.5 -164.5
q0 -60 30.5 -91t84.5 -31q77 0 119 59t42 156z" />
    <glyph glyph-name="germandbls.caps" horiz-adv-x="1020" 
d="M486 670q-3 -30 -15 -55q-54 18 -138 18q-88 0 -125.5 -32.5t-37.5 -92.5q0 -39 27.5 -69t67 -51.5t79 -46t67 -65t27.5 -95.5q0 -79 -62 -135t-167 -56q-111 0 -174 31q7 34 18 52q68 -32 159 -32q85 0 127 36t42 100q0 46 -27.5 80.5t-67 56.5l-79 44t-67 58t-27.5 84
q0 87 66.5 135.5t169.5 48.5q84 0 137 -14zM996 670q-3 -30 -15 -55q-54 18 -138 18q-88 0 -125.5 -32.5t-37.5 -92.5q0 -39 27.5 -69t67 -51.5t79 -46t67 -65t27.5 -95.5q0 -79 -62 -135t-167 -56q-111 0 -174 31q7 34 18 52q68 -32 159 -32q85 0 127 36t42 100
q0 46 -27.5 80.5t-67 56.5l-79 44t-67 58t-27.5 84q0 87 66.5 135.5t169.5 48.5q84 0 137 -14z" />
    <glyph glyph-name="ordfeminine.caps" horiz-adv-x="380" 
d="M375 349q-14 -6 -43 -6l-25 101h-158l-60 -101q-32 0 -44 6q90 162 197 325h51q39 -133 82 -325zM299 482l-32 131q-4 16 -4 27h-4q-6 -17 -12 -27l-77 -131h129z" />
    <glyph glyph-name="ordmasculine.caps" horiz-adv-x="380" 
d="M376 551q0 -30 -4 -48q-25 -163 -159 -163q-57 0 -91.5 32.5t-34.5 94.5q0 25 4 50q27 162 159 162q56 0 91 -31.5t35 -96.5zM330 554q0 87 -80 87q-45 0 -72.5 -27.5t-40.5 -101.5q-4 -24 -4 -48q0 -86 80 -86q47 0 74 29.5t39 100.5q4 25 4 46z" />
    <glyph glyph-name="fi.caps" horiz-adv-x="794" 
d="M548 674q-3 -27 -12 -50h-307l-44 -254h250l-9 -50h-250l-57 -320h-57l119 674h367zM755 674l-119 -674h-57l119 674h57z" />
    <glyph glyph-name="fl.caps" horiz-adv-x="982" 
d="M548 674q-3 -27 -12 -50h-307l-44 -254h250l-9 -50h-250l-57 -320h-57l119 674h367zM941 50q-5 -25 -16 -50h-346l119 674h57l-110 -624h296z" />
    <glyph glyph-name="Euro.allsmall" 
d="M476 536q-2 -27 -12 -51q-46 22 -111 22q-69 0 -111.5 -30t-67.5 -107h235q-4 -24 -15 -44h-233q-11 -55 -15 -91h223q-4 -23 -14 -44h-212q0 -82 31 -118t93 -36q73 0 133 30q2 -12 2 -21q0 -13 -4 -33q-51 -23 -132 -23q-87 0 -130.5 49t-43.5 152h-61l7 44h56
q8 56 15 91h-55l8 44h59q32 102 91.5 143.5t147.5 41.5q75 0 116 -19z" />
    <glyph glyph-name="onehalf.small" horiz-adv-x="840" 
d="M601 544l-318 -550q-21 3 -34 13l316 548q19 -2 36 -11zM770 287q0 -60 -47 -112.5t-167 -135.5h200q-3 -16 -13 -39h-258l7 38q99 65 152.5 113t67 74.5t13.5 56.5q0 70 -83 70q-50 0 -87 -17q-3 12 -3 26q0 11 1 18q37 15 91 15q55 0 90.5 -28t35.5 -79zM300 200
q-4 -23 -11 -39h-276l7 39h141l54 307l-137 -21q0 19 4 39l143 23h39l-61 -348h97z" />
    <glyph glyph-name="onequarter.small" horiz-adv-x="840" 
d="M601 544l-318 -550q-21 3 -34 13l316 548q19 -2 36 -11zM787 125q-4 -19 -11 -37h-56l-15 -88h-40l15 88h-197l7 40q103 142 222 266q26 0 40 -8l-219 -261h154l16 92h40l-16 -92h60zM300 200q-4 -23 -11 -39h-276l7 39h141l54 307l-137 -21q0 19 4 39l143 23h39
l-61 -348h97z" />
    <glyph glyph-name="threequarters.small" horiz-adv-x="840" 
d="M787 125q-4 -19 -11 -37h-56l-15 -88h-40l15 88h-197l7 40q103 142 222 266q26 0 40 -8l-219 -261h154l16 92h40l-16 -92h60zM310 458q0 -36 -21 -61.5t-58 -34.5v-4q55 -20 55 -81q0 -62 -46.5 -92.5t-117.5 -30.5q-61 0 -100 18q4 28 11 42q42 -20 89 -20
q57 0 88.5 17.5t31.5 65.5q0 36 -20 50t-63 14h-66l6 39h63q104 0 104 73q0 62 -79 62q-51 0 -89 -16q-4 12 -4 30q0 8 1 12q37 14 93 14t89 -25t33 -72zM601 544l-318 -550q-21 3 -34 13l316 548q19 -2 36 -11z" />
    <glyph glyph-name="minus.allsmall" 
d="M431 308l-9 -51h-353l9 51h353z" />
    <glyph glyph-name="multiply.allsmall" horiz-adv-x="498" 
d="M447 378l-182 -154l127 -156l-39 -32l-124 157l-179 -157l-31 34l181 158l-126 152l38 32l124 -156l179 156z" />
    <glyph glyph-name="numbersign.allsmall" 
d="M467 392q-1 -11 -12 -44h-83l-54 -152h83q-4 -22 -13 -44h-85l-52 -152h-44l52 152h-102l-52 -152h-44l53 152h-83q5 24 15 44h83l53 152h-84q2 19 14 44h85l52 153h44l-52 -153h101l53 153h44l-53 -153h81zM275 196l53 152h-102l-53 -152h102z" />
    <glyph glyph-name="dollar.allsmall" 
d="M416 492q0 -23 -11 -45q-54 14 -110 14q-135 0 -135 -82q0 -26 24 -41.5t58 -25.5t68.5 -22t58.5 -39.5t24 -69.5q0 -60 -46 -97.5t-127 -38.5l-6 -45h-44l10 45q-65 3 -119 23q5 29 14 46q57 -25 133 -25q136 0 136 87q0 32 -24 52t-58.5 30l-69 21t-58.5 34t-24 60
q0 63 49.5 95.5t123.5 34.5l5 42h45l-9 -41q45 -1 92 -12z" />
    <glyph glyph-name="percent.allsmall" horiz-adv-x="725" 
d="M560 548l-353 -558q-19 3 -38 15l348 550q22 0 43 -7zM655 183q0 -23 -4 -43q-25 -150 -146 -150q-49 0 -79.5 31t-30.5 86q0 15 4 39q12 75 51.5 113t97.5 38q50 0 78.5 -29.5t28.5 -84.5zM607 190q0 68 -65 68q-42 0 -62 -27t-31 -88q-5 -28 -5 -44q0 -69 66 -69
q43 0 62.5 26.5t29.5 86.5q5 28 5 47zM328 441q0 -23 -4 -43q-25 -150 -146 -150q-49 0 -79.5 31t-30.5 86q0 15 4 39q12 75 51.5 113t97.5 38q50 0 78.5 -29.5t28.5 -84.5zM280 448q0 68 -65 68q-42 0 -62 -27t-31 -88q-5 -28 -5 -44q0 -69 66 -69q43 0 62.5 26.5
t29.5 86.5q5 28 5 47z" />
    <glyph glyph-name="ampersand.allsmall" horiz-adv-x="578" 
d="M378 455q0 26 -18.5 42t-50.5 16q-91 0 -91 -106q0 -39 22 -76q83 38 110.5 61.5t27.5 62.5zM331 106q-68 93 -116 171q-79 -40 -103.5 -69.5t-24.5 -85.5q0 -87 93 -87q62 0 151 71zM501 215q0 -15 -1 -22q-70 -67 -101 -92l72 -102q-29 -7 -58 -7l-56 79
q-58 -43 -97.5 -62t-85.5 -19q-71 0 -105 35.5t-34 95.5q0 68 35 108.5t124 83.5q-26 51 -26 94q0 68 38.5 108t102.5 40q53 0 85 -26.5t32 -71.5q0 -51 -36 -86t-129 -74q60 -94 111 -163q50 42 126 120q3 -21 3 -39z" />
    <glyph glyph-name="plus.allsmall" horiz-adv-x="498" 
d="M458 295l-8 -45h-182l-36 -205h-48l36 205h-182l8 45h182l37 205h48l-37 -205h182z" />
    <glyph glyph-name="comma.allsmall" horiz-adv-x="200" 
d="M108 113q0 -15 -6 -54q-10 -58 -45.5 -109.5t-110.5 -122.5l-30 26q78 77 106.5 120.5t37.5 104.5l5 35h43z" />
    <glyph glyph-name="hyphen.small" horiz-adv-x="250" 
d="M219 327l-9 -49h-180l9 49h180z" />
    <glyph glyph-name="period.allsmall" horiz-adv-x="200" 
d="M96 32q0 -20 -10.5 -32t-26.5 -12q-32 0 -32 31q0 20 10.5 31.5t26.5 11.5q32 0 32 -30z" />
    <glyph glyph-name="zero.small" 
d="M453 367q0 -51 -10 -105q-25 -138 -83 -205t-154 -67q-77 0 -119 47t-42 142q0 51 10 104q26 142 85 207t152 65q78 0 119.5 -47.5t41.5 -140.5zM401 372q0 136 -115 136q-73 0 -116 -59t-63 -176q-10 -53 -10 -99q0 -137 115 -137q73 0 115.5 58t63.5 177q10 62 10 100z
" />
    <glyph glyph-name="one.small" 
d="M432 46q-3 -24 -13 -46h-390l8 46h196l80 450l-188 -31q-2 14 -2 24q0 11 2 23l196 33h54l-88 -499h145z" />
    <glyph glyph-name="two.small" 
d="M419 404q0 -84 -70 -162t-241 -196h292q-4 -23 -15 -46h-363l6 47q106 70 175.5 125.5t102.5 97.5t45 71t12 61q0 48 -32.5 76t-88.5 28q-68 0 -122 -26q-4 15 -4 29q0 13 2 23q56 23 128 23q77 0 125 -39.5t48 -111.5z" />
    <glyph glyph-name="three.small" 
d="M419 429q0 -54 -30 -93t-82 -51v-4q78 -27 78 -117q0 -88 -61.5 -131t-160.5 -43q-85 0 -141 25q4 29 15 50q59 -28 125 -28q169 0 169 127q0 51 -28.5 73t-87.5 22h-93l8 46h89q146 0 146 116q0 87 -111 87q-73 0 -126 -22q-5 22 -5 37l1 12q55 20 132 20
q75 0 119 -31.5t44 -94.5z" />
    <glyph glyph-name="four.small" 
d="M446 171q-3 -14 -14 -45h-82l-23 -126h-51l23 126h-267l8 46q77 109 148 200q81 105 149 183q26 -2 44 -12l-287 -372h213l23 134h51l-23 -134h88z" />
    <glyph glyph-name="five.small" 
d="M451 545q-3 -22 -13 -46h-235l-45 -172q118 -3 179 -40t61 -118q0 -88 -58.5 -133.5t-154.5 -45.5q-79 0 -132 23q3 28 14 49q50 -25 117 -25q81 0 120 29.5t39 103.5q0 111 -176 111q-29 0 -66 -3q32 148 69 267h281z" />
    <glyph glyph-name="six.small" 
d="M439 544q0 -21 -8 -49q-39 13 -90 13q-85 0 -136.5 -54t-75.5 -175h3q52 66 136 66q63 0 102.5 -36.5t39.5 -105.5q0 -98 -52 -155.5t-134 -57.5q-76 0 -117 44.5t-41 134.5q0 103 27 188t89 141.5t149 56.5q70 0 108 -11zM357 203q0 96 -99 96q-65 0 -103 -40t-38 -115
q0 -52 29 -80t80 -28q60 0 94.5 42t36.5 125z" />
    <glyph glyph-name="seven.small" 
d="M470 545l-5 -46q-158 -241 -362 -509q-29 2 -47 12l353 497h-304q-2 12 -2 21q0 13 3 25h364z" />
    <glyph glyph-name="eight.small" 
d="M437 430q0 -49 -33 -86.5t-100 -57.5q101 -41 101 -130q0 -78 -52 -122t-145 -44q-71 0 -116 33t-45 97q0 59 33.5 98t109.5 69q-79 45 -79 116q0 73 49 112.5t126 39.5q71 0 111 -32.5t40 -92.5zM384 427q0 86 -104 86q-59 0 -87.5 -29.5t-28.5 -79.5q0 -73 95 -99
q125 34 125 122zM350 156q0 41 -26.5 67.5t-84.5 44.5q-135 -32 -135 -145q0 -90 106 -90q140 0 140 123z" />
    <glyph glyph-name="nine.small" 
d="M432 376q0 -103 -27 -188t-89 -141.5t-149 -56.5q-70 0 -108 11q0 21 8 49q39 -13 90 -13q85 0 136.5 54t75.5 175h-3q-52 -66 -136 -66q-63 0 -102.5 36.5t-39.5 105.5q0 98 52 155.5t134 57.5q76 0 117 -44.5t41 -134.5zM381 401q0 52 -29 80t-80 28q-61 0 -96 -42.5
t-35 -124.5q0 -96 99 -96q65 0 103 40t38 115z" />
    <glyph glyph-name="colon.allsmall" horiz-adv-x="200" 
d="M92 32q0 -20 -10.5 -32t-26.5 -12q-32 0 -32 31q0 20 10.5 31.5t26.5 11.5q32 0 32 -30zM167 454q0 -20 -10.5 -32t-26.5 -12q-32 0 -32 31q0 20 10.5 31.5t26.5 11.5q32 0 32 -30z" />
    <glyph glyph-name="semicolon.allsmall" horiz-adv-x="200" 
d="M166 454q0 -20 -10.5 -32t-26.5 -12q-32 0 -32 31q0 20 10.5 31.5t26.5 11.5q32 0 32 -30zM106 113q0 -15 -6 -54q-10 -58 -45.5 -109.5t-110.5 -122.5l-30 26q78 77 106.5 120.5t37.5 104.5l5 35h43z" />
    <glyph glyph-name="less.allsmall" horiz-adv-x="375" 
d="M347 494l-237 -218l159 -226v-5h-56l-167 236l241 219h60v-6z" />
    <glyph glyph-name="equal.allsmall" horiz-adv-x="489" 
d="M433 352h-353l8 45h353zM400 162h-353l8 45h353z" />
    <glyph glyph-name="greater.allsmall" horiz-adv-x="375" 
d="M328 264l-241 -219h-60v6l237 218l-159 226v5h56z" />
    <glyph glyph-name="at.small" horiz-adv-x="680" 
d="M614 336q0 -98 -45 -163t-113 -65q-47 0 -65 31h-3q-48 -31 -109 -31q-84 0 -84 80q0 101 121 106l95 4l14 81q-26 14 -73 14q-48 0 -84 -13q-2 10 -2 18q0 13 2 23q38 12 84 12q73 0 118 -26l-38 -218q-2 -14 -2 -19q0 -23 25 -23q46 0 80 47t34 134q0 90 -53 137.5
t-146 47.5q-128 0 -201 -78.5t-73 -222.5q0 -86 48 -133t134 -47q59 0 106 20q3 -12 3 -25q0 -9 -2 -19q-47 -18 -109 -18q-105 0 -165 56t-60 165q0 169 90.5 256.5t228.5 87.5q109 0 176.5 -55.5t67.5 -163.5zM389 173l15 88l-87 -4q-43 -2 -60 -16.5t-17 -50.5
q0 -42 48 -42q58 0 101 25z" />
    <glyph glyph-name="underscore.allsmall" 
d="M439 -139h-510l9 46h516q-6 -27 -15 -46z" />
    <glyph glyph-name="asciitilde.small" horiz-adv-x="492" 
d="M18 201q30 79 61.5 109t70.5 30q30 0 68 -26l72 -51.5t56 -25.5q45 0 80 103q32 0 46 -12q-30 -76 -61 -106.5t-70 -30.5q-25 0 -54 16t-51.5 35.5t-48 35.5t-43.5 16q-24 0 -41.5 -23.5t-37.5 -79.5q-29 0 -47 10z" />
    <glyph glyph-name="dagger.allsmall" 
d="M447 306h-167l-54 -306q-21 -8 -49 -8l55 314h-167l8 44h167l34 195h48l-34 -195h167z" />
    <glyph glyph-name="cent.allsmall" 
d="M389 80q-42 -25 -111 -29l-7 -51h-45l12 52q-77 4 -117.5 48.5t-40.5 122.5q0 29 6 64q19 110 83 159.5t147 49.5l6 49h45l-10 -49q52 -3 88 -18q-4 -30 -13 -48q-43 22 -110 22q-76 0 -122.5 -39.5t-61.5 -128.5q-6 -37 -6 -65q0 -70 35.5 -96.5t104.5 -26.5
q62 0 113 31q4 -17 4 -47z" />
    <glyph glyph-name="sterling.allsmall" 
d="M413 46q-7 -30 -15 -46h-351l8 43q55 12 85 44t30 79q0 48 -27 99h-82l8 45h58q-11 39 -11 65q0 85 56.5 132.5t151.5 47.5q75 0 132 -15q-2 -29 -13 -51q-53 19 -120 19q-151 0 -151 -130q0 -35 13 -68h222q-5 -26 -15 -45h-190q22 -49 22 -96q0 -81 -77 -123h266z" />
    <glyph glyph-name="section.allsmall" 
d="M455 234q0 -90 -120 -138q-24 11 -35 29q101 38 104 100q0 33 -28 52t-68 27.5t-80 18.5t-68 35t-28 67q0 60 51 95t140 35q69 0 129 -12q-2 -30 -12 -48q-60 16 -133 16q-125 0 -125 -80q0 -29 28 -45.5t68 -25t80.5 -19.5t68.5 -37.5t28 -69.5zM366 -9q0 -60 -51 -95
t-140 -35q-69 0 -129 12q2 30 12 48q60 -16 133 -16q125 0 125 80q0 29 -28 45.5t-68 25t-80.5 19.5t-68.5 37.5t-28 69.5q0 90 120 138q24 -11 35 -29q-101 -38 -104 -100q0 -33 28 -52t68 -27.5t80 -18.5t68 -35t28 -67z" />
    <glyph glyph-name="bullet.allsmall" horiz-adv-x="352" 
d="M266 293q0 -48 -30 -77t-77 -29q-36 0 -56.5 21.5t-20.5 55.5q0 48 31 78t76 30q35 0 56 -20.5t21 -58.5z" />
    <glyph glyph-name="paragraph.allsmall" 
d="M480 536l-72 -413q-17 -94 -55.5 -154.5t-122.5 -107.5l-22 37q72 39 105.5 93t47.5 132l66 375q-32 10 -92 10l-67 -385q-11 -63 -32.5 -97.5t-68.5 -63.5l-23 37q61 34 75 114l14 79h-16q-61 0 -98 35t-37 103q0 110 67 167.5t168 57.5q97 0 163 -19z" />
    <glyph glyph-name="germandbls.small" horiz-adv-x="874" 
d="M842 540q-4 -31 -13 -51q-53 17 -123 17q-130 0 -130 -93q0 -33 23.5 -57t57.5 -41t68 -36t57.5 -52.5t23.5 -79.5q0 -66 -52.5 -111.5t-143.5 -45.5q-95 0 -150 26q5 29 15 50q56 -27 140 -27q134 0 134 102q0 37 -23.5 64t-57.5 45.5l-68 37t-57.5 48t-23.5 69.5
q0 69 56.5 109.5t138.5 40.5q75 0 128 -15zM405 540q-4 -31 -13 -51q-53 17 -123 17q-130 0 -130 -93q0 -33 23.5 -57t57.5 -41t68 -36t57.5 -52.5t23.5 -79.5q0 -66 -52.5 -111.5t-143.5 -45.5q-95 0 -150 26q5 29 15 50q56 -27 140 -27q134 0 134 102q0 37 -23.5 64
t-57.5 45.5l-68 37t-57.5 48t-23.5 69.5q0 69 56.5 109.5t138.5 40.5q75 0 128 -15z" />
    <glyph glyph-name="trademark.allsmall" horiz-adv-x="713" 
d="M665 545q-3 -159 -18 -308q-13 -3 -36 -3l15 216q2 20 4 33h-4q-4 -17 -12 -30l-135 -217h-40l-53 213q-3 12 -3 34h-4q-3 -18 -8 -33l-64 -216q-23 0 -36 3q38 156 93 308h39l59 -235q4 -18 4 -29h4q6 19 12 29l145 235h38zM301 545q-2 -19 -12 -37h-98l-48 -272h-41
l48 272h-101l7 37h245z" />
    <glyph glyph-name="notequal.allsmall" horiz-adv-x="489" 
d="M462 511l-94 -114h74l-8 -45h-103l-119 -145h197l-8 -45h-226l-103 -126h-45l103 126h-82l8 45h111l118 145h-204l8 45h233l93 114h47z" />
    <glyph glyph-name="infinity.allsmall" horiz-adv-x="880" 
d="M825 301q0 -110 -59.5 -174.5t-161.5 -64.5q-55 0 -97.5 30t-81.5 116q-57 -81 -108 -113.5t-111 -32.5q-80 0 -120.5 45.5t-40.5 122.5q0 102 57 168.5t165 66.5q57 0 101 -33t76 -114q60 84 110.5 115.5t108.5 31.5q76 0 119 -43t43 -121zM775 299q0 121 -115 121
q-55 0 -102 -36.5t-100 -121.5q27 -88 63 -121t87 -33q77 0 122 48.5t45 142.5zM412 266q-25 79 -59.5 116t-90.5 37q-79 0 -123 -49.5t-44 -141.5q0 -121 115 -121q110 0 202 159z" />
    <glyph glyph-name="plusminus.allsmall" horiz-adv-x="431" 
d="M380 327h-135l-24 -134h-43l24 134h-133l7 42h133l24 131h43l-24 -131h135zM330 45h-311l8 42h311z" />
    <glyph glyph-name="lessequal.allsmall" horiz-adv-x="431" 
d="M378 495l-220 -175l158 -174v-6h-51l-168 183l227 177h54v-5zM338 87l-8 -42h-311l8 42h311z" />
    <glyph glyph-name="greaterequal.allsmall" horiz-adv-x="431" 
d="M338 87l-8 -42h-311l8 42h311zM348 317l-227 -177h-54v5l220 175l-158 174v6h51z" />
    <glyph glyph-name="yen.allsmall" 
d="M501 542q-95 -150 -209 -291h138q-3 -19 -14 -44h-152l-37 -207h-51l37 207h-158l7 44h136q-57 125 -104 291q21 6 50 6l89 -265q4 -9 8 -33h5q10 20 19 33l185 265q23 0 51 -6z" />
    <glyph glyph-name="mu.allsmall" horiz-adv-x="581" 
d="M517 524l-93 -524h-53l9 45h-3q-76 -55 -152 -55q-70 0 -106 36l-41 -232h-53l128 725q23 5 54 5l-68 -383q-2 -16 -2 -26q0 -74 91 -74q81 0 160 54l75 424q22 5 54 5z" />
    <glyph glyph-name="ordfeminine.allsmall" horiz-adv-x="380" 
d="M348 220q-14 -6 -43 -6l-25 101h-158l-60 -101q-32 0 -44 6q90 162 197 325h51q39 -133 82 -325zM272 353l-32 131q-4 16 -4 27h-4q-6 -17 -12 -27l-77 -131h129z" />
    <glyph glyph-name="ordmasculine.allsmall" horiz-adv-x="380" 
d="M354 422q0 -30 -4 -48q-25 -163 -159 -163q-57 0 -91.5 32.5t-34.5 94.5q0 25 4 50q27 162 159 162q56 0 91 -31.5t35 -96.5zM308 425q0 87 -80 87q-45 0 -72.5 -27.5t-40.5 -101.5q-4 -24 -4 -48q0 -86 80 -86q47 0 74 29.5t39 100.5q4 25 4 46z" />
    <glyph glyph-name="logicalnot.allsmall" horiz-adv-x="498" 
d="M420 138q-21 -5 -47 -5l33 186h-371l8 46h417z" />
    <glyph glyph-name="radical.allsmall" horiz-adv-x="523" 
d="M581 674q-3 -26 -11 -49h-98l-183 -625h-46q-90 240 -172 531q21 7 44 7l133 -414q7 -21 13 -55h5q5 27 16 61l157 544h142z" />
    <glyph glyph-name="florin.allsmall" 
d="M465 552q-2 -28 -10 -52q-22 4 -46 4q-97 0 -117 -111l-15 -87h170q-5 -24 -13 -46h-165l-63 -353h-53l63 353h-140l8 46h140l14 83q14 86 63 126t122 40q19 0 42 -3z" />
    <glyph glyph-name="approxequal.allsmall" horiz-adv-x="496" 
d="M456 365q-45 -34 -98 -34q-34 0 -93.5 21.5t-92.5 21.5q-55 0 -105 -41l5 49q47 38 108 38q33 0 92.5 -21t93.5 -21q48 0 95 36zM423 176q-45 -34 -98 -34q-34 0 -93.5 21.5t-92.5 21.5q-55 0 -105 -41l5 49q47 38 108 38q33 0 92.5 -21t93.5 -21q48 0 95 36z" />
    <glyph glyph-name="guillemotleft.small" horiz-adv-x="461" 
d="M169 56l-42 -13l-101 224l176 216l42 -14l-160 -206zM379 56l-42 -13l-101 224l176 216l42 -14l-160 -206z" />
    <glyph glyph-name="guillemotright.small" horiz-adv-x="461" 
d="M434 259l-176 -216l-42 14l160 206l-85 207l42 13zM224 259l-176 -216l-42 14l160 206l-85 207l42 13z" />
    <glyph glyph-name="ellipsis.allsmall" horiz-adv-x="562" 
d="M278 32q0 -20 -10.5 -32t-26.5 -12q-32 0 -32 31q0 20 10.5 31.5t26.5 11.5q32 0 32 -30zM96 32q0 -20 -10.5 -32t-26.5 -12q-32 0 -32 31q0 20 10.5 31.5t26.5 11.5q32 0 32 -30zM460 32q0 -20 -10.5 -32t-26.5 -12q-32 0 -32 31q0 20 10.5 31.5t26.5 11.5q32 0 32 -30z
" />
    <glyph glyph-name="endash.small" 
d="M441 243h-392l9 46h398q-6 -27 -15 -46z" />
    <glyph glyph-name="emdash.small" horiz-adv-x="1000" 
d="M924 243h-863l9 46h869q-6 -27 -15 -46z" />
    <glyph glyph-name="divide.allsmall" horiz-adv-x="407" 
d="M335 253h-271l7 42h271zM204 89q0 -20 -10.5 -32t-26.5 -12q-32 0 -32 31q0 20 10.5 31.5t26.5 11.5q32 0 32 -30zM272 470q0 -20 -10.5 -32t-26.5 -12q-32 0 -32 31q0 20 10.5 31.5t26.5 11.5q32 0 32 -30z" />
    <glyph glyph-name="lozenge.allsmall" horiz-adv-x="466" 
d="M408 282l-5 -30q-103 -150 -194 -262h-48q-62 140 -102 263l5 30q88 133 194 262h48q59 -129 102 -263zM365 270l-89 235l-174 -240l89 -235z" />
    <glyph glyph-name="currency.allsmall" 
d="M476 536q-2 -27 -12 -51q-46 22 -111 22q-69 0 -111.5 -30t-67.5 -107h235q-4 -24 -15 -44h-233q-11 -55 -15 -91h223q-4 -23 -14 -44h-212q0 -82 31 -118t93 -36q73 0 133 30q2 -12 2 -21q0 -13 -4 -33q-51 -23 -132 -23q-87 0 -130.5 49t-43.5 152h-61l7 44h56
q8 56 15 91h-55l8 44h59q32 102 91.5 143.5t147.5 41.5q75 0 116 -19z" />
    <glyph glyph-name="guilsinglleft.small" horiz-adv-x="251" 
d="M169 56l-42 -13l-101 224l176 216l42 -14l-160 -206z" />
    <glyph glyph-name="guilsinglright.small" horiz-adv-x="251" 
d="M224 259l-176 -216l-42 14l160 206l-85 207l42 13z" />
    <glyph glyph-name="fi.small" horiz-adv-x="706" 
d="M464 545q-3 -25 -13 -48h-255l-34 -197h208l-9 -48h-208l-44 -252h-55l96 545h314zM660 545l-96 -545h-55l96 545h55z" />
    <glyph glyph-name="fl.small" horiz-adv-x="888" 
d="M464 545q-3 -25 -13 -48h-255l-34 -197h208l-9 -48h-208l-44 -252h-55l96 545h314zM832 49q-6 -30 -15 -49h-308l96 545h55l-87 -496h259z" />
    <glyph glyph-name="daggerdbl.allsmall" 
d="M419 155h-166l-27 -155q-21 -8 -49 -8l28 163h-166l8 44h166l24 133h-166l7 44h166l30 169h48l-30 -169h166l-7 -44h-166l-24 -133h166z" />
    <glyph glyph-name="periodcentered.small" horiz-adv-x="200" 
d="M135 285q0 -20 -10.5 -32t-26.5 -12q-32 0 -32 31q0 20 10.5 31.5t26.5 11.5q32 0 32 -30z" />
    <glyph glyph-name="perthousand.allsmall" horiz-adv-x="1031" 
d="M328 441q0 -23 -4 -43q-25 -150 -146 -150q-49 0 -79.5 31t-30.5 86q0 15 4 39q12 75 51.5 113t97.5 38q50 0 78.5 -29.5t28.5 -84.5zM280 448q0 68 -65 68q-42 0 -62 -27t-31 -88q-5 -28 -5 -44q0 -69 66 -69q43 0 62.5 26.5t29.5 86.5q5 28 5 47zM560 548l-353 -558
q-19 3 -38 15l348 550q22 0 43 -7zM655 183q0 -23 -4 -43q-25 -150 -146 -150q-49 0 -79.5 31t-30.5 86q0 15 4 39q12 75 51.5 113t97.5 38q50 0 78.5 -29.5t28.5 -84.5zM607 190q0 68 -65 68q-42 0 -62 -27t-31 -88q-5 -28 -5 -44q0 -69 66 -69q43 0 62.5 26.5t29.5 86.5
q5 28 5 47zM961 183q0 -23 -4 -43q-25 -150 -146 -150q-49 0 -79.5 31t-30.5 86q0 15 4 39q12 75 51.5 113t97.5 38q50 0 78.5 -29.5t28.5 -84.5zM913 190q0 68 -65 68q-42 0 -62 -27t-31 -88q-5 -28 -5 -44q0 -69 66 -69q43 0 62.5 26.5t29.5 86.5q5 28 5 47z" />
    <glyph glyph-name="Eth.alt" horiz-adv-x="695" 
d="M647 430q0 -215 -95 -327t-257 -112q-117 0 -223 14l58 328h-69l9 50h69l36 205q2 10 2 16q0 26 -32 26h-45l2 12q7 42 56 42q40 0 68 -28q74 28 160 28q118 0 189.5 -63t71.5 -191zM588 427q0 209 -211 209q-73 0 -141 -22l-41 -231h131q-3 -20 -18 -50h-122l-50 -285
q77 -9 154 -9q138 0 218 98t80 290z" />
    <glyph glyph-name="lslash.alt" horiz-adv-x="280" 
d="M246 744l-59 -335l71 23q-5 -31 -16 -53l-64 -21l-49 -277q-1 -5 -1 -15q0 -25 29 -25h55l-2 -14q-5 -37 -47 -37q-41 0 -64.5 18.5t-23.5 53.5q0 13 3 28l44 250l-64 -20l9 51l64 20l61 347q26 6 54 6z" />
    <glyph glyph-name="Yacute.alt" horiz-adv-x="559" 
d="M612 670q-140 -211 -290 -407l-46 -263h-57l46 262l-124 340q-4 10 -6.5 15t-9.5 9t-17 4h-45l2 12q7 42 58 42q32 0 49 -19.5t29 -55.5l86 -254q7 -21 12 -47h3q16 30 29 49l222 318q39 0 59 -5zM461 815q-43 -59 -107 -110l-41 6l96 104h52z" />
    <glyph glyph-name="yacute.alt" horiz-adv-x="506" 
d="M535 519l-278 -525q-65 -123 -112.5 -166.5t-114.5 -43.5q-42 0 -80 19q8 29 18 48q28 -16 70 -16q66 0 114 80l50 84l-83 450q-4 19 -10.5 25.5t-22.5 6.5h-43l2 14q6 37 52 37q35 0 53 -16.5t24 -52.5l59 -353q5 -33 5 -61h3q11 34 26 63l215 413q35 0 53 -6zM449 731
q-41 -77 -127 -159q-24 0 -38 6l113 153h52z" />
    <glyph glyph-name="Zcaron.alt" horiz-adv-x="540" 
d="M552 674l-2 -46l-482 -578h329q70 0 70 -59q0 -30 -14.5 -46t-38.5 -16h-10l5 29q3 15 3 19q0 23 -26 23h-389l3 51l478 573h-361q0 25 5 50h430zM461 813q-66 -64 -117 -105h-66q-40 44 -80 104q20 6 42 6l74 -82l102 82q30 0 45 -5z" />
    <glyph glyph-name="zcaron.alt" horiz-adv-x="457" 
d="M443 522l-2 -43l-378 -434h305q0 -26 -5 -45h-365l2 47l373 430h-228q-54 0 -54 40q0 48 53 48l-3 -17q-1 -6 -1 -12q0 -14 17 -14h286zM165 723q18 6 39 6l69 -120l113 120q26 0 43 -5q-65 -83 -134 -154h-51q-46 74 -79 153z" />
    <glyph glyph-name="ampersand.alt" horiz-adv-x="703" 
d="M636 406q0 -183 -87.5 -299.5t-246.5 -116.5q-234 0 -234 203q0 29 4 56h-58q0 24 10 42h56q45 219 227 219q76 0 119.5 -37.5t43.5 -110.5q0 -51 -18 -113h-325q-3 -27 -3 -50q0 -83 43.5 -121.5t132.5 -38.5q134 0 208 96.5t74 269.5q0 121 -56.5 174.5t-165.5 56.5
q5 24 19 48q128 -4 192.5 -77.5t64.5 -200.5zM419 364q0 101 -115 101q-65 0 -107 -41t-62 -133h273q11 38 11 73z" />
    <glyph glyph-name="at.alt" horiz-adv-x="848" 
d="M505 168l53 300q-39 17 -93 17q-61 0 -101.5 -38t-58.5 -134q-7 -36 -7 -68q0 -117 99 -117q45 0 108 40zM793 392q0 -130 -56 -218.5t-143 -88.5q-69 0 -86 47h-2q-64 -47 -126 -47q-58 0 -93.5 41.5t-35.5 119.5q0 31 6 67q21 117 76.5 164t138.5 47q54 0 93 -13
q13 9 32 9q9 0 13 -1l-60 -342q-2 -12 -2 -18q0 -36 47 -36q57 0 105 71t48 200q0 118 -74.5 181.5t-199.5 63.5q-172 0 -266.5 -106.5t-94.5 -302.5q0 -121 61 -188t176 -67q31 0 77 7.5t72 16.5q2 -12 2 -22q0 -15 -3 -26q-61 -21 -151 -21q-127 0 -205 78.5t-78 218.5
q0 115 32.5 204t89.5 143.5t130 82t160 27.5q145 0 231 -74.5t86 -217.5z" />
    <glyph glyph-name="A.alt" horiz-adv-x="573" 
d="M521 5q-19 -8 -52 -10l-40 236h-262l-75 -148q-26 -51 -50.5 -72t-56.5 -21q-43 0 -43 33q0 7 3 21h28q24 0 34 7.5t22 29.5l317 593h56q68 -346 119 -669zM421 277l-53 307q-1 5 -1 15q0 13 1 25h-5q-5 -27 -12 -40l-160 -307h230z" />
    <glyph glyph-name="B.alt" horiz-adv-x="588" 
d="M488 524q0 114 -131 114q-58 0 -123 -21l-44 -247h135q74 0 118.5 38.5t44.5 115.5zM456 209q0 116 -130 116h-143l-49 -277q72 -9 120 -9q202 0 202 170zM545 526q0 -62 -34.5 -109t-90.5 -62v-5q95 -36 95 -141q0 -111 -74 -164.5t-189 -53.5q-79 0 -180 14l103 583
q2 10 2 16q0 26 -32 26h-45l2 12q7 42 56 42q40 0 67 -27q63 27 133 27q86 0 136.5 -39.5t50.5 -118.5z" />
    <glyph glyph-name="D.alt" horiz-adv-x="695" 
d="M647 430q0 -215 -95 -327t-257 -112q-117 0 -223 14l103 583q2 10 2 16q0 26 -32 26h-45l2 12q7 42 56 42q40 0 68 -28q74 28 160 28q118 0 189.5 -63t71.5 -191zM588 427q0 209 -211 209q-73 0 -141 -22l-100 -566q77 -9 154 -9q138 0 218 98t80 290z" />
    <glyph glyph-name="H.alt" horiz-adv-x="680" 
d="M641 674l-103 -583q-2 -10 -2 -17q0 -30 37 -30h42l-2 -12q-7 -42 -52 -42q-39 0 -60 21.5t-21 55.5q0 20 3 35l41 233h-346l-59 -335h-57l119 674h57l-51 -289h346l51 289h57z" />
    <glyph glyph-name="J.alt" horiz-adv-x="289" 
d="M239 623q0 -15 -4 -33l-98 -561q-16 -91 -59 -134t-126 -49q-4 12 -4 29q0 16 3 28q56 0 86.5 30t41.5 94l99 561q2 8 2 17q0 25 -32 25h-45l2 12q7 42 58 42q76 0 76 -61z" />
    <glyph glyph-name="K.alt" horiz-adv-x="602" 
d="M620 669l-285 -269l126 -317q11 -24 21.5 -31.5t32.5 -7.5h36l-2 -13q-6 -41 -49 -41q-58 0 -90 68l-115 304l-136 -127l-41 -235h-56l119 674h56l-65 -368h3q56 63 154 156l228 217q36 0 63 -10z" />
    <glyph glyph-name="M.alt" horiz-adv-x="840" 
d="M764 674q-28 -413 -56 -674h-52l49 551l7 55h-5q-8 -35 -18 -55l-280 -551h-51l-83 551q-2 14 -2 55h-5q-3 -35 -8 -55l-128 -475q-24 -86 -94 -86q-45 0 -45 33q0 7 3 21h34q21 0 31.5 8.5t16.5 30.5l165 591h64l82 -541q2 -15 2 -71h5q13 44 27 72l275 540h66z" />
    <glyph glyph-name="N.alt" horiz-adv-x="689" 
d="M650 674l-118 -671q-24 -8 -49 -8l-237 554q-10 22 -17 56l-5 -1q0 -33 -5 -65l-82 -465q-15 -84 -88 -84q-45 0 -45 33q0 7 3 21h34q21 0 30 7.5t13 28.5l104 588q29 8 59 8l224 -522q13 -30 22 -70l5 1q2 44 8 77l90 512h54z" />
    <glyph glyph-name="P.alt" horiz-adv-x="562" 
d="M490 508q0 126 -142 126q-56 0 -112 -20l-52 -292h93q96 0 154.5 44.5t58.5 141.5zM225 656q62 28 129 28q88 0 141 -42.5t53 -134.5q0 -112 -75.5 -172.5t-191.5 -60.5h-105l-49 -274h-56l104 588q2 10 2 16q0 26 -32 26h-45l2 12q7 42 56 42q39 0 67 -28z" />
    <glyph glyph-name="Q.alt" horiz-adv-x="659" 
d="M830 -149l-29 -43q-42 29 -74.5 39t-72.5 10q-36 0 -130.5 -21t-129.5 -21q-75 0 -114 29t-39 96q0 28 6 57q-176 29 -176 241q0 77 24 176q32 132 104.5 201t178.5 69q116 0 174.5 -63.5t58.5 -184.5q0 -77 -24 -176q-32 -132 -105 -200t-182 -68q-4 -24 -4 -45
q0 -44 22.5 -62.5t78.5 -18.5q30 0 123 20.5t138 20.5q50 0 84.5 -10.5t87.5 -45.5zM552 436q0 102 -43.5 149.5t-130.5 47.5q-90 0 -140 -51.5t-82 -167.5q-26 -95 -26 -176q0 -102 43.5 -149.5t130.5 -47.5q90 0 140 51.5t82 167.5q26 95 26 176z" />
    <glyph glyph-name="R.alt" horiz-adv-x="598" 
d="M542 512q0 -80 -46 -135.5t-131 -69.5l87 -224q11 -24 21.5 -31.5t32.5 -7.5h36l-2 -13q-6 -41 -49 -41q-55 0 -83 57l-96 247h-132l-53 -294h-56l104 588q2 10 2 16q0 26 -32 26h-45l2 12q7 42 56 42q37 0 67 -28q56 28 126 28q86 0 138.5 -42.5t52.5 -129.5zM484 512
q0 122 -136 122q-57 0 -112 -20l-48 -271h102q92 0 143 43t51 126z" />
    <glyph glyph-name="T.alt" horiz-adv-x="492" 
d="M550 674q-5 -27 -16 -50h-189l-110 -624h-57l110 624h-134q-21 0 -30.5 -8.5t-13.5 -29.5l-6 -35h-10q-37 0 -37 38q0 85 105 85h388z" />
    <glyph glyph-name="U.alt" horiz-adv-x="675" 
d="M637 674l-73 -413q-12 -68 -28 -114t-44.5 -83.5t-74 -55.5t-109.5 -18q-98 0 -150.5 43t-52.5 142q0 42 13 113l52 296q2 12 2 19q0 27 -32 27h-45l2 12q7 42 58 42q36 0 56 -17t20 -48q0 -16 -4 -34l-55 -310q-11 -66 -11 -100q0 -68 35.5 -101.5t114.5 -33.5
q86 0 132.5 47.5t65.5 158.5l76 428h52z" />
    <glyph glyph-name="V.alt" horiz-adv-x="587" 
d="M629 670q-173 -370 -342 -670h-58l-97 598q-5 32 -33 32h-45l2 12q7 42 58 42q62 0 73 -75l74 -505q5 -40 5 -54h5q9 32 20 54l288 572q24 0 50 -6z" />
    <glyph glyph-name="W.alt" horiz-adv-x="898" 
d="M923 670q-123 -319 -288 -670h-58l-54 533q-2 20 -2 72h-5q-10 -45 -23 -73l-246 -532h-62l-42 596q-3 34 -33 34h-45l2 12q7 42 58 42q34 0 52 -21t20 -54l27 -489q2 -40 2 -63h5q9 42 19 63l258 554h50l55 -554q2 -16 2 -63h5q9 38 19 63l234 556q32 0 50 -6z" />
    <glyph glyph-name="X.alt" horiz-adv-x="591" 
d="M624 670l-263 -322l156 -344q-23 -8 -55 -8l-125 279q-7 15 -13 40h-4q-10 -18 -28 -40l-171 -213q-34 -43 -53 -57.5t-46 -14.5q-41 0 -41 33q0 7 3 21h26q21 0 32.5 7.5t29.5 29.5l221 268l-158 321q25 5 61 5l122 -260q7 -15 11 -36h4q10 18 25 37l204 259q35 0 62 -5
z" />
    <glyph glyph-name="Y.alt" horiz-adv-x="559" 
d="M612 670q-140 -211 -290 -407l-46 -263h-57l46 262l-124 340q-4 10 -6.5 15t-9.5 9t-17 4h-45l2 12q7 42 58 42q32 0 49 -19.5t29 -55.5l86 -254q7 -21 12 -47h3q16 30 29 49l222 318q39 0 59 -5z" />
    <glyph glyph-name="Z.alt" horiz-adv-x="540" 
d="M552 674l-2 -46l-482 -578h329q70 0 70 -59q0 -30 -14.5 -46t-38.5 -16h-10l5 29q3 15 3 19q0 23 -26 23h-389l3 51l478 573h-361q0 25 5 50h430z" />
    <glyph glyph-name="underscore.alt" 
d="M383 -139h-392l9 46h398q-6 -27 -15 -46z" />
    <glyph glyph-name="a.alt" horiz-adv-x="574" 
d="M433 465q-67 18 -118 18q-143 0 -181 -173q-17 -79 -17 -129q0 -141 122 -141q64 0 128 49zM501 41l-2 -14q-6 -37 -50 -37q-63 0 -83 51h-3q-72 -51 -136 -51q-71 0 -117.5 47.5t-46.5 138.5q0 76 17 141q54 215 241 215q53 0 121 -16q17 11 39 11q11 0 16 -1l-79 -447
q-1 -5 -1 -13q0 -25 29 -25h55z" />
    <glyph glyph-name="d.alt" horiz-adv-x="579" 
d="M377 90l65 371q-60 22 -127 22q-139 0 -180 -167q-18 -77 -18 -139q0 -71 33.5 -104t88.5 -33q75 0 138 50zM545 744l-117 -665q-1 -5 -1 -13q0 -25 29 -25h55l-2 -14q-6 -37 -50 -37q-63 0 -84 51h-3q-70 -51 -145 -51q-72 0 -118 48.5t-46 137.5q0 73 18 147
q53 209 240 209q76 0 130 -22l40 228q24 6 54 6z" />
    <glyph glyph-name="f.alt" horiz-adv-x="335" 
d="M380 741q-1 -21 -11 -50q-20 3 -43 3q-73 0 -89 -91l-14 -81h119q-4 -20 -13 -45h-114l-97 -550q-25 -143 -158 -143q-22 0 -38 3q1 21 11 50q19 -3 43 -3q73 0 89 91l97 552h-66l8 45h66l14 79q25 143 158 143q22 0 38 -3z" />
    <glyph glyph-name="g.alt" horiz-adv-x="567" 
d="M442 459q-53 24 -120 24q-150 0 -188 -173q-17 -78 -17 -125q0 -66 32.5 -100.5t92.5 -34.5q73 0 137 50zM500 489l-90 -508q-18 -99 -63.5 -148t-141.5 -49q-112 0 -191 43q4 31 16 51q76 -44 174 -44q73 0 106.5 36t48.5 118l11 61h-3q-63 -49 -140 -49
q-73 0 -118.5 47t-45.5 136q0 66 18 137q30 115 91.5 163.5t155.5 48.5q96 0 172 -43z" />
    <glyph glyph-name="h.alt" horiz-adv-x="599" 
d="M448 381q2 10 2 25q0 75 -95 75q-88 0 -165 -55l-75 -426h-53l130 738q26 6 54 6l-47 -266h3q73 54 161 54q61 0 100.5 -29t39.5 -93q0 -17 -4 -39l-51 -290q-1 -5 -1 -15q0 -25 29 -25h55l-2 -14q-5 -37 -47 -37q-41 0 -64.5 18.5t-23.5 53.5q0 13 3 28z" />
    <glyph glyph-name="i.alt" horiz-adv-x="279" 
d="M243 681q0 -20 -11 -32t-27 -12q-33 0 -33 31q0 20 11 32t27 12q33 0 33 -31zM212 41l-2 -14q-3 -20 -13.5 -28.5t-32.5 -8.5q-42 0 -65.5 18.5t-23.5 53.5q0 13 3 28l76 432h53l-78 -442q-1 -5 -1 -14q0 -25 29 -25h55z" />
    <glyph glyph-name="k.alt" horiz-adv-x="514" 
d="M507 518l-225 -206l110 -243q13 -28 46 -28h36l-2 -14q-5 -37 -47 -37q-56 0 -78 49l-104 237l-94 -86l-34 -190h-53l130 738q26 6 54 6l-85 -486h3q71 74 161 157l121 111q39 0 61 -8z" />
    <glyph glyph-name="l.alt" horiz-adv-x="280" 
d="M246 744l-117 -663q-1 -5 -1 -15q0 -25 29 -25h55l-2 -14q-5 -37 -47 -37q-41 0 -64.5 18.5t-23.5 53.5q0 13 3 28l114 648q26 6 54 6z" />
    <glyph glyph-name="m.alt" horiz-adv-x="867" 
d="M716 381q2 14 2 25q0 75 -85 75q-43 0 -75.5 -12.5t-74.5 -42.5l-75 -426h-53l67 381q3 18 3 27q0 73 -83 73q-80 0 -152 -55l-75 -426h-53l91 519q22 5 54 5l-8 -46h3q72 54 155 54q88 0 109 -68q85 68 178 68q55 0 91 -29t36 -90q0 -16 -4 -42l-51 -290q-1 -5 -1 -15
q0 -25 29 -25h55l-2 -14q-5 -37 -47 -37q-41 0 -64.5 18.5t-23.5 53.5q0 13 3 28z" />
    <glyph glyph-name="n.alt" horiz-adv-x="595" 
d="M444 381q2 10 2 24q0 76 -91 76q-89 0 -165 -55l-75 -426h-53l91 519q22 5 54 5l-8 -46h3q73 54 161 54q58 0 97 -29.5t39 -92.5q0 -19 -4 -39l-51 -290q-1 -5 -1 -15q0 -25 29 -25h55l-2 -14q-5 -37 -47 -37q-41 0 -64.5 18.5t-23.5 53.5q0 13 3 28z" />
    <glyph glyph-name="u.alt" horiz-adv-x="586" 
d="M382 49h-3q-77 -59 -162 -59q-57 0 -96.5 29.5t-39.5 92.5q0 17 4 39l65 368q22 5 54 5l-68 -383q-2 -12 -2 -24q0 -76 91 -76q80 0 160 54l75 424q20 5 54 5l-79 -445q-1 -4 -1 -13q0 -25 29 -25h55l-2 -14q-5 -37 -47 -37q-78 0 -87 59z" />
    <glyph glyph-name="v.alt" horiz-adv-x="512" 
d="M521 519q-115 -237 -277 -519h-57l-81 449q-4 19 -11 25.5t-23 6.5h-43l2 14q6 37 52 37q35 0 52.5 -16.5t23.5 -52.5l60 -355q5 -27 5 -60h3q9 30 26 62l216 414q36 0 52 -5z" />
    <glyph glyph-name="w.alt" horiz-adv-x="778" 
d="M779 519q-103 -269 -229 -519h-53l-62 389q-3 18 -3 46v27h-3q-14 -44 -26 -68l-200 -394h-57l-39 446q-3 35 -35 35h-43l2 14q6 37 52 37q72 0 76 -69l23 -329q1 -8 1 -82h3q14 44 30 74l198 396h50l63 -397q4 -22 4 -73h3q9 32 28 74l166 398q35 0 51 -5z" />
    <glyph glyph-name="x.alt" horiz-adv-x="491" 
d="M484 519l-210 -251l98 -198q14 -29 52 -29h34l-2 -14q-3 -20 -12.5 -28.5t-30.5 -8.5q-31 0 -52.5 14t-38.5 50l-70 150q-5 10 -10 32h-3q-11 -16 -25 -33l-166 -207q-40 0 -58 8l222 268l-120 247q22 6 56 6l86 -189q6 -16 11 -33h3q7 11 25 33l152 189q37 0 59 -6z" />
    <glyph glyph-name="y.alt" horiz-adv-x="506" 
d="M535 519l-278 -525q-65 -123 -112.5 -166.5t-114.5 -43.5q-42 0 -80 19q8 29 18 48q28 -16 70 -16q66 0 114 80l50 84l-83 450q-4 19 -10.5 25.5t-22.5 6.5h-43l2 14q6 37 52 37q35 0 53 -16.5t24 -52.5l59 -353q5 -33 5 -61h3q11 34 26 63l215 413q35 0 53 -6z" />
    <glyph glyph-name="z.alt" horiz-adv-x="457" 
d="M443 522l-2 -43l-378 -434h305q0 -26 -5 -45h-365l2 47l373 430h-228q-54 0 -54 40q0 48 53 48l-3 -17q-1 -6 -1 -12q0 -14 17 -14h286z" />
    <glyph glyph-name="Adieresis.alt" horiz-adv-x="573" 
d="M327 760q0 -18 -11 -30t-27 -12q-33 0 -33 29q0 18 11 30t27 12q33 0 33 -29zM500 760q0 -18 -11 -30t-27 -12q-33 0 -33 29q0 18 11 30t27 12q33 0 33 -29zM521 5q-19 -8 -52 -10l-40 236h-262l-75 -148q-26 -51 -50.5 -72t-56.5 -21q-43 0 -43 33q0 7 3 21h28
q24 0 34 7.5t22 29.5l317 593h56q68 -346 119 -669zM421 277l-53 307q-1 5 -1 15q0 13 1 25h-5q-5 -27 -12 -40l-160 -307h230z" />
    <glyph glyph-name="Aring.alt" horiz-adv-x="573" 
d="M521 5q-19 -8 -52 -10l-40 236h-262l-75 -148q-26 -51 -50.5 -72t-56.5 -21q-43 0 -43 33q0 7 3 21h28q24 0 34 7.5t22 29.5l311 582q-57 15 -57 75q0 49 33.5 78.5t85.5 29.5q42 0 65.5 -20.5t23.5 -56.5q0 -42 -23 -70t-64 -36q66 -333 117 -658zM448 767
q0 21 -13.5 33t-36.5 12q-32 0 -52.5 -18.5t-20.5 -52.5q0 -22 13.5 -34.5t36.5 -12.5q32 0 52.5 19t20.5 54zM421 277l-53 307q-1 5 -1 15q0 13 1 25h-5q-5 -27 -12 -40l-160 -307h230z" />
    <glyph glyph-name="Ntilde.alt" horiz-adv-x="689" 
d="M606 804q-21 -56 -43.5 -74t-56.5 -18q-26 0 -73 26.5t-63 26.5q-19 0 -31.5 -13t-23.5 -49q-23 0 -36 10q19 54 42 72.5t56 18.5q25 0 71 -26.5t63 -26.5q21 0 33 11.5t24 50.5q18 0 38 -9zM650 674l-118 -671q-24 -8 -49 -8l-237 554q-10 22 -17 56l-5 -1q0 -33 -5 -65
l-82 -465q-15 -84 -88 -84q-45 0 -45 33q0 7 3 21h34q21 0 30 7.5t13 28.5l104 588q29 8 59 8l224 -522q13 -30 22 -70l5 1q2 44 8 77l90 512h54z" />
    <glyph glyph-name="Udieresis.alt" horiz-adv-x="675" 
d="M356 760q0 -18 -11 -30t-27 -12q-33 0 -33 29q0 18 11 30t27 12q33 0 33 -29zM529 760q0 -18 -11 -30t-27 -12q-33 0 -33 29q0 18 11 30t27 12q33 0 33 -29zM637 674l-73 -413q-12 -68 -28 -114t-44.5 -83.5t-74 -55.5t-109.5 -18q-98 0 -150.5 43t-52.5 142q0 42 13 113
l52 296q2 12 2 19q0 27 -32 27h-45l2 12q7 42 58 42q36 0 56 -17t20 -48q0 -16 -4 -34l-55 -310q-11 -66 -11 -100q0 -68 35.5 -101.5t114.5 -33.5q86 0 132.5 47.5t65.5 158.5l76 428h52z" />
    <glyph glyph-name="aacute.alt" horiz-adv-x="574" 
d="M433 465q-67 18 -118 18q-143 0 -181 -173q-17 -79 -17 -129q0 -141 122 -141q64 0 128 49zM501 41l-2 -14q-6 -37 -50 -37q-63 0 -83 51h-3q-72 -51 -136 -51q-71 0 -117.5 47.5t-46.5 138.5q0 76 17 141q54 215 241 215q53 0 121 -16q17 11 39 11q11 0 16 -1l-79 -447
q-1 -5 -1 -13q0 -25 29 -25h55zM470 731q-41 -77 -127 -159q-25 0 -38 6l113 153h52z" />
    <glyph glyph-name="agrave.alt" horiz-adv-x="574" 
d="M433 465q-67 18 -118 18q-143 0 -181 -173q-17 -79 -17 -129q0 -141 122 -141q64 0 128 49zM501 41l-2 -14q-6 -37 -50 -37q-63 0 -83 51h-3q-72 -51 -136 -51q-71 0 -117.5 47.5t-46.5 138.5q0 76 17 141q54 215 241 215q53 0 121 -16q17 11 39 11q11 0 16 -1l-79 -447
q-1 -5 -1 -13q0 -25 29 -25h55zM360 578q-14 -6 -36 -6q-57 84 -74 159h48z" />
    <glyph glyph-name="acircumflex.alt" horiz-adv-x="574" 
d="M433 465q-67 18 -118 18q-143 0 -181 -173q-17 -79 -17 -129q0 -141 122 -141q64 0 128 49zM501 41l-2 -14q-6 -37 -50 -37q-63 0 -83 51h-3q-72 -51 -136 -51q-71 0 -117.5 47.5t-46.5 138.5q0 76 17 141q54 215 241 215q53 0 121 -16q17 11 39 11q11 0 16 -1l-79 -447
q-1 -5 -1 -13q0 -25 29 -25h55zM458 578q-18 -6 -39 -6l-69 120l-113 -120q-26 0 -43 5q65 83 134 154h51q46 -74 79 -153z" />
    <glyph glyph-name="adieresis.alt" horiz-adv-x="574" 
d="M433 465q-67 18 -118 18q-143 0 -181 -173q-17 -79 -17 -129q0 -141 122 -141q64 0 128 49zM501 41l-2 -14q-6 -37 -50 -37q-63 0 -83 51h-3q-72 -51 -136 -51q-71 0 -117.5 47.5t-46.5 138.5q0 76 17 141q54 215 241 215q53 0 121 -16q17 11 39 11q11 0 16 -1l-79 -447
q-1 -5 -1 -13q0 -25 29 -25h55zM290 634q0 -20 -11 -32t-27 -12q-33 0 -33 31q0 20 11 32t27 12q33 0 33 -31zM458 634q0 -20 -11 -32t-27 -12q-33 0 -33 31q0 20 11 32t27 12q33 0 33 -31z" />
    <glyph glyph-name="atilde.alt" horiz-adv-x="574" 
d="M433 465q-67 18 -118 18q-143 0 -181 -173q-17 -79 -17 -129q0 -141 122 -141q64 0 128 49zM501 41l-2 -14q-6 -37 -50 -37q-63 0 -83 51h-3q-72 -51 -136 -51q-71 0 -117.5 47.5t-46.5 138.5q0 76 17 141q54 215 241 215q53 0 121 -16q17 11 39 11q11 0 16 -1l-79 -447
q-1 -5 -1 -13q0 -25 29 -25h55zM502 678q-21 -58 -44.5 -78.5t-59.5 -20.5q-27 0 -51 15l-47 30q-20 13 -36 13q-23 0 -35 -13t-26 -54q-21 0 -39 10q22 60 45.5 79.5t58.5 19.5q27 0 51 -15l47 -30q21 -13 36 -13q22 0 35 12.5t26 54.5q21 0 39 -10z" />
    <glyph glyph-name="aring.alt" horiz-adv-x="574" 
d="M433 465q-67 18 -118 18q-143 0 -181 -173q-17 -79 -17 -129q0 -141 122 -141q64 0 128 49zM501 41l-2 -14q-6 -37 -50 -37q-63 0 -83 51h-3q-72 -51 -136 -51q-71 0 -117.5 47.5t-46.5 138.5q0 76 17 141q54 215 241 215q53 0 121 -16q17 11 39 11q11 0 16 -1l-79 -447
q-1 -5 -1 -13q0 -25 29 -25h55zM453 686q0 -51 -34.5 -83.5t-88.5 -32.5q-44 0 -67.5 23.5t-23.5 60.5q0 51 34.5 83.5t88.5 32.5q43 0 67 -23t24 -61zM409 686q0 48 -52 48q-32 0 -53 -21.5t-21 -57.5q0 -49 51 -49q32 0 53.5 21.5t21.5 58.5z" />
    <glyph glyph-name="iacute.alt" horiz-adv-x="279" 
d="M212 41l-2 -14q-3 -20 -13.5 -28.5t-32.5 -8.5q-42 0 -65.5 18.5t-23.5 53.5q0 13 3 28l76 432h53l-78 -442q-1 -5 -1 -14q0 -25 29 -25h55zM335 731q-41 -77 -127 -159q-24 0 -38 6l113 153h52z" />
    <glyph glyph-name="igrave.alt" horiz-adv-x="279" 
d="M212 41l-2 -14q-3 -20 -13.5 -28.5t-32.5 -8.5q-42 0 -65.5 18.5t-23.5 53.5q0 13 3 28l76 432h53l-78 -442q-1 -5 -1 -14q0 -25 29 -25h55zM206 578q-14 -6 -36 -6q-57 84 -74 159h48z" />
    <glyph glyph-name="icircumflex.alt" horiz-adv-x="279" 
d="M212 41l-2 -14q-3 -20 -13.5 -28.5t-32.5 -8.5q-42 0 -65.5 18.5t-23.5 53.5q0 13 3 28l76 432h53l-78 -442q-1 -5 -1 -14q0 -25 29 -25h55zM303 578q-19 -6 -42 -6l-53 120l-97 -120q-26 0 -43 5q57 80 118 154h55q33 -72 62 -153z" />
    <glyph glyph-name="idieresis.alt" horiz-adv-x="279" 
d="M212 41l-2 -14q-3 -20 -13.5 -28.5t-32.5 -8.5q-42 0 -65.5 18.5t-23.5 53.5q0 13 3 28l76 432h53l-78 -442q-1 -5 -1 -14q0 -25 29 -25h55zM155 634q0 -20 -11 -32t-27 -12q-33 0 -33 31q0 20 11 32t27 12q33 0 33 -31zM303 634q0 -20 -11 -32t-27 -12q-33 0 -33 31
q0 20 11 32t27 12q33 0 33 -31z" />
    <glyph glyph-name="ntilde.alt" horiz-adv-x="595" 
d="M518 678q-21 -58 -44.5 -78.5t-59.5 -20.5q-27 0 -51 15l-47 30q-20 13 -36 13q-23 0 -35 -13t-26 -54q-21 0 -39 10q22 60 45.5 79.5t58.5 19.5q27 0 51 -15l47 -30q21 -13 36 -13q22 0 35 12.5t26 54.5q21 0 39 -10zM444 381q2 10 2 24q0 76 -91 76q-89 0 -165 -55
l-75 -426h-53l91 519q22 5 54 5l-8 -46h3q73 54 161 54q58 0 97 -29.5t39 -92.5q0 -19 -4 -39l-51 -290q-1 -5 -1 -15q0 -25 29 -25h55l-2 -14q-5 -37 -47 -37q-41 0 -64.5 18.5t-23.5 53.5q0 13 3 28z" />
    <glyph glyph-name="uacute.alt" horiz-adv-x="586" 
d="M466 731q-41 -77 -127 -159q-24 0 -38 6l113 153h52zM382 49h-3q-77 -59 -162 -59q-57 0 -96.5 29.5t-39.5 92.5q0 17 4 39l65 368q22 5 54 5l-68 -383q-2 -12 -2 -24q0 -76 91 -76q80 0 160 54l75 424q20 5 54 5l-79 -445q-1 -4 -1 -13q0 -25 29 -25h55l-2 -14
q-5 -37 -47 -37q-78 0 -87 59z" />
    <glyph glyph-name="ugrave.alt" horiz-adv-x="586" 
d="M367 578q-13 -6 -36 -6q-57 84 -74 159h48zM382 49h-3q-77 -59 -162 -59q-57 0 -96.5 29.5t-39.5 92.5q0 17 4 39l65 368q22 5 54 5l-68 -383q-2 -12 -2 -24q0 -76 91 -76q80 0 160 54l75 424q20 5 54 5l-79 -445q-1 -4 -1 -13q0 -25 29 -25h55l-2 -14q-5 -37 -47 -37
q-78 0 -87 59z" />
    <glyph glyph-name="ucircumflex.alt" horiz-adv-x="586" 
d="M473 578q-18 -6 -39 -6l-69 120l-113 -120q-26 0 -43 5q65 83 134 154h51q46 -74 79 -153zM382 49h-3q-77 -59 -162 -59q-57 0 -96.5 29.5t-39.5 92.5q0 17 4 39l65 368q22 5 54 5l-68 -383q-2 -12 -2 -24q0 -76 91 -76q80 0 160 54l75 424q20 5 54 5l-79 -445
q-1 -4 -1 -13q0 -25 29 -25h55l-2 -14q-5 -37 -47 -37q-78 0 -87 59z" />
    <glyph glyph-name="udieresis.alt" horiz-adv-x="586" 
d="M302 634q0 -20 -11 -32t-27 -12q-33 0 -33 31q0 20 11 32t27 12q33 0 33 -31zM470 634q0 -20 -11 -32t-27 -12q-33 0 -33 31q0 20 11 32t27 12q33 0 33 -31zM382 49h-3q-77 -59 -162 -59q-57 0 -96.5 29.5t-39.5 92.5q0 17 4 39l65 368q22 5 54 5l-68 -383q-2 -12 -2 -24
q0 -76 91 -76q80 0 160 54l75 424q20 5 54 5l-79 -445q-1 -4 -1 -13q0 -25 29 -25h55l-2 -14q-5 -37 -47 -37q-78 0 -87 59z" />
    <glyph glyph-name="dagger.alt" horiz-adv-x="523" 
d="M498 484l-8 -44h-180l-77 -440q-21 -8 -51 -8l79 448h-180l8 44h180l33 190h49l-33 -190h180z" />
    <glyph glyph-name="Agrave.alt" horiz-adv-x="573" 
d="M521 5q-19 -8 -52 -10l-40 236h-262l-75 -148q-26 -51 -50.5 -72t-56.5 -21q-43 0 -43 33q0 7 3 21h28q24 0 34 7.5t22 29.5l317 593h56q68 -346 119 -669zM421 277l-53 307q-1 5 -1 15q0 13 1 25h-5q-5 -27 -12 -40l-160 -307h230zM330 815l64 -104l-39 -6
q-55 61 -73 110h48z" />
    <glyph glyph-name="Atilde.alt" horiz-adv-x="573" 
d="M521 5q-19 -8 -52 -10l-40 236h-262l-75 -148q-26 -51 -50.5 -72t-56.5 -21q-43 0 -43 33q0 7 3 21h28q24 0 34 7.5t22 29.5l317 593h56q68 -346 119 -669zM421 277l-53 307q-1 5 -1 15q0 13 1 25h-5q-5 -27 -12 -40l-160 -307h230zM543 804q-21 -56 -43.5 -74t-56.5 -18
q-26 0 -73 26.5t-63 26.5q-19 0 -31.5 -13t-23.5 -49q-23 0 -36 10q19 54 42 72.5t56 18.5q25 0 71 -26.5t63 -26.5q21 0 33 11.5t24 50.5q18 0 38 -9z" />
    <glyph glyph-name="ydieresis.alt" horiz-adv-x="506" 
d="M535 519l-278 -525q-65 -123 -112.5 -166.5t-114.5 -43.5q-42 0 -80 19q8 29 18 48q28 -16 70 -16q66 0 114 80l50 84l-83 450q-4 19 -10.5 25.5t-22.5 6.5h-43l2 14q6 37 52 37q35 0 53 -16.5t24 -52.5l59 -353q5 -33 5 -61h3q11 34 26 63l215 413q35 0 53 -6zM277 634
q0 -20 -11 -32t-27 -12q-33 0 -33 31q0 20 11 32t27 12q33 0 33 -31zM445 634q0 -20 -11 -32t-27 -12q-33 0 -33 31q0 20 11 32t27 12q33 0 33 -31z" />
    <glyph glyph-name="Ydieresis.alt" horiz-adv-x="559" 
d="M612 670q-140 -211 -290 -407l-46 -263h-57l46 262l-124 340q-4 10 -6.5 15t-9.5 9t-17 4h-45l2 12q7 42 58 42q32 0 49 -19.5t29 -55.5l86 -254q7 -21 12 -47h3q16 30 29 49l222 318q39 0 59 -5zM313 760q0 -18 -11 -30t-27 -12q-33 0 -33 29q0 18 11 30t27 12
q33 0 33 -29zM486 760q0 -18 -11 -30t-27 -12q-33 0 -33 29q0 18 11 30t27 12q33 0 33 -29z" />
    <glyph glyph-name="fi.alt" horiz-adv-x="591" 
d="M524 41l-2 -14q-3 -20 -13.5 -28.5t-32.5 -8.5q-42 0 -65.5 18.5t-23.5 53.5q0 13 3 28l68 387h-243l-97 -550q-25 -143 -158 -143q-22 0 -38 3q1 21 11 50q19 -3 43 -3q73 0 89 91l97 552h-66l8 45h66l14 79q25 143 158 143q16 0 38 -3q-1 -21 -11 -50q-16 3 -43 3
q-73 0 -89 -91l-14 -81h296l-78 -442q-1 -5 -1 -14q0 -25 29 -25h55zM555 681q0 -20 -11 -32t-27 -12q-33 0 -33 31q0 20 11 32t27 12q33 0 33 -31z" />
    <glyph glyph-name="fl.alt" horiz-adv-x="604" 
d="M570 728l-114 -647q-1 -5 -1 -15q0 -25 29 -25h55l-2 -14q-5 -37 -47 -37q-41 0 -64.5 18.5t-23.5 53.5q0 13 3 28l105 597q-54 10 -132 10q-71 0 -101.5 -22.5t-39.5 -71.5l-14 -81h119q-4 -20 -13 -45h-114l-97 -550q-25 -143 -158 -143q-22 0 -38 3q1 21 11 50
q19 -3 43 -3q73 0 89 91l97 552h-66l8 45h66l14 79q12 73 60.5 108t146.5 35q99 0 179 -16z" />
    <glyph glyph-name="daggerdbl.alt" horiz-adv-x="523" 
d="M506 484l-8 -44h-180l-33 -188h180l-8 -45h-180l-36 -207q-21 -8 -51 -8l38 215h-180l8 45h180l33 188h-180l8 44h180l33 190h49l-33 -190h180z" />
    <glyph glyph-name="Acircumflex.alt" horiz-adv-x="573" 
d="M521 5q-19 -8 -52 -10l-40 236h-262l-75 -148q-26 -51 -50.5 -72t-56.5 -21q-43 0 -43 33q0 7 3 21h28q24 0 34 7.5t22 29.5l317 593h56q68 -346 119 -669zM421 277l-53 307q-1 5 -1 15q0 13 1 25h-5q-5 -27 -12 -40l-160 -307h230zM502 711q-20 -6 -42 -6l-74 82
l-102 -82q-30 0 -45 5q66 64 117 105h66q40 -44 80 -104z" />
    <glyph glyph-name="Aacute.alt" horiz-adv-x="573" 
d="M521 5q-19 -8 -52 -10l-40 236h-262l-75 -148q-26 -51 -50.5 -72t-56.5 -21q-43 0 -43 33q0 7 3 21h28q24 0 34 7.5t22 29.5l317 593h56q68 -346 119 -669zM421 277l-53 307q-1 5 -1 15q0 13 1 25h-5q-5 -27 -12 -40l-160 -307h230zM503 815q-43 -59 -107 -110l-41 6
l96 104h52z" />
    <glyph glyph-name="Uacute.alt" horiz-adv-x="675" 
d="M637 674l-73 -413q-12 -68 -28 -114t-44.5 -83.5t-74 -55.5t-109.5 -18q-98 0 -150.5 43t-52.5 142q0 42 13 113l52 296q2 12 2 19q0 27 -32 27h-45l2 12q7 42 58 42q36 0 56 -17t20 -48q0 -16 -4 -34l-55 -310q-11 -66 -11 -100q0 -68 35.5 -101.5t114.5 -33.5
q86 0 132.5 47.5t65.5 158.5l76 428h52zM508 815q-43 -59 -107 -110l-41 6l96 104h52z" />
    <glyph glyph-name="Ucircumflex.alt" horiz-adv-x="675" 
d="M637 674l-73 -413q-12 -68 -28 -114t-44.5 -83.5t-74 -55.5t-109.5 -18q-98 0 -150.5 43t-52.5 142q0 42 13 113l52 296q2 12 2 19q0 27 -32 27h-45l2 12q7 42 58 42q36 0 56 -17t20 -48q0 -16 -4 -34l-55 -310q-11 -66 -11 -100q0 -68 35.5 -101.5t114.5 -33.5
q86 0 132.5 47.5t65.5 158.5l76 428h52zM536 711q-19 -6 -42 -6l-74 82l-102 -82q-30 0 -45 5q66 64 117 105h66q40 -44 80 -104z" />
    <glyph glyph-name="Ugrave.alt" horiz-adv-x="675" 
d="M637 674l-73 -413q-12 -68 -28 -114t-44.5 -83.5t-74 -55.5t-109.5 -18q-98 0 -150.5 43t-52.5 142q0 42 13 113l52 296q2 12 2 19q0 27 -32 27h-45l2 12q7 42 58 42q36 0 56 -17t20 -48q0 -16 -4 -34l-55 -310q-11 -66 -11 -100q0 -68 35.5 -101.5t114.5 -33.5
q86 0 132.5 47.5t65.5 158.5l76 428h52zM375 815l64 -104l-39 -6q-55 61 -73 110h48z" />
    <glyph glyph-name="dotlessi.alt" horiz-adv-x="279" 
d="M212 41l-2 -14q-3 -20 -13.5 -28.5t-32.5 -8.5q-42 0 -65.5 18.5t-23.5 53.5q0 13 3 28l76 432h53l-78 -442q-1 -5 -1 -14q0 -25 29 -25h55z" />
    <glyph glyph-name="zero.oprp" 
d="M463 356q0 -42 -9 -91q-46 -275 -247 -275q-170 0 -170 201q0 41 9 90q48 274 248 274q169 0 169 -199zM412 364q0 146 -120 146q-80 0 -126.5 -57t-67.5 -174q-10 -51 -10 -96q0 -148 120 -148q79 0 124.5 54.5t69.5 177.5q10 51 10 97z" />
    <glyph glyph-name="one.oprp" horiz-adv-x="470" 
d="M390 47q-6 -29 -14 -47h-360l9 47h166l79 449l-169 -31q-2 14 -2 24q0 15 3 25l176 31h52l-87 -498h147z" />
    <glyph glyph-name="two.oprp" 
d="M406 402q0 -90 -73.5 -172t-243.5 -183h302q-5 -25 -15 -47h-371l5 47q197 122 270 195.5t73 160.5q0 51 -32.5 77.5t-84.5 26.5q-76 0 -133 -26q-3 13 -3 31q0 9 2 21q63 22 136 22q79 0 123.5 -39t44.5 -114z" />
    <glyph glyph-name="three.oprp" 
d="M424 392q0 -67 -33 -112t-89 -61v-5q34 -15 55.5 -50.5t21.5 -80.5q0 -107 -67.5 -164.5t-179.5 -57.5q-92 0 -148 27q2 30 13 50q54 -29 140 -29t137 45t51 129q0 110 -120 110h-109l8 47h109q74 0 115.5 40.5t41.5 111.5q0 55 -35 85.5t-100 30.5q-69 0 -124 -21
q-4 14 -4 28q0 9 2 21q51 19 126 19q90 0 139.5 -43t49.5 -120z" />
    <glyph glyph-name="four.oprp" 
d="M442 83q-5 -24 -15 -47h-73l-29 -165h-50l29 165h-297l9 49q185 299 305 470q26 0 44 -12l-297 -460h245l39 223h50l-39 -223h79z" />
    <glyph glyph-name="five.oprp" 
d="M483 545q-2 -24 -11 -46h-264l-65 -243q265 -2 265 -185q0 -102 -69 -156t-177 -54q-77 0 -135 25q5 27 15 48q54 -25 123 -25q90 0 141 40.5t51 121.5q0 72 -54 105t-167 33q-24 0 -49 -1q43 189 89 337h307z" />
    <glyph glyph-name="six.oprp" 
d="M483 670q0 -25 -8 -47q-39 16 -100 16q-96 0 -158.5 -70.5t-91.5 -224.5h3q62 79 155 79q72 0 115 -42.5t43 -128.5q0 -114 -55 -188t-154 -74q-170 0 -170 215q0 50 9 110q55 369 305 369q69 0 107 -14zM388 258q0 60 -30.5 91t-84.5 31q-77 0 -119 -59t-42 -156
q0 -65 32 -98t91 -33q72 0 112.5 59.5t40.5 164.5z" />
    <glyph glyph-name="seven.oprp" horiz-adv-x="480" 
d="M469 545l-3 -44q-198 -299 -448 -636q-28 2 -46 12l439 622h-329q0 26 4 46h383z" />
    <glyph glyph-name="eight.oprp" 
d="M474 538q0 -126 -153 -190q102 -50 102 -158q0 -89 -58 -144.5t-151 -55.5q-74 0 -121 38.5t-47 118.5q0 139 156 205q-85 55 -85 147q0 88 54 136.5t139 48.5q75 0 119.5 -37t44.5 -109zM422 538q0 47 -29 74t-84 27q-67 0 -103.5 -39t-36.5 -101q0 -44 23 -74t80 -55
q150 56 150 168zM371 190q0 94 -120 140q-153 -48 -153 -183q0 -112 121 -112q71 0 111.5 42.5t40.5 112.5z" />
    <glyph glyph-name="nine.oprp" 
d="M442 340q0 -50 -9 -110q-55 -369 -305 -369q-69 0 -107 14q0 25 8 47q39 -16 100 -16q96 0 158.5 70.5t91.5 224.5h-3q-62 -79 -155 -79q-72 0 -115 42.5t-43 128.5q0 114 55 188t154 74q170 0 170 -215zM392 380q0 65 -32 98t-91 33q-72 0 -112.5 -59.5t-40.5 -164.5
q0 -60 30.5 -91t84.5 -31q77 0 119 59t42 156z" />
    <glyph glyph-name="orn.001" horiz-adv-x="1000" 
d="M950 249h-718q-50 0 -101 3v-4l206 -202q-17 -21 -33 -32l-234 235v47l234 235q21 -16 33 -32l-206 -202v-4q51 3 101 3h718v-47z" />
    <glyph glyph-name="orn.002" horiz-adv-x="659" 
d="M599 28q-106 -111 -235 -234h-49l-235 234q11 16 32 33l202 -206h4q-3 51 -3 101v788h49v-788q0 -50 -3 -101h4l202 206q16 -12 32 -33z" />
    <glyph glyph-name="orn.003" horiz-adv-x="1000" 
d="M950 249l-234 -235q-21 16 -33 32l206 202v4q-51 -3 -101 -3h-718v47h718q50 0 101 -3v4l-206 202q17 21 33 32l234 -235v-47z" />
    <glyph glyph-name="orn.004" horiz-adv-x="659" 
d="M599 510q-11 -16 -32 -33l-202 206h-4q3 -51 3 -101v-788h-49v788q0 50 3 101h-4l-202 -206q-16 12 -32 33q106 111 235 234h49z" />
    <glyph glyph-name="orn.005" horiz-adv-x="665" 
d="M615 251h-385q-47 0 -98 3v-4l188 -168q-15 -20 -32 -32q-113 95 -218 201v47q105 106 218 201q17 -12 32 -32l-188 -168v-4q51 3 98 3h385v-47z" />
    <glyph glyph-name="orn.006" horiz-adv-x="571" 
d="M521 218q-95 -113 -201 -218h-49q-106 105 -201 218q12 17 32 32l168 -188h4q-3 51 -3 98v384h49v-384q0 -47 -3 -98h4l168 188q20 -15 32 -32z" />
    <glyph glyph-name="orn.007" horiz-adv-x="665" 
d="M615 251q-105 -106 -218 -201q-17 12 -32 32l188 168v4q-51 -3 -98 -3h-385v47h385q47 0 98 -3v4l-188 168q15 20 32 32q113 -95 218 -201v-47z" />
    <glyph glyph-name="orn.008" horiz-adv-x="571" 
d="M521 326q-12 -17 -32 -32l-168 188h-4q3 -51 3 -98v-384h-49v384q0 47 3 98h-4l-168 -188q-20 15 -32 32q95 113 201 218h49q106 -105 201 -218z" />
    <glyph glyph-name="orn.009" horiz-adv-x="494" 
d="M434 327q-75 -91 -167 -176h-20q-101 96 -167 176v20q78 92 167 176h20q95 -90 167 -176v-20z" />
    <glyph glyph-name="orn.010" horiz-adv-x="497" 
d="M397 339q0 -78 -4 -133l-14 -15q-61 -3 -125 -3q-58 0 -116 3l-14 15q-4 48 -4 126q0 82 4 135l14 15q62 3 124 3q64 0 117 -3l14 -15q4 -51 4 -128z" />
    <glyph glyph-name="orn.011" horiz-adv-x="582" 
d="M522 324q-94 -112 -208 -220h-25q-123 118 -209 220v25q96 115 208 220h25q117 -110 209 -220v-25zM472 337l-171 180l-171 -180l171 -181z" />
    <glyph glyph-name="orn.012" horiz-adv-x="681" 
d="M581 339q0 -115 -6 -220l-24 -24q-119 -7 -209 -7q-78 0 -192 7l-25 24q-5 100 -5 209q0 114 5 226l25 24q136 6 205 6q80 0 196 -6l24 -24q6 -94 6 -215zM533 138v397h-366v-397h366z" />
    <glyph glyph-name="orn.013" horiz-adv-x="494" 
d="M434 266q-75 -91 -167 -176h-20q-101 96 -167 176v20q78 92 167 176h20q95 -90 167 -176v-20z" />
    <glyph glyph-name="orn.014" horiz-adv-x="497" 
d="M397 277q0 -78 -4 -133l-14 -15q-61 -3 -125 -3q-58 0 -116 3l-14 15q-4 48 -4 126q0 82 4 135l14 15q62 3 124 3q64 0 117 -3l14 -15q4 -51 4 -128z" />
    <glyph glyph-name="orn.015" horiz-adv-x="582" 
d="M522 263q-94 -112 -208 -220h-25q-123 118 -209 220v25q96 115 208 220h25q117 -110 209 -220v-25zM475 276l-174 184l-174 -184l174 -185z" />
    <glyph glyph-name="orn.016" horiz-adv-x="681" 
d="M581 277q0 -115 -6 -220l-24 -24q-119 -7 -209 -7q-78 0 -192 7l-25 24q-5 100 -5 209q0 114 5 226l25 24q136 6 205 6q80 0 196 -6l24 -24q6 -94 6 -215zM533 76v397h-366v-397h366z" />
    <glyph glyph-name="orn.017" horiz-adv-x="396" 
d="M165 -95h-50v865h50v-865zM301 -95h-50v865h50v-865z" />
    <glyph glyph-name="orn.018" horiz-adv-x="396" 
d="M165 -61h-50v667h50v-667zM301 -61h-50v667h50v-667z" />
    <glyph glyph-name="dotlessi.small" horiz-adv-x="251" 
d="M205 545l-96 -545h-55l96 545h55z" />
    </font>
</defs>
</svg>
