<?xml version="1.0" standalone="no"?>
<!DOCTYPE svg PUBLIC "-//W3C//DTD SVG 1.1//EN" "http://www.w3.org/Graphics/SVG/1.1/DTD/svg11.dtd" >
<svg>
<metadata>
Created by FontForge 20090622 at Mon Feb 15 02:49:40 2016
 By deploy user
Copyright (C) 2005 Emigre Inc.; Designed by Xavier Dupre. All rights reserved.
</metadata>
<defs>
<font id="VistaSansOT-Medium" horiz-adv-x="500" >
  <font-face 
    font-family="Vista Sans OT Medium"
    font-weight="500"
    font-stretch="normal"
    units-per-em="1000"
    panose-1="2 0 6 3 3 0 0 2 0 4"
    ascent="800"
    descent="-200"
    x-height="522"
    cap-height="674"
    bbox="-94 -216 1139 846"
    underline-thickness="20"
    underline-position="-113"
    unicode-range="U+0020-U+FB02"
  />
<missing-glyph 
 />
    <glyph glyph-name="fi" unicode="fi" horiz-adv-x="620" 
d="M533 0h-114v422h-197v-422h-114v422h-60v100h60v47q0 80 48.5 127.5t119.5 47.5q37 0 61 -4q0 -54 -7 -102q-16 3 -52 3q-30 0 -43 -15t-13 -48v-56h311v-522zM541 661q0 -29 -17 -48t-48 -19t-48 19.5t-17 47.5q0 29 17 49t49 20q31 0 47.5 -20t16.5 -49z" />
    <glyph glyph-name="fl" unicode="fl" horiz-adv-x="626" 
d="M539 0h-114v637q-63 9 -119 9q-46 0 -65 -14.5t-19 -47.5v-62h108q0 -47 -8 -100h-100v-422h-114v422h-60v100h60v53q0 82 54.5 125.5t148.5 43.5q120 0 228 -20v-724z" />
    <glyph glyph-name=".notdef" 
 />
    <glyph glyph-name=".null" horiz-adv-x="0" 
 />
    <glyph glyph-name="nonmarkingreturn" horiz-adv-x="333" 
 />
    <glyph glyph-name="space" unicode=" " horiz-adv-x="204" 
 />
    <glyph glyph-name="exclam" unicode="!" horiz-adv-x="264" 
d="M192 674q0 -184 -17 -475q-32 -6 -86 -8q-17 295 -17 483h120zM196 55q0 -32 -17.5 -49t-46.5 -17t-47 17t-18 49t18.5 49t47.5 17t46 -17.5t17 -48.5z" />
    <glyph glyph-name="quotedbl" unicode="&#x22;" horiz-adv-x="388" 
d="M168 713l-22 -264q-33 -12 -76 -12l-20 276h118zM338 713l-22 -264q-33 -12 -76 -12l-20 276h118z" />
    <glyph glyph-name="numbersign" unicode="#" 
d="M476 528q0 -50 -15 -107h-84l-28 -168h89q0 -45 -14 -106h-93l-24 -147h-73l24 147h-87l-24 -147h-73l25 147h-75q0 52 17 106h76l28 168h-83q2 57 16 107h85l25 146h73l-25 -146h87l25 146h73l-25 -146h80zM277 253l28 168h-87l-29 -168h88z" />
    <glyph glyph-name="dollar" unicode="$" 
d="M450 225q0 -66 -45.5 -111.5t-126.5 -55.5l3 -58h-104l2 56q-78 5 -128 24q10 74 22 103q72 -28 172 -28q92 0 92 61q0 29 -30 47t-72.5 29t-85 26t-72.5 49.5t-30 88.5q0 63 45 107t123 55l-3 56h105l-3 -52q60 -3 104 -12q-2 -58 -13 -103q-71 16 -153 16
q-93 0 -93 -58q0 -21 21.5 -35.5t54 -22t70 -20.5t70 -29.5t54 -50.5t21.5 -82z" />
    <glyph glyph-name="percent" unicode="%" horiz-adv-x="813" 
d="M349 494q0 -91 -42 -140.5t-116 -49.5t-116.5 46.5t-42.5 143.5q0 94 43.5 142t115.5 48q75 0 116.5 -47t41.5 -143zM257 494q0 59 -14.5 87.5t-51.5 28.5q-36 0 -51.5 -28.5t-15.5 -87.5q0 -62 15 -89t52 -27t51.5 28t14.5 88zM583 671l-271 -682q-31 5 -75 24l264 669
q36 0 82 -11zM781 180q0 -91 -42 -140.5t-116 -49.5t-117 46.5t-43 143.5q0 94 43.5 142t116.5 48q75 0 116.5 -47t41.5 -143zM688 180q0 59 -14 87.5t-51 28.5q-36 0 -51.5 -28.5t-15.5 -87.5q0 -62 15 -89t52 -27q36 0 50.5 28t14.5 88z" />
    <glyph glyph-name="ampersand" unicode="&#x26;" horiz-adv-x="637" 
d="M623 5q-65 -13 -123 -13l-60 74q-95 -76 -192 -76q-102 0 -156.5 53t-54.5 141q0 71 32 116t117 90q-45 64 -45 129q0 77 46 121t126 44q77 0 121 -37t44 -105q0 -54 -33.5 -96.5t-107.5 -83.5q50 -67 120 -149q54 57 131 152q12 -74 12 -137q-41 -49 -81 -91zM379 144
q-78 87 -141 171q-52 -29 -69 -54t-17 -65q0 -106 102 -106q61 0 125 54zM376 541q0 57 -63 57q-66 0 -66 -69q0 -40 37 -93q53 27 72.5 50.5t19.5 54.5z" />
    <glyph glyph-name="quotesingle" unicode="'" horiz-adv-x="218" 
d="M168 713l-22 -264q-33 -12 -76 -12l-20 276h118z" />
    <glyph glyph-name="parenleft" unicode="(" horiz-adv-x="290" 
d="M271 -164q-44 -11 -97 -11q-123 196 -123 458q0 252 123 454q44 0 97 -11q-47 -86 -75.5 -204t-28.5 -233q0 -118 28 -242.5t76 -210.5z" />
    <glyph glyph-name="parenright" unicode=")" horiz-adv-x="290" 
d="M240 278q0 -252 -124 -453q-51 0 -97 11q47 86 75.5 204t28.5 233q0 118 -28 242t-76 211q44 11 97 11q124 -197 124 -459z" />
    <glyph glyph-name="asterisk" unicode="*" horiz-adv-x="446" 
d="M425 492l-146 -27l95 -101q-32 -35 -85 -73l-71 130l-68 -121q-45 22 -94 58l101 108l-136 27q7 50 27 108l134 -64l-17 138q52 9 111 9l-20 -148l127 59q22 -42 42 -103z" />
    <glyph glyph-name="plus" unicode="+" horiz-adv-x="494" 
d="M453 231h-164v-186h-84v186h-164v83h164v186h84v-186h164v-83z" />
    <glyph glyph-name="comma" unicode="," horiz-adv-x="251" 
d="M184 59q0 -103 -117 -232l-97 26q64 76 85 119.5t21 105.5v35h104q4 -17 4 -54z" />
    <glyph glyph-name="hyphen" unicode="-" horiz-adv-x="250" 
d="M219 249h-188v95h188v-95z" />
    <glyph glyph-name="period" unicode="." horiz-adv-x="251" 
d="M190 55q0 -32 -18 -49t-46 -17q-30 0 -47.5 16.5t-17.5 49.5q0 31 18 48.5t47 17.5q27 0 45.5 -17.5t18.5 -48.5z" />
    <glyph glyph-name="slash" unicode="/" horiz-adv-x="383" 
d="M371 671l-312 -785q-56 12 -85 25l307 773q45 0 90 -13z" />
    <glyph glyph-name="zero" unicode="0" 
d="M461 273q0 -136 -55.5 -209.5t-155.5 -73.5q-99 0 -155 68.5t-56 214.5q0 140 57.5 211t153.5 71q211 0 211 -282zM344 273q0 95 -19.5 137.5t-74.5 42.5q-53 0 -73.5 -42.5t-20.5 -137.5q0 -98 20 -140t74 -42q53 0 73.5 44t20.5 138z" />
    <glyph glyph-name="one" unicode="1" 
d="M464 0h-394v109h170v326l-154 -21q-12 48 -12 98l170 33h105v-436h124q0 -61 -9 -109z" />
    <glyph glyph-name="two" unicode="2" 
d="M450 109q0 -57 -7 -109h-370l-6 95q129 88 181.5 149t52.5 117q0 85 -87 85q-74 0 -120 -25q-16 56 -20 107q70 27 148 27q93 0 147.5 -45.5t54.5 -133.5q0 -70 -46.5 -134.5t-143.5 -132.5h216z" />
    <glyph glyph-name="three" unicode="3" 
d="M440 64q0 -100 -68 -151.5t-172 -51.5q-87 0 -158 30q7 65 22 111q63 -31 137 -31q112 0 112 98q0 52 -27 72.5t-79 20.5h-97v108h100q54 0 76.5 22.5t22.5 69.5q0 83 -102 83q-68 0 -131 -25q-15 60 -16 110q79 25 156 25q97 0 156.5 -44.5t59.5 -133.5q0 -54 -28 -94
t-77 -57v-7q54 -16 83.5 -56t29.5 -99z" />
    <glyph glyph-name="four" unicode="4" 
d="M471 133q0 -57 -9 -105h-50v-157h-115v157h-267v112q99 230 205 415q53 -5 100 -21l-198 -401h163v161h112v-161h59z" />
    <glyph glyph-name="five" unicode="5" 
d="M446 78q0 -96 -66.5 -156.5t-166.5 -60.5q-73 0 -143 25q6 53 20 107q51 -21 129 -21q108 0 108 102q0 99 -146 99q-61 0 -103 -2q5 190 30 374h326q0 -45 -9 -110h-224l-13 -156q71 0 126 -17t93.5 -64t38.5 -120z" />
    <glyph glyph-name="six" unicode="6" 
d="M455 226q0 -113 -55.5 -174.5t-148.5 -61.5q-103 0 -154.5 71t-51.5 240q0 193 65.5 288t187.5 95q77 0 122 -14q-6 -60 -16 -108q-46 13 -106 13q-66 0 -101 -45t-39 -151h6q41 54 118 54t125 -51t48 -156zM344 223q0 117 -92 117q-47 0 -69.5 -29.5t-22.5 -92.5
q0 -128 88 -128q96 0 96 133z" />
    <glyph glyph-name="seven" unicode="7" 
d="M452 442q-143 -326 -285 -578q-71 6 -110 19l276 553h-271q-6 54 -6 109h396v-103z" />
    <glyph glyph-name="eight" unicode="8" 
d="M460 183q0 -91 -57.5 -142t-159.5 -51q-93 0 -148 45t-55 135q0 109 110 169q-100 59 -100 162q0 88 55 135.5t146 47.5q92 0 145 -44t53 -128q0 -93 -105 -153q116 -64 116 -176zM331 505q0 40 -21.5 62t-61.5 22t-61 -21.5t-21 -61.5q0 -79 88 -113q36 16 56.5 46.5
t20.5 65.5zM340 185q0 80 -100 117q-38 -15 -60 -47t-22 -72q0 -96 90 -96q92 0 92 98z" />
    <glyph glyph-name="nine" unicode="9" 
d="M45 319q0 113 55.5 174.5t148.5 61.5q103 0 154.5 -71t51.5 -240q0 -193 -65.5 -288t-187.5 -95q-77 0 -122 14q6 60 16 108q46 -13 106 -13q66 0 101 45t39 151h-6q-41 -54 -118 -54t-125 51t-48 156zM156 322q0 -117 92 -117q47 0 69.5 29.5t22.5 92.5q0 128 -88 128
q-96 0 -96 -133z" />
    <glyph glyph-name="colon" unicode=":" horiz-adv-x="251" 
d="M190 55q0 -32 -18 -49t-46 -17q-30 0 -47.5 16.5t-17.5 49.5q0 31 18.5 48.5t47.5 17.5q27 0 45 -17.5t18 -48.5zM190 421q0 -32 -18 -49t-46 -17q-30 0 -47.5 17t-17.5 49t18 49t48 17q28 0 45.5 -17t17.5 -49z" />
    <glyph glyph-name="semicolon" unicode=";" horiz-adv-x="251" 
d="M185 421q0 -32 -18 -49t-46 -17q-30 0 -47.5 17t-17.5 49t18 49t47 17q28 0 46 -17t18 -49zM184 59q0 -103 -117 -232l-97 26q64 76 85 119.5t21 105.5v35h104q4 -17 4 -54z" />
    <glyph glyph-name="less" unicode="&#x3c;" horiz-adv-x="419" 
d="M361 45h-110l-205 229l205 226h110v-11l-201 -211l201 -224v-9z" />
    <glyph glyph-name="equal" unicode="=" horiz-adv-x="492" 
d="M431 326h-370v81h370v-81zM431 137h-370v81h370v-81z" />
    <glyph glyph-name="greater" unicode="&#x3e;" horiz-adv-x="419" 
d="M168 500l206 -230l-206 -225h-111v10l202 212l-202 223v10h111z" />
    <glyph glyph-name="question" unicode="?" horiz-adv-x="425" 
d="M386 498q0 -139 -183 -209v-90q-50 -9 -98 -11q-16 92 -16 163q183 47 183 140q0 47 -26.5 67.5t-86.5 20.5q-44 0 -98 -12q-9 48 -9 104q52 13 119 13q97 0 156 -47.5t59 -138.5zM219 55q0 -32 -18 -49t-47 -17t-47 17t-18 49q0 31 18.5 48.5t46.5 17.5q29 0 47 -17.5
t18 -48.5z" />
    <glyph glyph-name="at" unicode="@" horiz-adv-x="831" 
d="M778 353q0 -121 -43.5 -191.5t-121.5 -70.5q-92 0 -118 53h-3q-50 -54 -122 -54q-60 0 -96 32t-36 92q0 122 157 129l85 3v80q-32 16 -84 16q-62 0 -100 -18q-12 46 -12 88q55 16 120 16q107 0 169 -46v-270q0 -49 48 -49q79 0 79 189q0 129 -73 194t-202 65
q-140 0 -215 -81.5t-75 -231.5q0 -146 62.5 -219.5t201.5 -73.5q86 0 141 24q12 -41 12 -76q-66 -23 -157 -23q-169 0 -255.5 93t-86.5 274q0 126 51.5 215t135 130.5t190.5 41.5q157 0 252.5 -87t95.5 -244zM480 196v82l-83 -3q-35 -1 -48 -14t-13 -43q0 -52 58 -52
q49 0 86 30z" />
    <glyph glyph-name="A" unicode="A" horiz-adv-x="586" 
d="M571 6q-52 -11 -122 -11l-55 184h-211l-55 -184q-65 0 -113 11q90 321 211 668h137q114 -342 208 -668zM364 282l-64 214q-7 21 -8 52h-8q-2 -35 -7 -52l-65 -214h152z" />
    <glyph glyph-name="B" unicode="B" horiz-adv-x="592" 
d="M540 190q0 -102 -64 -150.5t-168 -48.5q-98 0 -216 14v662q101 14 203 14q220 0 220 -175q0 -54 -26.5 -94t-70.5 -58v-8q122 -33 122 -156zM394 493q0 92 -100 92q-36 0 -81 -4v-192h90q43 0 67 26.5t24 77.5zM411 199q0 49 -28 73.5t-75 24.5h-95v-203q57 -5 87 -5
q111 0 111 110z" />
    <glyph glyph-name="C" unicode="C" horiz-adv-x="576" 
d="M536 34q-73 -44 -185 -44q-145 0 -220.5 88.5t-75.5 259.5q0 173 79.5 259.5t210.5 86.5q47 0 98 -9t79 -24q-2 -35 -19 -111q-70 34 -152 34q-78 0 -120 -53.5t-42 -182.5q0 -127 40 -182.5t125 -55.5q90 0 162 46q16 -61 20 -112z" />
    <glyph glyph-name="D" unicode="D" horiz-adv-x="678" 
d="M623 351q0 -171 -83 -265.5t-218 -94.5q-134 0 -230 14v662q100 14 229 14q133 0 217.5 -82t84.5 -248zM489 339q0 232 -171 232q-51 0 -101 -5v-460q43 -5 100 -5q87 0 129.5 57.5t42.5 180.5z" />
    <glyph glyph-name="E" unicode="E" horiz-adv-x="544" 
d="M495 110q0 -36 -10 -110h-393v674h386q0 -49 -9 -110h-252v-163h187v-108h-187v-183h278z" />
    <glyph glyph-name="F" unicode="F" horiz-adv-x="526" 
d="M480 674q0 -59 -8 -110h-255v-181h210v-109h-210v-274h-125v674h388z" />
    <glyph glyph-name="G" unicode="G" horiz-adv-x="642" 
d="M564 35q-37 -19 -96.5 -32t-116.5 -13q-146 0 -221 89t-75 259q0 174 82.5 260t222.5 86q116 0 191 -32q-3 -45 -20 -114q-69 36 -164 36q-89 0 -133.5 -52t-44.5 -189q0 -123 41.5 -178t122.5 -55q57 0 88 12v138h-102q-10 53 -10 107h235v-322z" />
    <glyph glyph-name="H" unicode="H" horiz-adv-x="692" 
d="M600 0h-125v295h-258v-295h-125v674h125v-267h258v267h125v-674z" />
    <glyph glyph-name="I" unicode="I" horiz-adv-x="309" 
d="M217 0h-125v674h125v-674z" />
    <glyph glyph-name="J" unicode="J" horiz-adv-x="319" 
d="M227 80q0 -224 -203 -241q-18 55 -20 114q55 5 76.5 28t21.5 79v614h125v-594z" />
    <glyph glyph-name="K" unicode="K" horiz-adv-x="630" 
d="M603 6q-59 -11 -129 -11l-183 306l-76 -90v-211h-123v674h123v-318h6q61 96 157 216l85 107q75 0 129 -14l-222 -269q108 -164 233 -390z" />
    <glyph glyph-name="L" unicode="L" horiz-adv-x="503" 
d="M473 111q0 -46 -9 -111h-372v674h125v-563h256z" />
    <glyph glyph-name="M" unicode="M" horiz-adv-x="867" 
d="M793 5q-48 -9 -119 -9l-31 435q-1 14 -1 71h-9q-5 -42 -13 -71l-130 -431h-118l-133 431q-9 31 -12 71h-8q0 -45 -2 -71l-38 -435q-63 0 -105 9q21 313 62 669h141l141 -453q11 -32 14 -78h9q4 52 12 79l137 452h143q41 -371 60 -669z" />
    <glyph glyph-name="N" unicode="N" horiz-adv-x="693" 
d="M601 674v-670q-56 -9 -117 -9l-244 429q-19 34 -32 76l-9 -1q5 -47 5 -78v-421h-112v667q57 9 130 9l231 -406q18 -33 32 -76l9 1q-5 35 -5 81v398h112z" />
    <glyph glyph-name="O" unicode="O" horiz-adv-x="678" 
d="M623 337q0 -175 -76 -261t-208 -86q-136 0 -210 83.5t-74 259.5q0 171 76 261t208 90q135 0 209.5 -85.5t74.5 -261.5zM489 337q0 133 -37 186.5t-113 53.5q-78 0 -114 -53t-36 -187q0 -130 35 -185t115 -55t115 54t35 186z" />
    <glyph glyph-name="P" unicode="P" horiz-adv-x="579" 
d="M526 461q0 -117 -66.5 -175.5t-165.5 -58.5h-79v-227h-123v667q109 14 208 14q102 0 164 -56t62 -164zM402 462q0 58 -30 89t-79 31q-28 0 -78 -5v-248h66q121 0 121 133z" />
    <glyph glyph-name="Q" unicode="Q" horiz-adv-x="678" 
d="M623 337q0 -154 -59.5 -237.5t-165.5 -99.5q0 -47 24 -71.5t67 -24.5q57 0 93 16q11 -47 14 -105q-51 -18 -120 -18q-84 0 -137.5 50.5t-54.5 148.5q-229 33 -229 337q0 171 76 261t208 90q136 0 210 -85.5t74 -261.5zM489 336q0 133 -37 187t-113 54q-78 0 -114 -53.5
t-36 -187.5q0 -129 35.5 -184t114.5 -55q80 0 115 54t35 185z" />
    <glyph glyph-name="R" unicode="R" horiz-adv-x="601" 
d="M575 7q-67 -13 -131 -13l-50 106q-58 119 -102 166h-78v-266h-122v667q115 14 209 14q99 0 161.5 -48.5t62.5 -149.5q0 -66 -36 -113.5t-93 -66.5q59 -51 106 -147zM399 475q0 105 -105 105q-34 0 -80 -4v-215h68q117 0 117 114z" />
    <glyph glyph-name="S" unicode="S" horiz-adv-x="532" 
d="M478 191q0 -96 -64.5 -148.5t-173.5 -52.5t-182 31q7 55 25 108q77 -33 172 -33t95 84q0 34 -30 59.5t-73 44.5t-85.5 42t-72.5 64t-30 98q0 94 66.5 145t176.5 51q75 0 147 -16q-4 -54 -16 -109q-68 19 -150 19q-96 0 -96 -81q0 -30 30 -54t72.5 -43.5t85.5 -43t73 -66
t30 -99.5z" />
    <glyph glyph-name="T" unicode="T" horiz-adv-x="497" 
d="M474 674q0 -53 -10 -110h-155v-564h-125v564h-161v110h451z" />
    <glyph glyph-name="U" unicode="U" horiz-adv-x="683" 
d="M593 257q0 -267 -252 -267q-125 0 -188 61.5t-63 205.5v417h125v-419q0 -86 28.5 -118.5t100.5 -32.5q70 0 100.5 34t30.5 117v419h118v-417z" />
    <glyph glyph-name="V" unicode="V" horiz-adv-x="588" 
d="M565 668q-84 -320 -205 -668h-136q-117 345 -200 668q58 11 123 11l135 -484q6 -20 10 -55h9q1 26 10 55l137 484q68 0 117 -11z" />
    <glyph glyph-name="W" unicode="W" horiz-adv-x="928" 
d="M869 668q-48 -289 -138 -668h-132l-124 436q-10 36 -12 69h-8q-2 -31 -12 -70l-118 -435h-132q-86 354 -135 668q63 11 120 11l82 -444q7 -42 7 -70h9q3 35 13 68l122 441h114l117 -442q9 -38 12 -67h9q1 26 9 67l87 447q60 0 110 -11z" />
    <glyph glyph-name="X" unicode="X" horiz-adv-x="602" 
d="M585 6q-65 -12 -142 -12l-124 228q-10 19 -21 48h-8q-7 -23 -20 -48l-121 -228q-74 0 -132 12l196 341l-185 321q69 11 143 11l116 -212q12 -23 18 -43h8q8 25 19 45l110 210q67 0 133 -11l-184 -318z" />
    <glyph glyph-name="Y" unicode="Y" horiz-adv-x="551" 
d="M536 668q-82 -201 -198 -421v-247h-125v247q-95 176 -198 421q58 11 130 11l114 -257q10 -22 19 -55h8q15 46 20 57l111 255q61 0 119 -11z" />
    <glyph glyph-name="Z" unicode="Z" horiz-adv-x="565" 
d="M515 110q0 -52 -9 -110h-450l-7 95l313 469h-291q-7 66 -7 110h438l8 -95l-313 -469h318z" />
    <glyph glyph-name="bracketleft" unicode="[" horiz-adv-x="342" 
d="M304 -175h-214v910h214q0 -47 -8 -98h-98v-714h98q8 -51 8 -98z" />
    <glyph glyph-name="backslash" unicode="\" horiz-adv-x="383" 
d="M409 -89q-28 -13 -84 -25l-313 785q45 13 90 13z" />
    <glyph glyph-name="bracketright" unicode="]" horiz-adv-x="342" 
d="M38 735h214v-910h-214q0 55 8 98h97v714h-97q-8 43 -8 98z" />
    <glyph glyph-name="asciicircum" unicode="^" horiz-adv-x="493" 
d="M440 364q-54 -7 -103 -7l-91 249l-91 -249q-34 0 -102 6q54 170 121 311h145q60 -125 121 -310z" />
    <glyph glyph-name="underscore" unicode="_" 
d="M505 -139h-505v84h516q0 -45 -11 -84z" />
    <glyph glyph-name="grave" unicode="`" 
d="M337 579q-46 -7 -91 -7q-67 77 -93 159h123z" />
    <glyph glyph-name="a" unicode="a" horiz-adv-x="538" 
d="M526 104v-37q0 -77 -83 -77q-73 0 -94 54h-5q-66 -54 -142 -54q-71 0 -112.5 36.5t-41.5 110.5q0 82 47.5 118t144.5 40l92 4v110q-35 21 -102 21q-69 0 -120 -22q-13 53 -16 104q71 20 144 20q134 0 203 -56v-338q0 -19 6.5 -26.5t24.5 -7.5h54zM332 111v111l-93 -4
q-42 -2 -59 -17.5t-17 -55.5q0 -34 15.5 -49.5t49.5 -15.5q64 0 104 31z" />
    <glyph glyph-name="b" unicode="b" horiz-adv-x="579" 
d="M526 281q0 -139 -62 -215t-173 -76q-126 0 -203 60v686q64 8 114 8v-267h6q55 55 130 55q85 0 136.5 -61t51.5 -190zM404 270q0 90 -24.5 125.5t-76.5 35.5q-59 0 -101 -36v-284q31 -22 83 -22q63 0 91 41.5t28 139.5z" />
    <glyph glyph-name="c" unicode="c" horiz-adv-x="469" 
d="M429 19q-49 -29 -134 -29q-118 0 -180 65.5t-62 196.5q0 140 64.5 210t163.5 70q86 0 139 -20q-7 -54 -24 -109q-47 20 -107 20q-58 0 -85.5 -35.5t-27.5 -121.5q0 -97 28 -132t95 -35q61 0 107 26q18 -58 23 -106z" />
    <glyph glyph-name="d" unicode="d" horiz-adv-x="578" 
d="M377 117v296q-37 21 -85 21q-61 0 -89 -39.5t-28 -137.5q0 -95 23 -130.5t77 -35.5q59 0 102 26zM491 0h-114v44h-6q-55 -54 -134 -54q-88 0 -136 64t-48 192q0 146 61 216t168 70q44 0 95 -15v219q64 8 114 8v-744z" />
    <glyph glyph-name="e" unicode="e" horiz-adv-x="529" 
d="M476 309q0 -47 -4 -79h-294v-7q0 -66 27 -95.5t99 -29.5q83 0 138 32q18 -48 26 -107q-68 -33 -166 -33q-121 0 -185 66.5t-64 197.5q0 136 61 207t162 71q100 0 150 -58.5t50 -164.5zM274 445q-94 0 -95 -135h181q1 6 1 28q0 107 -87 107z" />
    <glyph glyph-name="f" unicode="f" horiz-adv-x="360" 
d="M337 740q0 -54 -7 -102q-15 3 -52 3q-30 0 -43 -15t-13 -48v-56h114q0 -47 -8 -100h-106v-422h-114v422h-60v100h60v47q0 80 48.5 127.5t119.5 47.5q37 0 61 -4z" />
    <glyph glyph-name="g" unicode="g" horiz-adv-x="535" 
d="M501 -37q0 -83 -59 -131t-176 -48q-216 0 -216 139q0 58 53 101q-25 42 -34 75q10 40 56 117q-58 42 -58 133q0 83 49.5 133t137.5 50q44 0 84 -10h160q0 -49 -8 -84l-64 -3v-7q24 -30 24 -82q0 -84 -49 -128.5t-131 -44.5q-39 0 -70 9q-24 -35 -24 -56q0 -24 28 -24h145
q75 0 113.5 -31t38.5 -108zM393 -46q0 28 -11 37t-38 9h-168q-19 -22 -19 -53q0 -39 24.5 -54t87.5 -15t93.5 17t30.5 59zM342 353q0 50 -20 71.5t-63 21.5q-81 0 -81 -93q0 -49 20 -71.5t61 -22.5q42 0 62.5 22t20.5 72z" />
    <glyph glyph-name="h" unicode="h" horiz-adv-x="587" 
d="M503 0h-114v361q0 34 -16.5 52t-61.5 18q-60 0 -109 -34v-397h-114v736q64 8 114 8v-271h6q66 59 144 59q70 0 110.5 -39.5t40.5 -120.5v-372z" />
    <glyph glyph-name="i" unicode="i" horiz-adv-x="289" 
d="M210 661q0 -29 -17 -48t-49 -19q-31 0 -47.5 19.5t-16.5 47.5t17 48.5t48 20.5t48 -20t17 -49zM202 0h-114v522h114v-522z" />
    <glyph glyph-name="j" unicode="j" horiz-adv-x="294" 
d="M207 -10q0 -94 -48 -146.5t-134 -59.5q-16 42 -24 103q49 1 70.5 25.5t21.5 71.5v538h114v-532zM215 661q0 -29 -17 -48t-49 -19q-30 0 -47 19.5t-17 47.5t17 48.5t48 20.5t48 -20t17 -49z" />
    <glyph glyph-name="k" unicode="k" horiz-adv-x="528" 
d="M510 5q-52 -10 -120 -10l-129 237l-59 -68v-164h-114v736q64 8 114 8v-445h6q48 75 106 142l78 90q71 -4 115 -20l-170 -193q85 -140 173 -313z" />
    <glyph glyph-name="l" unicode="l" horiz-adv-x="289" 
d="M202 0h-114v736q64 8 114 8v-744z" />
    <glyph glyph-name="m" unicode="m" horiz-adv-x="848" 
d="M764 0h-114v362q0 69 -71 69q-53 0 -96 -34v-397h-114v361q0 35 -16 52.5t-53 17.5q-52 0 -98 -34v-397h-114v518q56 7 114 7v-52h6q36 32 66.5 45.5t68.5 13.5q86 0 117 -68q68 68 153 68q69 0 110 -39t41 -121v-372z" />
    <glyph glyph-name="n" unicode="n" horiz-adv-x="587" 
d="M503 0h-114v361q0 36 -17.5 53t-60.5 17q-60 0 -109 -34v-397h-114v518q56 7 114 7v-52h6q64 59 144 59q67 0 109 -38.5t42 -122.5v-371z" />
    <glyph glyph-name="o" unicode="o" horiz-adv-x="571" 
d="M518 261q0 -129 -65.5 -200t-168.5 -71q-107 0 -169 67t-62 204q0 127 65 199t169 72q106 0 168.5 -66t62.5 -205zM396 261q0 94 -27.5 133.5t-82.5 39.5q-54 0 -82.5 -39.5t-28.5 -133.5q0 -93 27 -133t83 -40t83.5 40t27.5 133z" />
    <glyph glyph-name="p" unicode="p" horiz-adv-x="579" 
d="M526 276q0 -144 -60.5 -215t-168.5 -71q-43 0 -95 15v-211h-114v724q56 7 114 7v-48h6q56 55 134 55q88 0 136 -64t48 -192zM404 265q0 97 -24.5 131.5t-75.5 34.5q-60 0 -102 -27v-295q39 -21 85 -21q63 0 90 41t27 136z" />
    <glyph glyph-name="q" unicode="q" horiz-adv-x="578" 
d="M491 -206h-114v250h-6q-54 -54 -134 -54q-88 0 -136 63.5t-48 191.5q0 142 61 214.5t174 72.5q115 0 203 -40v-698zM377 117v300q-39 15 -83 15q-63 0 -91 -39.5t-28 -136.5q0 -95 24 -130t76 -35q62 0 102 26z" />
    <glyph glyph-name="r" unicode="r" horiz-adv-x="391" 
d="M365 526q0 -55 -10 -118q-20 5 -48 5q-61 0 -105 -40v-373h-114v518q56 7 114 7v-67h6q35 46 62 60t57 14q20 0 38 -6z" />
    <glyph glyph-name="s" unicode="s" horiz-adv-x="457" 
d="M410 152q0 -80 -58 -121t-143 -41q-94 0 -160 36q14 66 27 103q65 -35 153 -35q63 0 63 53q0 23 -24.5 38.5t-59 26.5t-69.5 25.5t-59.5 46.5t-24.5 80q0 81 60 124.5t150 43.5q68 0 126 -16q-1 -41 -16 -103q-60 20 -138 20q-62 0 -62 -55q0 -19 17.5 -32t43.5 -20.5
t56.5 -20.5t56.5 -29t43.5 -48t17.5 -76z" />
    <glyph glyph-name="t" unicode="t" horiz-adv-x="401" 
d="M377 13q-44 -23 -106 -23q-87 0 -127 43.5t-40 135.5v253h-61v100h61v110q67 16 114 19v-129h134q0 -52 -7 -100h-127v-261q0 -39 15 -52t53 -13q45 0 75 16q10 -38 16 -99z" />
    <glyph glyph-name="u" unicode="u" horiz-adv-x="586" 
d="M499 0h-114v45h-6q-66 -55 -143 -55q-66 0 -108.5 38.5t-42.5 122.5v367q46 7 114 7v-361q0 -37 19 -55t65 -18q54 0 102 27v400q46 7 114 7v-525z" />
    <glyph glyph-name="v" unicode="v" horiz-adv-x="506" 
d="M486 518q-62 -232 -173 -518h-123q-104 264 -170 518q56 7 115 7l106 -340q9 -32 12 -63h6q6 39 14 65l104 338q64 0 109 -7z" />
    <glyph glyph-name="w" unicode="w" horiz-adv-x="797" 
d="M748 517q-43 -266 -118 -517h-115l-103 331q-10 26 -13 61h-6q-3 -26 -14 -62l-100 -330h-115q-70 231 -115 518q58 7 111 7l62 -326q6 -26 10 -68h6q3 33 14 69l96 322h110l96 -321q6 -19 16 -69h6q2 36 9 70l62 323q51 0 101 -8z" />
    <glyph glyph-name="x" unicode="x" horiz-adv-x="525" 
d="M505 5q-60 -9 -133 -9l-95 166q-9 15 -17 43h-6q-9 -28 -18 -43l-94 -166q-59 0 -122 9l164 277l-156 236q60 7 133 7l89 -152q14 -27 18 -46h6q9 30 18 47l86 151q69 0 122 -7l-159 -251z" />
    <glyph glyph-name="y" unicode="y" horiz-adv-x="520" 
d="M499 517l-167 -501q-35 -106 -95.5 -169t-132.5 -63q-60 0 -97 19q6 57 21 105q29 -13 85 -13q50 0 75 56l21 47q-115 259 -175 519q51 8 112 8l101 -339q11 -38 15 -61h6q9 42 16 62l104 338q67 0 111 -8z" />
    <glyph glyph-name="z" unicode="z" horiz-adv-x="487" 
d="M439 0h-393l-10 94l260 328h-230q-8 54 -8 100h364l11 -94l-260 -328h254q10 -43 12 -100z" />
    <glyph glyph-name="braceleft" unicode="{" horiz-adv-x="339" 
d="M297 -81q0 -50 -9 -99q-124 0 -179.5 30t-55.5 95q0 37 26.5 83t53 84.5t26.5 59.5q0 31 -23.5 43.5t-92.5 12.5v106q70 0 93 12t23 43q0 21 -26.5 59.5t-53 84t-26.5 82.5q0 125 237 125q7 -46 7 -99q-77 0 -103 -8.5t-26 -36.5q0 -20 51 -95.5t51 -111.5q0 -41 -24 -66
t-90 -38v-7q65 -14 89.5 -39t24.5 -67q0 -35 -51 -111.5t-51 -96.5q0 -27 25 -36t104 -9z" />
    <glyph glyph-name="bar" unicode="|" horiz-adv-x="260" 
d="M174 -206h-88v938h88v-938z" />
    <glyph glyph-name="braceright" unicode="}" horiz-adv-x="339" 
d="M297 227q-70 0 -93.5 -12t-23.5 -43q0 -21 26.5 -59.5t53 -84t26.5 -82.5q0 -125 -236 -125q-7 36 -7 99q77 0 102.5 8.5t25.5 36.5q0 20 -50.5 95.5t-50.5 111.5q0 42 24 66.5t90 37.5v7q-65 13 -89.5 38.5t-24.5 67.5q0 35 50.5 111.5t50.5 96.5q0 27 -24.5 36
t-103.5 9q0 56 8 99q124 0 179.5 -30t55.5 -95q0 -37 -26.5 -83t-53 -84.5t-26.5 -59.5q0 -31 23.5 -43.5t93.5 -12.5v-106z" />
    <glyph glyph-name="asciitilde" unicode="~" horiz-adv-x="495" 
d="M469 362q-15 -99 -43.5 -135.5t-77.5 -36.5q-36 0 -104 42.5t-84 42.5q-19 0 -27 -17t-14 -68q-53 0 -93 17q15 98 43.5 135.5t77.5 37.5q35 0 103.5 -42.5t85.5 -42.5q19 0 26.5 16.5t14.5 68.5q56 0 92 -18z" />
    <glyph glyph-name="nbspace" unicode="&#xa0;" horiz-adv-x="204" 
 />
    <glyph glyph-name="exclamdown" unicode="&#xa1;" horiz-adv-x="264" 
d="M72 -140q0 203 16 475q38 7 86 9q18 -283 18 -484h-120zM67 480q0 32 17.5 48.5t46.5 16.5t47 -17t18 -48q0 -32 -18.5 -49.5t-46.5 -17.5q-29 0 -46.5 17.5t-17.5 49.5z" />
    <glyph glyph-name="cent" unicode="&#xa2;" 
d="M458 98q-33 -20 -105 -28l3 -70h-101l4 72q-95 15 -147.5 79t-52.5 176q0 123 56 190.5t143 81.5l-3 75h101l-3 -73q66 -6 95 -18q-5 -51 -21 -109q-47 20 -116 20q-130 0 -130 -153q0 -94 34 -128.5t106 -34.5q68 0 116 25q13 -51 21 -105z" />
    <glyph glyph-name="sterling" unicode="&#xa3;" 
d="M487 105q0 -50 -11 -105h-392v95q86 21 86 121q0 34 -30 100h-90v81h53q-16 50 -16 87q0 88 60.5 144t165.5 56q79 0 136 -14q0 -50 -13 -108q-55 17 -132 17q-53 0 -75 -23.5t-22 -76.5q0 -35 20 -82h206q0 -36 -10 -81h-158q25 -60 25 -97q0 -67 -61 -114h258z" />
    <glyph glyph-name="currency" unicode="&#xa4;" 
d="M397 224h-185q9 -68 38 -96t85 -28q75 0 123 29q11 -48 16 -111q-62 -28 -144 -28q-207 0 -243 234h-57v73h50q-1 14 -1 41q0 24 1 38h-50v73h58q19 120 81 177.5t155 57.5q85 0 137 -18q-2 -50 -15 -112q-52 20 -117 20q-50 0 -78.5 -27t-39.5 -98h217q0 -28 -10 -73
h-212q-2 -13 -2 -39q0 -27 1 -40h202q0 -28 -10 -73z" />
    <glyph glyph-name="yen" unicode="&#xa5;" horiz-adv-x="501" 
d="M490 668q-91 -241 -150 -365h109q0 -41 -9 -81h-128v-222h-123v222h-129v81h102q-62 130 -151 365q57 11 126 11l97 -262q13 -33 21 -69h6q10 47 19 71l94 260q58 0 116 -11z" />
    <glyph glyph-name="brokenbar" unicode="&#xa6;" horiz-adv-x="258" 
d="M172 401h-86v273h86v-273zM172 0h-86v277h86v-277z" />
    <glyph glyph-name="section" unicode="&#xa7;" horiz-adv-x="501" 
d="M466 297q0 -46 -28 -86.5t-76 -64.5q-40 21 -74 60q68 30 68 75q0 25 -19.5 44.5t-49 31.5t-63.5 28t-63.5 32.5t-49 46t-19.5 68.5q0 67 56 109.5t142 42.5q66 0 119 -13q-4 -57 -14 -101q-70 17 -131 17q-63 0 -63 -48q0 -21 27.5 -38t66.5 -32t77.5 -34t66 -54.5
t27.5 -83.5zM35 248q0 47 28 87t75 64q33 -17 75 -59q-69 -30 -69 -76q0 -29 27.5 -50.5t66 -37t77.5 -33.5t66.5 -51t27.5 -79q0 -66 -56 -109t-142 -43q-67 0 -120 14q5 60 15 100q66 -17 130 -17q63 0 63 48q0 21 -27 38t-66 32t-78 34t-66 54.5t-27 83.5z" />
    <glyph glyph-name="dieresis" unicode="&#xa8;" 
d="M219 643q0 -29 -16.5 -46.5t-46.5 -17.5q-29 0 -45 18t-16 46t16 46.5t46 18.5t46 -18.5t16 -46.5zM405 643q0 -29 -16 -46.5t-46 -17.5q-29 0 -45.5 18t-16.5 46t16.5 46.5t46.5 18.5q29 0 45 -18.5t16 -46.5z" />
    <glyph glyph-name="copyright" unicode="&#xa9;" horiz-adv-x="725" 
d="M658 338q0 -142 -83 -229t-213 -87t-212.5 86.5t-82.5 229.5q0 139 82.5 226t212.5 87q127 0 211.5 -85.5t84.5 -227.5zM485 163q-39 -25 -107 -25q-82 0 -127.5 50.5t-45.5 145.5q0 96 47.5 145t122.5 49q68 0 102 -18q-2 -37 -10 -71q-38 18 -89 18q-43 0 -65.5 -27.5
t-22.5 -95.5q0 -66 22 -95.5t69 -29.5q54 0 94 25q8 -32 10 -71zM613 335q0 123 -70.5 199t-180.5 76q-116 0 -183.5 -75.5t-67.5 -199.5q0 -120 69.5 -196.5t181.5 -76.5q113 0 182 74.5t69 198.5z" />
    <glyph glyph-name="ordfeminine" unicode="&#xaa;" horiz-adv-x="380" 
d="M355 411v-25q0 -51 -54 -51q-40 0 -57 35h-3q-38 -35 -96 -35q-47 0 -74 23t-27 69q0 55 31 77.5t97 25.5l58 3v53q-21 11 -64 11q-49 0 -79 -14q-12 36 -14 78q43 13 100 13q89 0 136 -34v-207q0 -22 21 -22h25zM230 414v66l-58 -3q-25 -1 -35 -10.5t-10 -30.5t9 -29.5
t33 -8.5q37 0 61 16z" />
    <glyph glyph-name="guillemotleft" unicode="&#xab;" horiz-adv-x="495" 
d="M259 56l-93 -13l-139 220l139 220l93 -14l-122 -207zM469 56l-94 -13l-139 220l139 220l94 -14l-122 -207z" />
    <glyph glyph-name="logicalnot" unicode="&#xac;" horiz-adv-x="498" 
d="M456 142q-44 -9 -91 -9v140h-330v92h421v-223z" />
    <glyph glyph-name="registered" unicode="&#xae;" horiz-adv-x="725" 
d="M658 338q0 -142 -83 -229t-213 -87t-212.5 86.5t-82.5 229.5q0 139 82.5 226t212.5 87q127 0 211.5 -85.5t84.5 -227.5zM613 335q0 123 -70.5 199t-180.5 76q-116 0 -183.5 -75.5t-67.5 -199.5q0 -120 69.5 -196.5t181.5 -76.5q113 0 182 74.5t69 198.5zM474 232l38 -83
q-35 -7 -80 -7l-26 58q-27 58 -55 88h-42v-143h-74v374q66 7 126 7q56 0 90.5 -27.5t34.5 -84.5q0 -35 -20 -62.5t-50 -37.5q31 -28 58 -82zM410 409q0 55 -57 55q-16 0 -44 -2v-114h38q63 0 63 61z" />
    <glyph glyph-name="macron" unicode="&#xaf;" 
d="M379 693q0 -48 -9 -93h-243v93h252z" />
    <glyph glyph-name="degree" unicode="&#xb0;" horiz-adv-x="320" 
d="M285 551q0 -56 -34.5 -92t-90.5 -36q-59 0 -92 34t-33 92q0 56 35 92t90 36q57 0 91 -34.5t34 -91.5zM223 551q0 31 -17.5 51t-45.5 20t-45 -20t-17 -51q0 -32 16.5 -52t45.5 -20q30 0 46.5 19.5t16.5 52.5z" />
    <glyph glyph-name="plusminus" unicode="&#xb1;" horiz-adv-x="455" 
d="M395 296h-127v-127h-81v127h-127v80h127v124h81v-124h127v-80zM395 45h-335v83h335v-83z" />
    <glyph glyph-name="twosuperior" unicode="&#xb2;" horiz-adv-x="352" 
d="M317 503q0 -49 -5 -82h-273l-4 70q96 64 134 105.5t38 79.5q0 31 -17 43.5t-51 12.5q-53 0 -87 -16q-12 40 -12 81q42 18 114 18q67 0 107.5 -32.5t40.5 -94.5q0 -50 -33 -94t-103 -91h151z" />
    <glyph glyph-name="threesuperior" unicode="&#xb3;" horiz-adv-x="352" 
d="M307 533q0 -59 -46 -89t-125 -30q-63 0 -106 17q1 40 14 80q44 -16 90 -16q41 0 60 9t19 34q0 26 -18 35t-57 9h-64v76h65q39 0 53 8.5t14 30.5q0 37 -72 37q-45 0 -81 -12q-9 31 -11 79q49 14 109 14q66 0 106.5 -24t40.5 -75q0 -67 -68 -89v-3q77 -18 77 -91z" />
    <glyph glyph-name="acute" unicode="&#xb4;" 
d="M348 731q-28 -84 -93 -159q-45 0 -91 7l61 152h123z" />
    <glyph glyph-name="mu" unicode="&#xb5;" horiz-adv-x="590" 
d="M502 0h-114v45h-6q-62 -55 -128 -55q-34 0 -52 15v-211h-114v724q46 7 114 7v-361q0 -38 19.5 -55.5t64.5 -17.5q56 0 102 27v400q46 7 114 7v-525z" />
    <glyph glyph-name="paragraph" unicode="&#xb6;" 
d="M444 658v-533q0 -95 -34 -154.5t-115 -109.5l-37 48q70 46 95.5 93t25.5 121v485q-28 11 -70 11v-496q0 -58 -19 -93t-70 -70l-34 49q33 19 45.5 42t12.5 62v105h-24q-87 0 -139 52t-52 166q0 122 69 185t172 63q91 0 174 -26z" />
    <glyph glyph-name="periodcentered" unicode="&#xb7;" horiz-adv-x="231" 
d="M180 290q0 -31 -18 -48t-46 -17q-29 0 -47 17t-18 48q0 33 18 50t47 17q28 0 46 -17.5t18 -49.5z" />
    <glyph glyph-name="cedilla" unicode="&#xb8;" 
d="M376 -117q0 -99 -135 -99q-36 0 -69 5q-4 28 -4 62q30 -6 64 -6q30 0 44 8.5t14 29.5q0 39 -53 39q-26 0 -44 -1q4 30 13 50h58q112 0 112 -88z" />
    <glyph glyph-name="onesuperior" unicode="&#xb9;" horiz-adv-x="352" 
d="M328 503q0 -49 -6 -82h-279v82h118v223l-108 -16q-8 40 -8 75l123 23h79v-305h81z" />
    <glyph glyph-name="ordmasculine" unicode="&#xba;" horiz-adv-x="380" 
d="M349 504q0 -80 -44.5 -124.5t-116.5 -44.5q-74 0 -115.5 42t-41.5 127q0 79 43.5 124.5t115.5 45.5q74 0 116.5 -41t42.5 -129zM258 504q0 98 -69 98q-67 0 -67 -98q0 -97 66 -97q70 0 70 97z" />
    <glyph glyph-name="guillemotright" unicode="&#xbb;" horiz-adv-x="495" 
d="M469 262l-140 -219l-93 13l121 207l-121 206l93 14zM259 262l-139 -219l-93 13l121 207l-121 206l93 14z" />
    <glyph glyph-name="onequarter" unicode="&#xbc;" horiz-adv-x="854" 
d="M328 369q0 -49 -6 -82h-279v82h118v223l-108 -16q-8 40 -8 75l123 23h79v-305h81zM606 672l-274 -683q-40 7 -74 24l270 671q42 0 78 -12zM840 157q0 -42 -7 -79h-44v-78h-81v78h-187v80q59 115 150 236q52 -3 79 -12l-145 -229h105v80h79v-76h51z" />
    <glyph glyph-name="onehalf" unicode="&#xbd;" horiz-adv-x="864" 
d="M328 369q0 -49 -6 -82h-279v82h118v223l-108 -16q-8 40 -8 75l123 23h79v-305h81zM606 672l-274 -683q-40 7 -74 24l270 671q42 0 78 -12zM829 82q0 -50 -5 -82h-273l-4 70q96 64 134 105.5t38 79.5q0 31 -17 43.5t-51 12.5q-53 0 -87 -16q-12 40 -12 81q42 18 114 18
q67 0 107.5 -32.5t40.5 -94.5q0 -50 -33 -94t-103 -91h151z" />
    <glyph glyph-name="threequarters" unicode="&#xbe;" horiz-adv-x="854" 
d="M307 399q0 -59 -46 -89t-125 -30q-63 0 -106 17q1 40 14 80q44 -16 90 -16q41 0 60 9t19 34q0 26 -18 35t-57 9h-64v76h65q39 0 53 8.5t14 30.5q0 37 -72 37q-45 0 -81 -12q-9 31 -11 79q49 14 109 14q66 0 106.5 -24t40.5 -75q0 -67 -68 -89v-3q77 -18 77 -91zM606 672
l-274 -683q-40 7 -74 24l270 671q42 0 78 -12zM840 157q0 -42 -7 -79h-44v-78h-81v78h-187v80q59 115 150 236q52 -3 79 -12l-145 -229h105v80h79v-76h51z" />
    <glyph glyph-name="questiondown" unicode="&#xbf;" horiz-adv-x="425" 
d="M39 36q0 139 183 209v90q50 9 98 11q16 -92 16 -163q-183 -47 -183 -140q0 -47 26.5 -67.5t86.5 -20.5q44 0 98 12q9 -48 9 -104q-52 -13 -119 -13q-97 0 -156 47.5t-59 138.5zM206 479q0 32 18 49t47 17t47 -17t18 -49q0 -31 -18.5 -48.5t-46.5 -17.5q-29 0 -47 17.5
t-18 48.5z" />
    <glyph glyph-name="Agrave" unicode="&#xc0;" horiz-adv-x="586" 
d="M571 6q-52 -11 -122 -11l-55 184h-211l-55 -184q-65 0 -113 11q90 321 211 668h137q114 -342 208 -668zM364 282l-64 214q-7 21 -8 52h-8q-2 -35 -7 -52l-65 -214h152zM299 815l58 -102q-70 -7 -104 -7q-62 53 -84 109h130z" />
    <glyph glyph-name="Aacute" unicode="&#xc1;" horiz-adv-x="586" 
d="M571 6q-52 -11 -122 -11l-55 184h-211l-55 -184q-65 0 -113 11q90 321 211 668h137q114 -342 208 -668zM364 282l-64 214q-7 21 -8 52h-8q-2 -35 -7 -52l-65 -214h152zM418 815q-20 -55 -83 -109q-34 0 -104 7l58 102h129z" />
    <glyph glyph-name="Acircumflex" unicode="&#xc2;" horiz-adv-x="586" 
d="M571 6q-52 -11 -122 -11l-55 184h-211l-55 -184q-65 0 -113 11q90 321 211 668h137q114 -342 208 -668zM364 282l-64 214q-7 21 -8 52h-8q-2 -35 -7 -52l-65 -214h152zM445 711q-41 -6 -99 -6l-52 70l-53 -70q-49 0 -99 5q38 67 67 105h171q31 -42 65 -104z" />
    <glyph glyph-name="Atilde" unicode="&#xc3;" horiz-adv-x="586" 
d="M571 6q-52 -11 -122 -11l-55 184h-211l-55 -184q-65 0 -113 11q90 321 211 668h137q114 -342 208 -668zM364 282l-64 214q-7 21 -8 52h-8q-2 -35 -7 -52l-65 -214h152zM128 717q13 60 35 83t60 23q23 0 65.5 -18t55.5 -18q17 0 24.5 7t10.5 33q47 -2 77 -13
q-9 -61 -31 -83.5t-59 -22.5q-24 0 -68.5 17.5t-55.5 17.5q-33 0 -37 -40q-43 0 -77 14z" />
    <glyph glyph-name="Adieresis" unicode="&#xc4;" horiz-adv-x="586" 
d="M260 761q0 -23 -16 -38.5t-43 -15.5t-42.5 15.5t-15.5 38.5t15.5 38.5t42.5 15.5t43 -15t16 -39zM444 761q0 -23 -16 -38.5t-44 -15.5q-27 0 -42 15.5t-15 38.5t15 38.5t42 15.5q28 0 44 -15t16 -39zM571 6q-52 -11 -122 -11l-55 184h-211l-55 -184q-65 0 -113 11
q90 321 211 668h137q114 -342 208 -668zM364 282l-64 214q-7 21 -8 52h-8q-2 -35 -7 -52l-65 -214h152z" />
    <glyph glyph-name="Aring" unicode="&#xc5;" horiz-adv-x="586" 
d="M571 6q-52 -11 -122 -11l-55 184h-211l-55 -184q-65 0 -113 11q77 279 209 663q-52 20 -52 82q0 44 31.5 69.5t91.5 25.5q122 0 122 -95q0 -57 -53 -82q117 -347 207 -663zM364 282l-64 214q-7 22 -8 52h-8q-1 -30 -7 -52l-65 -214h152zM336 752q0 40 -41 40
q-42 0 -42 -40q0 -41 40 -41q43 0 43 41z" />
    <glyph glyph-name="AE" unicode="&#xc6;" horiz-adv-x="827" 
d="M769 0h-389v196h-187l-95 -202q-65 0 -123 12q145 322 326 668h461q0 -55 -10 -110h-251v-163h187v-108h-187v-183h277q0 -45 -9 -110zM363 568l-125 -268h142v268h-17z" />
    <glyph glyph-name="Ccedilla" unicode="&#xc7;" horiz-adv-x="576" 
d="M536 34q-73 -44 -185 -44q-145 0 -220.5 88.5t-75.5 259.5q0 173 79.5 259.5t210.5 86.5q47 0 98 -9t79 -24q-2 -35 -19 -111q-70 34 -152 34q-78 0 -120 -53.5t-42 -182.5q0 -127 40 -182.5t125 -55.5q90 0 162 46q16 -61 20 -112zM436 -117q0 -99 -135 -99q-36 0 -69 5
q-4 28 -4 62q30 -6 64 -6q30 0 44 8.5t14 29.5q0 39 -53 39q-26 0 -44 -1q4 29 13 50h58q112 0 112 -88z" />
    <glyph glyph-name="Egrave" unicode="&#xc8;" horiz-adv-x="544" 
d="M495 110q0 -36 -10 -110h-393v674h386q0 -49 -9 -110h-252v-163h187v-108h-187v-183h278zM290 815l58 -102q-70 -7 -104 -7q-62 53 -84 109h130z" />
    <glyph glyph-name="Eacute" unicode="&#xc9;" horiz-adv-x="544" 
d="M381 815q-20 -55 -83 -109q-34 0 -104 7l58 102h129zM495 110q0 -36 -10 -110h-393v674h386q0 -49 -9 -110h-252v-163h187v-108h-187v-183h278z" />
    <glyph glyph-name="Ecircumflex" unicode="&#xca;" horiz-adv-x="544" 
d="M495 110q0 -36 -10 -110h-393v674h386q0 -49 -9 -110h-252v-163h187v-108h-187v-183h278zM434 711q-41 -6 -99 -6l-52 70l-53 -70q-49 0 -99 5q38 67 67 105h171q31 -42 65 -104z" />
    <glyph glyph-name="Edieresis" unicode="&#xcb;" horiz-adv-x="544" 
d="M495 110q0 -36 -10 -110h-393v674h386q0 -49 -9 -110h-252v-163h187v-108h-187v-183h278zM248 761q0 -23 -16 -38.5t-43 -15.5t-42.5 15.5t-15.5 38.5t15.5 38.5t42.5 15.5t43 -15t16 -39zM432 761q0 -23 -16 -38.5t-44 -15.5q-27 0 -42 15.5t-15 38.5t15 38.5t42 15.5
q28 0 44 -15t16 -39z" />
    <glyph glyph-name="Igrave" unicode="&#xcc;" horiz-adv-x="309" 
d="M157 815l58 -102q-70 -7 -104 -7q-62 53 -84 109h130zM217 0h-125v674h125v-674z" />
    <glyph glyph-name="Iacute" unicode="&#xcd;" horiz-adv-x="309" 
d="M283 815q-20 -55 -83 -109q-34 0 -104 7l58 102h129zM217 0h-125v674h125v-674z" />
    <glyph glyph-name="Icircumflex" unicode="&#xce;" horiz-adv-x="309" 
d="M304 709q-39 -6 -96 -6l-50 71l-52 -71q-47 0 -95 5q36 68 64 106h166q28 -39 63 -105zM217 0h-125v674h125v-674z" />
    <glyph glyph-name="Idieresis" unicode="&#xcf;" horiz-adv-x="309" 
d="M122 761q0 -23 -15.5 -38.5t-41.5 -15.5q-27 0 -41.5 15t-14.5 39t14.5 39t41.5 15q26 0 41.5 -15t15.5 -39zM300 761q0 -23 -16 -38.5t-42 -15.5t-41 15.5t-15 38.5t15 38.5t41 15.5q27 0 42.5 -15t15.5 -39zM217 0h-125v674h125v-674z" />
    <glyph glyph-name="Eth" unicode="&#xd0;" horiz-adv-x="678" 
d="M623 351q0 -171 -83 -265.5t-218 -94.5q-134 0 -230 14v293h-53v103h53v266q100 14 229 14q133 0 217.5 -82t84.5 -248zM489 340q0 125 -47.5 178t-123.5 53q-51 0 -101 -5v-165h97q0 -42 -9 -103h-88v-192q43 -5 100 -5q87 0 129.5 57.5t42.5 181.5z" />
    <glyph glyph-name="Ntilde" unicode="&#xd1;" horiz-adv-x="693" 
d="M195 717q13 60 35 83t60 23q23 0 65.5 -18t55.5 -18q17 0 24.5 7t10.5 33q47 -2 77 -13q-9 -61 -31 -83.5t-59 -22.5q-24 0 -68.5 17.5t-55.5 17.5q-33 0 -37 -40q-43 0 -77 14zM601 674v-670q-56 -9 -117 -9l-244 429q-19 34 -32 76l-9 -1q5 -47 5 -78v-421h-112v667
q57 9 130 9l231 -406q18 -33 32 -76l9 1q-5 35 -5 81v398h112z" />
    <glyph glyph-name="Ograve" unicode="&#xd2;" horiz-adv-x="678" 
d="M623 337q0 -175 -76 -261t-208 -86q-136 0 -210 83.5t-74 259.5q0 171 76 261t208 90q135 0 209.5 -85.5t74.5 -261.5zM489 337q0 133 -37 186.5t-113 53.5q-78 0 -114 -53t-36 -187q0 -130 35 -185t115 -55t115 54t35 186zM346 815l58 -102q-70 -7 -104 -7
q-62 53 -84 109h130z" />
    <glyph glyph-name="Oacute" unicode="&#xd3;" horiz-adv-x="678" 
d="M623 337q0 -175 -76 -261t-208 -86q-136 0 -210 83.5t-74 259.5q0 171 76 261t208 90q135 0 209.5 -85.5t74.5 -261.5zM489 337q0 133 -37 186.5t-113 53.5q-78 0 -114 -53t-36 -187q0 -130 35 -185t115 -55t115 54t35 186zM458 815q-20 -55 -83 -109q-34 0 -104 7
l58 102h129z" />
    <glyph glyph-name="Ocircumflex" unicode="&#xd4;" horiz-adv-x="678" 
d="M623 337q0 -175 -76 -261t-208 -86q-136 0 -210 83.5t-74 259.5q0 171 76 261t208 90q135 0 209.5 -85.5t74.5 -261.5zM489 337q0 133 -37 186.5t-113 53.5q-78 0 -114 -53t-36 -187q0 -130 35 -185t115 -55t115 54t35 186zM491 711q-41 -6 -99 -6l-52 70l-53 -70
q-49 0 -99 5q38 67 67 105h171q31 -42 65 -104z" />
    <glyph glyph-name="Otilde" unicode="&#xd5;" horiz-adv-x="678" 
d="M623 337q0 -175 -76 -261t-208 -86q-136 0 -210 83.5t-74 259.5q0 171 76 261t208 90q135 0 209.5 -85.5t74.5 -261.5zM489 337q0 133 -37 186.5t-113 53.5q-78 0 -114 -53t-36 -187q0 -130 35 -185t115 -55t115 54t35 186zM174 717q13 60 35 83t60 23q23 0 65.5 -18
t55.5 -18q17 0 24.5 7t10.5 33q47 -2 77 -13q-9 -61 -31 -83.5t-59 -22.5q-24 0 -68.5 17.5t-55.5 17.5q-33 0 -37 -40q-43 0 -77 14z" />
    <glyph glyph-name="Odieresis" unicode="&#xd6;" horiz-adv-x="678" 
d="M306 761q0 -23 -16 -38.5t-43 -15.5t-42.5 15.5t-15.5 38.5t15.5 38.5t42.5 15.5t43 -15t16 -39zM490 761q0 -23 -16 -38.5t-44 -15.5q-27 0 -42 15.5t-15 38.5t15 38.5t42 15.5q28 0 44 -15t16 -39zM623 337q0 -175 -76 -261t-208 -86q-136 0 -210 83.5t-74 259.5
q0 171 76 261t208 90q135 0 209.5 -85.5t74.5 -261.5zM489 337q0 133 -37 186.5t-113 53.5q-78 0 -114 -53t-36 -187q0 -130 35 -185t115 -55t115 54t35 186z" />
    <glyph glyph-name="multiply" unicode="&#xd7;" horiz-adv-x="492" 
d="M449 126l-59 -59l-144 147l-144 -147l-59 59l147 146l-146 145l58 58l144 -148l144 148l59 -58l-146 -145z" />
    <glyph glyph-name="Oslash" unicode="&#xd8;" horiz-adv-x="678" 
d="M623 337q0 -175 -75.5 -261t-207.5 -86q-86 0 -147 33l-44 -84h-43l55 104q-106 84 -106 290q0 171 76.5 261t208.5 90q84 0 145 -34l44 82h44l-55 -104q105 -85 105 -291zM190 337q0 -124 32 -179l208 390q-33 29 -91 29q-77 0 -113 -53.5t-36 -186.5zM490 337
q0 122 -34 178l-208 -390q32 -28 92 -28q80 0 115 54t35 186z" />
    <glyph glyph-name="Ugrave" unicode="&#xd9;" horiz-adv-x="683" 
d="M351 815l58 -102q-70 -7 -104 -7q-62 53 -84 109h130zM593 257q0 -267 -252 -267q-125 0 -188 61.5t-63 205.5v417h125v-419q0 -86 28.5 -118.5t100.5 -32.5q70 0 100.5 34t30.5 117v419h118v-417z" />
    <glyph glyph-name="Uacute" unicode="&#xda;" horiz-adv-x="683" 
d="M465 815q-20 -55 -83 -109q-34 0 -104 7l58 102h129zM593 257q0 -267 -252 -267q-125 0 -188 61.5t-63 205.5v417h125v-419q0 -86 28.5 -118.5t100.5 -32.5q70 0 100.5 34t30.5 117v419h118v-417z" />
    <glyph glyph-name="Ucircumflex" unicode="&#xdb;" horiz-adv-x="683" 
d="M498 711q-41 -6 -99 -6l-52 70l-53 -70q-49 0 -99 5q38 67 67 105h171q31 -42 65 -104zM593 257q0 -267 -252 -267q-125 0 -188 61.5t-63 205.5v417h125v-419q0 -86 28.5 -118.5t100.5 -32.5q70 0 100.5 34t30.5 117v419h118v-417z" />
    <glyph glyph-name="Udieresis" unicode="&#xdc;" horiz-adv-x="683" 
d="M314 761q0 -23 -16 -38.5t-43 -15.5t-42.5 15.5t-15.5 38.5t15.5 38.5t42.5 15.5t43 -15t16 -39zM498 761q0 -23 -16 -38.5t-44 -15.5q-27 0 -42 15.5t-15 38.5t15 38.5t42 15.5q28 0 44 -15t16 -39zM593 257q0 -267 -252 -267q-125 0 -188 61.5t-63 205.5v417h125v-419
q0 -86 28.5 -118.5t100.5 -32.5q70 0 100.5 34t30.5 117v419h118v-417z" />
    <glyph glyph-name="Yacute" unicode="&#xdd;" horiz-adv-x="551" 
d="M536 668q-82 -201 -198 -421v-247h-125v247q-95 176 -198 421q58 11 130 11l114 -257q10 -22 19 -55h8q15 46 20 57l111 255q61 0 119 -11zM393 815q-20 -55 -83 -109q-34 0 -104 7l58 102h129z" />
    <glyph glyph-name="Thorn" unicode="&#xde;" horiz-adv-x="579" 
d="M526 352q0 -117 -66.5 -175.5t-165.5 -58.5h-79v-118h-123v674h124v-105q42 3 84 3q102 0 164 -56t62 -164zM402 353q0 58 -30 89t-79 31q-28 0 -78 -5v-248h66q121 0 121 133z" />
    <glyph glyph-name="germandbls" unicode="&#xdf;" horiz-adv-x="568" 
d="M537 133q0 -68 -48 -105.5t-121 -37.5t-130 27q14 72 29 107q48 -28 94 -28q52 0 52 44q0 22 -24 47.5t-53 46.5t-53 55t-24 72q0 32 18 65t39.5 54.5t39.5 47.5t18 47q0 36 -17.5 52t-58.5 16q-53 0 -74.5 -26t-21.5 -79v-538h-114v539q0 96 59 150.5t156 54.5
q91 0 143.5 -40t52.5 -111q0 -33 -18.5 -65.5t-40.5 -54.5t-40.5 -50t-18.5 -52q0 -19 16 -39.5t39 -40t46 -41.5t39 -52.5t16 -64.5z" />
    <glyph glyph-name="agrave" unicode="&#xe0;" horiz-adv-x="538" 
d="M308 579q-45 -7 -91 -7q-67 77 -93 159h123zM526 104v-37q0 -77 -83 -77q-73 0 -94 54h-5q-66 -54 -142 -54q-71 0 -112.5 36.5t-41.5 110.5q0 82 47.5 118t144.5 40l92 4v110q-35 21 -102 21q-69 0 -120 -22q-13 53 -16 104q71 20 144 20q134 0 203 -56v-338
q0 -19 6.5 -26.5t24.5 -7.5h54zM332 111v111l-93 -4q-42 -2 -59 -17.5t-17 -55.5q0 -34 15.5 -49.5t49.5 -15.5q64 0 104 31z" />
    <glyph glyph-name="aacute" unicode="&#xe1;" horiz-adv-x="538" 
d="M379 731q-28 -84 -93 -159q-46 0 -91 7l61 152h123zM526 104v-37q0 -77 -83 -77q-73 0 -94 54h-5q-66 -54 -142 -54q-71 0 -112.5 36.5t-41.5 110.5q0 82 47.5 118t144.5 40l92 4v110q-35 21 -102 21q-69 0 -120 -22q-13 53 -16 104q71 20 144 20q134 0 203 -56v-338
q0 -19 6.5 -26.5t24.5 -7.5h54zM332 111v111l-93 -4q-42 -2 -59 -17.5t-17 -55.5q0 -34 15.5 -49.5t49.5 -15.5q64 0 104 31z" />
    <glyph glyph-name="acircumflex" unicode="&#xe2;" horiz-adv-x="538" 
d="M437 579q-45 -7 -102 -7l-67 100l-64 -100q-52 0 -100 6q40 82 89 153h153q47 -66 91 -152zM526 104v-37q0 -77 -83 -77q-73 0 -94 54h-5q-66 -54 -142 -54q-71 0 -112.5 36.5t-41.5 110.5q0 82 47.5 118t144.5 40l92 4v110q-35 21 -102 21q-69 0 -120 -22
q-13 53 -16 104q71 20 144 20q134 0 203 -56v-338q0 -19 6.5 -26.5t24.5 -7.5h54zM332 111v111l-93 -4q-42 -2 -59 -17.5t-17 -55.5q0 -34 15.5 -49.5t49.5 -15.5q64 0 104 31z" />
    <glyph glyph-name="atilde" unicode="&#xe3;" horiz-adv-x="538" 
d="M85 587q18 82 42.5 107t68.5 25q27 0 51 -13l53 -29q18 -10 32 -10q15 0 21.5 10.5t14.5 48.5q39 0 83 -17q-19 -82 -43 -107.5t-66 -25.5q-26 0 -54 14l-50 27q-22 11 -33 11q-17 0 -23.5 -10.5t-13.5 -47.5q-39 0 -83 17zM526 104v-37q0 -77 -83 -77q-73 0 -94 54h-5
q-66 -54 -142 -54q-71 0 -112.5 36.5t-41.5 110.5q0 82 47.5 118t144.5 40l92 4v110q-35 21 -102 21q-69 0 -120 -22q-13 53 -16 104q71 20 144 20q134 0 203 -56v-338q0 -19 6.5 -26.5t24.5 -7.5h54zM332 111v111l-93 -4q-42 -2 -59 -17.5t-17 -55.5q0 -34 15.5 -49.5
t49.5 -15.5q64 0 104 31z" />
    <glyph glyph-name="adieresis" unicode="&#xe4;" horiz-adv-x="538" 
d="M227 643q0 -29 -16.5 -46.5t-46.5 -17.5q-29 0 -45 18t-16 46t16 46.5t46 18.5t46 -18.5t16 -46.5zM413 643q0 -29 -16 -46.5t-46 -17.5q-29 0 -45.5 18t-16.5 46t16.5 46.5t46.5 18.5q29 0 45 -18.5t16 -46.5zM526 104v-37q0 -77 -83 -77q-73 0 -94 54h-5
q-66 -54 -142 -54q-71 0 -112.5 36.5t-41.5 110.5q0 82 47.5 118t144.5 40l92 4v110q-35 21 -102 21q-69 0 -120 -22q-13 53 -16 104q71 20 144 20q134 0 203 -56v-338q0 -19 6.5 -26.5t24.5 -7.5h54zM332 111v111l-93 -4q-42 -2 -59 -17.5t-17 -55.5q0 -34 15.5 -49.5
t49.5 -15.5q64 0 104 31z" />
    <glyph glyph-name="aring" unicode="&#xe5;" horiz-adv-x="538" 
d="M385 669q0 -44 -32.5 -71.5t-89.5 -27.5q-62 0 -93 26.5t-31 72.5q0 45 32 73t92 28q122 0 122 -101zM304 670q0 44 -41 44q-43 0 -43 -44q0 -45 41 -45q43 0 43 45zM526 104v-37q0 -77 -83 -77q-73 0 -94 54h-5q-66 -54 -142 -54q-71 0 -112.5 36.5t-41.5 110.5
q0 82 47.5 118t144.5 40l92 4v110q-35 21 -102 21q-69 0 -120 -22q-13 53 -16 104q71 20 144 20q134 0 203 -56v-338q0 -19 6.5 -26.5t24.5 -7.5h54zM332 111v111l-93 -4q-42 -2 -59 -17.5t-17 -55.5q0 -34 15.5 -49.5t49.5 -15.5q64 0 104 31z" />
    <glyph glyph-name="ae" unicode="&#xe6;" horiz-adv-x="796" 
d="M743 309q0 -35 -4 -71l-294 -11v-4q0 -66 28.5 -95.5t97.5 -29.5q79 0 138 32q19 -53 26 -107q-67 -33 -166 -33q-127 0 -187 77h-3q-81 -77 -177 -77q-72 0 -113 38t-41 110q0 82 47 118.5t146 40.5l96 4q2 69 19 106q-46 23 -124 23q-70 0 -122 -22q-16 56 -16 104
q73 20 145 20q118 0 181 -44q47 44 123 44q96 0 148 -56t52 -167zM228 80q71 0 124 49q-17 40 -17 95l-95 -4q-42 -2 -59.5 -18t-17.5 -56q0 -34 15 -50t50 -16zM627 310q1 6 1 28q0 107 -87 107q-94 0 -95 -141z" />
    <glyph glyph-name="ccedilla" unicode="&#xe7;" horiz-adv-x="469" 
d="M429 19q-49 -29 -134 -29q-118 0 -180 65.5t-62 196.5q0 140 64.5 210t163.5 70q86 0 139 -20q-7 -54 -24 -109q-47 20 -107 20q-58 0 -85.5 -35.5t-27.5 -121.5q0 -97 28 -132t95 -35q61 0 107 26q18 -58 23 -106zM374 -117q0 -99 -135 -99q-36 0 -69 5q-4 28 -4 62
q30 -6 64 -6q30 0 44 8.5t14 29.5q0 39 -53 39q-26 0 -44 -1q4 30 13 50h58q112 0 112 -88z" />
    <glyph glyph-name="egrave" unicode="&#xe8;" horiz-adv-x="529" 
d="M330 579q-46 -7 -91 -7q-67 77 -93 159h123zM476 309q0 -47 -4 -79h-294v-7q0 -66 27 -95.5t99 -29.5q83 0 138 32q18 -48 26 -107q-68 -33 -166 -33q-121 0 -185 66.5t-64 197.5q0 136 61 207t162 71q100 0 150 -58.5t50 -164.5zM274 445q-94 0 -95 -135h181q1 6 1 28
q0 107 -87 107z" />
    <glyph glyph-name="eacute" unicode="&#xe9;" horiz-adv-x="529" 
d="M401 731q-28 -84 -93 -159q-46 0 -91 7l61 152h123zM476 309q0 -47 -4 -79h-294v-7q0 -66 27 -95.5t99 -29.5q83 0 138 32q18 -48 26 -107q-68 -33 -166 -33q-121 0 -185 66.5t-64 197.5q0 136 61 207t162 71q100 0 150 -58.5t50 -164.5zM274 445q-94 0 -95 -135h181
q1 6 1 28q0 107 -87 107z" />
    <glyph glyph-name="ecircumflex" unicode="&#xea;" horiz-adv-x="529" 
d="M443 579q-45 -7 -102 -7l-67 100l-64 -100q-52 0 -100 6q40 82 89 153h153q47 -66 91 -152zM476 309q0 -47 -4 -79h-294v-7q0 -66 27 -95.5t99 -29.5q83 0 138 32q18 -48 26 -107q-68 -33 -166 -33q-121 0 -185 66.5t-64 197.5q0 136 61 207t162 71q100 0 150 -58.5
t50 -164.5zM274 445q-94 0 -95 -135h181q1 6 1 28q0 107 -87 107z" />
    <glyph glyph-name="edieresis" unicode="&#xeb;" horiz-adv-x="529" 
d="M247 643q0 -29 -16.5 -46.5t-46.5 -17.5q-29 0 -45 18t-16 46t16 46.5t46 18.5t46 -18.5t16 -46.5zM433 643q0 -29 -16 -46.5t-46 -17.5q-29 0 -45.5 18t-16.5 46t16.5 46.5t46.5 18.5q29 0 45 -18.5t16 -46.5zM476 309q0 -47 -4 -79h-294v-7q0 -66 27 -95.5t99 -29.5
q83 0 138 32q18 -48 26 -107q-68 -33 -166 -33q-121 0 -185 66.5t-64 197.5q0 136 61 207t162 71q100 0 150 -58.5t50 -164.5zM274 445q-94 0 -95 -135h181q1 6 1 28q0 107 -87 107z" />
    <glyph glyph-name="igrave" unicode="&#xec;" horiz-adv-x="289" 
d="M202 0h-114v522h114v-522zM197 579q-46 -7 -91 -7q-67 77 -93 159h123z" />
    <glyph glyph-name="iacute" unicode="&#xed;" horiz-adv-x="289" 
d="M202 0h-114v522h114v-522zM277 731q-28 -84 -93 -159q-46 0 -91 7l61 152h123z" />
    <glyph glyph-name="icircumflex" unicode="&#xee;" horiz-adv-x="289" 
d="M202 0h-114v522h114v-522zM285 579q-46 -7 -94 -7l-47 100l-47 -100q-38 0 -92 6q35 88 69 153h141q39 -71 70 -152z" />
    <glyph glyph-name="idieresis" unicode="&#xef;" horiz-adv-x="289" 
d="M202 0h-114v522h114v-522zM123 643q0 -29 -16 -46.5t-46 -17.5t-46 18t-16 46t16.5 46.5t46.5 18.5q29 0 45 -18.5t16 -46.5zM290 643q0 -29 -16.5 -46.5t-46.5 -17.5q-29 0 -45 18t-16 46t16 46.5t46 18.5t46 -18.5t16 -46.5z" />
    <glyph glyph-name="eth" unicode="&#xf0;" horiz-adv-x="559" 
d="M506 281q0 -143 -61.5 -217t-166.5 -74q-114 0 -169.5 63.5t-55.5 203.5q0 126 55 193t148 67q29 0 55 -8l4 7q-29 34 -85 83l-65 -50q-22 11 -38 34l62 48l-42 33q28 46 77 80q9 -6 31.5 -23.5t23.5 -18.5l52 40q21 -10 38 -34l-51 -39q188 -173 188 -388zM385 278
q0 82 -24 138q-30 10 -73 10q-57 0 -84.5 -38.5t-27.5 -130.5q0 -95 23 -132t82 -37q55 0 79.5 43t24.5 147z" />
    <glyph glyph-name="ntilde" unicode="&#xf1;" horiz-adv-x="587" 
d="M503 0h-114v361q0 36 -17.5 53t-60.5 17q-60 0 -109 -34v-397h-114v518q56 7 114 7v-52h6q64 59 144 59q67 0 109 -38.5t42 -122.5v-371zM119 587q18 82 42.5 107t68.5 25q27 0 51 -13l53 -29q18 -10 32 -10q15 0 21.5 10.5t14.5 48.5q39 0 83 -17q-19 -82 -43 -107.5
t-66 -25.5q-26 0 -54 14l-50 27q-22 11 -33 11q-17 0 -23.5 -10.5t-13.5 -47.5q-39 0 -83 17z" />
    <glyph glyph-name="ograve" unicode="&#xf2;" horiz-adv-x="571" 
d="M341 579q-45 -7 -91 -7q-67 77 -93 159h123zM518 261q0 -129 -65.5 -200t-168.5 -71q-107 0 -169 67t-62 204q0 127 65 199t169 72q106 0 168.5 -66t62.5 -205zM396 261q0 94 -27.5 133.5t-82.5 39.5q-54 0 -82.5 -39.5t-28.5 -133.5q0 -93 27 -133t83 -40t83.5 40
t27.5 133z" />
    <glyph glyph-name="oacute" unicode="&#xf3;" horiz-adv-x="571" 
d="M415 731q-28 -84 -93 -159q-46 0 -91 7l61 152h123zM518 261q0 -129 -65.5 -200t-168.5 -71q-107 0 -169 67t-62 204q0 127 65 199t169 72q106 0 168.5 -66t62.5 -205zM396 261q0 94 -27.5 133.5t-82.5 39.5q-54 0 -82.5 -39.5t-28.5 -133.5q0 -93 27 -133t83 -40
t83.5 40t27.5 133z" />
    <glyph glyph-name="ocircumflex" unicode="&#xf4;" horiz-adv-x="571" 
d="M453 579q-45 -7 -102 -7l-67 100l-64 -100q-52 0 -100 6q40 82 89 153h153q47 -66 91 -152zM518 261q0 -129 -65.5 -200t-168.5 -71q-107 0 -169 67t-62 204q0 127 65 199t169 72q106 0 168.5 -66t62.5 -205zM396 261q0 94 -27.5 133.5t-82.5 39.5q-54 0 -82.5 -39.5
t-28.5 -133.5q0 -93 27 -133t83 -40t83.5 40t27.5 133z" />
    <glyph glyph-name="otilde" unicode="&#xf5;" horiz-adv-x="571" 
d="M103 587q18 82 42.5 107t68.5 25q27 0 51 -13l53 -29q18 -10 32 -10q15 0 21.5 10.5t14.5 48.5q39 0 83 -17q-19 -82 -43 -107.5t-66 -25.5q-26 0 -54 14l-50 27q-22 11 -33 11q-17 0 -23.5 -10.5t-13.5 -47.5q-39 0 -83 17zM518 261q0 -129 -65.5 -200t-168.5 -71
q-107 0 -169 67t-62 204q0 127 65 199t169 72q106 0 168.5 -66t62.5 -205zM396 261q0 94 -27.5 133.5t-82.5 39.5q-54 0 -82.5 -39.5t-28.5 -133.5q0 -93 27 -133t83 -40t83.5 40t27.5 133z" />
    <glyph glyph-name="odieresis" unicode="&#xf6;" horiz-adv-x="571" 
d="M256 643q0 -29 -16.5 -46.5t-46.5 -17.5q-29 0 -45 18t-16 46t16 46.5t46 18.5t46 -18.5t16 -46.5zM442 643q0 -29 -16 -46.5t-46 -17.5q-29 0 -45.5 18t-16.5 46t16.5 46.5t46.5 18.5q29 0 45 -18.5t16 -46.5zM518 261q0 -129 -65.5 -200t-168.5 -71q-107 0 -169 67
t-62 204q0 127 65 199t169 72q106 0 168.5 -66t62.5 -205zM396 261q0 94 -27.5 133.5t-82.5 39.5q-54 0 -82.5 -39.5t-28.5 -133.5q0 -93 27 -133t83 -40t83.5 40t27.5 133z" />
    <glyph glyph-name="divide" unicode="&#xf7;" horiz-adv-x="409" 
d="M269 89q0 -31 -17.5 -48t-46.5 -17t-47 17t-18 48q0 32 18.5 49.5t46.5 17.5q29 0 46.5 -17t17.5 -50zM269 458q0 -33 -17.5 -49.5t-46.5 -16.5t-47 17t-18 49t18.5 49t46.5 17q29 0 46.5 -17.5t17.5 -48.5zM350 237h-291v74h291v-74z" />
    <glyph glyph-name="oslash" unicode="&#xf8;" horiz-adv-x="571" 
d="M518 261q0 -129 -65.5 -200t-168.5 -71q-60 0 -109 22l-47 -87h-43l58 106q-90 66 -90 230q0 127 65 199t169 72q63 0 112 -24l44 81h42l-54 -101q87 -68 87 -227zM175 261q0 -83 23 -127l151 281q-25 19 -63 19q-54 0 -82.5 -39.5t-28.5 -133.5zM396 261q0 81 -21 122
l-151 -279q21 -16 61 -16q56 0 83.5 40t27.5 133z" />
    <glyph glyph-name="ugrave" unicode="&#xf9;" horiz-adv-x="586" 
d="M499 0h-114v45h-6q-66 -55 -143 -55q-66 0 -108.5 38.5t-42.5 122.5v367q46 7 114 7v-361q0 -37 19 -55t65 -18q54 0 102 27v400q46 7 114 7v-525zM347 579q-45 -7 -91 -7q-67 77 -93 159h123z" />
    <glyph glyph-name="uacute" unicode="&#xfa;" horiz-adv-x="586" 
d="M499 0h-114v45h-6q-66 -55 -143 -55q-66 0 -108.5 38.5t-42.5 122.5v367q46 7 114 7v-361q0 -37 19 -55t65 -18q54 0 102 27v400q46 7 114 7v-525zM430 731q-28 -84 -93 -159q-45 0 -91 7l61 152h123z" />
    <glyph glyph-name="ucircumflex" unicode="&#xfb;" horiz-adv-x="586" 
d="M499 0h-114v45h-6q-66 -55 -143 -55q-66 0 -108.5 38.5t-42.5 122.5v367q46 7 114 7v-361q0 -37 19 -55t65 -18q54 0 102 27v400q46 7 114 7v-525zM461 579q-45 -7 -102 -7l-67 100l-64 -100q-52 0 -100 6q40 82 89 153h153q47 -66 91 -152z" />
    <glyph glyph-name="udieresis" unicode="&#xfc;" horiz-adv-x="586" 
d="M499 0h-114v45h-6q-66 -55 -143 -55q-66 0 -108.5 38.5t-42.5 122.5v367q46 7 114 7v-361q0 -37 19 -55t65 -18q54 0 102 27v400q46 7 114 7v-525zM261 643q0 -29 -16.5 -46.5t-46.5 -17.5q-29 0 -45 18t-16 46t16 46.5t46 18.5t46 -18.5t16 -46.5zM447 643
q0 -29 -16 -46.5t-46 -17.5q-29 0 -45.5 18t-16.5 46t16.5 46.5t46.5 18.5q29 0 45 -18.5t16 -46.5z" />
    <glyph glyph-name="yacute" unicode="&#xfd;" horiz-adv-x="520" 
d="M499 517l-167 -501q-35 -106 -95.5 -169t-132.5 -63q-60 0 -97 19q6 57 21 105q29 -13 85 -13q50 0 75 56l21 47q-115 259 -175 519q51 8 112 8l101 -339q11 -38 15 -61h6q9 42 16 62l104 338q67 0 111 -8zM395 731q-28 -84 -93 -159q-46 0 -91 7l61 152h123z" />
    <glyph glyph-name="thorn" unicode="&#xfe;" horiz-adv-x="579" 
d="M526 276q0 -142 -60 -214t-169 -72q-47 0 -95 15v-211h-114v942q64 8 114 8v-267h6q56 55 134 55q88 0 136 -64t48 -192zM404 265q0 97 -24.5 131.5t-75.5 34.5q-61 0 -102 -27v-295q39 -21 85 -21q64 0 90.5 40.5t26.5 136.5z" />
    <glyph glyph-name="ydieresis" unicode="&#xff;" horiz-adv-x="520" 
d="M499 517l-167 -501q-35 -106 -95.5 -169t-132.5 -63q-60 0 -97 19q6 57 21 105q29 -13 85 -13q50 0 75 56l21 47q-115 259 -175 519q51 8 112 8l101 -339q11 -38 15 -61h6q9 42 16 62l104 338q67 0 111 -8zM239 643q0 -29 -16.5 -46.5t-46.5 -17.5q-29 0 -45 18t-16 46
t16 46.5t46 18.5t46 -18.5t16 -46.5zM425 643q0 -29 -16 -46.5t-46 -17.5q-29 0 -45.5 18t-16.5 46t16.5 46.5t46.5 18.5q29 0 45 -18.5t16 -46.5z" />
    <glyph glyph-name="dotlessi" unicode="&#x131;" horiz-adv-x="289" 
d="M202 0h-114v522h114v-522z" />
    <glyph glyph-name="Lslash" unicode="&#x141;" horiz-adv-x="503" 
d="M473 111q0 -46 -9 -111h-372v283l-54 -18v105l54 19v285h125v-241l73 26q0 -68 -12 -110l-61 -22v-216h256z" />
    <glyph glyph-name="lslash" unicode="&#x142;" horiz-adv-x="289" 
d="M202 0h-114v306l-41 -13v105l41 14v323q59 9 114 9v-295l45 15q0 -58 -9 -109l-36 -12v-343z" />
    <glyph glyph-name="OE" unicode="&#x152;" horiz-adv-x="915" 
d="M866 110q0 -43 -9 -110h-362v61h-5q-54 -71 -161 -71q-274 0 -274 343q0 166 71 258.5t203 92.5q109 0 161 -67h5v57h355q0 -49 -9 -110h-252v-163h188v-108h-188v-183h277zM471 337q0 127 -33 183.5t-106 56.5q-76 0 -109.5 -54t-33.5 -186q0 -131 32.5 -185.5
t110.5 -54.5q77 0 108 56.5t31 183.5z" />
    <glyph glyph-name="oe" unicode="&#x153;" horiz-adv-x="857" 
d="M804 310q0 -36 -4 -80h-294v-7q0 -67 27.5 -96t98.5 -29q82 0 138 32q18 -48 26 -107q-68 -33 -166 -33q-66 0 -106.5 22t-68.5 67q-60 -89 -172 -89q-108 0 -169 67.5t-61 203.5q0 125 64 198t169 73q115 0 167 -81q47 81 150 81q102 0 151.5 -59.5t49.5 -162.5z
M396 261q0 90 -27.5 131.5t-83.5 41.5q-54 0 -81.5 -40.5t-27.5 -132.5q0 -93 25.5 -133t81.5 -40q57 0 85 40.5t28 132.5zM688 310q1 7 1 28q0 107 -88 107q-91 0 -94 -135h181z" />
    <glyph glyph-name="Scaron" unicode="&#x160;" horiz-adv-x="532" 
d="M443 812q-46 -77 -67 -104h-171q-27 36 -66 103q40 6 99 6l53 -69l53 69q49 0 99 -5zM478 191q0 -96 -64.5 -148.5t-173.5 -52.5t-182 31q7 55 25 108q77 -33 172 -33t95 84q0 34 -30 59.5t-73 44.5t-85.5 42t-72.5 64t-30 98q0 94 66.5 145t176.5 51q75 0 147 -16
q-4 -54 -16 -109q-68 19 -150 19q-96 0 -96 -81q0 -30 30 -54t72.5 -43.5t85.5 -43t73 -66t30 -99.5z" />
    <glyph glyph-name="scaron" unicode="&#x161;" horiz-adv-x="457" 
d="M93 726q45 8 93 8l60 -101l59 101q40 0 91 -7q-40 -86 -81 -152h-140q-42 64 -82 151zM410 152q0 -80 -58 -121t-143 -41q-94 0 -160 36q14 66 27 103q65 -35 153 -35q63 0 63 53q0 23 -24.5 38.5t-59 26.5t-69.5 25.5t-59.5 46.5t-24.5 80q0 81 60 124.5t150 43.5
q68 0 126 -16q-1 -41 -16 -103q-60 20 -138 20q-62 0 -62 -55q0 -19 17.5 -32t43.5 -20.5t56.5 -20.5t56.5 -29t43.5 -48t17.5 -76z" />
    <glyph glyph-name="Ydieresis" unicode="&#x178;" horiz-adv-x="551" 
d="M536 668q-82 -201 -198 -421v-247h-125v247q-95 176 -198 421q58 11 130 11l114 -257q10 -22 19 -55h8q15 46 20 57l111 255q61 0 119 -11zM246 761q0 -23 -16 -38.5t-43 -15.5t-42.5 15.5t-15.5 38.5t15.5 38.5t42.5 15.5t43 -15t16 -39zM430 761q0 -23 -16 -38.5
t-44 -15.5q-27 0 -42 15.5t-15 38.5t15 38.5t42 15.5q28 0 44 -15t16 -39z" />
    <glyph glyph-name="Zcaron" unicode="&#x17d;" horiz-adv-x="565" 
d="M515 110q0 -52 -9 -110h-450l-7 95l313 469h-291q-7 66 -7 110h438l8 -95l-313 -469h318zM444 812q-46 -77 -67 -104h-171q-27 36 -66 103q40 6 99 6l53 -69l53 69q49 0 99 -5z" />
    <glyph glyph-name="zcaron" unicode="&#x17e;" horiz-adv-x="487" 
d="M439 0h-393l-10 94l260 328h-230q-8 54 -8 100h364l11 -94l-260 -328h254q10 -43 12 -100zM73 727q54 7 101 7l67 -101l65 101q35 0 99 -6q-40 -82 -89 -153h-153q-52 72 -90 152z" />
    <glyph glyph-name="florin" unicode="&#x192;" 
d="M422 680q0 -42 -7 -102q-20 4 -53 4q-75 0 -75 -79v-110h153q0 -40 -7 -98h-146v-427h-114v427h-130v98h130v101q0 88 53 139t134 51q36 0 62 -4z" />
    <glyph glyph-name="circumflex" unicode="&#x2c6;" 
d="M418 579q-45 -7 -102 -7l-67 100l-64 -100q-52 0 -100 6q40 82 89 153h153q47 -66 91 -152z" />
    <glyph glyph-name="caron" unicode="&#x2c7;" 
d="M84 727q54 7 101 7l67 -101l65 101q35 0 99 -6q-40 -82 -89 -153h-153q-52 72 -90 152z" />
    <glyph glyph-name="breve" unicode="&#x2d8;" 
d="M417 721q-31 -151 -167 -151q-137 0 -167 150q40 10 93 10q4 -37 22 -53.5t52 -16.5t51.5 16t24.5 54q50 0 91 -9z" />
    <glyph glyph-name="dotaccent" unicode="&#x2d9;" 
d="M315 642q0 -29 -17 -48t-48 -19t-48 19.5t-17 47.5q0 29 17 49t49 20q31 0 47.5 -20t16.5 -49z" />
    <glyph glyph-name="ring" unicode="&#x2da;" 
d="M373 669q0 -44 -32.5 -71.5t-89.5 -27.5q-62 0 -93 26.5t-31 72.5q0 45 32 73t92 28q122 0 122 -101zM292 670q0 44 -41 44q-43 0 -43 -44q0 -45 41 -45q43 0 43 45z" />
    <glyph glyph-name="ogonek" unicode="&#x2db;" 
d="M299 44l13 -44q-45 -32 -62 -56t-17 -50q0 -46 53 -46q22 0 50 5q0 -27 -6 -61q-30 -8 -67 -8q-116 0 -116 91q0 47 33.5 86.5t118.5 82.5z" />
    <glyph glyph-name="tilde" unicode="&#x2dc;" 
d="M67 587q18 82 42.5 107t68.5 25q27 0 51 -13l53 -29q18 -10 32 -10q15 0 21.5 10.5t14.5 48.5q39 0 83 -17q-19 -82 -43 -107.5t-66 -25.5q-26 0 -54 14l-50 27q-22 11 -33 11q-17 0 -23.5 -10.5t-13.5 -47.5q-39 0 -83 17z" />
    <glyph glyph-name="hungarumlaut" unicode="&#x2dd;" 
d="M272 731q-28 -84 -92 -159q-42 0 -87 7l60 152h119zM429 731q-26 -84 -92 -159q-41 0 -87 7l60 152h119z" />
    <glyph glyph-name="Delta" unicode="&#x394;" horiz-adv-x="585" 
d="M572 0h-559q75 268 213 674h137q118 -354 209 -674zM415 104l-115 396q-6 18 -8 48h-8q-2 -33 -7 -48l-119 -396h257z" />
    <glyph glyph-name="Omega" unicode="&#x3a9;" horiz-adv-x="686" 
d="M630 0h-255l-5 90q127 62 127 289q0 105 -38 149.5t-117 44.5q-78 0 -115.5 -45t-37.5 -150q0 -110 32.5 -185.5t94.5 -102.5l-4 -90h-256v109h130v7q-121 85 -121 272q0 140 71.5 218t206.5 78t206.5 -78t71.5 -217q0 -185 -121 -273v-7h130v-109z" />
    <glyph glyph-name="pi" unicode="&#x3c0;" horiz-adv-x="644" 
d="M628 9q-39 -19 -96 -19q-73 0 -104.5 39t-31.5 113v270h-162v-412h-110v412h-90v110h587q0 -42 -8 -110h-107v-261q0 -32 11 -44.5t36 -12.5q34 0 62 15q13 -47 13 -100z" />
    <glyph glyph-name="endash" unicode="&#x2013;" 
d="M443 223h-388v84h398q0 -44 -10 -84z" />
    <glyph glyph-name="emdash" unicode="&#x2014;" horiz-adv-x="1000" 
d="M929 223h-859v84h869q0 -40 -10 -84z" />
    <glyph glyph-name="quoteleft" unicode="&#x2018;" horiz-adv-x="240" 
d="M36 512q0 162 128 214q23 -28 36 -62q-81 -32 -81 -108h42q14 -50 14 -115h-139v71z" />
    <glyph glyph-name="quoteright" unicode="&#x2019;" horiz-adv-x="240" 
d="M203 643q0 -162 -128 -214q-24 28 -35 61q80 33 80 109h-41q-15 49 -15 114h139v-70z" />
    <glyph glyph-name="quotesinglbase" unicode="&#x201a;" horiz-adv-x="240" 
d="M203 96q0 -162 -128 -214q-23 27 -35 61q79 33 79 108h-41q-14 50 -14 115h139v-70z" />
    <glyph glyph-name="quotedblleft" unicode="&#x201c;" horiz-adv-x="444" 
d="M36 512q0 162 128 214q23 -28 36 -62q-81 -32 -81 -108h42q14 -50 14 -115h-139v71zM241 512q0 162 127 214q25 -28 36 -62q-80 -32 -80 -108h41q14 -46 14 -115h-138v71z" />
    <glyph glyph-name="quotedblright" unicode="&#x201d;" horiz-adv-x="444" 
d="M203 643q0 -162 -128 -214q-24 28 -35 61q80 33 80 109h-41q-15 49 -15 114h139v-70zM408 643q0 -162 -128 -214q-25 30 -36 61q80 33 80 109h-41q-14 46 -14 114h139v-70z" />
    <glyph glyph-name="quotedblbase" unicode="&#x201e;" horiz-adv-x="444" 
d="M203 96q0 -162 -128 -214q-23 27 -35 61q79 33 79 108h-41q-14 50 -14 115h139v-70zM408 96q0 -162 -128 -214q-26 33 -36 61q80 34 80 108h-42q-13 47 -13 115h139v-70z" />
    <glyph glyph-name="dagger" unicode="&#x2020;" horiz-adv-x="522" 
d="M480 262h-162v-390q-49 -10 -114 -10v400h-162v108h162v175h114v-175h162v-108z" />
    <glyph glyph-name="daggerdbl" unicode="&#x2021;" horiz-adv-x="522" 
d="M480 30h-162v-158q-49 -10 -114 -10v168h-162v108h162v135h-162v109h162v163h114v-163h162v-109h-162v-135h162v-108z" />
    <glyph glyph-name="bullet" unicode="&#x2022;" horiz-adv-x="352" 
d="M284 275q0 -49 -30.5 -79.5t-77.5 -30.5q-48 0 -78 30t-30 80q0 51 30 82t78 31q46 0 77 -31.5t31 -81.5z" />
    <glyph glyph-name="ellipsis" unicode="&#x2026;" horiz-adv-x="709" 
d="M178 52q0 -32 -18 -48.5t-46 -16.5q-30 0 -47.5 16.5t-17.5 48.5t18.5 49.5t47.5 17.5q27 0 45 -17.5t18 -49.5zM419 52q0 -32 -17.5 -48.5t-46.5 -16.5q-30 0 -47.5 16.5t-17.5 48.5t18.5 49.5t47.5 17.5q28 0 45.5 -17.5t17.5 -49.5zM660 52q0 -32 -17.5 -48.5
t-46.5 -16.5q-30 0 -47.5 16.5t-17.5 48.5t18.5 49.5t47.5 17.5q28 0 45.5 -17.5t17.5 -49.5z" />
    <glyph glyph-name="perthousand" unicode="&#x2030;" horiz-adv-x="1171" 
d="M349 494q0 -91 -42 -140.5t-116 -49.5t-116.5 46.5t-42.5 143.5q0 94 43.5 142t115.5 48q75 0 116.5 -47t41.5 -143zM257 494q0 59 -14.5 87.5t-51.5 28.5q-36 0 -51.5 -28.5t-15.5 -87.5q0 -62 15 -89t52 -27t51.5 28t14.5 88zM583 671l-271 -682q-31 5 -75 24l264 669
q36 0 82 -11zM781 180q0 -91 -42 -140.5t-116 -49.5t-117 46.5t-43 143.5q0 94 43.5 142t116.5 48q75 0 116.5 -47t41.5 -143zM688 180q0 59 -14 87.5t-51 28.5q-36 0 -51.5 -28.5t-15.5 -87.5q0 -62 15 -89t52 -27q36 0 50.5 28t14.5 88zM1139 180q0 -91 -42 -140.5
t-116 -49.5t-116.5 46.5t-42.5 143.5q0 94 43.5 142t115.5 48q75 0 116.5 -47t41.5 -143zM1047 180q0 59 -14.5 87.5t-51.5 28.5q-36 0 -51 -28t-15 -88q0 -62 14.5 -89t51.5 -27t51.5 28t14.5 88z" />
    <glyph glyph-name="guilsinglleft" unicode="&#x2039;" horiz-adv-x="285" 
d="M259 56l-93 -13l-139 220l139 220l93 -14l-122 -207z" />
    <glyph glyph-name="guilsinglright" unicode="&#x203a;" horiz-adv-x="285" 
d="M259 262l-139 -219l-93 13l121 207l-121 206l93 14z" />
    <glyph glyph-name="fraction" unicode="&#x2044;" horiz-adv-x="160" 
d="M254 672l-274 -683q-40 7 -74 24l270 671q42 0 78 -12z" />
    <glyph glyph-name="zerosuperior" unicode="&#x2070;" horiz-adv-x="352" 
d="M331 614q0 -97 -39.5 -148.5t-113.5 -51.5q-157 0 -157 201q0 200 154 200q156 0 156 -201zM240 615q0 65 -13.5 91.5t-50.5 26.5q-36 0 -50 -26t-14 -92q0 -67 14.5 -93t50.5 -26q35 0 49 27t14 92z" />
    <glyph glyph-name="foursuperior" unicode="&#x2074;" horiz-adv-x="352" 
d="M338 571q0 -42 -7 -79h-44v-78h-81v78h-187v80q59 115 150 236q52 -3 79 -12l-145 -229h105v80h79v-76h51z" />
    <glyph glyph-name="fivesuperior" unicode="&#x2075;" horiz-adv-x="352" 
d="M311 542q0 -61 -40.5 -94.5t-119.5 -33.5q-61 0 -107 15q5 55 14 83q45 -15 90 -15q40 0 55.5 10.5t15.5 35.5t-19 35.5t-64 10.5q-30 0 -87 -3q2 117 20 222h234q0 -42 -7 -81h-155l-7 -68q87 0 132 -25.5t45 -91.5z" />
    <glyph glyph-name="sixsuperior" unicode="&#x2076;" horiz-adv-x="352" 
d="M320 549q0 -65 -38.5 -100t-101.5 -35q-147 0 -147 179q0 111 47 166.5t131 55.5q51 0 87 -9q-2 -45 -12 -80q-27 8 -69 8q-49 0 -71 -23.5t-25 -78.5h5q27 35 76 35q51 0 84.5 -28.5t33.5 -89.5zM234 547q0 55 -55 55q-56 0 -56 -58q0 -59 55 -59q56 0 56 62z" />
    <glyph glyph-name="sevensuperior" unicode="&#x2077;" horiz-adv-x="352" 
d="M318 734q-71 -147 -181 -320q-64 5 -90 12l177 301h-185q-5 35 -5 81h284v-74z" />
    <glyph glyph-name="eightsuperior" unicode="&#x2078;" horiz-adv-x="352" 
d="M321 526q0 -112 -150 -112q-140 0 -140 106q0 63 76 96q-68 30 -68 92q0 51 35.5 79t102.5 28q136 0 136 -98q0 -59 -72 -88q42 -18 61 -42.5t19 -60.5zM226 709q0 38 -51 38q-50 0 -50 -40t54 -52q47 15 47 54zM232 532q0 45 -63 59q-50 -14 -50 -60q0 -25 12.5 -37
t43.5 -12q57 0 57 50z" />
    <glyph glyph-name="ninesuperior" unicode="&#x2079;" horiz-adv-x="352" 
d="M33 680q0 65 38 100t101 35q72 0 109.5 -42t37.5 -137q0 -111 -46.5 -166.5t-131.5 -55.5q-51 0 -87 9q5 55 12 80q27 -8 69 -8q49 0 71.5 23.5t25.5 78.5h-5q-27 -35 -76 -35q-51 0 -84.5 28.5t-33.5 89.5zM118 682q0 -55 55 -55q56 0 56 58q0 59 -55 59q-56 0 -56 -62z
" />
    <glyph glyph-name="zeroinferior" unicode="&#x2080;" horiz-adv-x="352" 
d="M331 -13q0 -97 -39.5 -148.5t-113.5 -51.5q-157 0 -157 201q0 200 154 200q156 0 156 -201zM240 -12q0 65 -13.5 91.5t-50.5 26.5q-36 0 -50 -26t-14 -92q0 -67 14.5 -93t50.5 -26q35 0 49 27t14 92z" />
    <glyph glyph-name="oneinferior" unicode="&#x2081;" horiz-adv-x="352" 
d="M328 -124q0 -49 -6 -82h-279v82h118v223l-108 -16q-8 40 -8 75l123 23h79v-305h81z" />
    <glyph glyph-name="twoinferior" unicode="&#x2082;" horiz-adv-x="352" 
d="M317 -124q0 -50 -5 -82h-273l-4 70q96 64 134 105.5t38 79.5q0 31 -17 43.5t-51 12.5q-53 0 -87 -16q-12 40 -12 81q42 18 114 18q67 0 107.5 -32.5t40.5 -94.5q0 -50 -33 -94t-103 -91h151z" />
    <glyph glyph-name="threeinferior" unicode="&#x2083;" horiz-adv-x="352" 
d="M307 -94q0 -59 -46 -89t-125 -30q-63 0 -106 17q1 40 14 80q44 -16 90 -16q41 0 60 9t19 34q0 26 -18 35t-57 9h-64v76h65q39 0 53 8.5t14 30.5q0 37 -72 37q-45 0 -81 -12q-9 31 -11 79q49 14 109 14q66 0 106.5 -24t40.5 -75q0 -67 -68 -89v-3q77 -18 77 -91z" />
    <glyph glyph-name="fourinferior" unicode="&#x2084;" horiz-adv-x="352" 
d="M338 -49q0 -42 -7 -79h-44v-78h-81v78h-187v80q59 115 150 236q52 -3 79 -12l-145 -229h105v80h79v-76h51z" />
    <glyph glyph-name="fiveinferior" unicode="&#x2085;" horiz-adv-x="352" 
d="M311 -85q0 -61 -40.5 -94.5t-119.5 -33.5q-61 0 -107 15q5 55 14 83q45 -15 90 -15q40 0 55.5 10.5t15.5 35.5t-19 35.5t-64 10.5q-30 0 -87 -3q2 117 20 222h234q0 -43 -7 -81h-155l-7 -68q87 0 132 -25.5t45 -91.5z" />
    <glyph glyph-name="sixinferior" unicode="&#x2086;" horiz-adv-x="352" 
d="M320 -78q0 -65 -38.5 -100t-101.5 -35q-147 0 -147 179q0 111 47 166.5t131 55.5q51 0 87 -9q-2 -45 -12 -80q-27 8 -69 8q-49 0 -71 -23.5t-25 -78.5h5q27 35 76 35q51 0 84.5 -28.5t33.5 -89.5zM234 -80q0 55 -55 55q-56 0 -56 -58q0 -59 55 -59q56 0 56 62z" />
    <glyph glyph-name="seveninferior" unicode="&#x2087;" horiz-adv-x="352" 
d="M318 107q-71 -147 -181 -320q-64 5 -90 12l177 301h-185q-5 35 -5 81h284v-74z" />
    <glyph glyph-name="eightinferior" unicode="&#x2088;" horiz-adv-x="352" 
d="M321 -101q0 -112 -150 -112q-140 0 -140 106q0 63 76 96q-68 30 -68 92q0 51 35.5 79t102.5 28q136 0 136 -98q0 -59 -72 -88q42 -18 61 -42.5t19 -60.5zM226 82q0 38 -51 38q-50 0 -50 -40t54 -52q47 15 47 54zM232 -95q0 45 -63 59q-50 -14 -50 -60q0 -25 12.5 -37
t43.5 -12q57 0 57 50z" />
    <glyph glyph-name="nineinferior" unicode="&#x2089;" horiz-adv-x="352" 
d="M33 53q0 65 38 100t101 35q72 0 109.5 -42t37.5 -137q0 -111 -46.5 -166.5t-131.5 -55.5q-51 0 -87 9q5 55 12 80q27 -8 69 -8q49 0 71.5 23.5t25.5 78.5h-5q-27 -35 -76 -35q-51 0 -84.5 28.5t-33.5 89.5zM118 55q0 -55 55 -55q56 0 56 58q0 59 -55 59q-56 0 -56 -62z
" />
    <glyph glyph-name="Euro" unicode="&#x20ac;" 
d="M397 224h-185q9 -68 38 -96t85 -28q75 0 123 29q11 -48 16 -111q-62 -28 -144 -28q-207 0 -243 234h-57v73h50q-1 14 -1 41q0 24 1 38h-50v73h58q19 120 81 177.5t155 57.5q85 0 137 -18q-2 -50 -15 -112q-52 20 -117 20q-50 0 -78.5 -27t-39.5 -98h217q0 -28 -10 -73
h-212q-2 -13 -2 -39q0 -27 1 -40h202q0 -28 -10 -73z" />
    <glyph glyph-name="trademark" unicode="&#x2122;" horiz-adv-x="789" 
d="M740 327q-28 -4 -75 -4l-15 200q-2 14 -2 36h-5q-2 -12 -9 -34l-71 -200h-80l-73 200q-6 16 -9 34h-4q0 -16 -2 -36l-21 -200q-34 0 -66 4q12 176 38 347h89l82 -228q3 -10 7 -32h6q3 18 8 33l77 227h90q23 -170 35 -347zM284 674q0 -42 -5 -71h-86v-278h-81v278h-89v71
h261z" />
    <glyph glyph-name="onethird" unicode="&#x2153;" horiz-adv-x="864" 
d="M328 369q0 -49 -6 -82h-279v82h118v223l-108 -16q-8 40 -8 75l123 23h79v-305h81zM606 672l-274 -683q-40 7 -74 24l270 671q42 0 78 -12zM819 112q0 -59 -46 -89t-125 -30q-63 0 -106 17q1 40 14 80q44 -16 90 -16q41 0 60 9t19 34q0 26 -18 35t-57 9h-64v76h65
q39 0 53 8.5t14 30.5q0 37 -72 37q-45 0 -81 -12q-9 31 -11 79q49 14 109 14q66 0 106.5 -24t40.5 -75q0 -67 -68 -89v-3q77 -18 77 -91z" />
    <glyph glyph-name="twothirds" unicode="&#x2154;" horiz-adv-x="864" 
d="M317 369q0 -49 -5 -82h-273l-4 70q96 64 134 105.5t38 79.5q0 31 -17 43.5t-51 12.5q-53 0 -87 -16q-12 40 -12 81q42 18 114 18q67 0 107.5 -32.5t40.5 -94.5q0 -50 -33 -94t-103 -91h151zM606 672l-274 -683q-40 7 -74 24l270 671q42 0 78 -12zM819 112q0 -59 -46 -89
t-125 -30q-63 0 -106 17q1 40 14 80q44 -16 90 -16q41 0 60 9t19 34q0 26 -18 35t-57 9h-64v76h65q39 0 53 8.5t14 30.5q0 37 -72 37q-45 0 -81 -12q-9 31 -11 79q49 14 109 14q66 0 106.5 -24t40.5 -75q0 -67 -68 -89v-3q77 -18 77 -91z" />
    <glyph glyph-name="oneeighth" unicode="&#x215b;" horiz-adv-x="864" 
d="M328 369q0 -49 -6 -82h-279v82h118v223l-108 -16q-8 40 -8 75l123 23h79v-305h81zM606 672l-274 -683q-40 7 -74 24l270 671q42 0 78 -12zM833 105q0 -112 -150 -112q-140 0 -140 106q0 63 76 96q-68 30 -68 92q0 51 35.5 79t102.5 28q136 0 136 -98q0 -59 -72 -88
q42 -18 61 -42.5t19 -60.5zM738 288q0 38 -51 38q-50 0 -50 -40t54 -52q47 15 47 54zM744 111q0 45 -63 59q-50 -14 -50 -60q0 -25 12.5 -37t43.5 -12q57 0 57 50z" />
    <glyph glyph-name="threeeighths" unicode="&#x215c;" horiz-adv-x="864" 
d="M307 399q0 -59 -46 -89t-125 -30q-63 0 -106 17q1 40 14 80q44 -16 90 -16q41 0 60 9t19 34q0 26 -18 35t-57 9h-64v76h65q39 0 53 8.5t14 30.5q0 37 -72 37q-45 0 -81 -12q-9 31 -11 79q49 14 109 14q66 0 106.5 -24t40.5 -75q0 -67 -68 -89v-3q77 -18 77 -91zM606 672
l-274 -683q-40 7 -74 24l270 671q42 0 78 -12zM833 105q0 -112 -150 -112q-140 0 -140 106q0 63 76 96q-68 30 -68 92q0 51 35.5 79t102.5 28q136 0 136 -98q0 -59 -72 -88q42 -18 61 -42.5t19 -60.5zM738 288q0 38 -51 38q-50 0 -50 -40t54 -52q47 15 47 54zM744 111
q0 45 -63 59q-50 -14 -50 -60q0 -25 12.5 -37t43.5 -12q57 0 57 50z" />
    <glyph glyph-name="fiveeighths" unicode="&#x215d;" horiz-adv-x="864" 
d="M311 408q0 -61 -40.5 -94.5t-119.5 -33.5q-61 0 -107 15q5 55 14 83q45 -15 90 -15q40 0 55.5 10.5t15.5 35.5t-19 35.5t-64 10.5q-30 0 -87 -3q2 117 20 222h234q0 -42 -7 -81h-155l-7 -68q87 0 132 -25.5t45 -91.5zM606 672l-274 -683q-40 7 -74 24l270 671
q42 0 78 -12zM833 105q0 -112 -150 -112q-140 0 -140 106q0 63 76 96q-68 30 -68 92q0 51 35.5 79t102.5 28q136 0 136 -98q0 -59 -72 -88q42 -18 61 -42.5t19 -60.5zM738 288q0 38 -51 38q-50 0 -50 -40t54 -52q47 15 47 54zM744 111q0 45 -63 59q-50 -14 -50 -60
q0 -25 12.5 -37t43.5 -12q57 0 57 50z" />
    <glyph glyph-name="seveneighths" unicode="&#x215e;" horiz-adv-x="844" 
d="M318 600q-71 -147 -181 -320q-64 5 -90 12l177 301h-185q-5 35 -5 81h284v-74zM586 672l-274 -683q-40 7 -74 24l270 671q42 0 78 -12zM813 105q0 -112 -150 -112q-140 0 -140 106q0 63 76 96q-68 30 -68 92q0 51 35.5 79t102.5 28q136 0 136 -98q0 -59 -72 -88
q42 -18 61 -42.5t19 -60.5zM718 288q0 38 -51 38q-50 0 -50 -40t54 -52q47 15 47 54zM724 111q0 45 -63 59q-50 -14 -50 -60q0 -25 12.5 -37t43.5 -12q57 0 57 50z" />
    <glyph glyph-name="arrowleft" unicode="&#x2190;" horiz-adv-x="794" 
d="M734 285h-425q-56 0 -109 4v-4l135 -119q-39 -44 -73 -67q-101 86 -202 190v94q101 104 202 190q33 -24 73 -67l-135 -119v-4q80 4 109 4h425v-102z" />
    <glyph glyph-name="arrowup" unicode="&#x2191;" horiz-adv-x="598" 
d="M538 472q-24 -33 -67 -73l-119 135h-4q4 -80 4 -109v-425h-106v425q0 42 5 109h-4l-120 -135q-47 43 -67 73q88 103 191 202h97q104 -101 190 -202z" />
    <glyph glyph-name="arrowright" unicode="&#x2192;" horiz-adv-x="794" 
d="M734 289q-101 -104 -202 -190q-34 23 -73 67l135 119v4q-53 -4 -109 -4h-425v102h425q29 0 109 -4v4l-135 119q43 47 73 67q101 -86 202 -190v-94z" />
    <glyph glyph-name="arrowdown" unicode="&#x2193;" horiz-adv-x="598" 
d="M538 202q-86 -101 -190 -202h-97q-103 99 -191 202q24 33 67 73l120 -135h4q-5 67 -5 109v425h106v-425q0 -29 -4 -109h4l119 135q47 -43 67 -73z" />
    <glyph glyph-name="partialdiff" unicode="&#x2202;" horiz-adv-x="559" 
d="M506 375q0 -198 -55 -291.5t-172 -93.5q-110 0 -168.5 58.5t-58.5 195.5q0 136 61 207t167 71q57 0 97 -14q-4 73 -39.5 102.5t-108.5 29.5q-76 0 -135 -25q0 58 7 107q56 22 141 22q61 0 105.5 -15t82 -54t57 -114t19.5 -186zM387 310q0 42 -2 90q-43 17 -100 17
q-54 0 -82 -37.5t-28 -127.5t22.5 -125.5t81.5 -35.5t83.5 47.5t24.5 171.5z" />
    <glyph glyph-name="product" unicode="&#x220f;" horiz-adv-x="693" 
d="M601 0h-125v556h-259v-556h-125v674h509v-674z" />
    <glyph glyph-name="summation" unicode="&#x2211;" horiz-adv-x="533" 
d="M194 109h290q0 -52 -10 -109h-436v101l240 250l-221 223v100h410q0 -45 -9 -110h-243l171 -177v-83z" />
    <glyph glyph-name="minus" unicode="&#x2212;" 
d="M426 222h-352v86h352v-86z" />
    <glyph glyph-name="radical" unicode="&#x221a;" horiz-adv-x="523" 
d="M524 674q0 -58 -8 -99h-85l-82 -575h-118q-121 260 -214 529q56 10 112 10l130 -336q12 -25 18 -55h7q0 18 5 58l61 468h174z" />
    <glyph glyph-name="infinity" unicode="&#x221e;" horiz-adv-x="889" 
d="M245 40q-88 0 -141.5 59.5t-53.5 166.5q0 97 51.5 157t146.5 60q120 0 197 -123q40 64 88.5 93.5t113.5 29.5q89 0 140.5 -60.5t51.5 -163.5q0 -98 -52 -158.5t-141 -60.5q-126 0 -203 122q-74 -122 -198 -122zM640 139q93 0 93 125q0 120 -99 120q-49 0 -83 -30t-62 -92
q55 -123 151 -123zM259 139q90 0 142 122q-56 123 -146 123q-99 0 -99 -124q0 -121 103 -121z" />
    <glyph glyph-name="integral" unicode="&#x222b;" horiz-adv-x="322" 
d="M326 740q0 -54 -7 -102q-15 3 -52 3q-31 0 -44.5 -16t-13.5 -51v-611q0 -81 -48.5 -130t-121.5 -49q-35 0 -61 4q0 54 7 102q13 -3 52 -3q31 0 44 16t13 51v611q0 81 49 130t123 49q36 0 60 -4z" />
    <glyph glyph-name="approxequal" unicode="&#x2248;" horiz-adv-x="496" 
d="M438 332q-41 -36 -88 -36q-34 0 -97.5 21.5t-96.5 21.5q-5 0 -7 -1q-51 -1 -91 -40v81q44 41 98 41q33 0 96 -21t97 -21q5 0 8 1q43 1 81 35v-82zM438 144q-40 -35 -88 -35q-34 0 -97.5 21.5t-96.5 21.5q-52 0 -98 -41v80q44 41 98 41q33 0 96 -21t97 -21q5 0 8 1
q46 3 81 34v-81z" />
    <glyph glyph-name="notequal" unicode="&#x2260;" horiz-adv-x="492" 
d="M431 137h-249l-72 -108h-49l72 108h-72v81h127l74 108h-201v81h256l64 97h50l-65 -97h65v-81h-120l-74 -108h194v-81z" />
    <glyph glyph-name="lessequal" unicode="&#x2264;" horiz-adv-x="454" 
d="M378 158h-118l-190 170l190 172h117v-11l-190 -156l191 -164v-11zM394 45h-334v82h334v-82z" />
    <glyph glyph-name="greaterequal" unicode="&#x2265;" horiz-adv-x="455" 
d="M194 500l190 -171l-190 -171h-117v11l190 159l-191 161v11h118zM395 45h-335v82h335v-82z" />
    <glyph glyph-name="lozenge" unicode="&#x25ca;" horiz-adv-x="459" 
d="M425 224q-60 -111 -147 -234h-98q-79 113 -146 234v83q61 114 146 238h98q82 -110 147 -238v-83zM336 266l-107 183l-105 -180l107 -182z" />
    <glyph glyph-name="Lslashsmall" unicode="&#xf6f9;" horiz-adv-x="470" 
d="M420 105q0 -48 -10 -105h-318v227l-43 -13v106l43 13v212h119v-176l51 16q0 -47 -9 -108l-42 -13v-159h209z" />
    <glyph glyph-name="OEsmall" unicode="&#xf6fa;" horiz-adv-x="813" 
d="M753 102q0 -51 -10 -102h-313v41h-4q-47 -51 -139 -51q-111 0 -171.5 69t-60.5 212t60.5 213.5t171.5 70.5q88 0 139 -49h4v39h310q0 -50 -8 -102h-206v-114h151v-102h-151v-125h227zM414 272q0 102 -26 142.5t-88 40.5q-65 0 -91.5 -39t-26.5 -144q0 -102 26 -142
t92 -40t90 39.5t24 142.5z" />
    <glyph glyph-name="Scaronsmall" unicode="&#xf6fd;" horiz-adv-x="469" 
d="M94 708q50 8 102 8l58 -85l58 85q42 0 100 -7q-43 -76 -85 -130h-148q-45 56 -85 129zM414 157q0 -79 -54.5 -123t-146.5 -44q-96 0 -158 25q7 51 25 104q64 -27 140 -27t76 56q0 24 -24.5 42.5t-60 33.5t-71 33.5t-60 53t-24.5 81.5q0 76 58.5 119.5t150.5 43.5
q68 0 123 -13q-8 -78 -15 -105q-68 16 -121 16q-43 0 -59.5 -13t-16.5 -40q0 -22 24.5 -39.5t59.5 -32.5t70 -33.5t59.5 -54t24.5 -83.5z" />
    <glyph glyph-name="Zcaronsmall" unicode="&#xf6ff;" horiz-adv-x="498" 
d="M445 103q0 -60 -8 -103h-382l-7 86l248 356h-229q-6 46 -6 103h372l7 -89l-248 -353h253zM84 708q50 8 102 8l58 -85l58 85q42 0 100 -7q-43 -76 -85 -130h-148q-45 56 -85 129z" />
    <glyph glyph-name="Asmall" unicode="&#xf761;" horiz-adv-x="514" 
d="M500 6q-46 -10 -117 -10l-42 141h-178l-42 -141q-64 0 -107 10q75 268 176 539h136q89 -242 174 -539zM314 231l-52 171q-6 21 -7 43h-8q-1 -22 -7 -43l-51 -171h125z" />
    <glyph glyph-name="Bsmall" unicode="&#xf762;" horiz-adv-x="536" 
d="M481 156q0 -82 -56 -122.5t-144 -40.5q-98 0 -189 10v537q90 11 184 11q184 0 184 -146q0 -38 -18.5 -69t-51.5 -46v-7q91 -25 91 -127zM361 163q0 73 -84 73h-73v-150q33 -4 67 -4q90 0 90 81zM347 394q0 67 -81 67q-32 0 -62 -3v-137h69q74 0 74 73z" />
    <glyph glyph-name="Csmall" unicode="&#xf763;" horiz-adv-x="506" 
d="M462 26q-59 -36 -157 -36q-121 0 -185.5 72.5t-64.5 210.5q0 140 68 211t178 71q100 0 149 -26q0 -37 -16 -105q-59 28 -127 28q-63 0 -94 -40t-31 -139t29 -139.5t100 -40.5q76 0 134 34q13 -38 17 -101z" />
    <glyph glyph-name="Dsmall" unicode="&#xf764;" horiz-adv-x="601" 
d="M546 284q0 -139 -69.5 -215.5t-183.5 -76.5q-119 0 -201 11v537q86 11 201 11q112 0 182.5 -66t70.5 -201zM419 275q0 96 -35 136t-102 40q-35 0 -71 -3v-350q46 -4 69 -4q73 0 106 42t33 139z" />
    <glyph glyph-name="Esmall" unicode="&#xf765;" horiz-adv-x="498" 
d="M438 102q0 -51 -10 -102h-336v545h333q0 -50 -8 -102h-206v-114h151v-102h-151v-125h227z" />
    <glyph glyph-name="Fsmall" unicode="&#xf766;" horiz-adv-x="476" 
d="M426 545q0 -60 -7 -102h-208v-136h171v-100h-171v-207h-119v545h334z" />
    <glyph glyph-name="Gsmall" unicode="&#xf767;" horiz-adv-x="561" 
d="M484 26q-72 -36 -179 -36q-121 0 -185.5 73t-64.5 210q0 141 69.5 211.5t186.5 70.5q101 0 164 -26q-3 -51 -19 -105q-59 28 -136 28q-73 0 -106.5 -39t-33.5 -144q0 -100 33.5 -139t101.5 -39q33 0 55 9v101h-74q-10 34 -10 94h198v-269z" />
    <glyph glyph-name="Hsmall" unicode="&#xf768;" horiz-adv-x="620" 
d="M528 0h-119v230h-198v-230h-119v545h119v-210h198v210h119v-545z" />
    <glyph glyph-name="Ismall" unicode="&#xf769;" horiz-adv-x="303" 
d="M211 0h-119v545h119v-545z" />
    <glyph glyph-name="Jsmall" unicode="&#xf76a;" horiz-adv-x="319" 
d="M227 64q0 -85 -45.5 -140.5t-141.5 -62.5q-16 46 -20 109q50 4 68.5 21t18.5 58v496h120v-481z" />
    <glyph glyph-name="Ksmall" unicode="&#xf76b;" horiz-adv-x="568" 
d="M540 7q-50 -12 -126 -12l-143 235l-62 -69v-161h-117v545h117v-248h5q37 60 92 127l105 125q68 0 125 -13l-189 -216q84 -124 193 -313z" />
    <glyph glyph-name="Lsmall" unicode="&#xf76c;" horiz-adv-x="445" 
d="M420 105q0 -48 -10 -105h-318v545h119v-440h209z" />
    <glyph glyph-name="Msmall" unicode="&#xf76d;" horiz-adv-x="743" 
d="M676 4q-41 -8 -109 -8l-25 329q-1 12 -1 48h-8q-2 -24 -9 -48l-99 -325h-111l-101 325q-6 20 -10 47h-7q0 -25 -2 -47l-26 -329q-65 0 -102 8q23 316 51 541h130l109 -349q7 -24 13 -64h8q3 28 13 64l106 349h131q31 -272 49 -541z" />
    <glyph glyph-name="Nsmall" unicode="&#xf76e;" horiz-adv-x="622" 
d="M530 3q-52 -8 -104 -8l-204 329q-10 17 -20 48l-7 -1q1 -17 1 -52v-319h-104v539q54 7 114 7l193 -314q8 -14 19 -42l8 1q-1 17 -1 51v303h105v-542z" />
    <glyph glyph-name="Osmall" unicode="&#xf76f;" horiz-adv-x="602" 
d="M547 272q0 -139 -68 -210.5t-178 -71.5q-113 0 -179.5 71t-66.5 210t67.5 211.5t178.5 72.5q113 0 179.5 -71.5t66.5 -211.5zM421 272q0 103 -29 143t-91 40q-63 0 -91 -39.5t-28 -143.5q0 -101 27 -141.5t92 -40.5t92.5 39.5t27.5 142.5z" />
    <glyph glyph-name="Psmall" unicode="&#xf770;" horiz-adv-x="517" 
d="M462 370q0 -97 -55 -145t-137 -48h-60v-177h-118v541q100 10 182 10q87 0 137.5 -46t50.5 -135zM344 370q0 89 -88 89q-16 0 -46 -4v-183h37q50 0 73.5 23t23.5 75z" />
    <glyph glyph-name="Qsmall" unicode="&#xf771;" horiz-adv-x="602" 
d="M547 272q0 -115 -52 -187t-142 -86q1 -66 73 -66q43 0 75 13q12 -52 13 -97q-42 -14 -105 -14q-71 0 -116.5 39.5t-47.5 123.5q-91 17 -140.5 86t-49.5 185q0 136 67.5 211t178.5 75q113 0 179.5 -71.5t66.5 -211.5zM421 272q0 103 -29.5 143.5t-90.5 40.5
q-64 0 -91.5 -40.5t-27.5 -143.5q0 -98 26.5 -139.5t92.5 -41.5t93 40t27 141z" />
    <glyph glyph-name="Rsmall" unicode="&#xf772;" horiz-adv-x="551" 
d="M447 133l64 -126q-51 -12 -122 -12l-41 87q-40 82 -85 127h-57v-209h-114v540q108 11 187 11q82 0 133.5 -39.5t51.5 -122.5q0 -55 -26 -93t-71 -54q48 -47 80 -109zM349 382q0 40 -21 58t-64 18q-9 0 -18.5 -0.5t-21 -1.5t-18.5 -1v-157h53q46 0 68 20t22 64z" />
    <glyph glyph-name="Ssmall" unicode="&#xf773;" horiz-adv-x="469" 
d="M414 157q0 -79 -54.5 -123t-146.5 -44q-96 0 -158 25q7 51 25 104q64 -27 140 -27t76 56q0 24 -24.5 42.5t-60 33.5t-71 33.5t-60 53t-24.5 81.5q0 76 58.5 119.5t150.5 43.5q68 0 123 -13q-8 -78 -15 -105q-68 16 -121 16q-43 0 -59.5 -13t-16.5 -40q0 -22 24.5 -39.5
t59.5 -32.5t70 -33.5t59.5 -54t24.5 -83.5z" />
    <glyph glyph-name="Tsmall" unicode="&#xf774;" horiz-adv-x="435" 
d="M413 545q0 -58 -10 -102h-124v-443h-119v443h-131v102h384z" />
    <glyph glyph-name="Usmall" unicode="&#xf775;" horiz-adv-x="601" 
d="M514 223q0 -233 -213 -233q-104 0 -159.5 53t-55.5 180v322h120v-329q0 -68 19 -93.5t77 -25.5q57 0 79.5 27.5t22.5 91.5v329h110v-322z" />
    <glyph glyph-name="Vsmall" unicode="&#xf776;" horiz-adv-x="502" 
d="M486 539q-67 -239 -176 -539h-123q-106 297 -171 540q54 9 114 9l107 -356q9 -41 12 -62h8q7 46 12 62l107 356q70 0 110 -10z" />
    <glyph glyph-name="Wsmall" unicode="&#xf777;" horiz-adv-x="778" 
d="M734 540q-37 -216 -119 -540h-120l-96 340q-7 27 -8 51h-8q-3 -25 -9 -50l-96 -341h-120q-73 276 -115 540q43 8 110 8l67 -342q4 -18 6 -50h8q2 21 10 50l94 339h107l92 -339q5 -16 10 -50h8q3 33 7 50l71 343q52 0 101 -9z" />
    <glyph glyph-name="Xsmall" unicode="&#xf778;" horiz-adv-x="539" 
d="M516 6q-57 -11 -131 -11l-99 172q-11 20 -17 42h-8q-8 -29 -16 -42l-99 -172q-72 0 -123 12l171 274l-162 258q60 10 133 10l89 -159q12 -24 17 -39h8q6 22 16 40l87 158q75 0 124 -10l-160 -255z" />
    <glyph glyph-name="Ysmall" unicode="&#xf779;" horiz-adv-x="481" 
d="M466 540q-71 -172 -164 -339v-201h-119v201q-75 129 -168 340q51 8 124 8l89 -196q7 -16 14 -48h8q6 29 15 48l87 196q58 0 114 -9z" />
    <glyph glyph-name="Zsmall" unicode="&#xf77a;" horiz-adv-x="498" 
d="M445 103q0 -60 -8 -103h-382l-7 86l248 356h-229q-6 46 -6 103h372l7 -89l-248 -353h253z" />
    <glyph glyph-name="Agravesmall" unicode="&#xf7e0;" horiz-adv-x="514" 
d="M310 581q-45 -7 -92 -7q-42 45 -61 72.5t-32 64.5h123zM500 6q-46 -10 -117 -10l-42 141h-178l-42 -141q-64 0 -107 10q75 268 176 539h136q89 -242 174 -539zM314 231l-52 171q-6 21 -7 43h-8q-1 -22 -7 -43l-51 -171h125z" />
    <glyph glyph-name="Aacutesmall" unicode="&#xf7e1;" horiz-adv-x="514" 
d="M391 711q-12 -36 -31 -63.5t-62 -73.5q-46 0 -91 7l61 130h123zM500 6q-46 -10 -117 -10l-42 141h-178l-42 -141q-64 0 -107 10q75 268 176 539h136q89 -242 174 -539zM314 231l-52 171q-6 21 -7 43h-8q-1 -22 -7 -43l-51 -171h125z" />
    <glyph glyph-name="Acircumflexsmall" unicode="&#xf7e2;" horiz-adv-x="514" 
d="M419 581q-43 -7 -102 -7l-58 84l-58 -84q-51 0 -100 6q43 75 85 131h148q45 -58 85 -130zM500 6q-46 -10 -117 -10l-42 141h-178l-42 -141q-64 0 -107 10q75 268 176 539h136q89 -242 174 -539zM314 231l-52 171q-6 21 -7 43h-8q-1 -22 -7 -43l-51 -171h125z" />
    <glyph glyph-name="Atildesmall" unicode="&#xf7e3;" horiz-adv-x="514" 
d="M431 704q-14 -76 -38.5 -100.5t-63.5 -24.5q-25 0 -70 23.5t-57 23.5q-19 0 -27 -10t-11 -42q-42 0 -80 15q12 73 37.5 99t64.5 26q23 0 67.5 -23.5t59.5 -23.5q20 0 27 9.5t11 42.5q45 0 80 -15zM500 6q-46 -10 -117 -10l-42 141h-178l-42 -141q-64 0 -107 10
q75 268 176 539h136q89 -242 174 -539zM314 231l-52 171q-6 21 -7 43h-8q-1 -22 -7 -43l-51 -171h125z" />
    <glyph glyph-name="Adieresissmall" unicode="&#xf7e4;" horiz-adv-x="514" 
d="M227 637q0 -26 -14.5 -41.5t-41.5 -15.5t-41.5 16t-14.5 41q0 26 14.5 43t42.5 17q26 0 40.5 -17t14.5 -43zM403 637q0 -26 -14.5 -41.5t-42.5 -15.5q-26 0 -40.5 16t-14.5 41q0 26 14.5 43t41.5 17t41.5 -17t14.5 -43zM500 6q-46 -10 -117 -10l-42 141h-178l-42 -141
q-64 0 -107 10q75 268 176 539h136q89 -242 174 -539zM314 231l-52 171q-6 21 -7 43h-8q-1 -22 -7 -43l-51 -171h125z" />
    <glyph glyph-name="Aringsmall" unicode="&#xf7e5;" horiz-adv-x="514" 
d="M381 627q0 -61 -54 -87q92 -249 173 -534q-46 -10 -117 -10l-42 141h-178l-42 -141q-64 0 -107 10q75 269 174 534q-53 24 -53 87q0 45 32.5 74t91.5 29q62 0 92 -27.5t30 -75.5zM314 231l-52 171q-6 21 -7 43h-8q-1 -22 -7 -43l-51 -171h125zM300 628q0 46 -41 46
q-43 0 -43 -46q0 -48 41 -48q43 0 43 48z" />
    <glyph glyph-name="AEsmall" unicode="&#xf7e6;" horiz-adv-x="747" 
d="M687 102q0 -51 -10 -102h-332v136h-155l-66 -141q-61 0 -110 11q124 285 259 539h401q0 -50 -8 -102h-206v-114h151v-102h-151v-125h227zM333 449l-101 -219h113v219h-12z" />
    <glyph glyph-name="Ccedillasmall" unicode="&#xf7e7;" horiz-adv-x="506" 
d="M462 26q-59 -36 -157 -36q-121 0 -185.5 72.5t-64.5 210.5q0 140 68 211t178 71q100 0 149 -26q0 -37 -16 -105q-59 28 -127 28q-63 0 -94 -40t-31 -139t29 -139.5t100 -40.5q76 0 134 34q13 -38 17 -101zM384 -120q0 -96 -135 -96q-39 0 -68 6q-5 37 -5 62q27 -7 62 -7
q60 0 60 38q0 39 -54 39q-27 0 -45 -3q4 25 16 52h57q112 0 112 -91z" />
    <glyph glyph-name="Egravesmall" unicode="&#xf7e8;" horiz-adv-x="498" 
d="M315 581q-45 -7 -92 -7q-42 45 -61 72.5t-32 64.5h123zM438 102q0 -51 -10 -102h-336v545h333q0 -50 -8 -102h-206v-114h151v-102h-151v-125h227z" />
    <glyph glyph-name="Eacutesmall" unicode="&#xf7e9;" horiz-adv-x="498" 
d="M366 711q-12 -36 -31 -63.5t-62 -73.5q-46 0 -91 7l61 130h123zM438 102q0 -51 -10 -102h-336v545h333q0 -50 -8 -102h-206v-114h151v-102h-151v-125h227z" />
    <glyph glyph-name="Ecircumflexsmall" unicode="&#xf7ea;" horiz-adv-x="498" 
d="M411 581q-42 -7 -99 -7l-56 84l-56 -84q-49 0 -97 6q42 76 82 131h143q46 -61 83 -130zM438 102q0 -51 -10 -102h-336v545h333q0 -50 -8 -102h-206v-114h151v-102h-151v-125h227z" />
    <glyph glyph-name="Edieresissmall" unicode="&#xf7eb;" horiz-adv-x="498" 
d="M223 637q0 -26 -14.5 -41.5t-41.5 -15.5t-41.5 16t-14.5 41q0 26 14.5 43t42.5 17q26 0 40.5 -17t14.5 -43zM399 637q0 -26 -14.5 -41.5t-42.5 -15.5q-26 0 -40.5 16t-14.5 41q0 26 14.5 43t41.5 17t41.5 -17t14.5 -43zM438 102q0 -51 -10 -102h-336v545h333
q0 -50 -8 -102h-206v-114h151v-102h-151v-125h227z" />
    <glyph glyph-name="Igravesmall" unicode="&#xf7ec;" horiz-adv-x="303" 
d="M209 581q-45 -7 -92 -7q-42 45 -61 72.5t-32 64.5h123zM211 0h-119v545h119v-545z" />
    <glyph glyph-name="Iacutesmall" unicode="&#xf7ed;" horiz-adv-x="303" 
d="M279 711q-12 -36 -31 -63.5t-62 -73.5q-46 0 -91 7l61 130h123zM211 0h-119v545h119v-545z" />
    <glyph glyph-name="Icircumflexsmall" unicode="&#xf7ee;" horiz-adv-x="303" 
d="M311 581q-43 -7 -102 -7l-58 84l-58 -84q-51 0 -100 6q43 75 85 131h148q45 -58 85 -130zM211 0h-119v545h119v-545z" />
    <glyph glyph-name="Idieresissmall" unicode="&#xf7ef;" horiz-adv-x="303" 
d="M120 637q0 -26 -14.5 -41.5t-41.5 -15.5t-41.5 16t-14.5 41q0 26 14.5 43t42.5 17q26 0 40.5 -17t14.5 -43zM296 637q0 -26 -14.5 -41.5t-42.5 -15.5q-26 0 -40.5 16t-14.5 41q0 26 14.5 43t41.5 17t41.5 -17t14.5 -43zM211 0h-119v545h119v-545z" />
    <glyph glyph-name="Ethsmall" unicode="&#xf7f0;" horiz-adv-x="601" 
d="M546 283q0 -138 -69.5 -214.5t-183.5 -76.5q-115 0 -201 11v227h-48v98h48v212q86 11 201 11q112 0 182.5 -66.5t70.5 -201.5zM419 275q0 96 -35 136t-102 40q-38 0 -71 -3v-120h83q0 -35 -9 -98h-74v-132q46 -4 69 -4q73 0 106 42t33 139z" />
    <glyph glyph-name="Ntildesmall" unicode="&#xf7f1;" horiz-adv-x="622" 
d="M530 3q-52 -8 -104 -8l-204 329q-10 17 -20 48l-7 -1q1 -17 1 -52v-319h-104v539q54 7 114 7l193 -314q8 -14 19 -42l8 1q-1 17 -1 51v303h105v-542zM486 704q-14 -76 -38.5 -100.5t-63.5 -24.5q-25 0 -70 23.5t-57 23.5q-19 0 -27 -10t-11 -42q-42 0 -80 15
q12 73 37.5 99t64.5 26q23 0 67.5 -23.5t59.5 -23.5q20 0 27 9.5t11 42.5q45 0 80 -15z" />
    <glyph glyph-name="Ogravesmall" unicode="&#xf7f2;" horiz-adv-x="602" 
d="M547 272q0 -139 -68 -210.5t-178 -71.5q-113 0 -179.5 71t-66.5 210t67.5 211.5t178.5 72.5q113 0 179.5 -71.5t66.5 -211.5zM421 272q0 103 -29 143t-91 40q-63 0 -91 -39.5t-28 -143.5q0 -101 27 -141.5t92 -40.5t92.5 39.5t27.5 142.5zM367 581q-45 -7 -92 -7
q-42 45 -61 72.5t-32 64.5h123z" />
    <glyph glyph-name="Oacutesmall" unicode="&#xf7f3;" horiz-adv-x="602" 
d="M547 272q0 -139 -68 -210.5t-178 -71.5q-113 0 -179.5 71t-66.5 210t67.5 211.5t178.5 72.5q113 0 179.5 -71.5t66.5 -211.5zM421 272q0 103 -29 143t-91 40q-63 0 -91 -39.5t-28 -143.5q0 -101 27 -141.5t92 -40.5t92.5 39.5t27.5 142.5zM432 711q-12 -36 -31 -63.5
t-62 -73.5q-45 0 -91 7l61 130h123z" />
    <glyph glyph-name="Ocircumflexsmall" unicode="&#xf7f4;" horiz-adv-x="602" 
d="M547 272q0 -139 -68 -210.5t-178 -71.5q-113 0 -179.5 71t-66.5 210t67.5 211.5t178.5 72.5q113 0 179.5 -71.5t66.5 -211.5zM421 272q0 103 -29 143t-91 40q-63 0 -91 -39.5t-28 -143.5q0 -101 27 -141.5t92 -40.5t92.5 39.5t27.5 142.5zM459 581q-43 -7 -102 -7l-58 84
l-58 -84q-51 0 -100 6q43 75 85 131h148q45 -58 85 -130z" />
    <glyph glyph-name="Otildesmall" unicode="&#xf7f5;" horiz-adv-x="602" 
d="M547 272q0 -139 -68 -210.5t-178 -71.5q-113 0 -179.5 71t-66.5 210t67.5 211.5t178.5 72.5q113 0 179.5 -71.5t66.5 -211.5zM421 272q0 103 -29 143t-91 40q-63 0 -91 -39.5t-28 -143.5q0 -101 27 -141.5t92 -40.5t92.5 39.5t27.5 142.5zM476 704q-14 -76 -38.5 -100.5
t-63.5 -24.5q-25 0 -70 23.5t-57 23.5q-19 0 -27 -10t-11 -42q-42 0 -80 15q12 73 37.5 99t64.5 26q23 0 67.5 -23.5t59.5 -23.5q20 0 27 9.5t11 42.5q45 0 80 -15z" />
    <glyph glyph-name="Odieresissmall" unicode="&#xf7f6;" horiz-adv-x="602" 
d="M547 272q0 -139 -68 -210.5t-178 -71.5q-113 0 -179.5 71t-66.5 210t67.5 211.5t178.5 72.5q113 0 179.5 -71.5t66.5 -211.5zM421 272q0 103 -29 143t-91 40q-63 0 -91 -39.5t-28 -143.5q0 -101 27 -141.5t92 -40.5t92.5 39.5t27.5 142.5zM270 637q0 -26 -14.5 -41.5
t-41.5 -15.5t-41.5 16t-14.5 41q0 26 14.5 43t42.5 17q26 0 40.5 -17t14.5 -43zM446 637q0 -26 -14.5 -41.5t-42.5 -15.5q-26 0 -40.5 16t-14.5 41q0 26 14.5 43t41.5 17t41.5 -17t14.5 -43z" />
    <glyph glyph-name="Oslashsmall" unicode="&#xf7f8;" horiz-adv-x="602" 
d="M547 272q0 -137 -68.5 -209.5t-177.5 -72.5q-62 0 -114 22l-46 -87h-44l56 107q-98 69 -98 237q0 135 68 210.5t178 75.5q64 0 115 -24l48 92h44l-59 -112q98 -71 98 -239zM182 272q0 -99 25 -138l160 305q-25 17 -66 17q-63 0 -91 -40.5t-28 -143.5zM421 272
q0 93 -26 137l-159 -304q24 -14 65 -14q65 0 92.5 39t27.5 142z" />
    <glyph glyph-name="Ugravesmall" unicode="&#xf7f9;" horiz-adv-x="601" 
d="M514 223q0 -233 -213 -233q-104 0 -159.5 53t-55.5 180v322h120v-329q0 -68 19 -93.5t77 -25.5q57 0 79.5 27.5t22.5 91.5v329h110v-322zM359 581q-45 -7 -92 -7q-42 45 -61 72.5t-32 64.5h123z" />
    <glyph glyph-name="Uacutesmall" unicode="&#xf7fa;" horiz-adv-x="601" 
d="M514 223q0 -233 -213 -233q-104 0 -159.5 53t-55.5 180v322h120v-329q0 -68 19 -93.5t77 -25.5q57 0 79.5 27.5t22.5 91.5v329h110v-322zM440 711q-12 -36 -31 -63.5t-62 -73.5q-45 0 -91 7l61 130h123z" />
    <glyph glyph-name="Ucircumflexsmall" unicode="&#xf7fb;" horiz-adv-x="601" 
d="M514 223q0 -233 -213 -233q-104 0 -159.5 53t-55.5 180v322h120v-329q0 -68 19 -93.5t77 -25.5q57 0 79.5 27.5t22.5 91.5v329h110v-322zM465 581q-43 -7 -102 -7l-58 84l-58 -84q-51 0 -100 6q43 75 85 131h148q45 -58 85 -130z" />
    <glyph glyph-name="Udieresissmall" unicode="&#xf7fc;" horiz-adv-x="601" 
d="M514 223q0 -233 -213 -233q-104 0 -159.5 53t-55.5 180v322h120v-329q0 -68 19 -93.5t77 -25.5q57 0 79.5 27.5t22.5 91.5v329h110v-322zM275 637q0 -26 -14.5 -41.5t-41.5 -15.5t-41.5 16t-14.5 41q0 26 14.5 43t42.5 17q26 0 40.5 -17t14.5 -43zM451 637
q0 -26 -14.5 -41.5t-42.5 -15.5q-26 0 -40.5 16t-14.5 41q0 26 14.5 43t41.5 17t41.5 -17t14.5 -43z" />
    <glyph glyph-name="Yacutesmall" unicode="&#xf7fd;" horiz-adv-x="481" 
d="M466 540q-71 -172 -164 -339v-201h-119v201q-75 129 -168 340q51 8 124 8l89 -196q7 -16 14 -48h8q6 29 15 48l87 196q58 0 114 -9zM378 711q-12 -36 -31 -63.5t-62 -73.5q-46 0 -91 7l61 130h123z" />
    <glyph glyph-name="Thornsmall" unicode="&#xf7fe;" horiz-adv-x="534" 
d="M462 287q0 -95 -54.5 -144t-137.5 -49h-62v-94h-116v545h116v-79q50 2 66 2q87 0 137.5 -46t50.5 -135zM345 287q0 89 -89 89q-16 0 -48 -4v-183h39q51 0 74.5 23t23.5 75z" />
    <glyph glyph-name="Ydieresissmall" unicode="&#xf7ff;" horiz-adv-x="481" 
d="M215 637q0 -26 -14.5 -41.5t-41.5 -15.5t-41.5 16t-14.5 41q0 26 14.5 43t42.5 17q26 0 40.5 -17t14.5 -43zM391 637q0 -26 -14.5 -41.5t-42.5 -15.5q-26 0 -40.5 16t-14.5 41q0 26 14.5 43t41.5 17t41.5 -17t14.5 -43zM466 540q-71 -172 -164 -339v-201h-119v201
q-75 129 -168 340q51 8 124 8l89 -196q7 -16 14 -48h8q6 29 15 48l87 196q58 0 114 -9z" />
    <glyph glyph-name="zero.dfra" horiz-adv-x="352" 
d="M331 193q0 -97 -39.5 -148.5t-113.5 -51.5q-157 0 -157 201q0 200 154 200q156 0 156 -201zM240 194q0 65 -13.5 91.5t-50.5 26.5q-36 0 -50 -26t-14 -92q0 -67 14.5 -93t50.5 -26q35 0 49 27t14 92z" />
    <glyph glyph-name="one.dfra" horiz-adv-x="352" 
d="M328 82q0 -49 -6 -82h-279v82h118v223l-108 -16q-8 40 -8 75l123 23h79v-305h81z" />
    <glyph glyph-name="two.dfra" horiz-adv-x="352" 
d="M317 82q0 -50 -5 -82h-273l-4 70q96 64 134 105.5t38 79.5q0 31 -17 43.5t-51 12.5q-53 0 -87 -16q-12 40 -12 81q42 18 114 18q67 0 107.5 -32.5t40.5 -94.5q0 -50 -33 -94t-103 -91h151z" />
    <glyph glyph-name="three.dfra" horiz-adv-x="352" 
d="M307 112q0 -59 -46 -89t-125 -30q-63 0 -106 17q1 40 14 80q44 -16 90 -16q41 0 60 9t19 34q0 26 -18 35t-57 9h-64v76h65q39 0 53 8.5t14 30.5q0 37 -72 37q-45 0 -81 -12q-9 31 -11 79q49 14 109 14q66 0 106.5 -24t40.5 -75q0 -67 -68 -89v-3q77 -18 77 -91z" />
    <glyph glyph-name="four.dfra" horiz-adv-x="352" 
d="M338 157q0 -42 -7 -79h-44v-78h-81v78h-187v80q59 115 150 236q52 -3 79 -12l-145 -229h105v80h79v-76h51z" />
    <glyph glyph-name="five.dfra" horiz-adv-x="352" 
d="M311 121q0 -61 -40.5 -94.5t-119.5 -33.5q-61 0 -107 15q5 55 14 83q45 -15 90 -15q40 0 55.5 10.5t15.5 35.5t-19 35.5t-64 10.5q-30 0 -87 -3q2 117 20 222h234q0 -43 -7 -81h-155l-7 -68q87 0 132 -25.5t45 -91.5z" />
    <glyph glyph-name="six.dfra" horiz-adv-x="352" 
d="M320 128q0 -65 -38.5 -100t-101.5 -35q-147 0 -147 179q0 111 47 166.5t131 55.5q51 0 87 -9q-2 -45 -12 -80q-27 8 -69 8q-49 0 -71 -23.5t-25 -78.5h5q27 35 76 35q51 0 84.5 -28.5t33.5 -89.5zM234 126q0 55 -55 55q-56 0 -56 -58q0 -59 55 -59q56 0 56 62z" />
    <glyph glyph-name="seven.dfra" horiz-adv-x="352" 
d="M318 313q-71 -147 -181 -320q-64 5 -90 12l177 301h-185q-5 35 -5 81h284v-74z" />
    <glyph glyph-name="eight.dfra" horiz-adv-x="352" 
d="M321 105q0 -112 -150 -112q-140 0 -140 106q0 63 76 96q-68 30 -68 92q0 51 35.5 79t102.5 28q136 0 136 -98q0 -59 -72 -88q42 -18 61 -42.5t19 -60.5zM226 288q0 38 -51 38q-50 0 -50 -40t54 -52q47 15 47 54zM232 111q0 45 -63 59q-50 -14 -50 -60q0 -25 12.5 -37
t43.5 -12q57 0 57 50z" />
    <glyph glyph-name="nine.dfra" horiz-adv-x="352" 
d="M33 259q0 65 38 100t101 35q72 0 109.5 -42t37.5 -137q0 -111 -46.5 -166.5t-131.5 -55.5q-51 0 -87 9q5 55 12 80q27 -8 69 -8q49 0 71.5 23.5t25.5 78.5h-5q-27 -35 -76 -35q-51 0 -84.5 28.5t-33.5 89.5zM118 261q0 -55 55 -55q56 0 56 58q0 59 -55 59q-56 0 -56 -62z
" />
    <glyph glyph-name="zero.ltab" 
d="M464 338q0 -348 -214 -348q-49 0 -86.5 16.5t-67 55t-45 108t-15.5 168.5q0 346 214 346q104 0 159 -79t55 -267zM347 338q0 134 -20.5 189t-76.5 55q-54 0 -75.5 -55t-21.5 -189q0 -139 21 -192.5t76 -53.5t76 55.5t21 190.5z" />
    <glyph glyph-name="one.ltab" 
d="M464 0h-398v111h169v450l-154 -20q-11 49 -11 100l169 33h110v-563h124q0 -63 -9 -111z" />
    <glyph glyph-name="two.ltab" 
d="M226 111h238q0 -59 -7 -111h-391l-6 95q256 203 256 363q0 114 -112 114q-77 0 -120 -24q-17 69 -19 109q70 27 149 27q102 0 163.5 -54t61.5 -158q0 -79 -51.5 -172t-161.5 -189z" />
    <glyph glyph-name="three.ltab" 
d="M440 193q0 -100 -68 -151.5t-172 -51.5q-87 0 -158 30q7 65 22 111q63 -31 137 -31q112 0 112 98q0 52 -27 72.5t-79 20.5h-97v108h100q54 0 76.5 22.5t22.5 69.5q0 83 -102 83q-68 0 -131 -25q-15 60 -16 110q79 25 156 25q97 0 156.5 -44.5t59.5 -133.5q0 -54 -28 -94
t-77 -57v-7q54 -16 83.5 -56t29.5 -99z" />
    <glyph glyph-name="four.ltab" 
d="M471 262q0 -57 -9 -105h-50v-157h-115v157h-267v112q99 230 205 415q53 -5 100 -21l-198 -401h163v161h112v-161h59z" />
    <glyph glyph-name="five.ltab" 
d="M446 207q0 -96 -66.5 -156.5t-166.5 -60.5q-73 0 -143 25q6 53 20 107q51 -21 129 -21q108 0 108 102q0 99 -146 99q-61 0 -103 -2q5 190 30 374h326q0 -45 -9 -110h-224l-13 -156q71 0 126 -17t93.5 -64t38.5 -120z" />
    <glyph glyph-name="six.ltab" 
d="M455 226q0 -112 -55.5 -174t-148.5 -62q-103 0 -154.5 72t-51.5 239q0 191 65.5 287t187.5 96q77 0 122 -14q-5 -53 -16 -104q-43 12 -106 12q-134 0 -140 -200h3q39 55 121 55q76 0 124.5 -51.5t48.5 -155.5zM344 223q0 118 -92 118t-92 -123q0 -129 88 -129
q96 0 96 134z" />
    <glyph glyph-name="seven.ltab" 
d="M452 571q-138 -314 -285 -578q-70 6 -110 19l276 553h-271q-6 54 -6 109h396v-103z" />
    <glyph glyph-name="eight.ltab" 
d="M460 183q0 -91 -57.5 -142t-159.5 -51q-93 0 -148 45t-55 135q0 109 110 169q-100 59 -100 162q0 88 55 135.5t146 47.5q92 0 145 -44t53 -128q0 -93 -105 -153q116 -64 116 -176zM331 505q0 40 -21.5 62t-61.5 22t-61 -21.5t-21 -61.5q0 -79 88 -113q36 16 56.5 46.5
t20.5 65.5zM340 185q0 80 -100 117q-38 -15 -60 -47t-22 -72q0 -96 90 -96q92 0 92 98z" />
    <glyph glyph-name="nine.ltab" 
d="M45 448q0 112 55.5 174t148.5 62q103 0 154.5 -72t51.5 -239q0 -191 -65.5 -287t-187.5 -96q-77 0 -122 14q5 53 16 104q43 -12 106 -12q134 0 140 200h-3q-39 -55 -121 -55q-76 0 -124.5 51.5t-48.5 155.5zM156 451q0 -118 92 -118t92 123q0 129 -88 129q-96 0 -96 -134
z" />
    <glyph glyph-name="zero.nfra" horiz-adv-x="352" 
d="M331 480q0 -97 -39.5 -148.5t-113.5 -51.5q-157 0 -157 201q0 200 154 200q156 0 156 -201zM240 481q0 65 -13.5 91.5t-50.5 26.5q-36 0 -50 -26t-14 -92q0 -67 14.5 -93t50.5 -26q35 0 49 27t14 92z" />
    <glyph glyph-name="one.nfra" horiz-adv-x="352" 
d="M328 369q0 -49 -6 -82h-279v82h118v223l-108 -16q-8 40 -8 75l123 23h79v-305h81z" />
    <glyph glyph-name="two.nfra" horiz-adv-x="352" 
d="M317 369q0 -49 -5 -82h-273l-4 70q96 64 134 105.5t38 79.5q0 31 -17 43.5t-51 12.5q-53 0 -87 -16q-12 40 -12 81q42 18 114 18q67 0 107.5 -32.5t40.5 -94.5q0 -50 -33 -94t-103 -91h151z" />
    <glyph glyph-name="three.nfra" horiz-adv-x="352" 
d="M307 399q0 -59 -46 -89t-125 -30q-63 0 -106 17q1 40 14 80q44 -16 90 -16q41 0 60 9t19 34q0 26 -18 35t-57 9h-64v76h65q39 0 53 8.5t14 30.5q0 37 -72 37q-45 0 -81 -12q-9 31 -11 79q49 14 109 14q66 0 106.5 -24t40.5 -75q0 -67 -68 -89v-3q77 -18 77 -91z" />
    <glyph glyph-name="four.nfra" horiz-adv-x="352" 
d="M338 444q0 -42 -7 -79h-44v-78h-81v78h-187v80q59 115 150 236q52 -3 79 -12l-145 -229h105v80h79v-76h51z" />
    <glyph glyph-name="five.nfra" horiz-adv-x="352" 
d="M311 408q0 -61 -40.5 -94.5t-119.5 -33.5q-61 0 -107 15q5 55 14 83q45 -15 90 -15q40 0 55.5 10.5t15.5 35.5t-19 35.5t-64 10.5q-30 0 -87 -3q2 117 20 222h234q0 -42 -7 -81h-155l-7 -68q87 0 132 -25.5t45 -91.5z" />
    <glyph glyph-name="six.nfra" horiz-adv-x="352" 
d="M320 415q0 -65 -38.5 -100t-101.5 -35q-147 0 -147 179q0 111 47 166.5t131 55.5q51 0 87 -9q-2 -45 -12 -80q-27 8 -69 8q-49 0 -71 -23.5t-25 -78.5h5q27 35 76 35q51 0 84.5 -28.5t33.5 -89.5zM234 413q0 55 -55 55q-56 0 -56 -58q0 -59 55 -59q56 0 56 62z" />
    <glyph glyph-name="seven.nfra" horiz-adv-x="352" 
d="M318 600q-71 -147 -181 -320q-64 5 -90 12l177 301h-185q-5 35 -5 81h284v-74z" />
    <glyph glyph-name="eight.nfra" horiz-adv-x="352" 
d="M321 392q0 -112 -150 -112q-140 0 -140 106q0 63 76 96q-68 30 -68 92q0 51 35.5 79t102.5 28q136 0 136 -98q0 -59 -72 -88q42 -18 61 -42.5t19 -60.5zM226 575q0 38 -51 38q-50 0 -50 -40t54 -52q47 15 47 54zM232 398q0 45 -63 59q-50 -14 -50 -60q0 -25 12.5 -37
t43.5 -12q57 0 57 50z" />
    <glyph glyph-name="nine.nfra" horiz-adv-x="352" 
d="M33 546q0 65 38 100t101 35q72 0 109.5 -42t37.5 -137q0 -111 -46.5 -166.5t-131.5 -55.5q-51 0 -87 9q5 55 12 80q27 -8 69 -8q49 0 71.5 23.5t25.5 78.5h-5q-27 -35 -76 -35q-51 0 -84.5 28.5t-33.5 89.5zM118 548q0 -55 55 -55q56 0 56 58q0 59 -55 59q-56 0 -56 -62z
" />
    <glyph glyph-name="Euro.lprp" 
d="M397 224h-185q9 -68 38 -96t85 -28q75 0 123 29q11 -48 16 -111q-62 -28 -144 -28q-207 0 -243 234h-57v73h50q-1 14 -1 41q0 24 1 38h-50v73h58q19 120 81 177.5t155 57.5q85 0 137 -18q-2 -50 -15 -112q-52 20 -117 20q-50 0 -78.5 -27t-39.5 -98h217q0 -28 -10 -73
h-212q-2 -13 -2 -39q0 -27 1 -40h202q0 -28 -10 -73z" />
    <glyph glyph-name="brokenbar.caps" horiz-adv-x="270" 
d="M172 401h-86v273h86v-273zM172 0h-86v277h86v-277z" />
    <glyph glyph-name="minus.lprp" 
d="M426 296h-352v86h352v-86z" />
    <glyph glyph-name="multiply.lprp" horiz-adv-x="498" 
d="M449 191l-59 -59l-144 147l-144 -147l-59 59l147 146l-146 145l58 58l144 -148l144 148l59 -58l-146 -145z" />
    <glyph glyph-name="exclam.caps" horiz-adv-x="264" 
d="M192 674q0 -184 -17 -475q-32 -6 -86 -8q-17 295 -17 483h120zM196 55q0 -32 -17.5 -49t-46.5 -17t-47 17t-18 49t18.5 49t47.5 17t46 -17.5t17 -48.5z" />
    <glyph glyph-name="quotedbl.caps" horiz-adv-x="388" 
d="M168 674l-22 -264q-33 -12 -76 -12l-20 276h118zM338 674l-22 -264q-33 -12 -76 -12l-20 276h118z" />
    <glyph glyph-name="dollar.lprp" 
d="M450 227q0 -66 -47 -111.5t-125 -57.5l3 -58h-104l3 56q-79 5 -129 24q10 75 22 104q67 -27 176 -27q46 0 67 13t21 46q0 28 -30 45.5t-72.5 29t-85 27.5t-72.5 50.5t-30 88.5q0 61 46.5 104.5t121.5 56.5l-2 56h104l-3 -52q55 -2 104 -11q-2 -61 -13 -104
q-67 15 -156 15q-50 0 -70 -13.5t-20 -43.5q0 -24 30 -40t72.5 -27t85.5 -27.5t73 -52.5t30 -91z" />
    <glyph glyph-name="percent.lprp" horiz-adv-x="812" 
d="M349 494q0 -91 -42 -140.5t-116 -49.5t-116.5 46.5t-42.5 143.5q0 94 43.5 142t115.5 48q75 0 116.5 -47t41.5 -143zM257 494q0 59 -14.5 87.5t-51.5 28.5q-36 0 -51.5 -28.5t-15.5 -87.5q0 -62 15 -89t52 -27t51.5 28t14.5 88zM583 671l-271 -682q-31 5 -75 24l264 669
q36 0 82 -11zM781 180q0 -91 -42 -140.5t-116 -49.5t-117 46.5t-43 143.5q0 94 43.5 142t116.5 48q75 0 116.5 -47t41.5 -143zM688 180q0 59 -14 87.5t-51 28.5q-36 0 -51.5 -28.5t-15.5 -87.5q0 -62 15 -89t52 -27q36 0 50.5 28t14.5 88z" />
    <glyph glyph-name="quotesingle.caps" horiz-adv-x="218" 
d="M168 674l-22 -264q-33 -12 -76 -12l-20 276h118z" />
    <glyph glyph-name="parenleft.caps" horiz-adv-x="308" 
d="M276 -53q-42 -9 -97 -9q-124 170 -124 401q0 219 124 396q56 0 97 -10q-47 -75 -75.5 -178t-28.5 -204q0 -104 28 -212t76 -184z" />
    <glyph glyph-name="parenright.caps" horiz-adv-x="308" 
d="M33 725q40 9 97 9q123 -170 123 -400q0 -220 -123 -397q-57 0 -97 10q47 75 75 177.5t28 204.5q0 105 -27.5 212.5t-75.5 183.5z" />
    <glyph glyph-name="plus.caps" horiz-adv-x="494" 
d="M289 110h-84v186h-164v83h164v186h84v-186h164v-83h-164v-186z" />
    <glyph glyph-name="hyphen.caps" horiz-adv-x="250" 
d="M219 290h-188v95h188v-95z" />
    <glyph glyph-name="zero.lprp" 
d="M464 338q0 -348 -214 -348q-49 0 -86.5 16.5t-67 55t-45 108t-15.5 168.5q0 346 214 346q104 0 159 -79t55 -267zM347 338q0 134 -20.5 189t-76.5 55q-54 0 -75.5 -55t-21.5 -189q0 -139 21 -192.5t76 -53.5t76 55.5t21 190.5z" />
    <glyph glyph-name="one.lprp" horiz-adv-x="470" 
d="M424 0h-368v111h139v450l-134 -20q-11 49 -11 100l149 33h110v-563h124q0 -63 -9 -111z" />
    <glyph glyph-name="two.lprp" 
d="M226 111h238q0 -59 -7 -111h-391l-6 95q256 203 256 363q0 114 -112 114q-77 0 -120 -24q-17 69 -19 109q70 27 149 27q102 0 163.5 -54t61.5 -158q0 -79 -51.5 -172t-161.5 -189z" />
    <glyph glyph-name="three.lprp" 
d="M440 193q0 -100 -68 -151.5t-172 -51.5q-87 0 -158 30q7 65 22 111q63 -31 137 -31q112 0 112 98q0 52 -27 72.5t-79 20.5h-97v108h100q54 0 76.5 22.5t22.5 69.5q0 83 -102 83q-68 0 -131 -25q-15 60 -16 110q79 25 156 25q97 0 156.5 -44.5t59.5 -133.5q0 -54 -28 -94
t-77 -57v-7q54 -16 83.5 -56t29.5 -99z" />
    <glyph glyph-name="four.lprp" 
d="M471 262q0 -57 -9 -105h-50v-157h-115v157h-267v112q99 230 205 415q53 -5 100 -21l-198 -401h163v161h112v-161h59z" />
    <glyph glyph-name="five.lprp" 
d="M446 207q0 -96 -66.5 -156.5t-166.5 -60.5q-73 0 -143 25q6 53 20 107q51 -21 129 -21q108 0 108 102q0 99 -146 99q-61 0 -103 -2q5 190 30 374h326q0 -45 -9 -110h-224l-13 -156q71 0 126 -17t93.5 -64t38.5 -120z" />
    <glyph glyph-name="six.lprp" 
d="M455 226q0 -112 -55.5 -174t-148.5 -62q-103 0 -154.5 72t-51.5 239q0 191 65.5 287t187.5 96q77 0 122 -14q-5 -53 -16 -104q-43 12 -106 12q-134 0 -140 -200h3q39 55 121 55q76 0 124.5 -51.5t48.5 -155.5zM344 223q0 118 -92 118t-92 -123q0 -129 88 -129
q96 0 96 134z" />
    <glyph glyph-name="seven.lprp" horiz-adv-x="480" 
d="M437 571q-138 -314 -285 -578q-70 6 -110 19l276 553h-271q-6 54 -6 109h396v-103z" />
    <glyph glyph-name="eight.lprp" 
d="M460 183q0 -91 -57.5 -142t-159.5 -51q-93 0 -148 45t-55 135q0 109 110 169q-100 59 -100 162q0 88 55 135.5t146 47.5q92 0 145 -44t53 -128q0 -93 -105 -153q116 -64 116 -176zM331 505q0 40 -21.5 62t-61.5 22t-61 -21.5t-21 -61.5q0 -79 88 -113q36 16 56.5 46.5
t20.5 65.5zM340 185q0 80 -100 117q-38 -15 -60 -47t-22 -72q0 -96 90 -96q92 0 92 98z" />
    <glyph glyph-name="nine.lprp" 
d="M45 448q0 112 55.5 174t148.5 62q103 0 154.5 -72t51.5 -239q0 -191 -65.5 -287t-187.5 -96q-77 0 -122 14q5 53 16 104q43 -12 106 -12q134 0 140 200h-3q-39 -55 -121 -55q-76 0 -124.5 51.5t-48.5 155.5zM156 451q0 -118 92 -118t92 123q0 129 -88 129q-96 0 -96 -134
z" />
    <glyph glyph-name="colon.caps" horiz-adv-x="237" 
d="M190 55q0 -32 -18 -49t-46 -17q-30 0 -47.5 16.5t-17.5 49.5q0 31 18.5 48.5t47.5 17.5q27 0 45 -17.5t18 -48.5zM190 421q0 -32 -18 -49t-46 -17q-30 0 -47.5 17t-17.5 49t18 49t48 17q28 0 45.5 -17t17.5 -49z" />
    <glyph glyph-name="semicolon.caps" horiz-adv-x="237" 
d="M185 421q0 -32 -18 -49t-46 -17q-30 0 -47.5 17t-17.5 49t18 49t47 17q28 0 46 -17t18 -49zM184 59q0 -103 -117 -232l-97 26q64 76 85 119.5t21 105.5v35h104q4 -17 4 -54z" />
    <glyph glyph-name="less.caps" horiz-adv-x="419" 
d="M361 110h-110l-205 229l205 226h110v-11l-201 -211l201 -224v-9z" />
    <glyph glyph-name="equal.caps" horiz-adv-x="492" 
d="M431 391h-370v82h370v-82zM431 202h-370v81h370v-81z" />
    <glyph glyph-name="greater.caps" horiz-adv-x="419" 
d="M374 335l-206 -225h-111v10l202 212l-202 223v10h111z" />
    <glyph glyph-name="question.caps" horiz-adv-x="425" 
d="M386 498q0 -139 -183 -209v-90q-50 -9 -98 -11q-16 92 -16 163q183 47 183 140q0 47 -26.5 67.5t-86.5 20.5q-44 0 -98 -12q-9 48 -9 104q52 13 119 13q97 0 156 -47.5t59 -138.5zM219 55q0 -32 -18 -49t-47 -17t-47 17t-18 49q0 31 18.5 48.5t46.5 17.5q29 0 47 -17.5
t18 -48.5z" />
    <glyph glyph-name="at.caps" horiz-adv-x="817" 
d="M762 373q0 -111 -43.5 -173.5t-116.5 -62.5q-84 0 -114 50h-3q-51 -51 -114 -51q-60 0 -94.5 29.5t-34.5 85.5q0 114 153 121l78 3v69q-36 15 -78 15q-58 0 -97 -17q-12 44 -12 85q53 14 111 14q109 0 169 -42v-249q0 -24 9.5 -34t31.5 -10q76 0 76 167q0 118 -73.5 178
t-191.5 60q-130 0 -205 -73t-75 -210q0 -261 254 -261q79 0 138 25q12 -38 12 -80q-66 -22 -154 -22q-162 0 -247.5 84t-85.5 254q0 116 51.5 198.5t133 120t182.5 37.5q151 0 245.5 -82.5t94.5 -228.5zM473 238v71l-75 -4q-34 -1 -46 -12t-12 -40q0 -26 12.5 -35t42.5 -9
q43 0 78 29z" />
    <glyph glyph-name="bracketleft.caps" horiz-adv-x="344" 
d="M306 -95h-214v865h214q0 -47 -8 -98h-98v-669h98q8 -51 8 -98z" />
    <glyph glyph-name="bracketright.caps" horiz-adv-x="344" 
d="M38 770h214v-865h-214q0 55 8 98h97v669h-97q-8 43 -8 98z" />
    <glyph glyph-name="zero.otab" 
d="M461 273q0 -136 -55.5 -209.5t-155.5 -73.5q-99 0 -155 68.5t-56 214.5q0 140 57.5 211t153.5 71q211 0 211 -282zM344 273q0 95 -19.5 137.5t-74.5 42.5q-53 0 -73.5 -42.5t-20.5 -137.5q0 -98 20 -140t74 -42q53 0 73.5 44t20.5 138z" />
    <glyph glyph-name="one.otab" 
d="M464 0h-394v109h170v326l-154 -21q-12 48 -12 98l170 33h105v-436h124q0 -61 -9 -109z" />
    <glyph glyph-name="two.otab" 
d="M450 109q0 -57 -7 -109h-370l-6 95q129 88 181.5 149t52.5 117q0 85 -87 85q-74 0 -120 -25q-16 56 -20 107q70 27 148 27q93 0 147.5 -45.5t54.5 -133.5q0 -70 -46.5 -134.5t-143.5 -132.5h216z" />
    <glyph glyph-name="three.otab" 
d="M440 64q0 -100 -68 -151.5t-172 -51.5q-87 0 -158 30q7 65 22 111q63 -31 137 -31q112 0 112 98q0 52 -27 72.5t-79 20.5h-97v108h100q54 0 76.5 22.5t22.5 69.5q0 83 -102 83q-68 0 -131 -25q-15 60 -16 110q79 25 156 25q97 0 156.5 -44.5t59.5 -133.5q0 -54 -28 -94
t-77 -57v-7q54 -16 83.5 -56t29.5 -99z" />
    <glyph glyph-name="four.otab" 
d="M471 133q0 -57 -9 -105h-50v-157h-115v157h-267v112q99 230 205 415q53 -5 100 -21l-198 -401h163v161h112v-161h59z" />
    <glyph glyph-name="five.otab" 
d="M446 78q0 -96 -66.5 -156.5t-166.5 -60.5q-73 0 -143 25q6 53 20 107q51 -21 129 -21q108 0 108 102q0 99 -146 99q-61 0 -103 -2q5 190 30 374h326q0 -45 -9 -110h-224l-13 -156q71 0 126 -17t93.5 -64t38.5 -120z" />
    <glyph glyph-name="six.otab" 
d="M455 226q0 -113 -55.5 -174.5t-148.5 -61.5q-103 0 -154.5 71t-51.5 240q0 193 65.5 288t187.5 95q77 0 122 -14q-6 -60 -16 -108q-46 13 -106 13q-66 0 -101 -45t-39 -151h6q41 54 118 54t125 -51t48 -156zM344 223q0 117 -92 117q-47 0 -69.5 -29.5t-22.5 -92.5
q0 -128 88 -128q96 0 96 133z" />
    <glyph glyph-name="seven.otab" 
d="M452 442q-143 -326 -285 -578q-71 6 -110 19l276 553h-271q-6 54 -6 109h396v-103z" />
    <glyph glyph-name="eight.otab" 
d="M460 183q0 -91 -57.5 -142t-159.5 -51q-93 0 -148 45t-55 135q0 109 110 169q-100 59 -100 162q0 88 55 135.5t146 47.5q92 0 145 -44t53 -128q0 -93 -105 -153q116 -64 116 -176zM331 505q0 40 -21.5 62t-61.5 22t-61 -21.5t-21 -61.5q0 -79 88 -113q36 16 56.5 46.5
t20.5 65.5zM340 185q0 80 -100 117q-38 -15 -60 -47t-22 -72q0 -96 90 -96q92 0 92 98z" />
    <glyph glyph-name="nine.otab" 
d="M45 319q0 113 55.5 174.5t148.5 61.5q103 0 154.5 -71t51.5 -240q0 -193 -65.5 -288t-187.5 -95q-77 0 -122 14q6 60 16 108q46 -13 106 -13q66 0 101 45t39 151h-6q-41 -54 -118 -54t-125 51t-48 156zM156 322q0 -117 92 -117q47 0 69.5 29.5t22.5 92.5q0 128 -88 128
q-96 0 -96 -133z" />
    <glyph glyph-name="braceleft.caps" horiz-adv-x="337" 
d="M296 3q0 -49 -9 -98q-125 0 -180 29t-55 93q0 29 16.5 61t36.5 54t36.5 46t16.5 41q0 31 -23.5 43.5t-93.5 12.5v106q70 0 93.5 12t23.5 44q0 20 -26.5 52.5t-53 72t-26.5 76.5q0 122 236 122q8 -42 8 -98q-78 0 -103.5 -9t-25.5 -34q0 -20 50.5 -86.5t50.5 -102.5
q0 -40 -24.5 -63.5t-88.5 -34.5v-7q64 -12 88.5 -35.5t24.5 -63.5q0 -28 -25 -66t-50.5 -72t-25.5 -52q0 -27 24.5 -35t104.5 -8z" />
    <glyph glyph-name="bar.caps" horiz-adv-x="260" 
d="M174 -95h-88v865h88v-865z" />
    <glyph glyph-name="braceright.caps" horiz-adv-x="337" 
d="M41 672q0 49 9 98q125 0 180 -29t55 -93q0 -37 -26.5 -76.5t-53 -72.5t-26.5 -53q0 -31 23.5 -43.5t93.5 -12.5v-106q-70 0 -93.5 -12t-23.5 -44q0 -20 26.5 -52.5t53 -72t26.5 -76.5q0 -122 -236 -122q-8 42 -8 98q78 0 103.5 9t25.5 34q0 20 -50.5 86.5t-50.5 102.5
q0 40 24.5 63.5t87.5 34.5v7q-63 12 -87.5 35.5t-24.5 63.5q0 28 25.5 66l50.5 72t25 52q0 27 -24.5 35t-104.5 8z" />
    <glyph glyph-name="asciitilde.caps" horiz-adv-x="494" 
d="M469 413q-15 -98 -43.5 -135t-77.5 -37q-36 0 -104 42.5t-84 42.5q-19 0 -27 -17t-14 -68q-49 0 -93 17q15 98 43.5 135.5t77.5 37.5q35 0 103.5 -42.5t85.5 -42.5q19 0 26.5 16.5t14.5 68.5q56 0 92 -18z" />
    <glyph glyph-name="dagger.caps" horiz-adv-x="523" 
d="M480 391h-162v-390q-49 -10 -114 -10v400h-162v108h162v175h114v-175h162v-108z" />
    <glyph glyph-name="cent.lprp" 
d="M458 98q-33 -20 -105 -28l3 -70h-101l4 72q-95 15 -147.5 79t-52.5 176q0 123 56 190.5t143 81.5l-3 75h101l-3 -73q66 -6 95 -18q-5 -51 -21 -109q-47 20 -116 20q-130 0 -130 -153q0 -94 34 -128.5t106 -34.5q68 0 116 25q13 -51 21 -105z" />
    <glyph glyph-name="sterling.lprp" 
d="M487 105q0 -50 -11 -105h-392v95q86 21 86 121q0 34 -30 100h-90v81h53q-16 50 -16 87q0 88 60.5 144t165.5 56q79 0 136 -14q0 -50 -13 -108q-55 17 -132 17q-53 0 -75 -23.5t-22 -76.5q0 -35 20 -82h206q0 -36 -10 -81h-158q25 -60 25 -97q0 -67 -61 -114h258z" />
    <glyph glyph-name="section.caps" 
d="M34 312q0 39 24.5 73.5t74.5 53.5q46 -20 79 -46q-69 -23 -69 -67q0 -25 27.5 -41.5t66.5 -26.5t78.5 -22t67 -38.5t27.5 -66.5q0 -65 -48.5 -103t-143.5 -38q-70 0 -127 12q5 60 14 89q60 -15 131 -15q64 0 64 39q0 19 -27.5 31.5t-66.5 22.5t-78 24t-66.5 44t-27.5 75z
M466 362q0 -39 -24.5 -73.5t-73.5 -53.5q-47 19 -79 46q33 11 50.5 29t17.5 38q0 25 -27.5 41.5t-66.5 26.5t-78 22t-66.5 38.5t-27.5 66.5q0 65 48.5 103t142.5 38q71 0 128 -12q-5 -55 -15 -89q-60 15 -131 15q-63 0 -63 -39q0 -19 27.5 -31.5t66.5 -22.5t77.5 -24t66 -44
t27.5 -75z" />
    <glyph glyph-name="bullet.caps" horiz-adv-x="352" 
d="M285 333q0 -49 -31 -79.5t-78 -30.5t-77.5 30t-30.5 80t30.5 81.5t77.5 31.5t78 -31.5t31 -81.5z" />
    <glyph glyph-name="paragraph.caps" 
d="M423 163q0 -95 -35 -154t-117 -110l-36 48q70 47 96.5 94t26.5 120v451q-26 7 -73 7v-458q0 -58 -18.5 -93.5t-68.5 -69.5l-36 50q32 21 45 45t13 62v165h-11q-73 0 -112 44.5t-39 129.5q0 95 56.5 142.5t148.5 47.5q89 0 160 -20v-501z" />
    <glyph glyph-name="germandbls.caps" horiz-adv-x="1064" 
d="M1010 191q0 -96 -64.5 -148.5t-173.5 -52.5q-111 0 -182 31q6 44 25 108q77 -33 171 -33q96 0 96 86q0 33 -30 59t-72.5 45.5t-85 42.5t-72.5 63.5t-30 96.5q0 93 68 144t178 51q82 0 143 -16q-4 -55 -16 -108q-72 18 -149 18q-53 0 -74.5 -20.5t-21.5 -62.5
q0 -30 30 -54t72.5 -44t85 -44t72.5 -65.5t30 -96.5zM478 191q0 -96 -64.5 -148.5t-173.5 -52.5q-111 0 -182 31q6 44 25 108q77 -33 171 -33q96 0 96 86q0 33 -30 59t-72.5 45.5t-85 42.5t-72.5 63.5t-30 96.5q0 93 68 144t178 51q82 0 143 -16q-4 -55 -16 -108
q-72 18 -149 18q-53 0 -74.5 -20.5t-21.5 -62.5q0 -30 30 -54t72.5 -44t85 -44t72.5 -65.5t30 -96.5z" />
    <glyph glyph-name="notequal.caps" horiz-adv-x="492" 
d="M431 202h-249l-72 -108h-49l72 108h-72v81h127l74 108h-201v82h256l64 96h50l-65 -96h65v-82h-120l-74 -108h194v-81z" />
    <glyph glyph-name="infinity.caps" horiz-adv-x="889" 
d="M245 116q-88 0 -141.5 59.5t-53.5 167.5q0 97 51.5 157t146.5 60q120 0 197 -124q40 65 88.5 94.5t113.5 29.5q89 0 140.5 -60.5t51.5 -163.5q0 -98 -52 -159t-141 -61q-125 0 -203 123q-74 -123 -198 -123zM640 216q93 0 93 125q0 120 -99 120q-48 0 -82.5 -30.5
t-62.5 -91.5q55 -123 151 -123zM259 216q90 0 142 121q-55 124 -146 124q-99 0 -99 -124q0 -121 103 -121z" />
    <glyph glyph-name="plusminus.caps" horiz-adv-x="455" 
d="M395 361h-128v-127h-81v127h-126v80h126v124h81v-124h128v-80zM395 110h-335v83h335v-83z" />
    <glyph glyph-name="lessequal.caps" horiz-adv-x="454" 
d="M378 223h-118l-190 170l190 172h117v-11l-191 -156l192 -164v-11zM394 110h-334v82h334v-82z" />
    <glyph glyph-name="greaterequal.caps" horiz-adv-x="454" 
d="M384 394l-191 -171h-117v11l190 159l-190 161v11h117zM394 110h-334v82h334v-82z" />
    <glyph glyph-name="yen.lprp" 
d="M490 668q-91 -241 -150 -365h109q0 -41 -9 -81h-128v-222h-123v222h-129v81h102q-62 130 -151 365q57 11 126 11l97 -262q13 -33 21 -69h6q10 47 19 71l94 260q58 0 116 -11z" />
    <glyph glyph-name="mu.caps" horiz-adv-x="590" 
d="M502 0h-114v45h-6q-62 -55 -128 -55q-34 0 -52 15v-211h-114v724q46 7 114 7v-361q0 -38 19.5 -55.5t64.5 -17.5q56 0 102 27v400q46 7 114 7v-525z" />
    <glyph glyph-name="pi.caps" horiz-adv-x="693" 
d="M601 0h-125v556h-259v-556h-125v674h509v-674z" />
    <glyph glyph-name="integral.caps" horiz-adv-x="322" 
d="M326 680q0 -54 -7 -102q-15 3 -52 3q-31 0 -44.5 -16t-13.5 -51v-474q0 -81 -48.5 -130t-121.5 -49q-35 0 -61 4q0 54 7 102q14 -3 52 -3q31 0 44 16t13 51v474q0 81 49 130t123 49q36 0 60 -4z" />
    <glyph glyph-name="ordfeminine.caps" horiz-adv-x="380" 
d="M368 350q-31 -7 -90 -7l-27 76h-129l-27 -76q-54 0 -83 7q60 177 127 324h103q63 -139 126 -324zM228 485l-34 94q-5 14 -6 35h-4q-1 -22 -7 -35l-34 -94h85z" />
    <glyph glyph-name="ordmasculine.caps" horiz-adv-x="380" 
d="M352 509q0 -80 -46 -124.5t-118 -44.5q-75 0 -117.5 42.5t-42.5 126.5q0 79 44.5 124.5t117.5 45.5q74 0 118 -41.5t44 -128.5zM262 509q0 98 -73 98q-71 0 -71 -98q0 -97 70 -97q74 0 74 97z" />
    <glyph glyph-name="questiondown.caps" horiz-adv-x="425" 
d="M39 176q0 139 183 209v90q50 9 98 11q16 -92 16 -163q-183 -47 -183 -140q0 -47 26.5 -67.5t86.5 -20.5q44 0 98 12q9 -48 9 -104q-52 -13 -119 -13q-97 0 -156 47.5t-59 138.5zM206 619q0 32 18 49t47 17t47 -17t18 -49q0 -31 -18.5 -48.5t-46.5 -17.5q-29 0 -47 17.5
t-18 48.5z" />
    <glyph glyph-name="exclamdown.caps" horiz-adv-x="264" 
d="M72 0q0 203 16 475q38 7 86 9q18 -283 18 -484h-120zM67 620q0 32 17.5 48.5t46.5 16.5t47 -17t18 -48q0 -32 -18.5 -49.5t-46.5 -17.5q-29 0 -46.5 17.5t-17.5 49.5z" />
    <glyph glyph-name="logicalnot.caps" horiz-adv-x="498" 
d="M456 211q-44 -9 -91 -9v140h-330v92h421v-223z" />
    <glyph glyph-name="florin.caps" 
d="M422 680q0 -42 -7 -102q-20 4 -53 4q-75 0 -75 -79v-98h153q0 -40 -7 -98h-146v-439h-114v439h-130v98h130v89q0 88 53 139t134 51q36 0 62 -4z" />
    <glyph glyph-name="approxequal.caps" horiz-adv-x="496" 
d="M438 400q-41 -36 -88 -36q-34 0 -97.5 21.5t-96.5 21.5q-54 0 -98 -41v81q44 41 98 41q33 0 96 -21t97 -21q48 0 89 36v-82zM438 212q-40 -35 -88 -35q-34 0 -97.5 21.5t-96.5 21.5q-52 0 -98 -41v80q44 41 98 41q33 0 96 -21t97 -21q48 0 89 35v-81z" />
    <glyph glyph-name="guillemotleft.caps" horiz-adv-x="495" 
d="M259 129l-93 -13l-139 220l139 220l93 -14l-122 -207zM469 129l-94 -13l-139 220l139 220l94 -14l-122 -207z" />
    <glyph glyph-name="guillemotright.caps" horiz-adv-x="495" 
d="M469 335l-140 -219l-93 13l121 207l-121 206l93 14zM259 335l-139 -219l-93 13l121 207l-121 206l93 14z" />
    <glyph glyph-name="endash.caps" 
d="M443 296h-388v84h398q0 -44 -10 -84z" />
    <glyph glyph-name="emdash.caps" horiz-adv-x="1000" 
d="M929 296h-859v84h869q0 -38 -10 -84z" />
    <glyph glyph-name="quotedblleft.caps" horiz-adv-x="444" 
d="M36 468q0 162 128 214q23 -28 36 -62q-81 -32 -81 -108h42q14 -49 14 -114h-139v70zM241 468q0 162 127 214q25 -28 36 -62q-80 -32 -80 -108h41q14 -45 14 -114h-138v70z" />
    <glyph glyph-name="quotedblright.caps" horiz-adv-x="444" 
d="M203 604q0 -162 -128 -214q-24 28 -35 61q80 33 80 109h-41q-15 49 -15 114h139v-70zM408 604q0 -162 -128 -214q-25 30 -36 61q80 33 80 109h-41q-14 46 -14 114h139v-70z" />
    <glyph glyph-name="quoteleft.caps" horiz-adv-x="240" 
d="M36 468q0 162 128 214q23 -28 36 -62q-81 -32 -81 -108h42q14 -49 14 -114h-139v70z" />
    <glyph glyph-name="quoteright.caps" horiz-adv-x="240" 
d="M203 604q0 -162 -128 -214q-24 28 -35 61q80 33 80 109h-41q-15 49 -15 114h139v-70z" />
    <glyph glyph-name="divide.caps" horiz-adv-x="409" 
d="M269 153q0 -31 -17.5 -48t-46.5 -17t-47 17t-18 48q0 32 18.5 49.5t46.5 17.5q29 0 46.5 -17t17.5 -50zM269 522q0 -33 -17.5 -49.5t-46.5 -16.5t-47 17t-18 49t18.5 49t46.5 17q29 0 46.5 -17.5t17.5 -48.5zM350 301h-291v74h291v-74z" />
    <glyph glyph-name="guilsinglleft.caps" horiz-adv-x="285" 
d="M259 129l-93 -13l-139 220l139 220l93 -14l-122 -207z" />
    <glyph glyph-name="guilsinglright.caps" horiz-adv-x="285" 
d="M259 335l-139 -219l-93 13l121 207l-121 206l93 14z" />
    <glyph glyph-name="fi.caps" horiz-adv-x="835" 
d="M480 674q0 -59 -8 -110h-255v-181h210v-109h-210v-274h-125v674h388zM743 0h-125v674h125v-674z" />
    <glyph glyph-name="fl.caps" horiz-adv-x="1029" 
d="M480 674q0 -59 -8 -110h-255v-181h210v-109h-210v-274h-125v674h388zM999 111q0 -46 -9 -111h-372v674h125v-563h256z" />
    <glyph glyph-name="daggerdbl.caps" horiz-adv-x="523" 
d="M480 159h-162v-158q-49 -10 -114 -10v168h-162v108h162v135h-162v109h162v163h114v-163h162v-109h-162v-135h162v-108z" />
    <glyph glyph-name="periodcentered.caps" horiz-adv-x="228" 
d="M180 336q0 -32 -18 -49t-46 -17q-30 0 -47.5 17t-17.5 49t18 49t47 17q28 0 46 -17t18 -49z" />
    <glyph glyph-name="quotesinglbase.caps" horiz-adv-x="240" 
d="M203 197q0 -160 -128 -214q-23 28 -35 62q79 32 79 107h-41q-14 50 -14 115h139v-70z" />
    <glyph glyph-name="quotedblbase.caps" horiz-adv-x="444" 
d="M203 197q0 -160 -128 -214q-23 28 -35 62q79 32 79 107h-41q-14 50 -14 115h139v-70zM408 197q0 -160 -128 -214q-26 34 -36 62q80 32 80 107h-42q-13 47 -13 115h139v-70z" />
    <glyph glyph-name="perthousand.lprp" horiz-adv-x="1171" 
d="M349 494q0 -91 -42 -140.5t-116 -49.5t-116.5 46.5t-42.5 143.5q0 94 43.5 142t115.5 48q75 0 116.5 -47t41.5 -143zM257 494q0 59 -14.5 87.5t-51.5 28.5q-36 0 -51.5 -28.5t-15.5 -87.5q0 -62 15 -89t52 -27t51.5 28t14.5 88zM583 671l-271 -682q-31 5 -75 24l264 669
q36 0 82 -11zM781 180q0 -91 -42 -140.5t-116 -49.5t-117 46.5t-43 143.5q0 94 43.5 142t116.5 48q75 0 116.5 -47t41.5 -143zM688 180q0 59 -14 87.5t-51 28.5q-36 0 -51.5 -28.5t-15.5 -87.5q0 -62 15 -89t52 -27q36 0 50.5 28t14.5 88zM1139 180q0 -91 -42 -140.5
t-116 -49.5t-116.5 46.5t-42.5 143.5q0 94 43.5 142t115.5 48q75 0 116.5 -47t41.5 -143zM1047 180q0 59 -14.5 87.5t-51.5 28.5q-36 0 -51 -28t-15 -88q0 -62 14.5 -89t51.5 -27t51.5 28t14.5 88z" />
    <glyph glyph-name="Euro.allsmall" 
d="M378 184h-167q9 -53 33.5 -75t71.5 -22q61 0 113 25q14 -51 14 -99q-59 -23 -129 -23q-100 0 -153.5 48t-67.5 146h-46v61h41v26q0 24 1 36h-42v61h49q35 187 213 187q78 0 128 -16q-2 -54 -15 -98q-45 17 -109 17q-40 0 -64.5 -20.5t-35.5 -69.5h195q0 -30 -10 -61h-193
q-1 -13 -1 -35q0 -18 1 -27h183q0 -23 -10 -61z" />
    <glyph glyph-name="onehalf.small" horiz-adv-x="885" 
d="M595 543l-222 -554q-38 7 -71 24l218 542q37 0 75 -12zM328 243q0 -49 -6 -82h-279v82h118v223l-108 -16q-8 40 -8 75l123 23h79v-305h81zM849 82q0 -47 -4 -82h-271l-4 70q95 64 132 105t37 80q0 31 -16 43.5t-49 12.5q-54 0 -86 -16q-13 37 -13 81q43 18 115 18
q63 0 103.5 -33t40.5 -94q0 -50 -31.5 -94t-100.5 -91h147z" />
    <glyph glyph-name="onequarter.small" horiz-adv-x="875" 
d="M595 543l-222 -554q-38 7 -71 24l218 542q37 0 75 -12zM328 243q0 -49 -6 -82h-279v82h118v223l-108 -16q-8 40 -8 75l123 23h79v-305h81zM860 157q0 -42 -7 -79h-43v-78h-82v78h-187v80q59 115 150 236q52 -3 80 -12l-145 -229h104v80h80v-76h50z" />
    <glyph glyph-name="threequarters.small" horiz-adv-x="875" 
d="M595 543l-222 -554q-38 7 -71 24l218 542q37 0 75 -12zM307 273q0 -59 -46 -89t-125 -30q-63 0 -106 17q1 40 14 80q44 -16 90 -16q41 0 60 9t19 34q0 26 -18 35t-57 9h-64v76h65q39 0 53 8.5t14 30.5q0 37 -72 37q-45 0 -81 -12q-9 31 -11 79q49 14 109 14
q66 0 106.5 -24t40.5 -75q0 -67 -68 -89v-3q77 -18 77 -91zM860 157q0 -42 -7 -79h-43v-78h-82v78h-187v80q59 115 150 236q52 -3 80 -12l-145 -229h104v80h80v-76h50z" />
    <glyph glyph-name="minus.allsmall" 
d="M426 223h-352v86h352v-86z" />
    <glyph glyph-name="multiply.allsmall" horiz-adv-x="498" 
d="M449 125l-59 -58l-144 147l-144 -147l-59 58l147 146l-146 145l58 59l144 -148l144 148l59 -59l-146 -145z" />
    <glyph glyph-name="exclam.allsmall" horiz-adv-x="249" 
d="M184 545q0 -143 -17 -353q-43 -7 -86 -8q-17 221 -17 361h120zM188 55q0 -32 -17.5 -49t-46.5 -17t-47 17t-18 49t18.5 49t47.5 17t46 -17.5t17 -48.5z" />
    <glyph glyph-name="quotedbl.allsmall" horiz-adv-x="388" 
d="M168 545l-22 -177q-29 -12 -76 -12l-20 189h118zM338 545l-22 -177q-29 -12 -76 -12l-20 189h118z" />
    <glyph glyph-name="numbersign.allsmall" 
d="M451 433q0 -49 -14 -102h-68l-19 -122h73q0 -46 -14 -100h-77l-16 -109h-73l16 109h-80l-16 -109h-73l17 109h-59q0 49 16 100h60l19 122h-67q2 55 15 102h70l19 112h73l-19 -112h80l18 112h73l-19 -112h65zM277 209l19 122h-80l-19 -122h80z" />
    <glyph glyph-name="dollar.allsmall" 
d="M427 188q0 -55 -39.5 -95t-110.5 -45l2 -48h-93l2 46q-58 3 -112 21q7 65 19 90q72 -24 156 -24q39 0 55 11t16 34q0 17 -18.5 28.5t-46.5 16.5t-60 14.5t-60 21.5t-46.5 37.5t-18.5 62.5q0 53 38.5 91.5t109.5 47.5l-2 47h93l-2 -45q56 -2 91 -10q0 -51 -12 -89
q-72 14 -139 14q-40 0 -55.5 -10t-15.5 -33q0 -18 25.5 -29t62 -18.5t73.5 -20t62.5 -41.5t25.5 -75z" />
    <glyph glyph-name="percent.allsmall" horiz-adv-x="753" 
d="M324 400q0 -74 -38 -115t-103 -41q-67 0 -103.5 39.5t-36.5 116.5q0 72 37 113.5t103 41.5q67 0 104 -39.5t37 -115.5zM237 399q0 45 -11 64.5t-44 19.5q-30 0 -41 -20t-11 -64t10.5 -63.5t41.5 -19.5q32 0 43.5 20t11.5 63zM533 544l-239 -555q-38 6 -70 23l233 543
q38 0 76 -11zM711 145q0 -73 -38 -114t-103 -41q-67 0 -103.5 39.5t-36.5 115.5q0 73 37 114.5t103 41.5q68 0 104.5 -39.5t36.5 -116.5zM624 144q0 45 -11 65t-44 20q-31 0 -41.5 -20t-10.5 -65q0 -43 10.5 -62.5t41.5 -19.5q32 0 43.5 19.5t11.5 62.5z" />
    <glyph glyph-name="ampersand.allsmall" horiz-adv-x="584" 
d="M329 432q0 45 -45 45q-47 0 -47 -51q0 -31 28 -68q37 17 50.5 34t13.5 40zM326 120l-109 135q-38 -20 -50 -41t-12 -53q0 -38 21.5 -58t57.5 -20q49 0 92 37zM462 108l84 -105q-59 -11 -117 -11l-45 55q-69 -57 -159 -57q-87 0 -132.5 43.5t-45.5 116.5q0 60 25.5 99
t94.5 74q-32 50 -32 95q0 64 38 100.5t112 36.5q66 0 102.5 -31.5t36.5 -85.5q0 -87 -109 -144q41 -59 90 -112q33 33 110 125q10 -68 12 -128q-33 -41 -65 -71z" />
    <glyph glyph-name="quotesingle.allsmall" horiz-adv-x="218" 
d="M168 545l-22 -177q-29 -12 -76 -12l-20 189h118z" />
    <glyph glyph-name="parenleft.allsmall" horiz-adv-x="290" 
d="M270 -53q-37 -8 -97 -8q-122 140 -122 336q0 184 122 331q51 0 97 -8q-46 -63 -74 -149.5t-28 -170.5q0 -87 27.5 -177.5t74.5 -153.5z" />
    <glyph glyph-name="parenright.allsmall" horiz-adv-x="290" 
d="M20 598q37 8 97 8q123 -141 123 -336q0 -183 -123 -331q-51 0 -97 8q47 63 75 149.5t28 170.5q0 87 -28 177.5t-75 153.5z" />
    <glyph glyph-name="asterisk.allsmall" horiz-adv-x="449" 
d="M392 393l-118 -19l78 -81q-23 -23 -75 -62l-55 105l-52 -98q-49 25 -84 51l84 84l-109 20q6 43 23 95l108 -54l-17 111q50 8 98 8l-19 -120l102 50q15 -29 36 -90z" />
    <glyph glyph-name="plus.allsmall" horiz-adv-x="494" 
d="M453 231h-164v-186h-84v186h-164v83h164v186h84v-186h164v-83z" />
    <glyph glyph-name="comma.allsmall" horiz-adv-x="237" 
d="M184 59q0 -103 -117 -232l-97 26q64 76 85 119.5t21 105.5v35h104q4 -17 4 -54z" />
    <glyph glyph-name="hyphen.small" horiz-adv-x="250" 
d="M219 249h-188v95h188v-95z" />
    <glyph glyph-name="period.allsmall" horiz-adv-x="237" 
d="M190 55q0 -32 -18 -49t-46 -17q-30 0 -47.5 16.5t-17.5 49.5q0 31 18 48.5t47 17.5q27 0 45.5 -17.5t18.5 -48.5z" />
    <glyph glyph-name="slash.allsmall" horiz-adv-x="361" 
d="M337 542l-233 -570q-55 11 -80 25l228 558q52 0 85 -13z" />
    <glyph glyph-name="zero.small" 
d="M453 273q0 -283 -203 -283q-97 0 -150 64t-53 219q0 148 55 215t148 67q99 0 151 -64.5t52 -217.5zM338 273q0 98 -18 139t-70 41q-50 0 -69 -40.5t-19 -139.5q0 -103 18.5 -142.5t69.5 -39.5t69.5 41.5t18.5 140.5z" />
    <glyph glyph-name="one.small" 
d="M464 0h-394v106h170v329l-154 -21q-12 48 -12 98l170 33h106v-439h123q0 -58 -9 -106z" />
    <glyph glyph-name="two.small" 
d="M229 106h210q0 -54 -7 -106h-356l-6 95q122 90 173 150.5t51 115.5q0 45 -21.5 65t-66.5 20q-63 0 -111 -24q-17 51 -19 107q63 26 148 26q87 0 139.5 -46t52.5 -133q0 -132 -187 -270z" />
    <glyph glyph-name="three.small" 
d="M421 155q0 -165 -220 -165q-81 0 -140 24q12 82 19 102q59 -22 119 -22q54 0 78 16t24 53q0 38 -24 53t-77 15h-77v98h75q52 0 72.5 15.5t20.5 49.5q0 57 -92 57q-58 0 -107 -16q-9 27 -14 101q66 19 144 19q186 0 186 -140q0 -93 -95 -123v-7q108 -26 108 -130z" />
    <glyph glyph-name="four.small" 
d="M449 220q0 -59 -8 -104h-62v-116h-105v116h-221v105q85 188 189 334q58 -2 103 -17l-184 -323h118v113h100v-108h70z" />
    <glyph glyph-name="five.small" 
d="M429 168q0 -83 -55.5 -130.5t-158.5 -47.5q-73 0 -134 21q10 72 19 100q48 -17 116 -17q97 0 97 72q0 40 -27 58t-88 18q-60 0 -110 -4q2 157 27 307h301q0 -42 -8 -102h-203l-11 -107q235 0 235 -168z" />
    <glyph glyph-name="six.small" 
d="M440 182q0 -91 -51.5 -141.5t-137.5 -50.5q-95 0 -142.5 58t-47.5 195q0 155 62 233.5t174 78.5q75 0 114 -12q-5 -59 -15 -98q-44 10 -94 10q-125 0 -130 -154h8q34 45 99 45q70 0 115.5 -40t45.5 -124zM331 177q0 85 -79 85t-79 -89q0 -94 76 -94q82 0 82 98z" />
    <glyph glyph-name="seven.small" 
d="M437 451q-101 -218 -250 -462q-60 2 -106 16l238 434h-253q-6 45 -6 106h377v-94z" />
    <glyph glyph-name="eight.small" 
d="M439 149q0 -77 -50.5 -118t-145.5 -41q-183 0 -183 150q0 87 102 136q-92 49 -92 129q0 71 47.5 110.5t133.5 39.5q177 0 177 -138q0 -37 -25.5 -70t-69.5 -55q106 -51 106 -143zM321 408q0 60 -73 60q-35 0 -53.5 -16t-18.5 -43q0 -60 78 -79q67 20 67 78zM329 155
q0 33 -21.5 54t-67.5 32q-72 -19 -72 -87q0 -38 18 -56.5t62 -18.5q45 0 63 19.5t18 56.5z" />
    <glyph glyph-name="nine.small" 
d="M60 363q0 91 51.5 141.5t137.5 50.5q95 0 142.5 -58t47.5 -195q0 -155 -62 -233.5t-174 -78.5q-75 0 -114 12q5 59 15 98q44 -10 94 -10q125 0 130 154h-8q-34 -45 -99 -45q-70 0 -115.5 40t-45.5 124zM169 368q0 -85 79 -85t79 89q0 94 -76 94q-82 0 -82 -98z" />
    <glyph glyph-name="colon.allsmall" horiz-adv-x="237" 
d="M190 55q0 -32 -18 -49t-46 -17q-30 0 -47.5 16.5t-17.5 49.5q0 31 18.5 48.5t47.5 17.5q27 0 45 -17.5t18 -48.5zM190 421q0 -32 -18 -49t-46 -17q-30 0 -47.5 17t-17.5 49t18 49t48 17q28 0 45.5 -17t17.5 -49z" />
    <glyph glyph-name="semicolon.allsmall" horiz-adv-x="237" 
d="M185 421q0 -32 -18 -49t-46 -17q-30 0 -47.5 17t-17.5 49t18 49t47 17q28 0 46 -17t18 -49zM184 59q0 -103 -117 -232l-97 26q64 76 85 119.5t21 105.5v35h104q4 -17 4 -54z" />
    <glyph glyph-name="less.allsmall" horiz-adv-x="419" 
d="M361 45h-110l-205 229l205 226h110v-11l-201 -211l201 -224v-9z" />
    <glyph glyph-name="equal.allsmall" horiz-adv-x="492" 
d="M431 326h-370v81h370v-81zM431 137h-370v81h370v-81z" />
    <glyph glyph-name="greater.allsmall" horiz-adv-x="419" 
d="M168 500l206 -230l-206 -225h-111v10l202 212l-202 223v10h111z" />
    <glyph glyph-name="question.allsmall" horiz-adv-x="406" 
d="M367 404q0 -116 -166 -158v-54q-48 -9 -98 -11q-16 70 -16 126q98 18 132 36t34 51q0 30 -21.5 43t-71.5 13q-43 0 -99 -9q-9 48 -9 104q57 10 120 10q91 0 143 -36.5t52 -114.5zM217 54q0 -32 -18 -48t-47 -16t-47 16t-18 48t19 49.5t47 17.5t46 -17.5t18 -49.5z" />
    <glyph glyph-name="at.small" horiz-adv-x="676" 
d="M621 306q0 -93 -37.5 -143.5t-97.5 -50.5q-61 0 -88 40h-3q-38 -35 -90 -35q-43 0 -68.5 24t-25.5 67q0 46 28.5 68t86.5 25l58 3v48q-24 11 -58 11q-43 0 -72 -12q-10 32 -10 66q39 12 88 12q77 0 123 -32v-190q0 -31 31 -31q59 0 59 130q0 88 -54 134t-145 46
q-99 0 -156 -56.5t-57 -162.5q0 -100 50 -152.5t145 -52.5q65 0 106 17q10 -30 10 -72q-48 -17 -117 -17q-131 0 -201.5 69.5t-70.5 205.5q0 138 82 214t214 76q122 0 196 -64.5t74 -184.5zM384 192v60l-56 -2q-24 -1 -32.5 -9.5t-8.5 -29.5q0 -20 9 -27t30 -7q31 0 58 15z
" />
    <glyph glyph-name="bracketleft.allsmall" horiz-adv-x="351" 
d="M306 -71h-214v685h214q0 -46 -8 -97h-98v-491h98q8 -51 8 -97z" />
    <glyph glyph-name="backslash.allsmall" horiz-adv-x="361" 
d="M257 -28l-233 570q32 13 85 13l228 -558q-25 -14 -80 -25z" />
    <glyph glyph-name="bracketright.allsmall" horiz-adv-x="351" 
d="M45 614h214v-685h-214q0 46 8 97h98v491h-98q-8 51 -8 97z" />
    <glyph glyph-name="asciicircum.allsmall" horiz-adv-x="494" 
d="M437 312q-54 -7 -102 -7l-89 173l-88 -173q-35 0 -101 6q54 127 117 234h145q71 -122 118 -233z" />
    <glyph glyph-name="underscore.allsmall" 
d="M441 -139h-387v84h398q0 -45 -11 -84z" />
    <glyph glyph-name="braceleft.allsmall" horiz-adv-x="338" 
d="M287 18q0 -53 -7 -84q-126 0 -172.5 22.5t-46.5 76.5q0 26 15.5 51t34 41t34 33.5t15.5 29.5q0 24 -19 30.5t-91 6.5v92q71 0 90.5 6.5t19.5 30.5q0 12 -15.5 29t-34 33t-34 41.5t-15.5 51.5q0 54 46 76.5t173 22.5q7 -35 7 -84q-80 0 -98.5 -5t-18.5 -25q0 -10 15 -26.5
t32.5 -32.5t32.5 -39t15 -44q0 -31 -21.5 -50t-80.5 -27v-6q59 -9 80.5 -28t21.5 -51q0 -21 -15 -44t-32.5 -39t-32.5 -32.5t-15 -26.5q0 -19 19.5 -24.5t97.5 -5.5z" />
    <glyph glyph-name="bar.allsmall" horiz-adv-x="260" 
d="M174 -61h-88v667h88v-667z" />
    <glyph glyph-name="braceright.allsmall" horiz-adv-x="337" 
d="M50 524q0 53 7 84q127 0 173 -22.5t46 -76.5q0 -33 -25 -63.5t-49.5 -53.5t-24.5 -38q0 -24 19.5 -30.5t90.5 -6.5v-92q-71 0 -90.5 -7t-19.5 -30q0 -12 15.5 -29t34 -33t34 -41.5t15.5 -51.5q0 -54 -46 -76.5t-173 -22.5q-7 35 -7 84q80 0 99 5t19 25q0 12 -23.5 34.5
t-47.5 51.5t-24 56q0 31 21.5 50t80.5 27v6q-59 9 -80.5 28t-21.5 51q0 27 24 56t47.5 51.5t23.5 34.5q0 19 -20 24.5t-98 5.5z" />
    <glyph glyph-name="asciitilde.small" horiz-adv-x="492" 
d="M469 351q-15 -99 -43.5 -135.5t-77.5 -36.5q-36 0 -104 42.5t-84 42.5q-19 0 -27 -17t-14 -69q-49 0 -93 17q15 99 43.5 136t77.5 37q35 0 103.5 -42.5t85.5 -42.5q19 0 26.5 16.5t14.5 69.5q52 0 92 -18z" />
    <glyph glyph-name="dagger.allsmall" 
d="M445 265h-139v-265q-52 -9 -113 -9v274h-139v107h139v173h113v-173h139v-107z" />
    <glyph glyph-name="degree.allsmall" horiz-adv-x="320" 
d="M285 429q0 -56 -34.5 -92t-90.5 -36q-59 0 -92 34t-33 92q0 57 34.5 92.5t90.5 35.5q58 0 91.5 -34t33.5 -92zM223 429q0 32 -17.5 51.5t-45.5 19.5t-45 -19.5t-17 -51.5t16.5 -52t45.5 -20q30 0 46.5 20t16.5 52z" />
    <glyph glyph-name="cent.allsmall" 
d="M440 73q-36 -17 -99 -21l3 -52h-97l2 53q-90 5 -136.5 60.5t-46.5 152.5q0 102 49.5 160.5t133.5 64.5l-2 54h97l-3 -53q48 0 93 -13q-6 -56 -21 -95q-48 15 -113 15q-61 0 -87 -29t-26 -96q0 -78 27.5 -103.5t96.5 -25.5q58 0 110 23q13 -37 19 -95z" />
    <glyph glyph-name="sterling.allsmall" 
d="M459 96q0 -48 -10 -96h-359v88q43 9 62 27t19 55q0 28 -27 76h-84v80h49q-16 34 -16 65q0 75 52 119.5t154 44.5q71 0 124 -13q0 -56 -12 -101q-46 16 -118 16q-47 0 -66.5 -15.5t-19.5 -53.5q0 -25 20 -62h182q0 -42 -10 -80h-136q22 -42 22 -66q0 -53 -53 -84h227z" />
    <glyph glyph-name="section.allsmall" 
d="M34 183q0 39 24.5 73.5t74.5 53.5q46 -20 79 -46q-33 -11 -51 -29t-18 -38q0 -25 27.5 -41.5t66.5 -26.5t78.5 -22t67 -38.5t27.5 -66.5q0 -65 -48.5 -103t-143.5 -38q-70 0 -127 12q5 60 14 89q60 -15 131 -15q64 0 64 39q0 19 -27.5 31.5t-66.5 22.5t-78 24t-66.5 44
t-27.5 75zM466 233q0 -39 -24.5 -73.5t-73.5 -53.5q-47 19 -79 46q33 11 50.5 29t17.5 38q0 25 -27.5 41.5t-66.5 26.5t-78 22t-66.5 38.5t-27.5 66.5q0 65 48.5 103t142.5 38q71 0 128 -12q-5 -55 -15 -89q-60 15 -131 15q-63 0 -63 -39q0 -19 27.5 -31.5t66.5 -22.5
t77.5 -24t66 -44t27.5 -75z" />
    <glyph glyph-name="bullet.allsmall" horiz-adv-x="352" 
d="M284 275q0 -49 -30.5 -79.5t-77.5 -30.5q-48 0 -78 30t-30 80q0 51 30 82t78 31q46 0 77 -31.5t31 -81.5z" />
    <glyph glyph-name="paragraph.allsmall" 
d="M421 125q0 -95 -34.5 -154.5t-115.5 -109.5l-36 48q70 47 95.5 94t25.5 120v356q-29 11 -71 11v-367q0 -58 -18.5 -93.5t-68.5 -69.5l-36 50q32 21 45 45t13 62v81h-11q-150 0 -150 171q0 94 52.5 140t136.5 46q90 0 173 -26v-404z" />
    <glyph glyph-name="germandbls.small" horiz-adv-x="938" 
d="M883 157q0 -79 -54.5 -123t-146.5 -44q-96 0 -158 25q7 51 25 104q65 -27 140 -27q76 0 76 56q0 24 -24.5 42.5t-60 33.5t-71 33.5t-60 53t-24.5 81.5q0 76 58.5 119.5t150.5 43.5q68 0 123 -13q-4 -66 -15 -105q-68 16 -121 16q-44 0 -60 -12.5t-16 -42.5
q0 -22 24.5 -39t59.5 -31.5t70 -33.5t59.5 -54t24.5 -83zM414 157q0 -79 -54.5 -123t-146.5 -44q-96 0 -158 25q7 51 25 104q64 -27 140 -27t76 56q0 24 -24.5 42.5t-60 33.5t-71 33.5t-60 53t-24.5 81.5q0 76 58.5 119.5t150.5 43.5q68 0 123 -13q-4 -66 -15 -105
q-68 16 -121 16q-44 0 -60 -12.5t-16 -42.5q0 -22 24.5 -39t59.5 -31.5t70 -33.5t59.5 -54t24.5 -83z" />
    <glyph glyph-name="registered.allsmall" horiz-adv-x="463" 
d="M322 261q-20 -4 -49 -4l-15 34q-13 30 -31 50h-27v-82h-44v218q37 4 76 4q77 0 77 -66q0 -21 -12 -37t-31 -22q19 -17 33 -47zM263 412q0 30 -35 30q-15 0 -28 -1v-62h23q40 0 40 33zM413 372q0 -84 -50.5 -134.5t-130.5 -50.5t-131 50.5t-51 134.5q0 81 51 132t131 51
q78 0 129.5 -50.5t51.5 -132.5zM382 370q0 70 -41.5 113.5t-108.5 43.5q-71 0 -111 -43t-40 -114q0 -68 41 -111.5t109 -43.5q69 0 110 42.5t41 112.5z" />
    <glyph glyph-name="copyright.allsmall" horiz-adv-x="671" 
d="M616 274q0 -128 -78 -206t-203 -78t-202.5 77t-77.5 207q0 125 77.5 203t202.5 78q122 0 201.5 -75.5t79.5 -205.5zM453 116q-40 -23 -102 -23q-79 0 -123 46t-44 131q0 87 46 131t117 44q62 0 98 -16q-2 -41 -10 -68q-35 16 -85 16q-41 0 -62.5 -23t-21.5 -83
t20.5 -84.5t66.5 -24.5q55 0 89 23q9 -25 11 -69zM572 272q0 111 -65.5 176.5t-171.5 65.5q-111 0 -173.5 -65.5t-62.5 -176.5q0 -108 64.5 -174.5t171.5 -66.5q109 0 173 64.5t64 176.5z" />
    <glyph glyph-name="trademark.allsmall" horiz-adv-x="782" 
d="M284 545q0 -36 -6 -72h-86v-237h-80v237h-89v72h261zM725 238q-27 -4 -75 -4l-15 160q-2 24 -2 36h-4q-4 -22 -9 -34l-64 -160h-81l-66 160q-7 18 -8 34h-5q0 -23 -2 -36l-20 -160q-35 0 -67 4q14 169 39 307h87l71 -175q8 -19 13 -45h5q6 25 14 46l66 174h88
q26 -154 35 -307z" />
    <glyph glyph-name="notequal.allsmall" horiz-adv-x="492" 
d="M431 137h-249l-72 -108h-49l72 108h-72v81h127l74 108h-201v81h256l64 97h50l-65 -97h65v-81h-120l-74 -108h194v-81z" />
    <glyph glyph-name="infinity.allsmall" horiz-adv-x="778" 
d="M224 84q-74 0 -120.5 50.5t-46.5 139.5q0 80 44.5 131t123.5 51q49 0 89 -23t78 -79q63 102 166 102q74 0 118.5 -51.5t44.5 -135.5q0 -81 -45 -133t-120 -52q-101 0 -170 102q-62 -102 -162 -102zM551 176q75 0 75 97q0 46 -21 69.5t-58 23.5q-73 0 -118 -94
q43 -96 122 -96zM235 176q73 0 114 93q-44 97 -117 97q-80 0 -80 -97q0 -93 83 -93z" />
    <glyph glyph-name="plusminus.allsmall" horiz-adv-x="455" 
d="M395 296h-127v-127h-81v127h-127v80h127v124h81v-124h127v-80zM395 45h-335v83h335v-83z" />
    <glyph glyph-name="lessequal.allsmall" horiz-adv-x="454" 
d="M378 158h-118l-190 170l190 172h117v-11l-190 -156l191 -164v-11zM394 45h-334v82h334v-82z" />
    <glyph glyph-name="greaterequal.allsmall" horiz-adv-x="455" 
d="M194 500l190 -171l-190 -171h-117v11l190 159l-191 161v11h118zM395 45h-335v82h335v-82z" />
    <glyph glyph-name="yen.allsmall" 
d="M465 540q-51 -134 -122 -270h93q0 -40 -9 -81h-119v-189h-111v189h-124v81h90q-62 114 -122 271q48 8 110 8l88 -214q10 -22 15 -46h7q6 27 15 46l88 214q51 0 101 -9z" />
    <glyph glyph-name="mu.allsmall" horiz-adv-x="590" 
d="M502 0h-114v45h-6q-62 -55 -128 -55q-34 0 -52 15v-211h-114v724q46 7 114 7v-361q0 -38 19.5 -55.5t64.5 -17.5q56 0 102 27v400q46 7 114 7v-525z" />
    <glyph glyph-name="partialdiff.allsmall" horiz-adv-x="540" 
d="M483 278q0 -288 -212 -288t-212 188q0 99 55 147.5t149 48.5q52 0 97 -12q-4 54 -35 79t-98 25q-69 0 -123 -18q0 55 7 90q48 17 128 17q54 0 95 -12t76.5 -41.5t54 -85.5t18.5 -138zM367 225q0 34 -1 51q-42 15 -92 15q-97 0 -97 -108q0 -54 22.5 -81t71.5 -27
q48 0 72 33t24 117z" />
    <glyph glyph-name="summation.allsmall" horiz-adv-x="499" 
d="M449 100q0 -35 -10 -100h-389v95l201 188l-189 168v94h370q0 -30 -8 -100h-206l142 -126v-74l-156 -145h245z" />
    <glyph glyph-name="product.allsmall" horiz-adv-x="620" 
d="M528 0h-119v440h-198v-440h-119v545h436v-545z" />
    <glyph glyph-name="pi.allsmall" horiz-adv-x="620" 
d="M528 0h-119v440h-198v-440h-119v545h436v-545z" />
    <glyph glyph-name="integral.allsmall" horiz-adv-x="322" 
d="M326 551q0 -54 -7 -102q-15 3 -52 3q-31 0 -44.5 -16t-13.5 -51v-345q0 -81 -48.5 -130t-121.5 -49q-35 0 -61 4q0 54 7 102q14 -3 52 -3q31 0 44 16t13 51v345q0 81 49 130t123 49q36 0 60 -4z" />
    <glyph glyph-name="ordfeminine.allsmall" horiz-adv-x="380" 
d="M368 221q-31 -7 -90 -7l-27 76h-129l-27 -76q-54 0 -83 7q60 177 127 324h103q63 -139 126 -324zM228 356l-34 94q-5 14 -6 35h-4q-1 -22 -7 -35l-34 -94h85z" />
    <glyph glyph-name="ordmasculine.allsmall" horiz-adv-x="380" 
d="M352 380q0 -80 -46 -124.5t-118 -44.5q-75 0 -117.5 42.5t-42.5 126.5q0 79 44.5 124.5t117.5 45.5q74 0 118 -41.5t44 -128.5zM262 380q0 98 -73 98q-71 0 -71 -98q0 -97 70 -97q74 0 74 97z" />
    <glyph glyph-name="Omega.allsmall" horiz-adv-x="624" 
d="M568 0h-228l-4 82q112 50 112 220q0 79 -34 116t-103 37q-135 0 -135 -154q0 -173 112 -219l-4 -82h-228v97h113v6q-106 67 -106 206q0 116 65 181t185 65t184 -65.5t64 -179.5q0 -136 -106 -207v-6h113v-97z" />
    <glyph glyph-name="questiondown.allsmall" horiz-adv-x="406" 
d="M39 139q0 59 40 98t125 61v54q38 7 99 11q15 -75 15 -126q-97 -18 -131 -36t-34 -51q0 -30 21 -43t71 -13q53 0 100 9q9 -59 9 -103q-49 -10 -120 -10q-195 0 -195 149zM188 489q0 32 18 49t47 17t47.5 -17t18.5 -49q0 -31 -19 -48.5t-47 -17.5t-46.5 17.5t-18.5 48.5z
" />
    <glyph glyph-name="exclamdown.allsmall" horiz-adv-x="249" 
d="M68 0q0 142 17 352q42 8 86 8q17 -220 17 -360h-120zM64 490q0 32 17 48.5t46 16.5q30 0 48 -17t18 -48q0 -32 -18.5 -49.5t-47.5 -17.5t-46 17.5t-17 49.5z" />
    <glyph glyph-name="logicalnot.allsmall" horiz-adv-x="498" 
d="M456 142q-44 -9 -91 -9v140h-330v92h421v-223z" />
    <glyph glyph-name="radical.allsmall" horiz-adv-x="523" 
d="M524 674q0 -58 -8 -99h-85l-82 -575h-118q-121 260 -214 529q56 10 112 10l130 -336q12 -25 18 -55h7q0 18 5 58l61 468h174z" />
    <glyph glyph-name="florin.allsmall" 
d="M422 551q0 -42 -7 -103q-20 4 -53 4q-74 0 -74 -78v-68h152q0 -42 -7 -98h-145v-301h-115v301h-130v98h130v59q0 88 52.5 139t134.5 51q36 0 62 -4z" />
    <glyph glyph-name="approxequal.allsmall" horiz-adv-x="496" 
d="M438 332q-41 -36 -88 -36q-34 0 -97.5 21.5t-96.5 21.5q-5 0 -7 -1q-51 -1 -91 -40v81q44 41 98 41q33 0 96 -21t97 -21q5 0 8 1q43 1 81 35v-82zM438 144q-40 -35 -88 -35q-34 0 -97.5 21.5t-96.5 21.5q-52 0 -98 -41v80q44 41 98 41q33 0 96 -21t97 -21q5 0 8 1
q46 3 81 34v-81z" />
    <glyph glyph-name="Delta.allsmall" horiz-adv-x="514" 
d="M502 0h-490q76 271 178 545h136q92 -251 176 -545zM354 101l-91 301q-5 19 -8 43h-7q-3 -24 -8 -43l-90 -301h204z" />
    <glyph glyph-name="guillemotleft.small" horiz-adv-x="495" 
d="M259 56l-93 -13l-139 220l139 220l93 -14l-122 -207zM469 56l-94 -13l-139 220l139 220l94 -14l-122 -207z" />
    <glyph glyph-name="guillemotright.small" horiz-adv-x="495" 
d="M469 262l-140 -219l-93 13l121 207l-121 206l93 14zM259 262l-139 -219l-93 13l121 207l-121 206l93 14z" />
    <glyph glyph-name="ellipsis.allsmall" horiz-adv-x="710" 
d="M178 52q0 -32 -18 -48.5t-46 -16.5q-30 0 -47.5 16.5t-17.5 48.5t18.5 49.5t47.5 17.5q27 0 45 -17.5t18 -49.5zM419 52q0 -32 -17.5 -48.5t-46.5 -16.5q-30 0 -47.5 16.5t-17.5 48.5t18.5 49.5t47.5 17.5q28 0 45.5 -17.5t17.5 -49.5zM660 52q0 -32 -17.5 -48.5
t-46.5 -16.5q-30 0 -47.5 16.5t-17.5 48.5t18.5 49.5t47.5 17.5q28 0 45.5 -17.5t17.5 -49.5z" />
    <glyph glyph-name="endash.small" 
d="M443 223h-388v84h398q0 -44 -10 -84z" />
    <glyph glyph-name="emdash.small" horiz-adv-x="1000" 
d="M929 223h-859v84h869q0 -40 -10 -84z" />
    <glyph glyph-name="quotedblleft.allsmall" horiz-adv-x="430" 
d="M236 377q0 70 27 111.5t95 65.5q22 -26 34 -62q-45 -14 -61.5 -32.5t-16.5 -50.5h40q15 -49 15 -101h-133v69zM39 377q0 70 26.5 111.5t94.5 65.5q22 -25 35 -62q-46 -14 -62.5 -32.5t-16.5 -50.5h41q14 -46 14 -101h-132v69z" />
    <glyph glyph-name="quotedblright.allsmall" horiz-adv-x="430" 
d="M194 476q0 -70 -26.5 -111.5t-94.5 -65.5q-22 25 -35 62q46 14 62.5 32.5t16.5 50.5h-41q-14 46 -14 101h132v-69zM392 476q0 -70 -27 -111.5t-95 -65.5q-20 25 -35 62q46 14 62.5 32.5t16.5 50.5h-41q-14 50 -14 101h133v-69z" />
    <glyph glyph-name="quoteleft.allsmall" horiz-adv-x="233" 
d="M39 377q0 70 26.5 111.5t94.5 65.5q22 -25 35 -62q-46 -14 -62.5 -32.5t-16.5 -50.5h41q14 -46 14 -101h-132v69z" />
    <glyph glyph-name="quoteright.allsmall" horiz-adv-x="233" 
d="M194 476q0 -70 -26.5 -111.5t-94.5 -65.5q-22 25 -35 62q46 14 62.5 32.5t16.5 50.5h-41q-14 46 -14 101h132v-69z" />
    <glyph glyph-name="divide.allsmall" horiz-adv-x="409" 
d="M269 89q0 -31 -17.5 -48t-46.5 -17t-47 17t-18 48q0 32 18.5 49.5t46.5 17.5q29 0 46.5 -17t17.5 -50zM269 458q0 -33 -17.5 -49.5t-46.5 -16.5t-47 17t-18 49t18.5 49t46.5 17q29 0 46.5 -17.5t17.5 -48.5zM350 237h-291v74h291v-74z" />
    <glyph glyph-name="lozenge.allsmall" horiz-adv-x="466" 
d="M425 224q-60 -111 -147 -234h-98q-79 113 -146 234v83q61 114 146 238h98q82 -110 147 -238v-83zM336 266l-107 183l-105 -180l107 -182z" />
    <glyph glyph-name="currency.allsmall" 
d="M378 184h-167q9 -53 33.5 -75t71.5 -22q61 0 113 25q14 -51 14 -99q-59 -23 -129 -23q-100 0 -153.5 48t-67.5 146h-46v61h41v26q0 24 1 36h-42v61h49q35 187 213 187q78 0 128 -16q-2 -54 -15 -98q-45 17 -109 17q-40 0 -64.5 -20.5t-35.5 -69.5h195q0 -30 -10 -61h-193
q-1 -13 -1 -35q0 -18 1 -27h183q0 -23 -10 -61z" />
    <glyph glyph-name="guilsinglleft.small" horiz-adv-x="285" 
d="M259 56l-93 -13l-139 220l139 220l93 -14l-122 -207z" />
    <glyph glyph-name="guilsinglright.small" horiz-adv-x="285" 
d="M259 262l-139 -219l-93 13l121 207l-121 206l93 14z" />
    <glyph glyph-name="fi.small" horiz-adv-x="779" 
d="M687 0h-119v545h119v-545zM426 545q0 -60 -7 -102h-208v-136h171v-100h-171v-207h-119v545h334z" />
    <glyph glyph-name="fl.small" horiz-adv-x="921" 
d="M896 105q0 -48 -10 -105h-318v545h119v-440h209zM426 545q0 -60 -7 -102h-208v-136h171v-100h-171v-207h-119v545h334z" />
    <glyph glyph-name="daggerdbl.allsmall" 
d="M445 114h-139v-114q-52 -9 -113 -9v123h-139v100h139v100h-139v100h139v131h113v-131h139v-100h-139v-100h139v-100z" />
    <glyph glyph-name="periodcentered.small" horiz-adv-x="228" 
d="M180 290q0 -31 -18 -48t-46 -17q-29 0 -47 17t-18 48q0 33 18 50t47 17q28 0 46 -17.5t18 -49.5z" />
    <glyph glyph-name="quotesinglbase.allsmall" horiz-adv-x="233" 
d="M194 161q0 -70 -26.5 -111.5t-94.5 -66.5q-22 27 -35 63q46 14 62.5 32t16.5 51h-41q-14 45 -14 101h132v-69z" />
    <glyph glyph-name="quotedblbase.allsmall" horiz-adv-x="430" 
d="M194 161q0 -70 -26.5 -111.5t-94.5 -66.5q-22 27 -35 63q46 14 62.5 32t16.5 51h-41q-14 45 -14 101h132v-69zM392 161q0 -70 -27 -111.5t-95 -66.5q-21 27 -35 63q46 14 62.5 32t16.5 51h-41q-14 49 -14 101h133v-69z" />
    <glyph glyph-name="perthousand.allsmall" horiz-adv-x="1072" 
d="M324 400q0 -74 -38 -115t-103 -41q-67 0 -103.5 39.5t-36.5 116.5q0 72 37 113.5t103 41.5q67 0 104 -39.5t37 -115.5zM237 399q0 45 -11 64.5t-44 19.5q-30 0 -41 -20t-11 -64t10.5 -63.5t41.5 -19.5q32 0 43.5 20t11.5 63zM533 544l-239 -555q-38 6 -70 23l233 543
q38 0 76 -11zM711 145q0 -73 -38 -114t-103 -41q-67 0 -103.5 39.5t-36.5 115.5q0 73 37 114.5t103 41.5q68 0 104.5 -39.5t36.5 -116.5zM624 144q0 45 -11 65t-44 20q-31 0 -41.5 -20t-10.5 -65q0 -43 10.5 -62.5t41.5 -19.5q32 0 43.5 19.5t11.5 62.5zM1030 145
q0 -73 -38 -114t-103 -41q-67 0 -104 39.5t-37 115.5q0 73 37 114.5t104 41.5t104 -39.5t37 -116.5zM942 144q0 46 -10.5 65.5t-43.5 19.5q-31 0 -41.5 -20t-10.5 -65q0 -43 10.5 -62.5t41.5 -19.5t42.5 19.5t11.5 62.5z" />
    <glyph glyph-name="Eth.alt" horiz-adv-x="711" 
d="M656 351q0 -171 -83 -265.5t-219 -94.5q-135 0 -230 14v293h-56v103h56v135q0 20 -6 26.5t-25 6.5h-48v37q0 78 86 78q61 0 97 -33q60 33 155 33q127 0 200 -80.5t73 -252.5zM521 340q0 129 -44.5 181t-125.5 52q-56 0 -102 -10v-162h94q0 -42 -9 -103h-85v-192
q42 -5 100 -5q87 0 129.5 58t42.5 181z" />
    <glyph glyph-name="lslash.alt" horiz-adv-x="289" 
d="M202 0h-114v306l-41 -13v105l41 14v323q59 9 114 9v-295l45 15q0 -58 -9 -109l-36 -12v-343z" />
    <glyph glyph-name="Yacute.alt" horiz-adv-x="566" 
d="M407 815q-20 -55 -83 -109q-34 0 -104 7l58 102h129zM551 668q-82 -201 -198 -421v-247h-125v247l-145 292q-9 18 -17 24t-24 6h-40v39q0 76 85 76q38 0 62.5 -19t45.5 -66l80 -177q12 -27 18 -55h9q8 32 19 57l111 255q61 0 119 -11z" />
    <glyph glyph-name="yacute.alt" horiz-adv-x="520" 
d="M499 517l-167 -501q-35 -106 -95.5 -169t-132.5 -63q-60 0 -97 19q6 57 21 105q29 -13 85 -13q50 0 75 56l21 47q-115 259 -175 519q51 8 112 8l101 -339q11 -38 15 -61h6q9 42 16 62l104 338q67 0 111 -8zM395 731q-28 -84 -93 -159q-46 0 -91 7l61 152h123z" />
    <glyph glyph-name="Zcaron.alt" horiz-adv-x="582" 
d="M550 23q0 -88 -81 -88h-24v34q0 18 -7 24.5t-26 6.5h-356l-7 95l313 469h-291q-7 66 -7 110h438l8 -95l-313 -469h255q98 0 98 -87zM444 812q-46 -77 -67 -104h-171q-27 36 -66 103q40 6 99 6l53 -69l53 69q49 0 99 -5z" />
    <glyph glyph-name="zcaron.alt" horiz-adv-x="487" 
d="M439 0h-393l-10 94l260 328h-230q-8 54 -8 100h364l11 -94l-260 -328h254q10 -43 12 -100zM73 727q54 7 101 7l67 -101l65 101q35 0 99 -6q-40 -82 -89 -153h-153q-52 72 -90 152z" />
    <glyph glyph-name="ampersand.alt" horiz-adv-x="702" 
d="M646 322q0 -162 -84.5 -247t-226.5 -85q-119 0 -189 60.5t-77 172.5h-58q0 45 7 77h53q14 105 68.5 155t137.5 50q93 0 140 -54t47 -153q0 -41 -5 -78h-274q0 -129 150 -129q101 0 152.5 54t51.5 179q0 131 -68.5 194.5t-183.5 63.5q2 60 19 102q164 0 252 -100t88 -262z
M357 328q0 50 -20 72t-62 22q-88 0 -89 -122h170q1 7 1 28z" />
    <glyph glyph-name="at.alt" horiz-adv-x="835" 
d="M482 193v240q-28 15 -64 15q-50 0 -73.5 -32t-23.5 -111q0 -76 19.5 -105t63.5 -29q45 0 78 22zM780 352q0 -121 -43 -191t-122 -70q-91 0 -118 54h-4q-54 -55 -116 -55q-156 0 -156 207q0 112 49.5 171.5t135.5 59.5q37 0 73 -11q25 10 59 10q15 0 37 -4v-311
q0 -49 48 -49q79 0 79 188q0 129 -73 194.5t-202 65.5q-140 0 -217 -79.5t-77 -229.5q0 -298 272 -298q80 0 137 25q13 -45 13 -76q-66 -23 -154 -23q-167 0 -256.5 97.5t-89.5 274.5q0 95 29.5 169t81.5 120t119.5 69.5t146.5 23.5q157 0 252.5 -87.5t95.5 -244.5z" />
    <glyph glyph-name="A.alt" horiz-adv-x="594" 
d="M579 6q-46 -11 -123 -11l-54 183h-209l-30 -103q-12 -44 -35.5 -64.5t-64.5 -20.5q-45 0 -65 19t-20 61v35h42q19 0 25.5 6t13.5 26l175 537h137q123 -368 208 -668zM372 282l-64 214q-8 28 -8 52h-8q0 -28 -7 -52l-63 -214h150z" />
    <glyph glyph-name="B.alt" horiz-adv-x="625" 
d="M426 492q0 93 -99 93q-42 0 -81 -11v-185h89q41 0 66 25t25 78zM443 199q0 47 -27 72.5t-76 25.5h-94v-203q55 -5 86 -5q111 0 111 110zM572 190q0 -102 -64 -150.5t-168 -48.5q-98 0 -216 14v531q0 20 -6 26.5t-25 6.5h-48v36q0 79 86 79q63 0 97 -34q53 34 133 34
q86 0 136 -44.5t50 -130.5q0 -57 -26.5 -97.5t-69.5 -57.5v-8q121 -33 121 -156z" />
    <glyph glyph-name="D.alt" horiz-adv-x="711" 
d="M521 340q0 129 -44.5 181t-125.5 52q-56 0 -102 -10v-457q42 -5 100 -5q87 0 129.5 58t42.5 181zM656 351q0 -171 -83 -265.5t-219 -94.5q-137 0 -230 14v531q0 20 -6 26.5t-25 6.5h-48v36q0 79 86 79q61 0 97 -33q60 33 155 33q127 0 200 -80.5t73 -252.5z" />
    <glyph glyph-name="H.alt" horiz-adv-x="722" 
d="M681 70q0 -80 -97 -80q-109 0 -109 125v180h-258v-295h-125v674h125v-267h258v267h125v-535q0 -20 6.5 -27t26.5 -7h48v-35z" />
    <glyph glyph-name="J.alt" horiz-adv-x="354" 
d="M262 80q0 -224 -203 -241q-17 48 -21 114q55 5 77 28.5t22 78.5v475q0 20 -6.5 27t-25.5 7h-48v32q0 83 98 83q107 0 107 -123v-481z" />
    <glyph glyph-name="K.alt" horiz-adv-x="633" 
d="M603 65q0 -75 -74 -75q-42 0 -67 18t-49 67l-115 234l-83 -98v-211h-123v674h123v-318h6q60 96 134 189l108 134q75 0 129 -14l-215 -261l139 -268q16 -31 53 -31h34v-40z" />
    <glyph glyph-name="M.alt" horiz-adv-x="884" 
d="M811 5q-48 -9 -120 -9l-31 435q-1 14 -1 71h-8q-4 -40 -14 -71l-129 -431h-118l-133 431q-10 35 -12 71h-9q0 -45 -2 -71l-28 -324q-5 -65 -27 -91t-70 -26q-46 0 -68 18.5t-22 61.5v35h45q18 0 24.5 6.5t8.5 24.5l57 538h141l141 -453q8 -28 14 -78h8q4 47 13 79
l136 452h144q41 -371 60 -669z" />
    <glyph glyph-name="N.alt" horiz-adv-x="723" 
d="M631 4q-56 -9 -117 -9l-244 429q-20 36 -32 76l-9 -1q5 -58 5 -78v-312q0 -63 -26.5 -91t-77.5 -28q-45 0 -67 18.5t-22 61.5v35h48q19 0 26 7t7 27v528q57 9 130 9l231 -406q19 -34 32 -76l9 1q-5 47 -5 81v398h112v-670z" />
    <glyph glyph-name="P.alt" horiz-adv-x="627" 
d="M434 455q0 69 -27.5 97.5t-78.5 28.5q-37 0 -80 -9v-243h66q56 0 88 31t32 95zM559 459q0 -116 -67 -174t-166 -58h-78v-227h-124v536q0 20 -6 26.5t-25 6.5h-48v36q0 79 86 79q61 0 97 -33q51 33 129 33q89 0 145.5 -55.5t56.5 -169.5z" />
    <glyph glyph-name="Q.alt" horiz-adv-x="678" 
d="M935 -113l-48 -96q-77 46 -139 46q-34 0 -138 -20t-134 -20q-84 0 -137.5 51t-54.5 148q-229 33 -229 337q0 171 76 261t208 90q136 0 210 -85.5t74 -261.5q0 -151 -58 -236.5t-167 -100.5q0 -47 24 -71t67 -24q27 0 122.5 21.5t138.5 21.5q47 0 87.5 -11.5t97.5 -49.5z
M489 336q0 133 -37 187t-113 54q-78 0 -114 -53.5t-36 -187.5q0 -128 35.5 -183.5t114.5 -55.5q80 0 115 54t35 185z" />
    <glyph glyph-name="R.alt" horiz-adv-x="647" 
d="M431 476q0 56 -26.5 80t-77.5 24q-45 0 -81 -10v-214h68q59 0 88 27.5t29 92.5zM620 65q0 -75 -78 -75q-38 0 -62.5 18t-50.5 67l-100 186h-83v-261h-122v536q0 20 -6 26.5t-25 6.5h-48v36q0 79 86 79q64 0 97 -33q52 33 124 33q90 0 147.5 -50.5t57.5 -149.5
q0 -69 -30.5 -118t-85.5 -68l92 -162q11 -19 20 -25t28 -6h39v-40z" />
    <glyph glyph-name="T.alt" horiz-adv-x="531" 
d="M506 674q0 -53 -10 -110h-155v-564h-125v564h-83q-20 0 -27 -6.5t-7 -25.5v-41h-23q-82 0 -82 88q0 46 27.5 70.5t74.5 24.5h410z" />
    <glyph glyph-name="U.alt" horiz-adv-x="705" 
d="M616 257q0 -267 -252 -267q-125 0 -188 61.5t-63 205.5v278q0 20 -7 27t-26 7h-48v32q0 83 97 83q109 0 109 -124v-305q0 -86 28 -118.5t101 -32.5q70 0 100.5 34t30.5 117v419h118v-417z" />
    <glyph glyph-name="V.alt" horiz-adv-x="602" 
d="M577 668q-87 -332 -204 -668h-139l-166 537q-6 18 -14.5 25t-26.5 7h-40v39q0 76 85 76q43 0 70 -20.5t41 -70.5l111 -398q8 -30 11 -55h9q2 32 10 55l136 484q70 0 117 -11z" />
    <glyph glyph-name="W.alt" horiz-adv-x="943" 
d="M885 668q-50 -298 -139 -668h-132l-124 436q-8 25 -11 69h-9q-1 -37 -11 -70l-119 -435h-133l-114 537q-4 19 -12.5 25.5t-26.5 6.5h-42v39q0 76 85 76q96 0 112 -91l66 -358q6 -28 8 -70h9q3 30 13 68l121 441h115l116 -442q10 -36 13 -67h9q2 37 8 67l88 447
q60 0 110 -11z" />
    <glyph glyph-name="X.alt" horiz-adv-x="635" 
d="M603 6q-65 -12 -142 -12l-124 227q-10 18 -21 49h-8q-11 -31 -20 -48l-84 -155q-23 -43 -46 -60t-58 -17q-43 0 -63 19t-20 61v35h46q16 0 25 6t20 25l122 211l-184 321q69 11 143 11l116 -212q7 -13 18 -43h8q8 25 19 45l110 210q67 0 133 -11l-184 -318z" />
    <glyph glyph-name="Y.alt" horiz-adv-x="566" 
d="M551 668q-82 -201 -198 -421v-247h-125v247l-145 292q-9 18 -17 24t-24 6h-40v39q0 76 85 76q38 0 62.5 -19t45.5 -66l80 -177q12 -27 18 -55h9q8 32 19 57l111 255q61 0 119 -11z" />
    <glyph glyph-name="Z.alt" horiz-adv-x="582" 
d="M550 23q0 -88 -81 -88h-24v34q0 18 -7 24.5t-26 6.5h-356l-7 95l313 469h-291q-7 66 -7 110h438l8 -95l-313 -469h255q98 0 98 -87z" />
    <glyph glyph-name="underscore.alt" 
d="M441 -139h-387v84h398q0 -45 -11 -84z" />
    <glyph glyph-name="a.alt" horiz-adv-x="581" 
d="M369 116v297q-32 19 -77 19q-62 0 -89.5 -39t-27.5 -136q0 -95 23 -130.5t77 -35.5q55 0 94 25zM484 526v-388q0 -19 7 -26.5t24 -7.5h54v-37q0 -77 -81 -77q-76 0 -101 69h-3q-62 -69 -144 -69q-187 0 -187 255q0 144 61 215.5t167 71.5q44 0 88 -14q27 12 71 12
q18 0 44 -4z" />
    <glyph glyph-name="d.alt" horiz-adv-x="588" 
d="M377 117v296q-35 21 -85 21q-61 0 -89 -39.5t-28 -137.5q0 -95 23 -130.5t77 -35.5q62 0 102 26zM576 67q0 -77 -80 -77q-78 0 -102 70h-4q-64 -70 -153 -70q-90 0 -137 65.5t-47 190.5q0 147 61 216.5t167 69.5q49 0 96 -15v219q64 8 114 8v-604q0 -20 6.5 -28t23.5 -8
h55v-37z" />
    <glyph glyph-name="f.alt" horiz-adv-x="360" 
d="M337 740q0 -54 -7 -102q-15 3 -52 3q-30 0 -43 -15t-13 -49v-55h114q0 -47 -8 -100h-106v-441q0 -84 -44 -140.5t-124 -56.5q-30 0 -60 5q0 51 6 102q20 -4 52 -4q56 0 56 64v471h-60v100h60v46q0 80 47.5 128t120.5 48q37 0 61 -4z" />
    <glyph glyph-name="g.alt" horiz-adv-x="535" 
d="M502 555h-36q-35 0 -52 -15t-20 -51q56 -49 56 -143q0 -84 -49 -128.5t-131 -44.5q-39 0 -70 9q-24 -35 -24 -56q0 -24 28 -24h145q75 0 113.5 -31t38.5 -108q0 -83 -59 -131t-176 -48q-216 0 -216 139q0 58 53 101q-25 42 -34 75q10 40 56 117q-58 42 -58 133
q0 83 49.5 133t137.5 50q34 0 57 -7q8 62 42.5 95t87.5 33q61 0 61 -61v-37zM393 -46q0 28 -11 37t-38 9h-168q-19 -22 -19 -53q0 -39 24.5 -54t87.5 -15t93.5 17t30.5 59zM342 353q0 50 -20 71.5t-63 21.5q-81 0 -81 -93q0 -49 20 -71.5t61 -22.5q42 0 62.5 22t20.5 72z
" />
    <glyph glyph-name="h.alt" horiz-adv-x="587" 
d="M503 0h-114v361q0 34 -16.5 52t-61.5 18q-60 0 -109 -34v-397h-114v736q64 8 114 8v-271h6q66 59 144 59q70 0 110.5 -39.5t40.5 -120.5v-372z" />
    <glyph glyph-name="i.alt" horiz-adv-x="289" 
d="M210 661q0 -29 -17 -48t-49 -19q-31 0 -47.5 19.5t-16.5 47.5t17 48.5t48 20.5t48 -20t17 -49zM202 0h-114v522h114v-522z" />
    <glyph glyph-name="k.alt" horiz-adv-x="528" 
d="M510 5q-52 -10 -120 -10l-129 237l-59 -68v-164h-114v736q64 8 114 8v-445h6q48 75 106 142l78 90q71 -4 115 -20l-170 -193q85 -140 173 -313z" />
    <glyph glyph-name="l.alt" horiz-adv-x="289" 
d="M202 0h-114v736q64 8 114 8v-744z" />
    <glyph glyph-name="m.alt" horiz-adv-x="848" 
d="M764 0h-114v362q0 69 -71 69q-53 0 -96 -34v-397h-114v361q0 35 -16 52.5t-53 17.5q-52 0 -98 -34v-397h-114v518q56 7 114 7v-52h6q36 32 66.5 45.5t68.5 13.5q86 0 117 -68q68 68 153 68q69 0 110 -39t41 -121v-372z" />
    <glyph glyph-name="n.alt" horiz-adv-x="587" 
d="M503 0h-114v361q0 36 -17.5 53t-60.5 17q-60 0 -109 -34v-397h-114v518q56 7 114 7v-52h6q64 59 144 59q67 0 109 -38.5t42 -122.5v-371z" />
    <glyph glyph-name="u.alt" horiz-adv-x="586" 
d="M499 0h-114v45h-6q-66 -55 -143 -55q-66 0 -108.5 38.5t-42.5 122.5v367q46 7 114 7v-361q0 -37 19 -55t65 -18q54 0 102 27v400q46 7 114 7v-525z" />
    <glyph glyph-name="v.alt" horiz-adv-x="506" 
d="M486 518q-62 -232 -173 -518h-123q-104 264 -170 518q56 7 115 7l106 -340q9 -32 12 -63h6q6 39 14 65l104 338q64 0 109 -7z" />
    <glyph glyph-name="w.alt" horiz-adv-x="797" 
d="M748 517q-43 -266 -118 -517h-115l-103 331q-10 26 -13 61h-6q-3 -26 -14 -62l-100 -330h-115q-70 231 -115 518q58 7 111 7l62 -326q6 -26 10 -68h6q3 33 14 69l96 322h110l96 -321q6 -19 16 -69h6q2 36 9 70l62 323q51 0 101 -8z" />
    <glyph glyph-name="x.alt" horiz-adv-x="525" 
d="M505 5q-60 -9 -133 -9l-95 166q-9 15 -17 43h-6q-9 -28 -18 -43l-94 -166q-59 0 -122 9l164 277l-156 236q60 7 133 7l89 -152q14 -27 18 -46h6q9 30 18 47l86 151q69 0 122 -7l-159 -251z" />
    <glyph glyph-name="y.alt" horiz-adv-x="520" 
d="M499 517l-167 -501q-35 -106 -95.5 -169t-132.5 -63q-60 0 -97 19q6 57 21 105q29 -13 85 -13q50 0 75 56l21 47q-115 259 -175 519q51 8 112 8l101 -339q11 -38 15 -61h6q9 42 16 62l104 338q67 0 111 -8z" />
    <glyph glyph-name="z.alt" horiz-adv-x="487" 
d="M439 0h-393l-10 94l260 328h-230q-8 54 -8 100h364l11 -94l-260 -328h254q10 -43 12 -100z" />
    <glyph glyph-name="Adieresis.alt" horiz-adv-x="594" 
d="M268 761q0 -23 -16 -38.5t-43 -15.5t-42.5 15.5t-15.5 38.5t15.5 38.5t42.5 15.5t43 -15t16 -39zM452 761q0 -23 -16 -38.5t-44 -15.5q-27 0 -42 15.5t-15 38.5t15 38.5t42 15.5q28 0 44 -15t16 -39zM579 6q-46 -11 -123 -11l-54 183h-209l-30 -103q-12 -44 -35.5 -64.5
t-64.5 -20.5q-45 0 -65 19t-20 61v35h42q19 0 25.5 6t13.5 26l175 537h137q123 -368 208 -668zM372 282l-64 214q-8 28 -8 52h-8q0 -28 -7 -52l-63 -214h150z" />
    <glyph glyph-name="Aring.alt" horiz-adv-x="594" 
d="M579 6q-52 -11 -122 -11l-55 183h-209l-30 -103q-13 -44 -36 -64.5t-64 -20.5q-45 0 -65 19t-20 61v35h42q19 0 25.5 6t13.5 26l174 532q-51 21 -51 82q0 44 31.5 69.5t92.5 25.5q122 0 122 -95q0 -64 -56 -82q117 -347 207 -663zM372 282l-64 214q-8 28 -8 52h-8
q0 -28 -7 -52l-63 -214h150zM347 752q0 40 -41 40q-43 0 -43 -40q0 -41 41 -41q43 0 43 41z" />
    <glyph glyph-name="Ntilde.alt" horiz-adv-x="723" 
d="M215 717q13 60 35 83t60 23q23 0 65.5 -18t55.5 -18q17 0 24.5 7t10.5 33q47 -2 77 -13q-9 -61 -31 -83.5t-59 -22.5q-24 0 -68.5 17.5t-55.5 17.5q-33 0 -37 -40q-43 0 -77 14zM631 4q-56 -9 -117 -9l-244 429q-20 36 -32 76l-9 -1q5 -58 5 -78v-312q0 -63 -26.5 -91
t-77.5 -28q-45 0 -67 18.5t-22 61.5v35h48q19 0 26 7t7 27v528q57 9 130 9l231 -406q19 -34 32 -76l9 1q-5 47 -5 81v398h112v-670z" />
    <glyph glyph-name="Udieresis.alt" horiz-adv-x="705" 
d="M306 761q0 -23 -16 -38.5t-43 -15.5t-42.5 15.5t-15.5 38.5t15.5 38.5t42.5 15.5t43 -15t16 -39zM490 761q0 -23 -16 -38.5t-44 -15.5q-27 0 -42 15.5t-15 38.5t15 38.5t42 15.5q28 0 44 -15t16 -39zM616 257q0 -267 -252 -267q-125 0 -188 61.5t-63 205.5v278
q0 20 -7 27t-26 7h-48v32q0 83 97 83q109 0 109 -124v-305q0 -86 28 -118.5t101 -32.5q70 0 100.5 34t30.5 117v419h118v-417z" />
    <glyph glyph-name="aacute.alt" horiz-adv-x="581" 
d="M369 116v297q-32 19 -77 19q-62 0 -89.5 -39t-27.5 -136q0 -95 23 -130.5t77 -35.5q55 0 94 25zM484 526v-386q0 -20 6.5 -28t23.5 -8h59v-37q0 -77 -84 -77q-77 0 -102 69h-3q-65 -69 -141 -69q-190 0 -190 256q0 138 61.5 212t166.5 74q44 0 88 -14q27 12 71 12
q18 0 44 -4zM426 731q-28 -84 -93 -159q-45 0 -91 7l61 152h123z" />
    <glyph glyph-name="agrave.alt" horiz-adv-x="581" 
d="M369 116v297q-32 19 -77 19q-62 0 -89.5 -39t-27.5 -136q0 -95 23 -130.5t77 -35.5q55 0 94 25zM484 526v-386q0 -20 6.5 -28t23.5 -8h59v-37q0 -77 -84 -77q-77 0 -102 69h-3q-65 -69 -141 -69q-190 0 -190 256q0 138 61.5 212t166.5 74q44 0 88 -14q27 12 71 12
q18 0 44 -4zM347 579q-45 -7 -91 -7q-67 77 -93 159h123z" />
    <glyph glyph-name="acircumflex.alt" horiz-adv-x="581" 
d="M369 116v297q-32 19 -77 19q-62 0 -89.5 -39t-27.5 -136q0 -95 23 -130.5t77 -35.5q55 0 94 25zM484 526v-386q0 -20 6.5 -28t23.5 -8h59v-37q0 -77 -84 -77q-77 0 -102 69h-3q-65 -69 -141 -69q-190 0 -190 256q0 138 61.5 212t166.5 74q44 0 88 -14q27 12 71 12
q18 0 44 -4zM468 579q-45 -7 -102 -7l-67 100l-64 -100q-52 0 -100 6q40 82 89 153h153q47 -66 91 -152z" />
    <glyph glyph-name="adieresis.alt" horiz-adv-x="581" 
d="M369 116v297q-32 19 -77 19q-62 0 -89.5 -39t-27.5 -136q0 -95 23 -130.5t77 -35.5q55 0 94 25zM484 526v-386q0 -20 6.5 -28t23.5 -8h59v-37q0 -77 -84 -77q-77 0 -102 69h-3q-65 -69 -141 -69q-190 0 -190 256q0 138 61.5 212t166.5 74q44 0 88 -14q27 12 71 12
q18 0 44 -4zM270 643q0 -29 -16.5 -46.5t-46.5 -17.5q-29 0 -45 18t-16 46t16 46.5t46 18.5t46 -18.5t16 -46.5zM456 643q0 -29 -16 -46.5t-46 -17.5q-29 0 -45.5 18t-16.5 46t16.5 46.5t46.5 18.5q29 0 45 -18.5t16 -46.5z" />
    <glyph glyph-name="atilde.alt" horiz-adv-x="581" 
d="M369 116v297q-32 19 -77 19q-62 0 -89.5 -39t-27.5 -136q0 -95 23 -130.5t77 -35.5q55 0 94 25zM484 526v-386q0 -20 6.5 -28t23.5 -8h59v-37q0 -77 -84 -77q-77 0 -102 69h-3q-65 -69 -141 -69q-190 0 -190 256q0 138 61.5 212t166.5 74q44 0 88 -14q27 12 71 12
q18 0 44 -4zM117 587q18 82 42.5 107t68.5 25q27 0 51 -13l53 -29q18 -10 32 -10q15 0 21.5 10.5t14.5 48.5q39 0 83 -17q-19 -82 -43 -107.5t-66 -25.5q-26 0 -54 14l-50 27q-22 11 -33 11q-17 0 -23.5 -10.5t-13.5 -47.5q-39 0 -83 17z" />
    <glyph glyph-name="aring.alt" horiz-adv-x="585" 
d="M369 116v297q-32 19 -77 19q-62 0 -89.5 -39t-27.5 -136q0 -95 23 -130.5t77 -35.5q55 0 94 25zM484 526v-386q0 -20 6.5 -28t23.5 -8h59v-37q0 -77 -84 -77q-77 0 -102 69h-3q-65 -69 -141 -69q-190 0 -190 256q0 138 61.5 212t166.5 74q44 0 88 -14q27 12 71 12
q18 0 44 -4zM425 669q0 -44 -32.5 -71.5t-89.5 -27.5q-62 0 -93 26.5t-31 72.5q0 45 32 73t92 28q122 0 122 -101zM344 670q0 44 -41 44q-43 0 -43 -44q0 -45 41 -45q43 0 43 45z" />
    <glyph glyph-name="iacute.alt" horiz-adv-x="289" 
d="M202 0h-114v522h114v-522zM277 731q-28 -84 -93 -159q-46 0 -91 7l61 152h123z" />
    <glyph glyph-name="igrave.alt" horiz-adv-x="289" 
d="M202 0h-114v522h114v-522zM197 579q-46 -7 -91 -7q-67 77 -93 159h123z" />
    <glyph glyph-name="icircumflex.alt" horiz-adv-x="289" 
d="M202 0h-114v522h114v-522zM311 579q-45 -7 -102 -7l-67 100l-64 -100q-52 0 -100 6q40 82 89 153h153q47 -66 91 -152z" />
    <glyph glyph-name="idieresis.alt" horiz-adv-x="289" 
d="M202 0h-114v522h114v-522zM114 643q0 -29 -16.5 -46.5t-46.5 -17.5q-29 0 -45 18t-16 46t16 46.5t46 18.5t46 -18.5t16 -46.5zM300 643q0 -29 -16 -46.5t-46 -17.5q-29 0 -45.5 18t-16.5 46t16.5 46.5t46.5 18.5q29 0 45 -18.5t16 -46.5z" />
    <glyph glyph-name="ntilde.alt" horiz-adv-x="587" 
d="M503 0h-114v361q0 36 -17.5 53t-60.5 17q-60 0 -109 -34v-397h-114v518q56 7 114 7v-52h6q64 59 144 59q67 0 109 -38.5t42 -122.5v-371zM119 587q18 82 42.5 107t68.5 25q27 0 51 -13l53 -29q18 -10 32 -10q15 0 21.5 10.5t14.5 48.5q39 0 83 -17q-19 -82 -43 -107.5
t-66 -25.5q-26 0 -54 14l-50 27q-22 11 -33 11q-17 0 -23.5 -10.5t-13.5 -47.5q-39 0 -83 17z" />
    <glyph glyph-name="uacute.alt" horiz-adv-x="586" 
d="M499 0h-114v45h-6q-66 -55 -143 -55q-66 0 -108.5 38.5t-42.5 122.5v367q46 7 114 7v-361q0 -37 19 -55t65 -18q54 0 102 27v400q46 7 114 7v-525zM430 731q-28 -84 -93 -159q-45 0 -91 7l61 152h123z" />
    <glyph glyph-name="ugrave.alt" horiz-adv-x="586" 
d="M499 0h-114v45h-6q-66 -55 -143 -55q-66 0 -108.5 38.5t-42.5 122.5v367q46 7 114 7v-361q0 -37 19 -55t65 -18q54 0 102 27v400q46 7 114 7v-525zM347 579q-45 -7 -91 -7q-67 77 -93 159h123z" />
    <glyph glyph-name="ucircumflex.alt" horiz-adv-x="586" 
d="M499 0h-114v45h-6q-66 -55 -143 -55q-66 0 -108.5 38.5t-42.5 122.5v367q46 7 114 7v-361q0 -37 19 -55t65 -18q54 0 102 27v400q46 7 114 7v-525zM461 579q-45 -7 -102 -7l-67 100l-64 -100q-52 0 -100 6q40 82 89 153h153q47 -66 91 -152z" />
    <glyph glyph-name="udieresis.alt" horiz-adv-x="586" 
d="M499 0h-114v45h-6q-66 -55 -143 -55q-66 0 -108.5 38.5t-42.5 122.5v367q46 7 114 7v-361q0 -37 19 -55t65 -18q54 0 102 27v400q46 7 114 7v-525zM261 643q0 -29 -16.5 -46.5t-46.5 -17.5q-29 0 -45 18t-16 46t16 46.5t46 18.5t46 -18.5t16 -46.5zM447 643
q0 -29 -16 -46.5t-46 -17.5q-29 0 -45.5 18t-16.5 46t16.5 46.5t46.5 18.5q29 0 45 -18.5t16 -46.5z" />
    <glyph glyph-name="dagger.alt" horiz-adv-x="522" 
d="M480 391h-162v-390q-49 -10 -114 -10v400h-162v108h162v175h114v-175h162v-108z" />
    <glyph glyph-name="Agrave.alt" horiz-adv-x="594" 
d="M299 815l58 -102q-70 -7 -104 -7q-62 53 -84 109h130zM579 6q-46 -11 -123 -11l-54 183h-209l-30 -103q-12 -44 -35.5 -64.5t-64.5 -20.5q-45 0 -65 19t-20 61v35h42q19 0 25.5 6t13.5 26l175 537h137q123 -368 208 -668zM372 282l-64 214q-8 28 -8 52h-8q0 -28 -7 -52
l-63 -214h150z" />
    <glyph glyph-name="Atilde.alt" horiz-adv-x="594" 
d="M128 717q13 60 35 83t60 23q23 0 65.5 -18t55.5 -18q17 0 24.5 7t10.5 33q47 -2 77 -13q-9 -61 -31 -83.5t-59 -22.5q-24 0 -68.5 17.5t-55.5 17.5q-33 0 -37 -40q-43 0 -77 14zM579 6q-46 -11 -123 -11l-54 183h-209l-30 -103q-12 -44 -35.5 -64.5t-64.5 -20.5
q-45 0 -65 19t-20 61v35h42q19 0 25.5 6t13.5 26l175 537h137q123 -368 208 -668zM372 282l-64 214q-8 28 -8 52h-8q0 -28 -7 -52l-63 -214h150z" />
    <glyph glyph-name="ydieresis.alt" horiz-adv-x="520" 
d="M499 517l-167 -501q-35 -106 -95.5 -169t-132.5 -63q-60 0 -97 19q6 57 21 105q29 -13 85 -13q50 0 75 56l21 47q-115 259 -175 519q51 8 112 8l101 -339q11 -38 15 -61h6q9 42 16 62l104 338q67 0 111 -8zM239 643q0 -29 -16.5 -46.5t-46.5 -17.5q-29 0 -45 18t-16 46
t16 46.5t46 18.5t46 -18.5t16 -46.5zM425 643q0 -29 -16 -46.5t-46 -17.5q-29 0 -45.5 18t-16.5 46t16.5 46.5t46.5 18.5q29 0 45 -18.5t16 -46.5z" />
    <glyph glyph-name="Ydieresis.alt" horiz-adv-x="566" 
d="M253 761q0 -23 -16 -38.5t-43 -15.5q-28 0 -43 15.5t-15 38.5t15 38.5t43 15.5q27 0 43 -15t16 -39zM437 761q0 -23 -16 -38.5t-44 -15.5q-27 0 -42 15.5t-15 38.5t15 38.5t42 15.5q28 0 44 -15t16 -39zM551 668q-82 -201 -198 -421v-247h-125v247l-145 292q-9 18 -17 24
t-24 6h-40v39q0 76 85 76q38 0 62.5 -19t45.5 -66l80 -177q12 -27 18 -55h9q8 32 19 57l111 255q61 0 119 -11z" />
    <glyph glyph-name="fi.alt" horiz-adv-x="620" 
d="M533 0h-114v422h-197v-441q0 -84 -44 -140.5t-124 -56.5q-30 0 -60 5q0 51 6 102q20 -4 52 -4q56 0 56 64v471h-60v100h60v47q0 80 48.5 127.5t119.5 47.5q37 0 61 -4q0 -54 -7 -102q-16 3 -52 3q-30 0 -43 -15t-13 -48v-56h311v-522zM541 661q0 -29 -17 -48t-48 -19
t-48 19.5t-17 47.5q0 29 17 49t49 20q31 0 47.5 -20t16.5 -49z" />
    <glyph glyph-name="fl.alt" horiz-adv-x="626" 
d="M539 0h-114v637q-63 9 -119 9q-46 0 -65 -14.5t-19 -47.5v-62h108q0 -47 -8 -100h-100v-441q0 -84 -44 -140.5t-124 -56.5q-30 0 -60 5q0 51 6 102q20 -4 52 -4q56 0 56 64v471h-60v100h60v53q0 82 54.5 125.5t148.5 43.5q120 0 228 -20v-724z" />
    <glyph glyph-name="daggerdbl.alt" horiz-adv-x="522" 
d="M480 159h-162v-158q-49 -10 -114 -10v168h-162v108h162v135h-162v109h162v163h114v-163h162v-109h-162v-135h162v-108z" />
    <glyph glyph-name="Acircumflex.alt" horiz-adv-x="594" 
d="M455 711q-41 -6 -99 -6l-52 70l-53 -70q-49 0 -99 5q38 67 67 105h171q31 -42 65 -104zM579 6q-46 -11 -123 -11l-54 183h-209l-30 -103q-12 -44 -35.5 -64.5t-64.5 -20.5q-45 0 -65 19t-20 61v35h42q19 0 25.5 6t13.5 26l175 537h137q123 -368 208 -668zM372 282
l-64 214q-8 28 -8 52h-8q0 -28 -7 -52l-63 -214h150z" />
    <glyph glyph-name="Aacute.alt" horiz-adv-x="594" 
d="M429 815q-20 -55 -83 -109q-34 0 -104 7l58 102h129zM579 6q-46 -11 -123 -11l-54 183h-209l-30 -103q-12 -44 -35.5 -64.5t-64.5 -20.5q-45 0 -65 19t-20 61v35h42q19 0 25.5 6t13.5 26l175 537h137q123 -368 208 -668zM372 282l-64 214q-8 28 -8 52h-8q0 -28 -7 -52
l-63 -214h150z" />
    <glyph glyph-name="Uacute.alt" horiz-adv-x="705" 
d="M465 815q-20 -55 -83 -109q-34 0 -104 7l58 102h129zM616 257q0 -267 -252 -267q-125 0 -188 61.5t-63 205.5v278q0 20 -7 27t-26 7h-48v32q0 83 97 83q109 0 109 -124v-305q0 -86 28 -118.5t101 -32.5q70 0 100.5 34t30.5 117v419h118v-417z" />
    <glyph glyph-name="Ucircumflex.alt" horiz-adv-x="705" 
d="M498 711q-41 -6 -99 -6l-52 70l-53 -70q-49 0 -99 5q38 67 67 105h171q31 -42 65 -104zM616 257q0 -267 -252 -267q-125 0 -188 61.5t-63 205.5v278q0 20 -7 27t-26 7h-48v32q0 83 97 83q109 0 109 -124v-305q0 -86 28 -118.5t101 -32.5q70 0 100.5 34t30.5 117v419h118
v-417z" />
    <glyph glyph-name="Ugrave.alt" horiz-adv-x="705" 
d="M351 815l58 -102q-70 -7 -104 -7q-62 53 -84 109h130zM616 257q0 -267 -252 -267q-125 0 -188 61.5t-63 205.5v278q0 20 -7 27t-26 7h-48v32q0 83 97 83q109 0 109 -124v-305q0 -86 28 -118.5t101 -32.5q70 0 100.5 34t30.5 117v419h118v-417z" />
    <glyph glyph-name="dotlessi.alt" horiz-adv-x="289" 
d="M202 0h-114v522h114v-522z" />
    <glyph glyph-name="zero.oprp" 
d="M461 273q0 -136 -55.5 -209.5t-155.5 -73.5q-99 0 -155 68.5t-56 214.5q0 140 57.5 211t153.5 71q211 0 211 -282zM344 273q0 95 -19.5 137.5t-74.5 42.5q-53 0 -73.5 -42.5t-20.5 -137.5q0 -98 20 -140t74 -42q53 0 73.5 44t20.5 138z" />
    <glyph glyph-name="one.oprp" horiz-adv-x="470" 
d="M424 0h-364v109h140v326l-134 -21q-12 48 -12 98l150 33h105v-436h124q0 -61 -9 -109z" />
    <glyph glyph-name="two.oprp" 
d="M450 109q0 -57 -7 -109h-370l-6 95q129 88 181.5 149t52.5 117q0 85 -87 85q-74 0 -120 -25q-16 56 -20 107q70 27 148 27q93 0 147.5 -45.5t54.5 -133.5q0 -70 -46.5 -134.5t-143.5 -132.5h216z" />
    <glyph glyph-name="three.oprp" 
d="M440 64q0 -100 -68 -151.5t-172 -51.5q-87 0 -158 30q7 65 22 111q63 -31 137 -31q112 0 112 98q0 52 -27 72.5t-79 20.5h-97v108h100q54 0 76.5 22.5t22.5 69.5q0 83 -102 83q-68 0 -131 -25q-15 60 -16 110q79 25 156 25q97 0 156.5 -44.5t59.5 -133.5q0 -54 -28 -94
t-77 -57v-7q54 -16 83.5 -56t29.5 -99z" />
    <glyph glyph-name="four.oprp" 
d="M471 133q0 -57 -9 -105h-50v-157h-115v157h-267v112q99 230 205 415q53 -5 100 -21l-198 -401h163v161h112v-161h59z" />
    <glyph glyph-name="five.oprp" 
d="M446 78q0 -96 -66.5 -156.5t-166.5 -60.5q-73 0 -143 25q6 53 20 107q51 -21 129 -21q108 0 108 102q0 99 -146 99q-61 0 -103 -2q5 190 30 374h326q0 -45 -9 -110h-224l-13 -156q71 0 126 -17t93.5 -64t38.5 -120z" />
    <glyph glyph-name="six.oprp" 
d="M455 226q0 -113 -55.5 -174.5t-148.5 -61.5q-103 0 -154.5 71t-51.5 240q0 193 65.5 288t187.5 95q77 0 122 -14q-6 -60 -16 -108q-46 13 -106 13q-66 0 -101 -45t-39 -151h6q41 54 118 54t125 -51t48 -156zM344 223q0 117 -92 117q-47 0 -69.5 -29.5t-22.5 -92.5
q0 -128 88 -128q96 0 96 133z" />
    <glyph glyph-name="seven.oprp" horiz-adv-x="480" 
d="M437 442q-143 -326 -285 -578q-71 6 -110 19l276 553h-271q-6 54 -6 109h396v-103z" />
    <glyph glyph-name="eight.oprp" 
d="M460 183q0 -91 -57.5 -142t-159.5 -51q-93 0 -148 45t-55 135q0 109 110 169q-100 59 -100 162q0 88 55 135.5t146 47.5q92 0 145 -44t53 -128q0 -93 -105 -153q116 -64 116 -176zM331 505q0 40 -21.5 62t-61.5 22t-61 -21.5t-21 -61.5q0 -79 88 -113q36 16 56.5 46.5
t20.5 65.5zM340 185q0 80 -100 117q-38 -15 -60 -47t-22 -72q0 -96 90 -96q92 0 92 98z" />
    <glyph glyph-name="nine.oprp" 
d="M45 319q0 113 55.5 174.5t148.5 61.5q103 0 154.5 -71t51.5 -240q0 -193 -65.5 -288t-187.5 -95q-77 0 -122 14q6 60 16 108q46 -13 106 -13q66 0 101 45t39 151h-6q-41 -54 -118 -54t-125 51t-48 156zM156 322q0 -117 92 -117q47 0 69.5 29.5t22.5 92.5q0 128 -88 128
q-96 0 -96 -133z" />
    <glyph glyph-name="orn.001" horiz-adv-x="1000" 
d="M940 222h-633q-49 0 -116 5v-4l161 -162q-34 -37 -80 -63q-102 98 -212 225v100q110 127 212 225q43 -24 80 -63l-161 -162v-4q50 5 116 5h633v-102z" />
    <glyph glyph-name="orn.002" horiz-adv-x="659" 
d="M607 6q-99 -103 -225 -212h-105q-118 103 -225 212q24 43 63 80l162 -161h4q-4 53 -4 116v703h105v-703q0 -63 -4 -116h4l162 161q35 -33 63 -80z" />
    <glyph glyph-name="orn.003" horiz-adv-x="1000" 
d="M940 223q-116 -134 -212 -225q-43 24 -80 63l161 162v4q-50 -5 -116 -5h-633v102h633q49 0 116 -5v4l-161 162q37 39 80 63q102 -98 212 -225v-100z" />
    <glyph glyph-name="orn.004" horiz-adv-x="659" 
d="M607 532q-24 -43 -63 -80l-162 161h-4q4 -53 4 -116v-703h-105v703q0 63 4 116h-4l-162 -161q-35 33 -63 80q99 103 225 212h105q118 -103 225 -212z" />
    <glyph glyph-name="orn.005" horiz-adv-x="665" 
d="M605 224h-299q-42 0 -109 5v-4l138 -121q-39 -41 -73 -64q-101 86 -202 190v90q101 104 202 190q34 -23 73 -64l-138 -121v-4q67 5 109 5h299v-102z" />
    <glyph glyph-name="orn.006" horiz-adv-x="595" 
d="M535 202q-88 -103 -191 -202h-93q-103 99 -191 202q23 34 64 73l121 -138h4q-4 53 -4 109v299h105v-299q0 -56 -4 -109h4l121 138q45 -45 64 -73z" />
    <glyph glyph-name="orn.007" horiz-adv-x="665" 
d="M605 230q-101 -104 -202 -190q-34 23 -73 64l138 121v4q-67 -5 -109 -5h-299v102h299q42 0 109 -5v4l-138 121q39 41 73 64q101 -86 202 -190v-90z" />
    <glyph glyph-name="orn.008" horiz-adv-x="595" 
d="M535 342q-21 -32 -64 -72l-121 138h-4q4 -53 4 -109v-299h-105v299q0 56 4 109h-4l-121 -138q-39 36 -64 72q92 108 191 203h93q99 -95 191 -203z" />
    <glyph glyph-name="orn.009" horiz-adv-x="510" 
d="M458 318q-94 -106 -185 -187h-35q-111 103 -185 187v36q93 103 184 188h36q88 -82 185 -188v-36z" />
    <glyph glyph-name="orn.010" horiz-adv-x="513" 
d="M421 338q0 -89 -4 -153l-23 -23q-46 -2 -142 -2q-89 0 -134 2l-21 23q-5 68 -5 146q0 77 5 154l21 22q64 4 143 4q81 0 133 -4l23 -22q4 -59 4 -147z" />
    <glyph glyph-name="orn.011" horiz-adv-x="606" 
d="M553 314q-120 -133 -228 -231h-43q-138 127 -229 232v44q112 125 228 232h44q134 -126 228 -233v-44zM445 337l-142 144l-142 -144l142 -144z" />
    <glyph glyph-name="orn.012" horiz-adv-x="651" 
d="M559 337q0 -103 -5 -216l-32 -33q-88 -4 -203 -4q-106 0 -191 4l-31 33q-5 97 -5 206q0 112 5 220l31 32q100 6 202 6q107 0 192 -6l32 -32q5 -103 5 -210zM460 188v292h-269v-292h269z" />
    <glyph glyph-name="orn.013" horiz-adv-x="510" 
d="M458 254q-94 -106 -185 -187h-35q-111 103 -185 187v36q93 103 184 188h36q88 -82 185 -188v-36z" />
    <glyph glyph-name="orn.014" horiz-adv-x="504" 
d="M417 277q0 -74 -5 -152l-22 -24q-46 -2 -142 -2q-90 0 -134 2l-22 24q-4 55 -4 145q0 93 4 154l22 23q64 4 142 4q81 0 134 -4l22 -23q5 -73 5 -147z" />
    <glyph glyph-name="orn.015" horiz-adv-x="606" 
d="M553 250q-117 -132 -228 -232h-43q-138 127 -229 232v44q112 125 228 232h44q127 -117 228 -233v-43zM446 272l-143 145l-143 -145l143 -145z" />
    <glyph glyph-name="orn.016" horiz-adv-x="642" 
d="M555 277q0 -114 -6 -216l-31 -32q-84 -5 -204 -5q-111 0 -190 5l-31 32q-5 97 -5 206q0 111 5 221l31 31q100 6 202 6q106 0 192 -6l31 -31q6 -94 6 -211zM456 128v293h-270v-293h270z" />
    <glyph glyph-name="orn.017" horiz-adv-x="436" 
d="M174 -95h-88v865h88v-865zM350 -95h-87v865h87v-865z" />
    <glyph glyph-name="orn.018" horiz-adv-x="436" 
d="M174 -61h-88v667h88v-667zM350 -61h-87v667h87v-667z" />
    <glyph glyph-name="dotlessi.small" horiz-adv-x="303" 
d="M211 0h-119v545h119v-545z" />
    </font>
</defs>
</svg>
